<?xml version="1.0" encoding="UTF-8" standalone="no"?>
<!DOCTYPE svg PUBLIC "-//W3C//DTD SVG 1.1//EN"
 "http://www.w3.org/Graphics/SVG/1.1/DTD/svg11.dtd">
<!-- Generated by graphviz version 2.43.0 (0)
 -->
<!-- Title: snakemake_dag Pages: 1 -->
<svg width="609pt" height="519pt"
 viewBox="0.00 0.00 609.04 519.00" xmlns="http://www.w3.org/2000/svg" xmlns:xlink="http://www.w3.org/1999/xlink">
<g id="graph0" class="graph" transform="scale(1 1) rotate(0) translate(4 515)">
<title>snakemake_dag</title>
<polygon fill="white" stroke="transparent" points="-4,4 -4,-515 605.04,-515 605.04,4 -4,4"/>
<!-- 0 -->
<g id="node1" class="node">
<title>0</title>
<path fill="none" stroke="#56c9d8" stroke-width="2" d="M376,-36C376,-36 346,-36 346,-36 340,-36 334,-30 334,-24 334,-24 334,-12 334,-12 334,-6 340,0 346,0 346,0 376,0 376,0 382,0 388,-6 388,-12 388,-12 388,-24 388,-24 388,-30 382,-36 376,-36"/>
<text text-anchor="middle" x="361" y="-15.5" font-family="sans" font-size="10.00">all</text>
</g>
<!-- 1 -->
<g id="node2" class="node">
<title>1</title>
<path fill="none" stroke="#d85656" stroke-width="2" d="M299,-180C299,-180 255,-180 255,-180 249,-180 243,-174 243,-168 243,-168 243,-156 243,-156 243,-150 249,-144 255,-144 255,-144 299,-144 299,-144 305,-144 311,-150 311,-156 311,-156 311,-168 311,-168 311,-174 305,-180 299,-180"/>
<text text-anchor="middle" x="277" y="-159.5" font-family="sans" font-size="10.00">downscale</text>
</g>
<!-- 1&#45;&gt;0 -->
<g id="edge1" class="edge">
<title>1&#45;&gt;0</title>
<path fill="none" stroke="grey" stroke-width="2" d="M287.13,-143.87C301.7,-119.24 328.68,-73.64 345.69,-44.88"/>
<polygon fill="grey" stroke="grey" stroke-width="2" points="348.75,-46.58 350.83,-36.19 342.73,-43.01 348.75,-46.58"/>
</g>
<!-- 2 -->
<g id="node3" class="node">
<title>2</title>
<path fill="none" stroke="#70d856" stroke-width="2" d="M122,-257C122,-257 12,-257 12,-257 6,-257 0,-251 0,-245 0,-245 0,-228 0,-228 0,-222 6,-216 12,-216 12,-216 122,-216 122,-216 128,-216 134,-222 134,-228 134,-228 134,-245 134,-245 134,-251 128,-257 122,-257"/>
<text text-anchor="middle" x="67" y="-245" font-family="sans" font-size="10.00">get_anomalies</text>
<text text-anchor="middle" x="67" y="-234" font-family="sans" font-size="10.00">period_base: 1980&#45;2005</text>
<text text-anchor="middle" x="67" y="-223" font-family="sans" font-size="10.00">period_proj: 2071&#45;2100</text>
</g>
<!-- 2&#45;&gt;1 -->
<g id="edge3" class="edge">
<title>2&#45;&gt;1</title>
<path fill="none" stroke="grey" stroke-width="2" d="M123.55,-215.98C158.01,-204.08 201.39,-189.1 233.22,-178.11"/>
<polygon fill="grey" stroke="grey" stroke-width="2" points="234.4,-181.41 242.71,-174.84 232.11,-174.79 234.4,-181.41"/>
</g>
<!-- 3 -->
<g id="node4" class="node">
<title>3</title>
<path fill="none" stroke="#56d8a9" stroke-width="2" d="M256,-329C256,-329 170,-329 170,-329 164,-329 158,-323 158,-317 158,-317 158,-305 158,-305 158,-299 164,-293 170,-293 170,-293 256,-293 256,-293 262,-293 268,-299 268,-305 268,-305 268,-317 268,-317 268,-323 262,-329 256,-329"/>
<text text-anchor="middle" x="213" y="-314" font-family="sans" font-size="10.00">summarise_cordex</text>
<text text-anchor="middle" x="213" y="-303" font-family="sans" font-size="10.00">period: 1980&#45;2005</text>
</g>
<!-- 3&#45;&gt;2 -->
<g id="edge5" class="edge">
<title>3&#45;&gt;2</title>
<path fill="none" stroke="grey" stroke-width="2" d="M178.4,-292.82C159.68,-283.52 136.25,-271.89 115.71,-261.69"/>
<polygon fill="grey" stroke="grey" stroke-width="2" points="117.02,-258.43 106.51,-257.12 113.91,-264.7 117.02,-258.43"/>
</g>
<!-- 11 -->
<g id="node12" class="node">
<title>11</title>
<path fill="none" stroke="#70d856" stroke-width="2" d="M274,-257C274,-257 164,-257 164,-257 158,-257 152,-251 152,-245 152,-245 152,-228 152,-228 152,-222 158,-216 164,-216 164,-216 274,-216 274,-216 280,-216 286,-222 286,-228 286,-228 286,-245 286,-245 286,-251 280,-257 274,-257"/>
<text text-anchor="middle" x="219" y="-245" font-family="sans" font-size="10.00">get_anomalies</text>
<text text-anchor="middle" x="219" y="-234" font-family="sans" font-size="10.00">period_base: 1980&#45;2005</text>
<text text-anchor="middle" x="219" y="-223" font-family="sans" font-size="10.00">period_proj: 2006&#45;2019</text>
</g>
<!-- 3&#45;&gt;11 -->
<g id="edge18" class="edge">
<title>3&#45;&gt;11</title>
<path fill="none" stroke="grey" stroke-width="2" d="M214.42,-292.82C215.05,-285.2 215.81,-276 216.53,-267.32"/>
<polygon fill="grey" stroke="grey" stroke-width="2" points="220.04,-267.37 217.38,-257.12 213.06,-266.8 220.04,-267.37"/>
</g>
<!-- 4 -->
<g id="node5" class="node">
<title>4</title>
<path fill="none" stroke="#56d873" stroke-width="2" d="M336,-439C336,-439 218,-439 218,-439 212,-439 206,-433 206,-427 206,-427 206,-377 206,-377 206,-371 212,-365 218,-365 218,-365 336,-365 336,-365 342,-365 348,-371 348,-377 348,-377 348,-427 348,-427 348,-433 342,-439 336,-439"/>
<text text-anchor="middle" x="277" y="-427" font-family="sans" font-size="10.00">get_cordex</text>
<text text-anchor="middle" x="277" y="-416" font-family="sans" font-size="10.00">domain: AUS&#45;22</text>
<text text-anchor="middle" x="277" y="-405" font-family="sans" font-size="10.00">gcm: MOHC&#45;HadGEM2&#45;ES</text>
<text text-anchor="middle" x="277" y="-394" font-family="sans" font-size="10.00">rcm: CCLM5&#45;0&#45;15</text>
<text text-anchor="middle" x="277" y="-383" font-family="sans" font-size="10.00">rcp: rcp26</text>
<text text-anchor="middle" x="277" y="-372" font-family="sans" font-size="10.00">years: 1980&#45;2100</text>
</g>
<!-- 4&#45;&gt;3 -->
<g id="edge7" class="edge">
<title>4&#45;&gt;3</title>
<path fill="none" stroke="grey" stroke-width="2" d="M250.97,-364.8C244.39,-355.66 237.47,-346.03 231.36,-337.53"/>
<polygon fill="grey" stroke="grey" stroke-width="2" points="234.02,-335.24 225.34,-329.16 228.34,-339.32 234.02,-335.24"/>
</g>
<!-- 6 -->
<g id="node7" class="node">
<title>6</title>
<path fill="none" stroke="#56d8a9" stroke-width="2" d="M116,-329C116,-329 30,-329 30,-329 24,-329 18,-323 18,-317 18,-317 18,-305 18,-305 18,-299 24,-293 30,-293 30,-293 116,-293 116,-293 122,-293 128,-299 128,-305 128,-305 128,-317 128,-317 128,-323 122,-329 116,-329"/>
<text text-anchor="middle" x="73" y="-314" font-family="sans" font-size="10.00">summarise_cordex</text>
<text text-anchor="middle" x="73" y="-303" font-family="sans" font-size="10.00">period: 2071&#45;2100</text>
</g>
<!-- 4&#45;&gt;6 -->
<g id="edge9" class="edge">
<title>4&#45;&gt;6</title>
<path fill="none" stroke="grey" stroke-width="2" d="M205.94,-370C178,-357.81 146.64,-344.13 121.4,-333.12"/>
<polygon fill="grey" stroke="grey" stroke-width="2" points="122.61,-329.83 112.05,-329.03 119.81,-336.24 122.61,-329.83"/>
</g>
<!-- 12 -->
<g id="node13" class="node">
<title>12</title>
<path fill="none" stroke="#56d8a9" stroke-width="2" d="M384,-329C384,-329 298,-329 298,-329 292,-329 286,-323 286,-317 286,-317 286,-305 286,-305 286,-299 292,-293 298,-293 298,-293 384,-293 384,-293 390,-293 396,-299 396,-305 396,-305 396,-317 396,-317 396,-323 390,-329 384,-329"/>
<text text-anchor="middle" x="341" y="-314" font-family="sans" font-size="10.00">summarise_cordex</text>
<text text-anchor="middle" x="341" y="-303" font-family="sans" font-size="10.00">period: 2006&#45;2019</text>
</g>
<!-- 4&#45;&gt;12 -->
<g id="edge20" class="edge">
<title>4&#45;&gt;12</title>
<path fill="none" stroke="grey" stroke-width="2" d="M303.03,-364.8C309.61,-355.66 316.53,-346.03 322.64,-337.53"/>
<polygon fill="grey" stroke="grey" stroke-width="2" points="325.66,-339.32 328.66,-329.16 319.98,-335.24 325.66,-339.32"/>
</g>
<!-- 5 -->
<g id="node6" class="node">
<title>5</title>
<path fill="none" stroke="#d8cb56" stroke-width="2" d="M526.5,-511C526.5,-511 417.5,-511 417.5,-511 411.5,-511 405.5,-505 405.5,-499 405.5,-499 405.5,-487 405.5,-487 405.5,-481 411.5,-475 417.5,-475 417.5,-475 526.5,-475 526.5,-475 532.5,-475 538.5,-481 538.5,-487 538.5,-487 538.5,-499 538.5,-499 538.5,-505 532.5,-511 526.5,-511"/>
<text text-anchor="middle" x="472" y="-496" font-family="sans" font-size="10.00">get_country</text>
<text text-anchor="middle" x="472" y="-485" font-family="sans" font-size="10.00">country: New&#45;Caledonia</text>
</g>
<!-- 5&#45;&gt;4 -->
<g id="edge8" class="edge">
<title>5&#45;&gt;4</title>
<path fill="none" stroke="grey" stroke-width="2" d="M434.4,-474.84C412.52,-464.85 384.07,-451.87 357.39,-439.69"/>
<polygon fill="grey" stroke="grey" stroke-width="2" points="358.59,-436.39 348.04,-435.42 355.68,-442.76 358.59,-436.39"/>
</g>
<!-- 8 -->
<g id="node9" class="node">
<title>8</title>
<path fill="none" stroke="#5692d8" stroke-width="2" d="M494.5,-329C494.5,-329 449.5,-329 449.5,-329 443.5,-329 437.5,-323 437.5,-317 437.5,-317 437.5,-305 437.5,-305 437.5,-299 443.5,-293 449.5,-293 449.5,-293 494.5,-293 494.5,-293 500.5,-293 506.5,-299 506.5,-305 506.5,-305 506.5,-317 506.5,-317 506.5,-323 500.5,-329 494.5,-329"/>
<text text-anchor="middle" x="472" y="-308.5" font-family="sans" font-size="10.00">get_chelsa</text>
</g>
<!-- 5&#45;&gt;8 -->
<g id="edge11" class="edge">
<title>5&#45;&gt;8</title>
<path fill="none" stroke="grey" stroke-width="2" d="M472,-474.74C472,-443.43 472,-377.02 472,-339.43"/>
<polygon fill="grey" stroke="grey" stroke-width="2" points="475.5,-339.21 472,-329.21 468.5,-339.21 475.5,-339.21"/>
</g>
<!-- 9 -->
<g id="node10" class="node">
<title>9</title>
<path fill="none" stroke="#d88d56" stroke-width="2" d="M488.5,-108C488.5,-108 381.5,-108 381.5,-108 375.5,-108 369.5,-102 369.5,-96 369.5,-96 369.5,-84 369.5,-84 369.5,-78 375.5,-72 381.5,-72 381.5,-72 488.5,-72 488.5,-72 494.5,-72 500.5,-78 500.5,-84 500.5,-84 500.5,-96 500.5,-96 500.5,-102 494.5,-108 488.5,-108"/>
<text text-anchor="middle" x="435" y="-93" font-family="sans" font-size="10.00">evaluate</text>
<text text-anchor="middle" x="435" y="-82" font-family="sans" font-size="10.00">period_eval: 2006&#45;2019</text>
</g>
<!-- 5&#45;&gt;9 -->
<g id="edge15" class="edge">
<title>5&#45;&gt;9</title>
<path fill="none" stroke="grey" stroke-width="2" d="M495.29,-474.94C531.96,-445.92 599,-383.14 599,-312 599,-312 599,-312 599,-235.5 599,-193.97 607.15,-175.43 580,-144 562.21,-123.41 535.72,-110.81 510.24,-103.11"/>
<polygon fill="grey" stroke="grey" stroke-width="2" points="511.11,-99.72 500.54,-100.39 509.22,-106.46 511.11,-99.72"/>
</g>
<!-- 6&#45;&gt;2 -->
<g id="edge6" class="edge">
<title>6&#45;&gt;2</title>
<path fill="none" stroke="grey" stroke-width="2" d="M71.58,-292.82C70.95,-285.2 70.19,-276 69.47,-267.32"/>
<polygon fill="grey" stroke="grey" stroke-width="2" points="72.94,-266.8 68.62,-257.12 65.96,-267.37 72.94,-266.8"/>
</g>
<!-- 7 -->
<g id="node8" class="node">
<title>7</title>
<path fill="none" stroke="#afd856" stroke-width="2" d="M400,-254.5C400,-254.5 316,-254.5 316,-254.5 310,-254.5 304,-248.5 304,-242.5 304,-242.5 304,-230.5 304,-230.5 304,-224.5 310,-218.5 316,-218.5 316,-218.5 400,-218.5 400,-218.5 406,-218.5 412,-224.5 412,-230.5 412,-230.5 412,-242.5 412,-242.5 412,-248.5 406,-254.5 400,-254.5"/>
<text text-anchor="middle" x="358" y="-239.5" font-family="sans" font-size="10.00">summarise_chelsa</text>
<text text-anchor="middle" x="358" y="-228.5" font-family="sans" font-size="10.00">period: 1980&#45;2005</text>
</g>
<!-- 7&#45;&gt;1 -->
<g id="edge4" class="edge">
<title>7&#45;&gt;1</title>
<path fill="none" stroke="grey" stroke-width="2" d="M338.8,-218.32C328.31,-208.93 315.16,-197.15 303.68,-186.88"/>
<polygon fill="grey" stroke="grey" stroke-width="2" points="305.84,-184.12 296.06,-180.06 301.18,-189.34 305.84,-184.12"/>
</g>
<!-- 10 -->
<g id="node11" class="node">
<title>10</title>
<path fill="none" stroke="#d85656" stroke-width="2" d="M385,-180C385,-180 341,-180 341,-180 335,-180 329,-174 329,-168 329,-168 329,-156 329,-156 329,-150 335,-144 341,-144 341,-144 385,-144 385,-144 391,-144 397,-150 397,-156 397,-156 397,-168 397,-168 397,-174 391,-180 385,-180"/>
<text text-anchor="middle" x="363" y="-159.5" font-family="sans" font-size="10.00">downscale</text>
</g>
<!-- 7&#45;&gt;10 -->
<g id="edge17" class="edge">
<title>7&#45;&gt;10</title>
<path fill="none" stroke="grey" stroke-width="2" d="M359.18,-218.32C359.76,-209.92 360.47,-199.62 361.13,-190.19"/>
<polygon fill="grey" stroke="grey" stroke-width="2" points="364.63,-190.28 361.82,-180.06 357.64,-189.79 364.63,-190.28"/>
</g>
<!-- 8&#45;&gt;7 -->
<g id="edge10" class="edge">
<title>8&#45;&gt;7</title>
<path fill="none" stroke="grey" stroke-width="2" d="M444.98,-292.82C429.65,-283.07 410.27,-270.74 393.7,-260.2"/>
<polygon fill="grey" stroke="grey" stroke-width="2" points="395.14,-256.97 384.82,-254.56 391.38,-262.88 395.14,-256.97"/>
</g>
<!-- 13 -->
<g id="node14" class="node">
<title>13</title>
<path fill="none" stroke="#afd856" stroke-width="2" d="M559,-180C559,-180 475,-180 475,-180 469,-180 463,-174 463,-168 463,-168 463,-156 463,-156 463,-150 469,-144 475,-144 475,-144 559,-144 559,-144 565,-144 571,-150 571,-156 571,-156 571,-168 571,-168 571,-174 565,-180 559,-180"/>
<text text-anchor="middle" x="517" y="-165" font-family="sans" font-size="10.00">summarise_chelsa</text>
<text text-anchor="middle" x="517" y="-154" font-family="sans" font-size="10.00">period: 2006&#45;2019</text>
</g>
<!-- 8&#45;&gt;13 -->
<g id="edge21" class="edge">
<title>8&#45;&gt;13</title>
<path fill="none" stroke="grey" stroke-width="2" d="M477.25,-292.85C485.01,-267.51 499.6,-219.85 508.78,-189.85"/>
<polygon fill="grey" stroke="grey" stroke-width="2" points="512.2,-190.63 511.78,-180.04 505.51,-188.58 512.2,-190.63"/>
</g>
<!-- 9&#45;&gt;0 -->
<g id="edge2" class="edge">
<title>9&#45;&gt;0</title>
<path fill="none" stroke="grey" stroke-width="2" d="M416.71,-71.7C407.57,-63.05 396.36,-52.45 386.4,-43.03"/>
<polygon fill="grey" stroke="grey" stroke-width="2" points="388.75,-40.43 379.08,-36.1 383.94,-45.52 388.75,-40.43"/>
</g>
<!-- 10&#45;&gt;9 -->
<g id="edge12" class="edge">
<title>10&#45;&gt;9</title>
<path fill="none" stroke="grey" stroke-width="2" d="M380.8,-143.7C389.6,-135.14 400.38,-124.66 410,-115.3"/>
<polygon fill="grey" stroke="grey" stroke-width="2" points="412.68,-117.58 417.41,-108.1 407.8,-112.57 412.68,-117.58"/>
</g>
<!-- 11&#45;&gt;10 -->
<g id="edge16" class="edge">
<title>11&#45;&gt;10</title>
<path fill="none" stroke="grey" stroke-width="2" d="M257.97,-215.88C277.1,-206.25 300.19,-194.62 319.85,-184.72"/>
<polygon fill="grey" stroke="grey" stroke-width="2" points="321.55,-187.79 328.9,-180.17 318.4,-181.54 321.55,-187.79"/>
</g>
<!-- 12&#45;&gt;9 -->
<g id="edge13" class="edge">
<title>12&#45;&gt;9</title>
<path fill="none" stroke="grey" stroke-width="2" d="M381.1,-292.86C396.16,-284.33 411.83,-272.48 421,-257 446.48,-214 443.94,-153.42 439.6,-118.58"/>
<polygon fill="grey" stroke="grey" stroke-width="2" points="443,-117.65 438.16,-108.23 436.07,-118.62 443,-117.65"/>
</g>
<!-- 12&#45;&gt;11 -->
<g id="edge19" class="edge">
<title>12&#45;&gt;11</title>
<path fill="none" stroke="grey" stroke-width="2" d="M312.09,-292.82C296.73,-283.69 277.57,-272.31 260.64,-262.24"/>
<polygon fill="grey" stroke="grey" stroke-width="2" points="262.4,-259.22 252.01,-257.12 258.82,-265.24 262.4,-259.22"/>
</g>
<!-- 13&#45;&gt;9 -->
<g id="edge14" class="edge">
<title>13&#45;&gt;9</title>
<path fill="none" stroke="grey" stroke-width="2" d="M496.73,-143.7C486.5,-134.97 473.94,-124.24 462.82,-114.75"/>
<polygon fill="grey" stroke="grey" stroke-width="2" points="464.91,-111.94 455.04,-108.1 460.37,-117.26 464.91,-111.94"/>
</g>
</g>
</svg>
