<?xml version="1.0" encoding="UTF-8" standalone="no"?>
<!DOCTYPE svg PUBLIC "-//W3C//DTD SVG 1.1//EN"
 "http://www.w3.org/Graphics/SVG/1.1/DTD/svg11.dtd">
<!-- Generated by graphviz version 2.43.0 (0)
 -->
<!-- Title: snakemake_dag Pages: 1 -->
<svg width="747pt" height="507pt"
 viewBox="0.00 0.00 747.07 507.00" xmlns="http://www.w3.org/2000/svg" xmlns:xlink="http://www.w3.org/1999/xlink">
<g id="graph0" class="graph" transform="scale(1 1) rotate(0) translate(4 503)">
<title>snakemake_dag</title>
<polygon fill="white" stroke="transparent" points="-4,4 -4,-503 743.07,-503 743.07,4 -4,4"/>
<!-- 0 -->
<g id="node1" class="node">
<title>0</title>
<path fill="none" stroke="#d6d856" stroke-width="2" stroke-dasharray="5,2" d="M290.07,-36C290.07,-36 260.07,-36 260.07,-36 254.07,-36 248.07,-30 248.07,-24 248.07,-24 248.07,-12 248.07,-12 248.07,-6 254.07,0 260.07,0 260.07,0 290.07,0 290.07,0 296.07,0 302.07,-6 302.07,-12 302.07,-12 302.07,-24 302.07,-24 302.07,-30 296.07,-36 290.07,-36"/>
<text text-anchor="middle" x="275.07" y="-15.5" font-family="sans" font-size="10.00">all</text>
</g>
<!-- 1 -->
<g id="node2" class="node">
<title>1</title>
<path fill="none" stroke="#97d856" stroke-width="2" stroke-dasharray="5,2" d="M594.07,-113C594.07,-113 484.07,-113 484.07,-113 478.07,-113 472.07,-107 472.07,-101 472.07,-101 472.07,-84 472.07,-84 472.07,-78 478.07,-72 484.07,-72 484.07,-72 594.07,-72 594.07,-72 600.07,-72 606.07,-78 606.07,-84 606.07,-84 606.07,-101 606.07,-101 606.07,-107 600.07,-113 594.07,-113"/>
<text text-anchor="middle" x="539.07" y="-101" font-family="sans" font-size="10.00">downscale_bc</text>
<text text-anchor="middle" x="539.07" y="-90" font-family="sans" font-size="10.00">period_base: 1980&#45;2005</text>
<text text-anchor="middle" x="539.07" y="-79" font-family="sans" font-size="10.00">period_proj: 2071&#45;2100</text>
</g>
<!-- 1&#45;&gt;0 -->
<g id="edge1" class="edge">
<title>1&#45;&gt;0</title>
<path fill="none" stroke="grey" stroke-width="2" d="M471.77,-73.02C420.97,-59.06 353.17,-40.45 311.89,-29.11"/>
<polygon fill="grey" stroke="grey" stroke-width="2" points="312.82,-25.74 302.25,-26.46 310.96,-32.49 312.82,-25.74"/>
</g>
<!-- 2 -->
<g id="node3" class="node">
<title>2</title>
<path fill="none" stroke="#56d8d8" stroke-width="2" stroke-dasharray="5,2" d="M518.07,-212C518.07,-212 384.07,-212 384.07,-212 378.07,-212 372.07,-206 372.07,-200 372.07,-200 372.07,-161 372.07,-161 372.07,-155 378.07,-149 384.07,-149 384.07,-149 518.07,-149 518.07,-149 524.07,-149 530.07,-155 530.07,-161 530.07,-161 530.07,-200 530.07,-200 530.07,-206 524.07,-212 518.07,-212"/>
<text text-anchor="middle" x="451.07" y="-200" font-family="sans" font-size="10.00">aggregate_proj</text>
<text text-anchor="middle" x="451.07" y="-189" font-family="sans" font-size="10.00">aggregation: monthly&#45;means</text>
<text text-anchor="middle" x="451.07" y="-178" font-family="sans" font-size="10.00">area: New&#45;Caledonia</text>
<text text-anchor="middle" x="451.07" y="-167" font-family="sans" font-size="10.00">period: 2071&#45;2100</text>
<text text-anchor="middle" x="451.07" y="-156" font-family="sans" font-size="10.00">project: CORDEX</text>
</g>
<!-- 2&#45;&gt;1 -->
<g id="edge3" class="edge">
<title>2&#45;&gt;1</title>
<path fill="none" stroke="grey" stroke-width="2" d="M482.35,-148.94C491.94,-139.57 502.41,-129.33 511.72,-120.24"/>
<polygon fill="grey" stroke="grey" stroke-width="2" points="514.19,-122.72 518.89,-113.23 509.29,-117.71 514.19,-122.72"/>
</g>
<!-- 3 -->
<g id="node4" class="node">
<title>3</title>
<path fill="none" stroke="#d89556" stroke-width="2" stroke-dasharray="5,2" d="M403.57,-355C403.57,-355 292.57,-355 292.57,-355 286.57,-355 280.57,-349 280.57,-343 280.57,-343 280.57,-260 280.57,-260 280.57,-254 286.57,-248 292.57,-248 292.57,-248 403.57,-248 403.57,-248 409.57,-248 415.57,-254 415.57,-260 415.57,-260 415.57,-343 415.57,-343 415.57,-349 409.57,-355 403.57,-355"/>
<text text-anchor="middle" x="348.07" y="-343" font-family="sans" font-size="10.00">get_cordex</text>
<text text-anchor="middle" x="348.07" y="-332" font-family="sans" font-size="10.00">base: chelsa2</text>
<text text-anchor="middle" x="348.07" y="-321" font-family="sans" font-size="10.00">domain: AUS&#45;22</text>
<text text-anchor="middle" x="348.07" y="-310" font-family="sans" font-size="10.00">downscaling: v0</text>
<text text-anchor="middle" x="348.07" y="-299" font-family="sans" font-size="10.00">ensemble: r1i1p1</text>
<text text-anchor="middle" x="348.07" y="-288" font-family="sans" font-size="10.00">experiment: rcp26</text>
<text text-anchor="middle" x="348.07" y="-277" font-family="sans" font-size="10.00">institute: ICTP</text>
<text text-anchor="middle" x="348.07" y="-266" font-family="sans" font-size="10.00">model: NCC&#45;NorESM1&#45;M</text>
<text text-anchor="middle" x="348.07" y="-255" font-family="sans" font-size="10.00">rcm: RegCM4&#45;7</text>
</g>
<!-- 3&#45;&gt;2 -->
<g id="edge6" class="edge">
<title>3&#45;&gt;2</title>
<path fill="none" stroke="grey" stroke-width="2" d="M393.55,-247.96C401.72,-238.52 410.1,-228.84 417.84,-219.9"/>
<polygon fill="grey" stroke="grey" stroke-width="2" points="420.56,-222.1 424.46,-212.25 415.27,-217.52 420.56,-222.1"/>
</g>
<!-- 7 -->
<g id="node8" class="node">
<title>7</title>
<path fill="none" stroke="#56d8d8" stroke-width="2" stroke-dasharray="5,2" d="M694.07,-212C694.07,-212 560.07,-212 560.07,-212 554.07,-212 548.07,-206 548.07,-200 548.07,-200 548.07,-161 548.07,-161 548.07,-155 554.07,-149 560.07,-149 560.07,-149 694.07,-149 694.07,-149 700.07,-149 706.07,-155 706.07,-161 706.07,-161 706.07,-200 706.07,-200 706.07,-206 700.07,-212 694.07,-212"/>
<text text-anchor="middle" x="627.07" y="-200" font-family="sans" font-size="10.00">aggregate_proj</text>
<text text-anchor="middle" x="627.07" y="-189" font-family="sans" font-size="10.00">aggregation: monthly&#45;means</text>
<text text-anchor="middle" x="627.07" y="-178" font-family="sans" font-size="10.00">area: New&#45;Caledonia</text>
<text text-anchor="middle" x="627.07" y="-167" font-family="sans" font-size="10.00">period: 1980&#45;2005</text>
<text text-anchor="middle" x="627.07" y="-156" font-family="sans" font-size="10.00">project: CORDEX</text>
</g>
<!-- 3&#45;&gt;7 -->
<g id="edge10" class="edge">
<title>3&#45;&gt;7</title>
<path fill="none" stroke="grey" stroke-width="2" d="M415.61,-271.69C454.89,-254.94 504.66,-233.71 546.04,-216.06"/>
<polygon fill="grey" stroke="grey" stroke-width="2" points="547.46,-219.26 555.28,-212.12 544.71,-212.83 547.46,-219.26"/>
</g>
<!-- 10 -->
<g id="node11" class="node">
<title>10</title>
<path fill="none" stroke="#56d8d8" stroke-width="2" stroke-dasharray="5,2" d="M342.07,-212C342.07,-212 208.07,-212 208.07,-212 202.07,-212 196.07,-206 196.07,-200 196.07,-200 196.07,-161 196.07,-161 196.07,-155 202.07,-149 208.07,-149 208.07,-149 342.07,-149 342.07,-149 348.07,-149 354.07,-155 354.07,-161 354.07,-161 354.07,-200 354.07,-200 354.07,-206 348.07,-212 342.07,-212"/>
<text text-anchor="middle" x="275.07" y="-200" font-family="sans" font-size="10.00">aggregate_proj</text>
<text text-anchor="middle" x="275.07" y="-189" font-family="sans" font-size="10.00">aggregation: monthly&#45;means</text>
<text text-anchor="middle" x="275.07" y="-178" font-family="sans" font-size="10.00">area: Vanuatu</text>
<text text-anchor="middle" x="275.07" y="-167" font-family="sans" font-size="10.00">period: 2071&#45;2100</text>
<text text-anchor="middle" x="275.07" y="-156" font-family="sans" font-size="10.00">project: CORDEX</text>
</g>
<!-- 3&#45;&gt;10 -->
<g id="edge15" class="edge">
<title>3&#45;&gt;10</title>
<path fill="none" stroke="grey" stroke-width="2" d="M315.84,-247.96C310.29,-238.9 304.6,-229.63 299.3,-220.99"/>
<polygon fill="grey" stroke="grey" stroke-width="2" points="302.15,-218.95 293.94,-212.25 296.18,-222.61 302.15,-218.95"/>
</g>
<!-- 11 -->
<g id="node12" class="node">
<title>11</title>
<path fill="none" stroke="#56d8d8" stroke-width="2" stroke-dasharray="5,2" d="M166.07,-212C166.07,-212 32.07,-212 32.07,-212 26.07,-212 20.07,-206 20.07,-200 20.07,-200 20.07,-161 20.07,-161 20.07,-155 26.07,-149 32.07,-149 32.07,-149 166.07,-149 166.07,-149 172.07,-149 178.07,-155 178.07,-161 178.07,-161 178.07,-200 178.07,-200 178.07,-206 172.07,-212 166.07,-212"/>
<text text-anchor="middle" x="99.07" y="-200" font-family="sans" font-size="10.00">aggregate_proj</text>
<text text-anchor="middle" x="99.07" y="-189" font-family="sans" font-size="10.00">aggregation: monthly&#45;means</text>
<text text-anchor="middle" x="99.07" y="-178" font-family="sans" font-size="10.00">area: Vanuatu</text>
<text text-anchor="middle" x="99.07" y="-167" font-family="sans" font-size="10.00">period: 1980&#45;2005</text>
<text text-anchor="middle" x="99.07" y="-156" font-family="sans" font-size="10.00">project: CORDEX</text>
</g>
<!-- 3&#45;&gt;11 -->
<g id="edge16" class="edge">
<title>3&#45;&gt;11</title>
<path fill="none" stroke="grey" stroke-width="2" d="M280.36,-268.14C246.93,-252.16 206.54,-232.86 172.38,-216.53"/>
<polygon fill="grey" stroke="grey" stroke-width="2" points="173.45,-213.16 162.92,-212.01 170.43,-219.48 173.45,-213.16"/>
</g>
<!-- 4 -->
<g id="node5" class="node">
<title>4</title>
<path fill="none" stroke="#56d89a" stroke-width="2" stroke-dasharray="5,2" d="M373.57,-427C373.57,-427 322.57,-427 322.57,-427 316.57,-427 310.57,-421 310.57,-415 310.57,-415 310.57,-403 310.57,-403 310.57,-397 316.57,-391 322.57,-391 322.57,-391 373.57,-391 373.57,-391 379.57,-391 385.57,-397 385.57,-403 385.57,-403 385.57,-415 385.57,-415 385.57,-421 379.57,-427 373.57,-427"/>
<text text-anchor="middle" x="348.07" y="-406.5" font-family="sans" font-size="10.00">get_chelsa2</text>
</g>
<!-- 4&#45;&gt;3 -->
<g id="edge7" class="edge">
<title>4&#45;&gt;3</title>
<path fill="none" stroke="grey" stroke-width="2" d="M348.07,-390.58C348.07,-383.36 348.07,-374.5 348.07,-365.22"/>
<polygon fill="grey" stroke="grey" stroke-width="2" points="351.57,-365.04 348.07,-355.04 344.57,-365.04 351.57,-365.04"/>
</g>
<!-- 8 -->
<g id="node9" class="node">
<title>8</title>
<path fill="none" stroke="#569ad8" stroke-width="2" stroke-dasharray="5,2" d="M727.07,-333C727.07,-333 593.07,-333 593.07,-333 587.07,-333 581.07,-327 581.07,-321 581.07,-321 581.07,-282 581.07,-282 581.07,-276 587.07,-270 593.07,-270 593.07,-270 727.07,-270 727.07,-270 733.07,-270 739.07,-276 739.07,-282 739.07,-282 739.07,-321 739.07,-321 739.07,-327 733.07,-333 727.07,-333"/>
<text text-anchor="middle" x="660.07" y="-321" font-family="sans" font-size="10.00">aggregate_base</text>
<text text-anchor="middle" x="660.07" y="-310" font-family="sans" font-size="10.00">aggregation: monthly&#45;means</text>
<text text-anchor="middle" x="660.07" y="-299" font-family="sans" font-size="10.00">area: New&#45;Caledonia</text>
<text text-anchor="middle" x="660.07" y="-288" font-family="sans" font-size="10.00">base: chelsa2</text>
<text text-anchor="middle" x="660.07" y="-277" font-family="sans" font-size="10.00">period: 1980&#45;2005</text>
</g>
<!-- 4&#45;&gt;8 -->
<g id="edge11" class="edge">
<title>4&#45;&gt;8</title>
<path fill="none" stroke="grey" stroke-width="2" d="M385.71,-395.27C431.4,-379.82 509.96,-353.26 571.33,-332.51"/>
<polygon fill="grey" stroke="grey" stroke-width="2" points="572.68,-335.75 581.03,-329.23 570.44,-329.12 572.68,-335.75"/>
</g>
<!-- 12 -->
<g id="node13" class="node">
<title>12</title>
<path fill="none" stroke="#569ad8" stroke-width="2" stroke-dasharray="5,2" d="M191.07,-333C191.07,-333 57.07,-333 57.07,-333 51.07,-333 45.07,-327 45.07,-321 45.07,-321 45.07,-282 45.07,-282 45.07,-276 51.07,-270 57.07,-270 57.07,-270 191.07,-270 191.07,-270 197.07,-270 203.07,-276 203.07,-282 203.07,-282 203.07,-321 203.07,-321 203.07,-327 197.07,-333 191.07,-333"/>
<text text-anchor="middle" x="124.07" y="-321" font-family="sans" font-size="10.00">aggregate_base</text>
<text text-anchor="middle" x="124.07" y="-310" font-family="sans" font-size="10.00">aggregation: monthly&#45;means</text>
<text text-anchor="middle" x="124.07" y="-299" font-family="sans" font-size="10.00">area: Vanuatu</text>
<text text-anchor="middle" x="124.07" y="-288" font-family="sans" font-size="10.00">base: chelsa2</text>
<text text-anchor="middle" x="124.07" y="-277" font-family="sans" font-size="10.00">period: 1980&#45;2005</text>
</g>
<!-- 4&#45;&gt;12 -->
<g id="edge17" class="edge">
<title>4&#45;&gt;12</title>
<path fill="none" stroke="grey" stroke-width="2" d="M311.59,-390.81C281.07,-376.44 236.56,-355.48 198.56,-337.58"/>
<polygon fill="grey" stroke="grey" stroke-width="2" points="199.59,-334.2 189.05,-333.1 196.61,-340.53 199.59,-334.2"/>
</g>
<!-- 5 -->
<g id="node6" class="node">
<title>5</title>
<path fill="none" stroke="#d85656" stroke-width="2" stroke-dasharray="5,2" d="M335.57,-499C335.57,-499 240.57,-499 240.57,-499 234.57,-499 228.57,-493 228.57,-487 228.57,-487 228.57,-475 228.57,-475 228.57,-469 234.57,-463 240.57,-463 240.57,-463 335.57,-463 335.57,-463 341.57,-463 347.57,-469 347.57,-475 347.57,-475 347.57,-487 347.57,-487 347.57,-493 341.57,-499 335.57,-499"/>
<text text-anchor="middle" x="288.07" y="-484" font-family="sans" font-size="10.00">get_area</text>
<text text-anchor="middle" x="288.07" y="-473" font-family="sans" font-size="10.00">area: New&#45;Caledonia</text>
</g>
<!-- 5&#45;&gt;4 -->
<g id="edge8" class="edge">
<title>5&#45;&gt;4</title>
<path fill="none" stroke="grey" stroke-width="2" d="M302.91,-462.7C310.1,-454.3 318.87,-444.07 326.76,-434.86"/>
<polygon fill="grey" stroke="grey" stroke-width="2" points="329.56,-436.97 333.41,-427.1 324.25,-432.42 329.56,-436.97"/>
</g>
<!-- 6 -->
<g id="node7" class="node">
<title>6</title>
<path fill="none" stroke="#d85656" stroke-width="2" stroke-dasharray="5,2" d="M438.07,-499C438.07,-499 378.07,-499 378.07,-499 372.07,-499 366.07,-493 366.07,-487 366.07,-487 366.07,-475 366.07,-475 366.07,-469 372.07,-463 378.07,-463 378.07,-463 438.07,-463 438.07,-463 444.07,-463 450.07,-469 450.07,-475 450.07,-475 450.07,-487 450.07,-487 450.07,-493 444.07,-499 438.07,-499"/>
<text text-anchor="middle" x="408.07" y="-484" font-family="sans" font-size="10.00">get_area</text>
<text text-anchor="middle" x="408.07" y="-473" font-family="sans" font-size="10.00">area: Vanuatu</text>
</g>
<!-- 6&#45;&gt;4 -->
<g id="edge9" class="edge">
<title>6&#45;&gt;4</title>
<path fill="none" stroke="grey" stroke-width="2" d="M393.24,-462.7C386.05,-454.3 377.28,-444.07 369.38,-434.86"/>
<polygon fill="grey" stroke="grey" stroke-width="2" points="371.9,-432.42 362.74,-427.1 366.59,-436.97 371.9,-432.42"/>
</g>
<!-- 7&#45;&gt;1 -->
<g id="edge4" class="edge">
<title>7&#45;&gt;1</title>
<path fill="none" stroke="grey" stroke-width="2" d="M595.8,-148.94C586.21,-139.57 575.74,-129.33 566.43,-120.24"/>
<polygon fill="grey" stroke="grey" stroke-width="2" points="568.86,-117.71 559.26,-113.23 563.96,-122.72 568.86,-117.71"/>
</g>
<!-- 8&#45;&gt;1 -->
<g id="edge5" class="edge">
<title>8&#45;&gt;1</title>
<path fill="none" stroke="grey" stroke-width="2" d="M687.02,-269.91C712.19,-237.46 742.13,-185.9 715.07,-149 692.39,-118.06 652.42,-103.92 616.3,-97.64"/>
<polygon fill="grey" stroke="grey" stroke-width="2" points="616.65,-94.15 606.23,-96.06 615.57,-101.07 616.65,-94.15"/>
</g>
<!-- 9 -->
<g id="node10" class="node">
<title>9</title>
<path fill="none" stroke="#97d856" stroke-width="2" stroke-dasharray="5,2" d="M242.07,-113C242.07,-113 132.07,-113 132.07,-113 126.07,-113 120.07,-107 120.07,-101 120.07,-101 120.07,-84 120.07,-84 120.07,-78 126.07,-72 132.07,-72 132.07,-72 242.07,-72 242.07,-72 248.07,-72 254.07,-78 254.07,-84 254.07,-84 254.07,-101 254.07,-101 254.07,-107 248.07,-113 242.07,-113"/>
<text text-anchor="middle" x="187.07" y="-101" font-family="sans" font-size="10.00">downscale_bc</text>
<text text-anchor="middle" x="187.07" y="-90" font-family="sans" font-size="10.00">period_base: 1980&#45;2005</text>
<text text-anchor="middle" x="187.07" y="-79" font-family="sans" font-size="10.00">period_proj: 2071&#45;2100</text>
</g>
<!-- 9&#45;&gt;0 -->
<g id="edge2" class="edge">
<title>9&#45;&gt;0</title>
<path fill="none" stroke="grey" stroke-width="2" d="M211.12,-71.69C222.01,-62.72 234.98,-52.04 246.37,-42.65"/>
<polygon fill="grey" stroke="grey" stroke-width="2" points="248.85,-45.14 254.35,-36.08 244.4,-39.74 248.85,-45.14"/>
</g>
<!-- 10&#45;&gt;9 -->
<g id="edge12" class="edge">
<title>10&#45;&gt;9</title>
<path fill="none" stroke="grey" stroke-width="2" d="M243.8,-148.94C234.21,-139.57 223.74,-129.33 214.43,-120.24"/>
<polygon fill="grey" stroke="grey" stroke-width="2" points="216.86,-117.71 207.26,-113.23 211.96,-122.72 216.86,-117.71"/>
</g>
<!-- 11&#45;&gt;9 -->
<g id="edge13" class="edge">
<title>11&#45;&gt;9</title>
<path fill="none" stroke="grey" stroke-width="2" d="M130.35,-148.94C139.94,-139.57 150.41,-129.33 159.72,-120.24"/>
<polygon fill="grey" stroke="grey" stroke-width="2" points="162.19,-122.72 166.89,-113.23 157.29,-117.71 162.19,-122.72"/>
</g>
<!-- 12&#45;&gt;9 -->
<g id="edge14" class="edge">
<title>12&#45;&gt;9</title>
<path fill="none" stroke="grey" stroke-width="2" d="M65.66,-269.82C44.4,-255.36 22.75,-235.97 11.07,-212 -1.19,-186.83 -5.48,-171.58 11.07,-149 33.76,-118.06 73.73,-103.92 109.85,-97.64"/>
<polygon fill="grey" stroke="grey" stroke-width="2" points="110.58,-101.07 119.92,-96.06 109.5,-94.15 110.58,-101.07"/>
</g>
</g>
</svg>
