<?xml version="1.0" encoding="UTF-8" standalone="no"?>
<!DOCTYPE svg PUBLIC "-//W3C//DTD SVG 1.1//EN"
 "http://www.w3.org/Graphics/SVG/1.1/DTD/svg11.dtd">
<!-- Generated by graphviz version 2.43.0 (0)
 -->
<!-- Title: snakemake_dag Pages: 1 -->
<svg width="1024pt" height="667pt"
 viewBox="0.00 0.00 1023.50 667.00" xmlns="http://www.w3.org/2000/svg" xmlns:xlink="http://www.w3.org/1999/xlink">
<g id="graph0" class="graph" transform="scale(1 1) rotate(0) translate(4 663)">
<title>snakemake_dag</title>
<polygon fill="white" stroke="transparent" points="-4,4 -4,-663 1019.5,-663 1019.5,4 -4,4"/>
<!-- 0 -->
<g id="node1" class="node">
<title>0</title>
<path fill="none" stroke="#d8bc56" stroke-width="2" d="M594,-36C594,-36 564,-36 564,-36 558,-36 552,-30 552,-24 552,-24 552,-12 552,-12 552,-6 558,0 564,0 564,0 594,0 594,0 600,0 606,-6 606,-12 606,-12 606,-24 606,-24 606,-30 600,-36 594,-36"/>
<text text-anchor="middle" x="579" y="-15.5" font-family="sans" font-size="10.00">all</text>
</g>
<!-- 1 -->
<g id="node2" class="node">
<title>1</title>
<path fill="none" stroke="#567bd8" stroke-width="2" d="M378,-273C378,-273 268,-273 268,-273 262,-273 256,-267 256,-261 256,-261 256,-244 256,-244 256,-238 262,-232 268,-232 268,-232 378,-232 378,-232 384,-232 390,-238 390,-244 390,-244 390,-261 390,-261 390,-267 384,-273 378,-273"/>
<text text-anchor="middle" x="323" y="-261" font-family="sans" font-size="10.00">downscale_bc</text>
<text text-anchor="middle" x="323" y="-250" font-family="sans" font-size="10.00">period_base: 1980&#45;2005</text>
<text text-anchor="middle" x="323" y="-239" font-family="sans" font-size="10.00">period_proj: 2071&#45;2100</text>
</g>
<!-- 1&#45;&gt;0 -->
<g id="edge1" class="edge">
<title>1&#45;&gt;0</title>
<path fill="none" stroke="grey" stroke-width="2" d="M340.33,-231.74C360.07,-209.6 393.66,-173.01 425,-144 465.71,-106.32 516.17,-66.56 547.99,-42.26"/>
<polygon fill="grey" stroke="grey" stroke-width="2" points="550.21,-44.97 556.05,-36.13 545.97,-39.4 550.21,-44.97"/>
</g>
<!-- 2 -->
<g id="node3" class="node">
<title>2</title>
<path fill="none" stroke="#569ad8" stroke-width="2" d="M174,-372C174,-372 40,-372 40,-372 34,-372 28,-366 28,-360 28,-360 28,-321 28,-321 28,-315 34,-309 40,-309 40,-309 174,-309 174,-309 180,-309 186,-315 186,-321 186,-321 186,-360 186,-360 186,-366 180,-372 174,-372"/>
<text text-anchor="middle" x="107" y="-360" font-family="sans" font-size="10.00">aggregate_proj</text>
<text text-anchor="middle" x="107" y="-349" font-family="sans" font-size="10.00">aggregation: monthly&#45;means</text>
<text text-anchor="middle" x="107" y="-338" font-family="sans" font-size="10.00">area: New&#45;Caledonia</text>
<text text-anchor="middle" x="107" y="-327" font-family="sans" font-size="10.00">period: 2071&#45;2100</text>
<text text-anchor="middle" x="107" y="-316" font-family="sans" font-size="10.00">project: CORDEX</text>
</g>
<!-- 2&#45;&gt;1 -->
<g id="edge4" class="edge">
<title>2&#45;&gt;1</title>
<path fill="none" stroke="grey" stroke-width="2" d="M183.76,-308.94C210.32,-298.36 239.64,-286.69 264.49,-276.8"/>
<polygon fill="grey" stroke="grey" stroke-width="2" points="265.79,-280.05 273.78,-273.1 263.2,-273.54 265.79,-280.05"/>
</g>
<!-- 3 -->
<g id="node4" class="node">
<title>3</title>
<path fill="none" stroke="#56d86b" stroke-width="2" d="M378.5,-515C378.5,-515 267.5,-515 267.5,-515 261.5,-515 255.5,-509 255.5,-503 255.5,-503 255.5,-420 255.5,-420 255.5,-414 261.5,-408 267.5,-408 267.5,-408 378.5,-408 378.5,-408 384.5,-408 390.5,-414 390.5,-420 390.5,-420 390.5,-503 390.5,-503 390.5,-509 384.5,-515 378.5,-515"/>
<text text-anchor="middle" x="323" y="-503" font-family="sans" font-size="10.00">get_cordex</text>
<text text-anchor="middle" x="323" y="-492" font-family="sans" font-size="10.00">base: chelsa2</text>
<text text-anchor="middle" x="323" y="-481" font-family="sans" font-size="10.00">domain: AUS&#45;22</text>
<text text-anchor="middle" x="323" y="-470" font-family="sans" font-size="10.00">downscaling: v0</text>
<text text-anchor="middle" x="323" y="-459" font-family="sans" font-size="10.00">ensemble: r1i1p1</text>
<text text-anchor="middle" x="323" y="-448" font-family="sans" font-size="10.00">experiment: rcp26</text>
<text text-anchor="middle" x="323" y="-437" font-family="sans" font-size="10.00">institute: ICTP</text>
<text text-anchor="middle" x="323" y="-426" font-family="sans" font-size="10.00">model: NCC&#45;NorESM1&#45;M</text>
<text text-anchor="middle" x="323" y="-415" font-family="sans" font-size="10.00">rcm: RegCM4&#45;7</text>
</g>
<!-- 3&#45;&gt;2 -->
<g id="edge7" class="edge">
<title>3&#45;&gt;2</title>
<path fill="none" stroke="grey" stroke-width="2" d="M255.25,-423.17C228.46,-408.42 197.82,-391.53 171.37,-376.96"/>
<polygon fill="grey" stroke="grey" stroke-width="2" points="173.02,-373.88 162.57,-372.12 169.64,-380.01 173.02,-373.88"/>
</g>
<!-- 6 -->
<g id="node7" class="node">
<title>6</title>
<path fill="none" stroke="#569ad8" stroke-width="2" d="M350,-372C350,-372 216,-372 216,-372 210,-372 204,-366 204,-360 204,-360 204,-321 204,-321 204,-315 210,-309 216,-309 216,-309 350,-309 350,-309 356,-309 362,-315 362,-321 362,-321 362,-360 362,-360 362,-366 356,-372 350,-372"/>
<text text-anchor="middle" x="283" y="-360" font-family="sans" font-size="10.00">aggregate_proj</text>
<text text-anchor="middle" x="283" y="-349" font-family="sans" font-size="10.00">aggregation: monthly&#45;means</text>
<text text-anchor="middle" x="283" y="-338" font-family="sans" font-size="10.00">area: New&#45;Caledonia</text>
<text text-anchor="middle" x="283" y="-327" font-family="sans" font-size="10.00">period: 1980&#45;2005</text>
<text text-anchor="middle" x="283" y="-316" font-family="sans" font-size="10.00">project: CORDEX</text>
</g>
<!-- 3&#45;&gt;6 -->
<g id="edge10" class="edge">
<title>3&#45;&gt;6</title>
<path fill="none" stroke="grey" stroke-width="2" d="M305.34,-407.96C302.39,-399.19 299.37,-390.21 296.55,-381.81"/>
<polygon fill="grey" stroke="grey" stroke-width="2" points="299.84,-380.62 293.34,-372.25 293.21,-382.85 299.84,-380.62"/>
</g>
<!-- 11 -->
<g id="node12" class="node">
<title>11</title>
<path fill="none" stroke="#569ad8" stroke-width="2" d="M702,-372C702,-372 568,-372 568,-372 562,-372 556,-366 556,-360 556,-360 556,-321 556,-321 556,-315 562,-309 568,-309 568,-309 702,-309 702,-309 708,-309 714,-315 714,-321 714,-321 714,-360 714,-360 714,-366 708,-372 702,-372"/>
<text text-anchor="middle" x="635" y="-360" font-family="sans" font-size="10.00">aggregate_proj</text>
<text text-anchor="middle" x="635" y="-349" font-family="sans" font-size="10.00">aggregation: monthly&#45;means</text>
<text text-anchor="middle" x="635" y="-338" font-family="sans" font-size="10.00">area: New&#45;Caledonia</text>
<text text-anchor="middle" x="635" y="-327" font-family="sans" font-size="10.00">period: 2006&#45;2019</text>
<text text-anchor="middle" x="635" y="-316" font-family="sans" font-size="10.00">project: CORDEX</text>
</g>
<!-- 3&#45;&gt;11 -->
<g id="edge20" class="edge">
<title>3&#45;&gt;11</title>
<path fill="none" stroke="grey" stroke-width="2" d="M390.7,-434.68C436.33,-417.28 496.98,-394.14 546.44,-375.28"/>
<polygon fill="grey" stroke="grey" stroke-width="2" points="547.76,-378.52 555.86,-371.69 545.27,-371.98 547.76,-378.52"/>
</g>
<!-- 4 -->
<g id="node5" class="node">
<title>4</title>
<path fill="none" stroke="#56d8a9" stroke-width="2" d="M644.5,-587C644.5,-587 593.5,-587 593.5,-587 587.5,-587 581.5,-581 581.5,-575 581.5,-575 581.5,-563 581.5,-563 581.5,-557 587.5,-551 593.5,-551 593.5,-551 644.5,-551 644.5,-551 650.5,-551 656.5,-557 656.5,-563 656.5,-563 656.5,-575 656.5,-575 656.5,-581 650.5,-587 644.5,-587"/>
<text text-anchor="middle" x="619" y="-566.5" font-family="sans" font-size="10.00">get_chelsa2</text>
</g>
<!-- 4&#45;&gt;3 -->
<g id="edge8" class="edge">
<title>4&#45;&gt;3</title>
<path fill="none" stroke="grey" stroke-width="2" d="M581.21,-554.53C535.81,-538.35 458.5,-510.79 400.27,-490.04"/>
<polygon fill="grey" stroke="grey" stroke-width="2" points="401.33,-486.7 390.74,-486.64 398.98,-493.3 401.33,-486.7"/>
</g>
<!-- 7 -->
<g id="node8" class="node">
<title>7</title>
<path fill="none" stroke="#56c1d8" stroke-width="2" d="M526,-372C526,-372 392,-372 392,-372 386,-372 380,-366 380,-360 380,-360 380,-321 380,-321 380,-315 386,-309 392,-309 392,-309 526,-309 526,-309 532,-309 538,-315 538,-321 538,-321 538,-360 538,-360 538,-366 532,-372 526,-372"/>
<text text-anchor="middle" x="459" y="-360" font-family="sans" font-size="10.00">aggregate_base</text>
<text text-anchor="middle" x="459" y="-349" font-family="sans" font-size="10.00">aggregation: monthly&#45;means</text>
<text text-anchor="middle" x="459" y="-338" font-family="sans" font-size="10.00">area: New&#45;Caledonia</text>
<text text-anchor="middle" x="459" y="-327" font-family="sans" font-size="10.00">base: chelsa2</text>
<text text-anchor="middle" x="459" y="-316" font-family="sans" font-size="10.00">period: 1980&#45;2005</text>
</g>
<!-- 4&#45;&gt;7 -->
<g id="edge11" class="edge">
<title>4&#45;&gt;7</title>
<path fill="none" stroke="grey" stroke-width="2" d="M606.97,-550.98C581.55,-514.99 521.81,-430.41 486.5,-380.43"/>
<polygon fill="grey" stroke="grey" stroke-width="2" points="489.26,-378.27 480.63,-372.12 483.54,-382.3 489.26,-378.27"/>
</g>
<!-- 14 -->
<g id="node15" class="node">
<title>14</title>
<path fill="none" stroke="#56c1d8" stroke-width="2" d="M740,-493C740,-493 606,-493 606,-493 600,-493 594,-487 594,-481 594,-481 594,-442 594,-442 594,-436 600,-430 606,-430 606,-430 740,-430 740,-430 746,-430 752,-436 752,-442 752,-442 752,-481 752,-481 752,-487 746,-493 740,-493"/>
<text text-anchor="middle" x="673" y="-481" font-family="sans" font-size="10.00">aggregate_base</text>
<text text-anchor="middle" x="673" y="-470" font-family="sans" font-size="10.00">aggregation: monthly&#45;means</text>
<text text-anchor="middle" x="673" y="-459" font-family="sans" font-size="10.00">area: New&#45;Caledonia</text>
<text text-anchor="middle" x="673" y="-448" font-family="sans" font-size="10.00">base: chelsa2</text>
<text text-anchor="middle" x="673" y="-437" font-family="sans" font-size="10.00">period: 2006&#45;2019</text>
</g>
<!-- 4&#45;&gt;14 -->
<g id="edge25" class="edge">
<title>4&#45;&gt;14</title>
<path fill="none" stroke="grey" stroke-width="2" d="M627.92,-550.58C634.64,-537.44 644.13,-518.9 652.67,-502.21"/>
<polygon fill="grey" stroke="grey" stroke-width="2" points="655.86,-503.68 657.3,-493.18 649.63,-500.49 655.86,-503.68"/>
</g>
<!-- 5 -->
<g id="node6" class="node">
<title>5</title>
<path fill="none" stroke="#d85656" stroke-width="2" stroke-dasharray="5,2" d="M846.5,-659C846.5,-659 751.5,-659 751.5,-659 745.5,-659 739.5,-653 739.5,-647 739.5,-647 739.5,-635 739.5,-635 739.5,-629 745.5,-623 751.5,-623 751.5,-623 846.5,-623 846.5,-623 852.5,-623 858.5,-629 858.5,-635 858.5,-635 858.5,-647 858.5,-647 858.5,-653 852.5,-659 846.5,-659"/>
<text text-anchor="middle" x="799" y="-644" font-family="sans" font-size="10.00">get_area</text>
<text text-anchor="middle" x="799" y="-633" font-family="sans" font-size="10.00">area: New&#45;Caledonia</text>
</g>
<!-- 5&#45;&gt;4 -->
<g id="edge9" class="edge">
<title>5&#45;&gt;4</title>
<path fill="none" stroke="grey" stroke-width="2" d="M754.97,-622.88C728.06,-612.41 693.66,-599.03 666.2,-588.35"/>
<polygon fill="grey" stroke="grey" stroke-width="2" points="667.38,-585.06 656.79,-584.7 664.84,-591.58 667.38,-585.06"/>
</g>
<!-- 9 -->
<g id="node10" class="node">
<title>9</title>
<path fill="none" stroke="#56d88a" stroke-width="2" d="M833.5,-190.5C833.5,-190.5 726.5,-190.5 726.5,-190.5 720.5,-190.5 714.5,-184.5 714.5,-178.5 714.5,-178.5 714.5,-161.5 714.5,-161.5 714.5,-155.5 720.5,-149.5 726.5,-149.5 726.5,-149.5 833.5,-149.5 833.5,-149.5 839.5,-149.5 845.5,-155.5 845.5,-161.5 845.5,-161.5 845.5,-178.5 845.5,-178.5 845.5,-184.5 839.5,-190.5 833.5,-190.5"/>
<text text-anchor="middle" x="780" y="-178.5" font-family="sans" font-size="10.00">hist_proj_ds</text>
<text text-anchor="middle" x="780" y="-167.5" font-family="sans" font-size="10.00">ds_method: bc</text>
<text text-anchor="middle" x="780" y="-156.5" font-family="sans" font-size="10.00">period_eval: 1980&#45;2005</text>
</g>
<!-- 5&#45;&gt;9 -->
<g id="edge16" class="edge">
<title>5&#45;&gt;9</title>
<path fill="none" stroke="grey" stroke-width="2" d="M801.03,-622.84C802.15,-612.48 803.44,-599 804,-587 804.75,-571.02 804.22,-567 804,-551 803.11,-487.43 803.56,-471.48 800,-408 795.81,-333.35 787.54,-245.73 783.06,-200.84"/>
<polygon fill="grey" stroke="grey" stroke-width="2" points="786.52,-200.24 782.03,-190.64 779.55,-200.94 786.52,-200.24"/>
</g>
<!-- 12 -->
<g id="node13" class="node">
<title>12</title>
<path fill="none" stroke="#56d8d0" stroke-width="2" d="M927.5,-270.5C927.5,-270.5 820.5,-270.5 820.5,-270.5 814.5,-270.5 808.5,-264.5 808.5,-258.5 808.5,-258.5 808.5,-246.5 808.5,-246.5 808.5,-240.5 814.5,-234.5 820.5,-234.5 820.5,-234.5 927.5,-234.5 927.5,-234.5 933.5,-234.5 939.5,-240.5 939.5,-246.5 939.5,-246.5 939.5,-258.5 939.5,-258.5 939.5,-264.5 933.5,-270.5 927.5,-270.5"/>
<text text-anchor="middle" x="874" y="-255.5" font-family="sans" font-size="10.00">hist_proj_raw</text>
<text text-anchor="middle" x="874" y="-244.5" font-family="sans" font-size="10.00">period_eval: 2006&#45;2019</text>
</g>
<!-- 5&#45;&gt;12 -->
<g id="edge22" class="edge">
<title>5&#45;&gt;12</title>
<path fill="none" stroke="grey" stroke-width="2" d="M812.35,-622.84C819.37,-612.91 827.43,-599.87 832,-587 870.51,-478.5 874.61,-339.17 874.46,-280.96"/>
<polygon fill="grey" stroke="grey" stroke-width="2" points="877.96,-280.72 874.39,-270.75 870.96,-280.77 877.96,-280.72"/>
</g>
<!-- 13 -->
<g id="node14" class="node">
<title>13</title>
<path fill="none" stroke="#d87556" stroke-width="2" d="M1003.5,-358.5C1003.5,-358.5 896.5,-358.5 896.5,-358.5 890.5,-358.5 884.5,-352.5 884.5,-346.5 884.5,-346.5 884.5,-334.5 884.5,-334.5 884.5,-328.5 890.5,-322.5 896.5,-322.5 896.5,-322.5 1003.5,-322.5 1003.5,-322.5 1009.5,-322.5 1015.5,-328.5 1015.5,-334.5 1015.5,-334.5 1015.5,-346.5 1015.5,-346.5 1015.5,-352.5 1009.5,-358.5 1003.5,-358.5"/>
<text text-anchor="middle" x="950" y="-343.5" font-family="sans" font-size="10.00">hist_base</text>
<text text-anchor="middle" x="950" y="-332.5" font-family="sans" font-size="10.00">period_eval: 2006&#45;2019</text>
</g>
<!-- 5&#45;&gt;13 -->
<g id="edge24" class="edge">
<title>5&#45;&gt;13</title>
<path fill="none" stroke="grey" stroke-width="2" d="M830.15,-622.79C844.05,-613.74 859.6,-601.5 870,-587 919.56,-517.92 939.59,-416.45 946.65,-368.5"/>
<polygon fill="grey" stroke="grey" stroke-width="2" points="950.12,-368.96 948.04,-358.58 943.19,-368 950.12,-368.96"/>
</g>
<!-- 16 -->
<g id="node17" class="node">
<title>16</title>
<path fill="none" stroke="#68d856" stroke-width="2" d="M553.5,-196C553.5,-196 446.5,-196 446.5,-196 440.5,-196 434.5,-190 434.5,-184 434.5,-184 434.5,-156 434.5,-156 434.5,-150 440.5,-144 446.5,-144 446.5,-144 553.5,-144 553.5,-144 559.5,-144 565.5,-150 565.5,-156 565.5,-156 565.5,-184 565.5,-184 565.5,-190 559.5,-196 553.5,-196"/>
<text text-anchor="middle" x="500" y="-184" font-family="sans" font-size="10.00">eval_proj_ds</text>
<text text-anchor="middle" x="500" y="-173" font-family="sans" font-size="10.00">base_eval: chelsa2</text>
<text text-anchor="middle" x="500" y="-162" font-family="sans" font-size="10.00">ds_method: bc</text>
<text text-anchor="middle" x="500" y="-151" font-family="sans" font-size="10.00">period_eval: 1980&#45;2005</text>
</g>
<!-- 5&#45;&gt;16 -->
<g id="edge30" class="edge">
<title>5&#45;&gt;16</title>
<path fill="none" stroke="grey" stroke-width="2" d="M739.27,-639.47C553.78,-636.24 0,-613.92 0,-462.5 0,-462.5 0,-462.5 0,-339.5 0,-251.08 284.32,-200.2 424.16,-180.52"/>
<polygon fill="grey" stroke="grey" stroke-width="2" points="424.95,-183.94 434.38,-179.1 423.99,-177.01 424.95,-183.94"/>
</g>
<!-- 17 -->
<g id="node18" class="node">
<title>17</title>
<path fill="none" stroke="#afd856" stroke-width="2" d="M739.5,-273C739.5,-273 632.5,-273 632.5,-273 626.5,-273 620.5,-267 620.5,-261 620.5,-261 620.5,-244 620.5,-244 620.5,-238 626.5,-232 632.5,-232 632.5,-232 739.5,-232 739.5,-232 745.5,-232 751.5,-238 751.5,-244 751.5,-244 751.5,-261 751.5,-261 751.5,-267 745.5,-273 739.5,-273"/>
<text text-anchor="middle" x="686" y="-261" font-family="sans" font-size="10.00">eval_proj_raw</text>
<text text-anchor="middle" x="686" y="-250" font-family="sans" font-size="10.00">base_eval: chelsa2</text>
<text text-anchor="middle" x="686" y="-239" font-family="sans" font-size="10.00">period_eval: 2006&#45;2019</text>
</g>
<!-- 5&#45;&gt;17 -->
<g id="edge33" class="edge">
<title>5&#45;&gt;17</title>
<path fill="none" stroke="grey" stroke-width="2" d="M799.55,-622.98C800.47,-572.06 798,-417.65 740,-309 734.37,-298.45 726.13,-288.53 717.78,-280.08"/>
<polygon fill="grey" stroke="grey" stroke-width="2" points="720.11,-277.46 710.47,-273.05 715.25,-282.51 720.11,-277.46"/>
</g>
<!-- 6&#45;&gt;1 -->
<g id="edge5" class="edge">
<title>6&#45;&gt;1</title>
<path fill="none" stroke="grey" stroke-width="2" d="M297.22,-308.94C301.23,-300.31 305.58,-290.95 309.55,-282.42"/>
<polygon fill="grey" stroke="grey" stroke-width="2" points="312.78,-283.77 313.83,-273.23 306.43,-280.82 312.78,-283.77"/>
</g>
<!-- 10 -->
<g id="node11" class="node">
<title>10</title>
<path fill="none" stroke="#567bd8" stroke-width="2" d="M590,-273C590,-273 480,-273 480,-273 474,-273 468,-267 468,-261 468,-261 468,-244 468,-244 468,-238 474,-232 480,-232 480,-232 590,-232 590,-232 596,-232 602,-238 602,-244 602,-244 602,-261 602,-261 602,-267 596,-273 590,-273"/>
<text text-anchor="middle" x="535" y="-261" font-family="sans" font-size="10.00">downscale_bc</text>
<text text-anchor="middle" x="535" y="-250" font-family="sans" font-size="10.00">period_base: 1980&#45;2005</text>
<text text-anchor="middle" x="535" y="-239" font-family="sans" font-size="10.00">period_proj: 2006&#45;2019</text>
</g>
<!-- 6&#45;&gt;10 -->
<g id="edge18" class="edge">
<title>6&#45;&gt;10</title>
<path fill="none" stroke="grey" stroke-width="2" d="M362.14,-312.04C365.13,-311.01 368.09,-310 371,-309 402.55,-298.19 437.56,-286.33 467.11,-276.35"/>
<polygon fill="grey" stroke="grey" stroke-width="2" points="468.55,-279.56 476.9,-273.05 466.31,-272.93 468.55,-279.56"/>
</g>
<!-- 7&#45;&gt;1 -->
<g id="edge6" class="edge">
<title>7&#45;&gt;1</title>
<path fill="none" stroke="grey" stroke-width="2" d="M410.67,-308.94C394.97,-299.01 377.74,-288.11 362.74,-278.63"/>
<polygon fill="grey" stroke="grey" stroke-width="2" points="364.52,-275.61 354.19,-273.23 360.77,-281.53 364.52,-275.61"/>
</g>
<!-- 7&#45;&gt;10 -->
<g id="edge19" class="edge">
<title>7&#45;&gt;10</title>
<path fill="none" stroke="grey" stroke-width="2" d="M486.01,-308.94C494.13,-299.75 502.98,-289.74 510.89,-280.78"/>
<polygon fill="grey" stroke="grey" stroke-width="2" points="513.57,-283.04 517.57,-273.23 508.32,-278.4 513.57,-283.04"/>
</g>
<!-- 7&#45;&gt;16 -->
<g id="edge29" class="edge">
<title>7&#45;&gt;16</title>
<path fill="none" stroke="grey" stroke-width="2" d="M454.31,-308.68C452.1,-286.8 451.38,-256.99 459,-232 461.9,-222.49 466.83,-213.11 472.29,-204.68"/>
<polygon fill="grey" stroke="grey" stroke-width="2" points="475.31,-206.47 478.11,-196.26 469.55,-202.49 475.31,-206.47"/>
</g>
<!-- 8 -->
<g id="node9" class="node">
<title>8</title>
<path fill="none" stroke="#d89c56" stroke-width="2" d="M850.5,-108C850.5,-108 803.5,-108 803.5,-108 797.5,-108 791.5,-102 791.5,-96 791.5,-96 791.5,-84 791.5,-84 791.5,-78 797.5,-72 803.5,-72 803.5,-72 850.5,-72 850.5,-72 856.5,-72 862.5,-78 862.5,-84 862.5,-84 862.5,-96 862.5,-96 862.5,-102 856.5,-108 850.5,-108"/>
<text text-anchor="middle" x="827" y="-87.5" font-family="sans" font-size="10.00">merge_hist</text>
</g>
<!-- 8&#45;&gt;0 -->
<g id="edge2" class="edge">
<title>8&#45;&gt;0</title>
<path fill="none" stroke="grey" stroke-width="2" d="M791.47,-78.97C744.8,-65.8 663.25,-42.78 615.91,-29.42"/>
<polygon fill="grey" stroke="grey" stroke-width="2" points="616.64,-25.99 606.07,-26.64 614.74,-32.73 616.64,-25.99"/>
</g>
<!-- 9&#45;&gt;8 -->
<g id="edge12" class="edge">
<title>9&#45;&gt;8</title>
<path fill="none" stroke="grey" stroke-width="2" d="M791.86,-149.32C797.79,-139.47 805.05,-127.43 811.42,-116.86"/>
<polygon fill="grey" stroke="grey" stroke-width="2" points="814.58,-118.4 816.74,-108.03 808.58,-114.79 814.58,-118.4"/>
</g>
<!-- 10&#45;&gt;9 -->
<g id="edge15" class="edge">
<title>10&#45;&gt;9</title>
<path fill="none" stroke="grey" stroke-width="2" d="M594.62,-231.91C629.73,-220.38 674.29,-205.73 710.92,-193.7"/>
<polygon fill="grey" stroke="grey" stroke-width="2" points="712.13,-196.98 720.54,-190.54 709.94,-190.33 712.13,-196.98"/>
</g>
<!-- 10&#45;&gt;16 -->
<g id="edge28" class="edge">
<title>10&#45;&gt;16</title>
<path fill="none" stroke="grey" stroke-width="2" d="M526.35,-231.6C522.93,-223.74 518.9,-214.47 515.03,-205.57"/>
<polygon fill="grey" stroke="grey" stroke-width="2" points="518.13,-203.93 510.94,-196.16 511.71,-206.72 518.13,-203.93"/>
</g>
<!-- 11&#45;&gt;10 -->
<g id="edge17" class="edge">
<title>11&#45;&gt;10</title>
<path fill="none" stroke="grey" stroke-width="2" d="M599.46,-308.94C588.46,-299.47 576.43,-289.13 565.78,-279.97"/>
<polygon fill="grey" stroke="grey" stroke-width="2" points="567.8,-277.09 557.94,-273.23 563.24,-282.4 567.8,-277.09"/>
</g>
<!-- 11&#45;&gt;12 -->
<g id="edge21" class="edge">
<title>11&#45;&gt;12</title>
<path fill="none" stroke="grey" stroke-width="2" d="M714.25,-310.98C747.85,-298.89 786.25,-285.08 816.98,-274.02"/>
<polygon fill="grey" stroke="grey" stroke-width="2" points="818.45,-277.21 826.67,-270.53 816.08,-270.62 818.45,-277.21"/>
</g>
<!-- 11&#45;&gt;17 -->
<g id="edge31" class="edge">
<title>11&#45;&gt;17</title>
<path fill="none" stroke="grey" stroke-width="2" d="M653.12,-308.94C658.35,-300.12 664.03,-290.55 669.18,-281.87"/>
<polygon fill="grey" stroke="grey" stroke-width="2" points="672.21,-283.61 674.3,-273.23 666.19,-280.04 672.21,-283.61"/>
</g>
<!-- 12&#45;&gt;8 -->
<g id="edge13" class="edge">
<title>12&#45;&gt;8</title>
<path fill="none" stroke="grey" stroke-width="2" d="M872.35,-234.36C869.92,-212.82 864.5,-174.92 854,-144 850.91,-134.91 846.5,-125.43 842.14,-117.04"/>
<polygon fill="grey" stroke="grey" stroke-width="2" points="845.15,-115.24 837.31,-108.11 838.99,-118.57 845.15,-115.24"/>
</g>
<!-- 13&#45;&gt;8 -->
<g id="edge14" class="edge">
<title>13&#45;&gt;8</title>
<path fill="none" stroke="grey" stroke-width="2" d="M953.05,-322.47C956.2,-300.72 959.24,-262.27 948,-232 929.94,-183.35 886.79,-140.16 857.22,-114.79"/>
<polygon fill="grey" stroke="grey" stroke-width="2" points="859.18,-111.86 849.27,-108.11 854.68,-117.22 859.18,-111.86"/>
</g>
<!-- 14&#45;&gt;13 -->
<g id="edge23" class="edge">
<title>14&#45;&gt;13</title>
<path fill="none" stroke="grey" stroke-width="2" d="M744.33,-429.85C793.47,-408.75 857.48,-381.25 900.95,-362.57"/>
<polygon fill="grey" stroke="grey" stroke-width="2" points="902.37,-365.77 910.17,-358.61 899.6,-359.34 902.37,-365.77"/>
</g>
<!-- 14&#45;&gt;17 -->
<g id="edge32" class="edge">
<title>14&#45;&gt;17</title>
<path fill="none" stroke="grey" stroke-width="2" d="M695.52,-429.85C706.1,-413.55 717.57,-392.65 723,-372 730.12,-344.92 731.11,-335.8 723,-309 720.06,-299.29 714.8,-289.73 709.16,-281.35"/>
<polygon fill="grey" stroke="grey" stroke-width="2" points="711.89,-279.17 703.21,-273.09 706.21,-283.26 711.89,-279.17"/>
</g>
<!-- 15 -->
<g id="node16" class="node">
<title>15</title>
<path fill="none" stroke="#ced856" stroke-width="2" d="M604,-108C604,-108 554,-108 554,-108 548,-108 542,-102 542,-96 542,-96 542,-84 542,-84 542,-78 548,-72 554,-72 554,-72 604,-72 604,-72 610,-72 616,-78 616,-84 616,-84 616,-96 616,-96 616,-102 610,-108 604,-108"/>
<text text-anchor="middle" x="579" y="-87.5" font-family="sans" font-size="10.00">merge_eval</text>
</g>
<!-- 15&#45;&gt;0 -->
<g id="edge3" class="edge">
<title>15&#45;&gt;0</title>
<path fill="none" stroke="grey" stroke-width="2" d="M579,-71.7C579,-63.98 579,-54.71 579,-46.11"/>
<polygon fill="grey" stroke="grey" stroke-width="2" points="582.5,-46.1 579,-36.1 575.5,-46.1 582.5,-46.1"/>
</g>
<!-- 16&#45;&gt;15 -->
<g id="edge26" class="edge">
<title>16&#45;&gt;15</title>
<path fill="none" stroke="grey" stroke-width="2" d="M525.43,-143.89C534.59,-134.84 544.92,-124.65 554.04,-115.65"/>
<polygon fill="grey" stroke="grey" stroke-width="2" points="556.71,-117.93 561.37,-108.41 551.79,-112.95 556.71,-117.93"/>
</g>
<!-- 17&#45;&gt;15 -->
<g id="edge27" class="edge">
<title>17&#45;&gt;15</title>
<path fill="none" stroke="grey" stroke-width="2" d="M672.88,-231.82C653.6,-202.9 617.59,-148.88 596.21,-116.81"/>
<polygon fill="grey" stroke="grey" stroke-width="2" points="599.05,-114.77 590.59,-108.39 593.23,-118.65 599.05,-114.77"/>
</g>
</g>
</svg>
