<?xml version="1.0" encoding="UTF-8" standalone="no"?>
<!DOCTYPE svg PUBLIC "-//W3C//DTD SVG 1.1//EN"
 "http://www.w3.org/Graphics/SVG/1.1/DTD/svg11.dtd">
<!-- Generated by graphviz version 2.43.0 (0)
 -->
<!-- Title: snakemake_dag Pages: 1 -->
<svg width="357pt" height="375pt"
 viewBox="0.00 0.00 356.54 375.00" xmlns="http://www.w3.org/2000/svg" xmlns:xlink="http://www.w3.org/1999/xlink">
<g id="graph0" class="graph" transform="scale(1 1) rotate(0) translate(4 371)">
<title>snakemake_dag</title>
<polygon fill="white" stroke="transparent" points="-4,4 -4,-371 352.54,-371 352.54,4 -4,4"/>
<!-- 0 -->
<g id="node1" class="node">
<title>0</title>
<path fill="none" stroke="#afd856" stroke-width="2" d="M174.89,-36C174.89,-36 144.89,-36 144.89,-36 138.89,-36 132.89,-30 132.89,-24 132.89,-24 132.89,-12 132.89,-12 132.89,-6 138.89,0 144.89,0 144.89,0 174.89,0 174.89,0 180.89,0 186.89,-6 186.89,-12 186.89,-12 186.89,-24 186.89,-24 186.89,-30 180.89,-36 174.89,-36"/>
<text text-anchor="middle" x="159.89" y="-15.5" font-family="sans" font-size="10.00">all</text>
</g>
<!-- 1 -->
<g id="node2" class="node">
<title>1</title>
<path fill="none" stroke="#d85656" stroke-width="2" d="M138.89,-185C138.89,-185 28.89,-185 28.89,-185 22.89,-185 16.89,-179 16.89,-173 16.89,-173 16.89,-156 16.89,-156 16.89,-150 22.89,-144 28.89,-144 28.89,-144 138.89,-144 138.89,-144 144.89,-144 150.89,-150 150.89,-156 150.89,-156 150.89,-173 150.89,-173 150.89,-179 144.89,-185 138.89,-185"/>
<text text-anchor="middle" x="83.89" y="-173" font-family="sans" font-size="10.00">downscale_bc</text>
<text text-anchor="middle" x="83.89" y="-162" font-family="sans" font-size="10.00">period_base: 1980&#45;2005</text>
<text text-anchor="middle" x="83.89" y="-151" font-family="sans" font-size="10.00">period_proj: 2071&#45;2100</text>
</g>
<!-- 1&#45;&gt;0 -->
<g id="edge1" class="edge">
<title>1&#45;&gt;0</title>
<path fill="none" stroke="grey" stroke-width="2" d="M94.3,-143.71C107.74,-118.16 131.17,-73.6 146.09,-45.24"/>
<polygon fill="grey" stroke="grey" stroke-width="2" points="149.24,-46.78 150.79,-36.3 143.04,-43.52 149.24,-46.78"/>
</g>
<!-- 2 -->
<g id="node3" class="node">
<title>2</title>
<path fill="none" stroke="#56a9d8" stroke-width="2" d="M294.89,-295C294.89,-295 176.89,-295 176.89,-295 170.89,-295 164.89,-289 164.89,-283 164.89,-283 164.89,-233 164.89,-233 164.89,-227 170.89,-221 176.89,-221 176.89,-221 294.89,-221 294.89,-221 300.89,-221 306.89,-227 306.89,-233 306.89,-233 306.89,-283 306.89,-283 306.89,-289 300.89,-295 294.89,-295"/>
<text text-anchor="middle" x="235.89" y="-283" font-family="sans" font-size="10.00">get_cordex</text>
<text text-anchor="middle" x="235.89" y="-272" font-family="sans" font-size="10.00">domain: AUS&#45;22</text>
<text text-anchor="middle" x="235.89" y="-261" font-family="sans" font-size="10.00">gcm: MOHC&#45;HadGEM2&#45;ES</text>
<text text-anchor="middle" x="235.89" y="-250" font-family="sans" font-size="10.00">rcm: CCLM5&#45;0&#45;15</text>
<text text-anchor="middle" x="235.89" y="-239" font-family="sans" font-size="10.00">rcp: rcp26</text>
<text text-anchor="middle" x="235.89" y="-228" font-family="sans" font-size="10.00">years: 1980&#45;2100</text>
</g>
<!-- 2&#45;&gt;1 -->
<g id="edge3" class="edge">
<title>2&#45;&gt;1</title>
<path fill="none" stroke="grey" stroke-width="2" d="M175.82,-220.84C158.89,-210.65 140.86,-199.79 125.29,-190.42"/>
<polygon fill="grey" stroke="grey" stroke-width="2" points="126.81,-187.25 116.44,-185.09 123.2,-193.25 126.81,-187.25"/>
</g>
<!-- 5 -->
<g id="node6" class="node">
<title>5</title>
<path fill="none" stroke="#56d8a9" stroke-width="2" d="M289.39,-108C289.39,-108 182.39,-108 182.39,-108 176.39,-108 170.39,-102 170.39,-96 170.39,-96 170.39,-84 170.39,-84 170.39,-78 176.39,-72 182.39,-72 182.39,-72 289.39,-72 289.39,-72 295.39,-72 301.39,-78 301.39,-84 301.39,-84 301.39,-96 301.39,-96 301.39,-102 295.39,-108 289.39,-108"/>
<text text-anchor="middle" x="235.89" y="-93" font-family="sans" font-size="10.00">evaluate_bc</text>
<text text-anchor="middle" x="235.89" y="-82" font-family="sans" font-size="10.00">period_eval: 2006&#45;2019</text>
</g>
<!-- 2&#45;&gt;5 -->
<g id="edge7" class="edge">
<title>2&#45;&gt;5</title>
<path fill="none" stroke="grey" stroke-width="2" d="M286.12,-220.64C296.57,-210.4 306.15,-198.36 311.89,-185 319.09,-168.26 320.32,-160.16 311.89,-144 305.42,-131.61 294.59,-121.52 283.1,-113.6"/>
<polygon fill="grey" stroke="grey" stroke-width="2" points="284.98,-110.65 274.67,-108.22 281.21,-116.55 284.98,-110.65"/>
</g>
<!-- 6 -->
<g id="node7" class="node">
<title>6</title>
<path fill="none" stroke="#d85656" stroke-width="2" d="M290.89,-185C290.89,-185 180.89,-185 180.89,-185 174.89,-185 168.89,-179 168.89,-173 168.89,-173 168.89,-156 168.89,-156 168.89,-150 174.89,-144 180.89,-144 180.89,-144 290.89,-144 290.89,-144 296.89,-144 302.89,-150 302.89,-156 302.89,-156 302.89,-173 302.89,-173 302.89,-179 296.89,-185 290.89,-185"/>
<text text-anchor="middle" x="235.89" y="-173" font-family="sans" font-size="10.00">downscale_bc</text>
<text text-anchor="middle" x="235.89" y="-162" font-family="sans" font-size="10.00">period_base: 1980&#45;2005</text>
<text text-anchor="middle" x="235.89" y="-151" font-family="sans" font-size="10.00">period_proj: 2006&#45;2019</text>
</g>
<!-- 2&#45;&gt;6 -->
<g id="edge11" class="edge">
<title>2&#45;&gt;6</title>
<path fill="none" stroke="grey" stroke-width="2" d="M235.89,-220.84C235.89,-212.36 235.89,-203.43 235.89,-195.27"/>
<polygon fill="grey" stroke="grey" stroke-width="2" points="239.39,-195.09 235.89,-185.09 232.39,-195.09 239.39,-195.09"/>
</g>
<!-- 3 -->
<g id="node4" class="node">
<title>3</title>
<path fill="none" stroke="#59d856" stroke-width="2" d="M290.39,-367C290.39,-367 181.39,-367 181.39,-367 175.39,-367 169.39,-361 169.39,-355 169.39,-355 169.39,-343 169.39,-343 169.39,-337 175.39,-331 181.39,-331 181.39,-331 290.39,-331 290.39,-331 296.39,-331 302.39,-337 302.39,-343 302.39,-343 302.39,-355 302.39,-355 302.39,-361 296.39,-367 290.39,-367"/>
<text text-anchor="middle" x="235.89" y="-352" font-family="sans" font-size="10.00">get_area</text>
<text text-anchor="middle" x="235.89" y="-341" font-family="sans" font-size="10.00">country: New&#45;Caledonia</text>
</g>
<!-- 3&#45;&gt;2 -->
<g id="edge5" class="edge">
<title>3&#45;&gt;2</title>
<path fill="none" stroke="grey" stroke-width="2" d="M235.89,-330.84C235.89,-323.5 235.89,-314.54 235.89,-305.47"/>
<polygon fill="grey" stroke="grey" stroke-width="2" points="239.39,-305.26 235.89,-295.26 232.39,-305.26 239.39,-305.26"/>
</g>
<!-- 4 -->
<g id="node5" class="node">
<title>4</title>
<path fill="none" stroke="#d8ac56" stroke-width="2" d="M120.39,-276C120.39,-276 75.39,-276 75.39,-276 69.39,-276 63.39,-270 63.39,-264 63.39,-264 63.39,-252 63.39,-252 63.39,-246 69.39,-240 75.39,-240 75.39,-240 120.39,-240 120.39,-240 126.39,-240 132.39,-246 132.39,-252 132.39,-252 132.39,-264 132.39,-264 132.39,-270 126.39,-276 120.39,-276"/>
<text text-anchor="middle" x="97.89" y="-255.5" font-family="sans" font-size="10.00">get_chelsa</text>
</g>
<!-- 3&#45;&gt;4 -->
<g id="edge6" class="edge">
<title>3&#45;&gt;4</title>
<path fill="none" stroke="grey" stroke-width="2" d="M209.28,-330.84C187.61,-316.87 156.84,-297.02 133.13,-281.72"/>
<polygon fill="grey" stroke="grey" stroke-width="2" points="134.72,-278.59 124.42,-276.11 130.92,-284.47 134.72,-278.59"/>
</g>
<!-- 3&#45;&gt;5 -->
<g id="edge10" class="edge">
<title>3&#45;&gt;5</title>
<path fill="none" stroke="grey" stroke-width="2" d="M275.39,-330.98C290.54,-322.42 306.44,-310.51 315.89,-295 350.92,-237.51 361.58,-202.29 327.89,-144 320.32,-130.9 308.15,-120.76 295.11,-113.02"/>
<polygon fill="grey" stroke="grey" stroke-width="2" points="296.44,-109.75 285.98,-108.03 293.08,-115.9 296.44,-109.75"/>
</g>
<!-- 4&#45;&gt;1 -->
<g id="edge4" class="edge">
<title>4&#45;&gt;1</title>
<path fill="none" stroke="grey" stroke-width="2" d="M95.26,-239.79C93.34,-227.29 90.71,-210.06 88.46,-195.35"/>
<polygon fill="grey" stroke="grey" stroke-width="2" points="91.87,-194.53 86.9,-185.17 84.95,-195.59 91.87,-194.53"/>
</g>
<!-- 4&#45;&gt;5 -->
<g id="edge8" class="edge">
<title>4&#45;&gt;5</title>
<path fill="none" stroke="grey" stroke-width="2" d="M67.44,-239.97C31.79,-217.87 -19.17,-178.07 7.89,-144 26.79,-120.2 101.46,-106.11 160.26,-98.52"/>
<polygon fill="grey" stroke="grey" stroke-width="2" points="160.81,-101.98 170.3,-97.27 159.94,-95.03 160.81,-101.98"/>
</g>
<!-- 4&#45;&gt;6 -->
<g id="edge12" class="edge">
<title>4&#45;&gt;6</title>
<path fill="none" stroke="grey" stroke-width="2" d="M123.85,-239.79C144.71,-225.96 174.31,-206.33 197.85,-190.72"/>
<polygon fill="grey" stroke="grey" stroke-width="2" points="199.82,-193.62 206.22,-185.17 195.95,-187.78 199.82,-193.62"/>
</g>
<!-- 5&#45;&gt;0 -->
<g id="edge2" class="edge">
<title>5&#45;&gt;0</title>
<path fill="none" stroke="grey" stroke-width="2" d="M217.1,-71.7C207.72,-63.05 196.21,-52.45 185.98,-43.03"/>
<polygon fill="grey" stroke="grey" stroke-width="2" points="188.19,-40.3 178.46,-36.1 183.45,-45.45 188.19,-40.3"/>
</g>
<!-- 6&#45;&gt;5 -->
<g id="edge9" class="edge">
<title>6&#45;&gt;5</title>
<path fill="none" stroke="grey" stroke-width="2" d="M235.89,-143.69C235.89,-135.91 235.89,-126.84 235.89,-118.45"/>
<polygon fill="grey" stroke="grey" stroke-width="2" points="239.39,-118.32 235.89,-108.32 232.39,-118.32 239.39,-118.32"/>
</g>
</g>
</svg>
