<?xml version="1.0" encoding="UTF-8" standalone="no"?>
<!DOCTYPE svg PUBLIC "-//W3C//DTD SVG 1.1//EN"
 "http://www.w3.org/Graphics/SVG/1.1/DTD/svg11.dtd">
<!-- Generated by graphviz version 2.43.0 (0)
 -->
<!-- Title: snakemake_dag Pages: 1 -->
<svg width="470pt" height="348pt"
 viewBox="0.00 0.00 470.00 348.00" xmlns="http://www.w3.org/2000/svg" xmlns:xlink="http://www.w3.org/1999/xlink">
<g id="graph0" class="graph" transform="scale(1 1) rotate(0) translate(4 344)">
<title>snakemake_dag</title>
<polygon fill="white" stroke="transparent" points="-4,4 -4,-344 466,-344 466,4 -4,4"/>
<!-- 0 -->
<g id="node1" class="node">
<title>0</title>
<path fill="none" stroke="#88d856" stroke-width="2" stroke-dasharray="5,2" d="M246,-36C246,-36 216,-36 216,-36 210,-36 204,-30 204,-24 204,-24 204,-12 204,-12 204,-6 210,0 216,0 216,0 246,0 246,0 252,0 258,-6 258,-12 258,-12 258,-24 258,-24 258,-30 252,-36 246,-36"/>
<text text-anchor="middle" x="231" y="-15.5" font-family="sans" font-size="10.00">all</text>
</g>
<!-- 1 -->
<g id="node2" class="node">
<title>1</title>
<path fill="none" stroke="#d8bc56" stroke-width="2" stroke-dasharray="5,2" d="M158,-108C158,-108 106,-108 106,-108 100,-108 94,-102 94,-96 94,-96 94,-84 94,-84 94,-78 100,-72 106,-72 106,-72 158,-72 158,-72 164,-72 170,-78 170,-84 170,-84 170,-96 170,-96 170,-102 164,-108 158,-108"/>
<text text-anchor="middle" x="132" y="-87.5" font-family="sans" font-size="10.00">crop_cordex</text>
</g>
<!-- 1&#45;&gt;0 -->
<g id="edge1" class="edge">
<title>1&#45;&gt;0</title>
<path fill="none" stroke="grey" stroke-width="2" d="M156.22,-71.88C168.92,-62.89 184.66,-51.76 198.42,-42.03"/>
<polygon fill="grey" stroke="grey" stroke-width="2" points="200.54,-44.82 206.69,-36.19 196.5,-39.11 200.54,-44.82"/>
</g>
<!-- 2 -->
<g id="node3" class="node">
<title>2</title>
<path fill="none" stroke="#56d88a" stroke-width="2" stroke-dasharray="5,2" d="M130,-180C130,-180 68,-180 68,-180 62,-180 56,-174 56,-168 56,-168 56,-156 56,-156 56,-150 62,-144 68,-144 68,-144 130,-144 130,-144 136,-144 142,-150 142,-156 142,-156 142,-168 142,-168 142,-174 136,-180 130,-180"/>
<text text-anchor="middle" x="99" y="-159.5" font-family="sans" font-size="10.00">merge_cordex</text>
</g>
<!-- 2&#45;&gt;1 -->
<g id="edge4" class="edge">
<title>2&#45;&gt;1</title>
<path fill="none" stroke="grey" stroke-width="2" d="M107.16,-143.7C110.91,-135.73 115.45,-126.1 119.62,-117.26"/>
<polygon fill="grey" stroke="grey" stroke-width="2" points="122.84,-118.64 123.94,-108.1 116.51,-115.66 122.84,-118.64"/>
</g>
<!-- 3 -->
<g id="node4" class="node">
<title>3</title>
<path fill="none" stroke="#56c1d8" stroke-width="2" stroke-dasharray="5,2" d="M119.5,-252C119.5,-252 50.5,-252 50.5,-252 44.5,-252 38.5,-246 38.5,-240 38.5,-240 38.5,-228 38.5,-228 38.5,-222 44.5,-216 50.5,-216 50.5,-216 119.5,-216 119.5,-216 125.5,-216 131.5,-222 131.5,-228 131.5,-228 131.5,-240 131.5,-240 131.5,-246 125.5,-252 119.5,-252"/>
<text text-anchor="middle" x="85" y="-231.5" font-family="sans" font-size="10.00">retrieve_cordex</text>
</g>
<!-- 3&#45;&gt;2 -->
<g id="edge5" class="edge">
<title>3&#45;&gt;2</title>
<path fill="none" stroke="grey" stroke-width="2" d="M88.46,-215.7C90,-207.98 91.86,-198.71 93.58,-190.11"/>
<polygon fill="grey" stroke="grey" stroke-width="2" points="97.05,-190.6 95.58,-180.1 90.19,-189.22 97.05,-190.6"/>
</g>
<!-- 4 -->
<g id="node5" class="node">
<title>4</title>
<path fill="none" stroke="#d85656" stroke-width="2" stroke-dasharray="5,2" d="M130,-340C130,-340 12,-340 12,-340 6,-340 0,-334 0,-328 0,-328 0,-300 0,-300 0,-294 6,-288 12,-288 12,-288 130,-288 130,-288 136,-288 142,-294 142,-300 142,-300 142,-328 142,-328 142,-334 136,-340 130,-340"/>
<text text-anchor="middle" x="71" y="-328" font-family="sans" font-size="10.00">get_script_cordex</text>
<text text-anchor="middle" x="71" y="-317" font-family="sans" font-size="10.00">gcm: MOHC&#45;HadGEM2&#45;ES</text>
<text text-anchor="middle" x="71" y="-306" font-family="sans" font-size="10.00">rcm: REMO2015</text>
<text text-anchor="middle" x="71" y="-295" font-family="sans" font-size="10.00">rcp: historical</text>
</g>
<!-- 4&#45;&gt;3 -->
<g id="edge6" class="edge">
<title>4&#45;&gt;3</title>
<path fill="none" stroke="grey" stroke-width="2" d="M75.51,-287.89C76.97,-279.75 78.6,-270.68 80.09,-262.38"/>
<polygon fill="grey" stroke="grey" stroke-width="2" points="83.55,-262.87 81.88,-252.41 76.66,-261.64 83.55,-262.87"/>
</g>
<!-- 5 -->
<g id="node6" class="node">
<title>5</title>
<path fill="none" stroke="#d8bc56" stroke-width="2" stroke-dasharray="5,2" d="M257,-108C257,-108 205,-108 205,-108 199,-108 193,-102 193,-96 193,-96 193,-84 193,-84 193,-78 199,-72 205,-72 205,-72 257,-72 257,-72 263,-72 269,-78 269,-84 269,-84 269,-96 269,-96 269,-102 263,-108 257,-108"/>
<text text-anchor="middle" x="231" y="-87.5" font-family="sans" font-size="10.00">crop_cordex</text>
</g>
<!-- 5&#45;&gt;0 -->
<g id="edge2" class="edge">
<title>5&#45;&gt;0</title>
<path fill="none" stroke="grey" stroke-width="2" d="M231,-71.7C231,-63.98 231,-54.71 231,-46.11"/>
<polygon fill="grey" stroke="grey" stroke-width="2" points="234.5,-46.1 231,-36.1 227.5,-46.1 234.5,-46.1"/>
</g>
<!-- 6 -->
<g id="node7" class="node">
<title>6</title>
<path fill="none" stroke="#56d88a" stroke-width="2" stroke-dasharray="5,2" d="M262,-180C262,-180 200,-180 200,-180 194,-180 188,-174 188,-168 188,-168 188,-156 188,-156 188,-150 194,-144 200,-144 200,-144 262,-144 262,-144 268,-144 274,-150 274,-156 274,-156 274,-168 274,-168 274,-174 268,-180 262,-180"/>
<text text-anchor="middle" x="231" y="-159.5" font-family="sans" font-size="10.00">merge_cordex</text>
</g>
<!-- 6&#45;&gt;5 -->
<g id="edge7" class="edge">
<title>6&#45;&gt;5</title>
<path fill="none" stroke="grey" stroke-width="2" d="M231,-143.7C231,-135.98 231,-126.71 231,-118.11"/>
<polygon fill="grey" stroke="grey" stroke-width="2" points="234.5,-118.1 231,-108.1 227.5,-118.1 234.5,-118.1"/>
</g>
<!-- 7 -->
<g id="node8" class="node">
<title>7</title>
<path fill="none" stroke="#56c1d8" stroke-width="2" stroke-dasharray="5,2" d="M265.5,-252C265.5,-252 196.5,-252 196.5,-252 190.5,-252 184.5,-246 184.5,-240 184.5,-240 184.5,-228 184.5,-228 184.5,-222 190.5,-216 196.5,-216 196.5,-216 265.5,-216 265.5,-216 271.5,-216 277.5,-222 277.5,-228 277.5,-228 277.5,-240 277.5,-240 277.5,-246 271.5,-252 265.5,-252"/>
<text text-anchor="middle" x="231" y="-231.5" font-family="sans" font-size="10.00">retrieve_cordex</text>
</g>
<!-- 7&#45;&gt;6 -->
<g id="edge8" class="edge">
<title>7&#45;&gt;6</title>
<path fill="none" stroke="grey" stroke-width="2" d="M231,-215.7C231,-207.98 231,-198.71 231,-190.11"/>
<polygon fill="grey" stroke="grey" stroke-width="2" points="234.5,-190.1 231,-180.1 227.5,-190.1 234.5,-190.1"/>
</g>
<!-- 8 -->
<g id="node9" class="node">
<title>8</title>
<path fill="none" stroke="#d85656" stroke-width="2" stroke-dasharray="5,2" d="M290,-340C290,-340 172,-340 172,-340 166,-340 160,-334 160,-328 160,-328 160,-300 160,-300 160,-294 166,-288 172,-288 172,-288 290,-288 290,-288 296,-288 302,-294 302,-300 302,-300 302,-328 302,-328 302,-334 296,-340 290,-340"/>
<text text-anchor="middle" x="231" y="-328" font-family="sans" font-size="10.00">get_script_cordex</text>
<text text-anchor="middle" x="231" y="-317" font-family="sans" font-size="10.00">gcm: MOHC&#45;HadGEM2&#45;ES</text>
<text text-anchor="middle" x="231" y="-306" font-family="sans" font-size="10.00">rcm: REMO2015</text>
<text text-anchor="middle" x="231" y="-295" font-family="sans" font-size="10.00">rcp: rcp26</text>
</g>
<!-- 8&#45;&gt;7 -->
<g id="edge9" class="edge">
<title>8&#45;&gt;7</title>
<path fill="none" stroke="grey" stroke-width="2" d="M231,-287.89C231,-279.84 231,-270.88 231,-262.66"/>
<polygon fill="grey" stroke="grey" stroke-width="2" points="234.5,-262.41 231,-252.41 227.5,-262.41 234.5,-262.41"/>
</g>
<!-- 9 -->
<g id="node10" class="node">
<title>9</title>
<path fill="none" stroke="#d8bc56" stroke-width="2" stroke-dasharray="5,2" d="M356,-108C356,-108 304,-108 304,-108 298,-108 292,-102 292,-96 292,-96 292,-84 292,-84 292,-78 298,-72 304,-72 304,-72 356,-72 356,-72 362,-72 368,-78 368,-84 368,-84 368,-96 368,-96 368,-102 362,-108 356,-108"/>
<text text-anchor="middle" x="330" y="-87.5" font-family="sans" font-size="10.00">crop_cordex</text>
</g>
<!-- 9&#45;&gt;0 -->
<g id="edge3" class="edge">
<title>9&#45;&gt;0</title>
<path fill="none" stroke="grey" stroke-width="2" d="M305.78,-71.88C293.08,-62.89 277.34,-51.76 263.58,-42.03"/>
<polygon fill="grey" stroke="grey" stroke-width="2" points="265.5,-39.11 255.31,-36.19 261.46,-44.82 265.5,-39.11"/>
</g>
<!-- 10 -->
<g id="node11" class="node">
<title>10</title>
<path fill="none" stroke="#56d88a" stroke-width="2" stroke-dasharray="5,2" d="M381,-180C381,-180 319,-180 319,-180 313,-180 307,-174 307,-168 307,-168 307,-156 307,-156 307,-150 313,-144 319,-144 319,-144 381,-144 381,-144 387,-144 393,-150 393,-156 393,-156 393,-168 393,-168 393,-174 387,-180 381,-180"/>
<text text-anchor="middle" x="350" y="-159.5" font-family="sans" font-size="10.00">merge_cordex</text>
</g>
<!-- 10&#45;&gt;9 -->
<g id="edge10" class="edge">
<title>10&#45;&gt;9</title>
<path fill="none" stroke="grey" stroke-width="2" d="M345.06,-143.7C342.83,-135.9 340.15,-126.51 337.67,-117.83"/>
<polygon fill="grey" stroke="grey" stroke-width="2" points="341,-116.76 334.89,-108.1 334.27,-118.68 341,-116.76"/>
</g>
<!-- 11 -->
<g id="node12" class="node">
<title>11</title>
<path fill="none" stroke="#56c1d8" stroke-width="2" stroke-dasharray="5,2" d="M400.5,-252C400.5,-252 331.5,-252 331.5,-252 325.5,-252 319.5,-246 319.5,-240 319.5,-240 319.5,-228 319.5,-228 319.5,-222 325.5,-216 331.5,-216 331.5,-216 400.5,-216 400.5,-216 406.5,-216 412.5,-222 412.5,-228 412.5,-228 412.5,-240 412.5,-240 412.5,-246 406.5,-252 400.5,-252"/>
<text text-anchor="middle" x="366" y="-231.5" font-family="sans" font-size="10.00">retrieve_cordex</text>
</g>
<!-- 11&#45;&gt;10 -->
<g id="edge11" class="edge">
<title>11&#45;&gt;10</title>
<path fill="none" stroke="grey" stroke-width="2" d="M362.04,-215.7C360.28,-207.98 358.16,-198.71 356.2,-190.11"/>
<polygon fill="grey" stroke="grey" stroke-width="2" points="359.55,-189.07 353.91,-180.1 352.73,-190.63 359.55,-189.07"/>
</g>
<!-- 12 -->
<g id="node13" class="node">
<title>12</title>
<path fill="none" stroke="#d85656" stroke-width="2" stroke-dasharray="5,2" d="M450,-340C450,-340 332,-340 332,-340 326,-340 320,-334 320,-328 320,-328 320,-300 320,-300 320,-294 326,-288 332,-288 332,-288 450,-288 450,-288 456,-288 462,-294 462,-300 462,-300 462,-328 462,-328 462,-334 456,-340 450,-340"/>
<text text-anchor="middle" x="391" y="-328" font-family="sans" font-size="10.00">get_script_cordex</text>
<text text-anchor="middle" x="391" y="-317" font-family="sans" font-size="10.00">gcm: MOHC&#45;HadGEM2&#45;ES</text>
<text text-anchor="middle" x="391" y="-306" font-family="sans" font-size="10.00">rcm: REMO2015</text>
<text text-anchor="middle" x="391" y="-295" font-family="sans" font-size="10.00">rcp: rcp85</text>
</g>
<!-- 12&#45;&gt;11 -->
<g id="edge12" class="edge">
<title>12&#45;&gt;11</title>
<path fill="none" stroke="grey" stroke-width="2" d="M382.95,-287.89C380.31,-279.66 377.37,-270.48 374.69,-262.1"/>
<polygon fill="grey" stroke="grey" stroke-width="2" points="377.97,-260.87 371.58,-252.41 371.3,-263 377.97,-260.87"/>
</g>
</g>
</svg>
