<?xml version="1.0" encoding="UTF-8" standalone="no"?>
<!DOCTYPE svg PUBLIC "-//W3C//DTD SVG 1.1//EN"
 "http://www.w3.org/Graphics/SVG/1.1/DTD/svg11.dtd">
<!-- Generated by graphviz version 2.43.0 (0)
 -->
<!-- Title: snakemake_dag Pages: 1 -->
<svg width="2454pt" height="540pt"
 viewBox="0.00 0.00 2454.00 540.00" xmlns="http://www.w3.org/2000/svg" xmlns:xlink="http://www.w3.org/1999/xlink">
<g id="graph0" class="graph" transform="scale(1 1) rotate(0) translate(4 536)">
<title>snakemake_dag</title>
<polygon fill="white" stroke="transparent" points="-4,4 -4,-536 2450,-536 2450,4 -4,4"/>
<!-- 0 -->
<g id="node1" class="node">
<title>0</title>
<path fill="none" stroke="#d8bc56" stroke-width="2" d="M1238,-36C1238,-36 1208,-36 1208,-36 1202,-36 1196,-30 1196,-24 1196,-24 1196,-12 1196,-12 1196,-6 1202,0 1208,0 1208,0 1238,0 1238,0 1244,0 1250,-6 1250,-12 1250,-12 1250,-24 1250,-24 1250,-30 1244,-36 1238,-36"/>
<text text-anchor="middle" x="1223" y="-15.5" font-family="sans" font-size="10.00">all</text>
</g>
<!-- 1 -->
<g id="node2" class="node">
<title>1</title>
<path fill="none" stroke="#568ad8" stroke-width="2" stroke-dasharray="5,2" d="M850,-113C850,-113 740,-113 740,-113 734,-113 728,-107 728,-101 728,-101 728,-84 728,-84 728,-78 734,-72 740,-72 740,-72 850,-72 850,-72 856,-72 862,-78 862,-84 862,-84 862,-101 862,-101 862,-107 856,-113 850,-113"/>
<text text-anchor="middle" x="795" y="-101" font-family="sans" font-size="10.00">downscale_bc</text>
<text text-anchor="middle" x="795" y="-90" font-family="sans" font-size="10.00">period_base: 1980&#45;2005</text>
<text text-anchor="middle" x="795" y="-79" font-family="sans" font-size="10.00">period_proj: 2071&#45;2100</text>
</g>
<!-- 1&#45;&gt;0 -->
<g id="edge1" class="edge">
<title>1&#45;&gt;0</title>
<path fill="none" stroke="grey" stroke-width="2" d="M862.35,-80.09C953.67,-64.62 1113.64,-37.52 1185.81,-25.3"/>
<polygon fill="grey" stroke="grey" stroke-width="2" points="1186.53,-28.73 1195.81,-23.61 1185.36,-21.83 1186.53,-28.73"/>
</g>
<!-- 2 -->
<g id="node3" class="node">
<title>2</title>
<path fill="none" stroke="#88d856" stroke-width="2" stroke-dasharray="5,2" d="M498,-228.5C498,-228.5 364,-228.5 364,-228.5 358,-228.5 352,-222.5 352,-216.5 352,-216.5 352,-177.5 352,-177.5 352,-171.5 358,-165.5 364,-165.5 364,-165.5 498,-165.5 498,-165.5 504,-165.5 510,-171.5 510,-177.5 510,-177.5 510,-216.5 510,-216.5 510,-222.5 504,-228.5 498,-228.5"/>
<text text-anchor="middle" x="431" y="-216.5" font-family="sans" font-size="10.00">aggregate_proj</text>
<text text-anchor="middle" x="431" y="-205.5" font-family="sans" font-size="10.00">aggregation: monthly&#45;means</text>
<text text-anchor="middle" x="431" y="-194.5" font-family="sans" font-size="10.00">area: New&#45;Caledonia</text>
<text text-anchor="middle" x="431" y="-183.5" font-family="sans" font-size="10.00">period: 2071&#45;2100</text>
<text text-anchor="middle" x="431" y="-172.5" font-family="sans" font-size="10.00">project: CORDEX</text>
</g>
<!-- 2&#45;&gt;1 -->
<g id="edge7" class="edge">
<title>2&#45;&gt;1</title>
<path fill="none" stroke="grey" stroke-width="2" d="M482.43,-165.32C494.16,-159.24 506.77,-153.39 519,-149 584.1,-125.64 661.56,-111.15 717.82,-102.86"/>
<polygon fill="grey" stroke="grey" stroke-width="2" points="718.32,-106.32 727.72,-101.43 717.32,-99.39 718.32,-106.32"/>
</g>
<!-- 3 -->
<g id="node4" class="node">
<title>3</title>
<path fill="none" stroke="#d85656" stroke-width="2" stroke-dasharray="5,2" d="M486.5,-388C486.5,-388 375.5,-388 375.5,-388 369.5,-388 363.5,-382 363.5,-376 363.5,-376 363.5,-293 363.5,-293 363.5,-287 369.5,-281 375.5,-281 375.5,-281 486.5,-281 486.5,-281 492.5,-281 498.5,-287 498.5,-293 498.5,-293 498.5,-376 498.5,-376 498.5,-382 492.5,-388 486.5,-388"/>
<text text-anchor="middle" x="431" y="-376" font-family="sans" font-size="10.00">get_cordex</text>
<text text-anchor="middle" x="431" y="-365" font-family="sans" font-size="10.00">base: chelsa2</text>
<text text-anchor="middle" x="431" y="-354" font-family="sans" font-size="10.00">domain: AUS&#45;22</text>
<text text-anchor="middle" x="431" y="-343" font-family="sans" font-size="10.00">downscaling: v0</text>
<text text-anchor="middle" x="431" y="-332" font-family="sans" font-size="10.00">ensemble: r1i1p1</text>
<text text-anchor="middle" x="431" y="-321" font-family="sans" font-size="10.00">experiment: rcp26</text>
<text text-anchor="middle" x="431" y="-310" font-family="sans" font-size="10.00">institute: ICTP</text>
<text text-anchor="middle" x="431" y="-299" font-family="sans" font-size="10.00">model: NCC&#45;NorESM1&#45;M</text>
<text text-anchor="middle" x="431" y="-288" font-family="sans" font-size="10.00">rcm: RegCM4&#45;7</text>
</g>
<!-- 3&#45;&gt;2 -->
<g id="edge10" class="edge">
<title>3&#45;&gt;2</title>
<path fill="none" stroke="grey" stroke-width="2" d="M431,-280.72C431,-266.77 431,-251.92 431,-238.71"/>
<polygon fill="grey" stroke="grey" stroke-width="2" points="434.5,-238.52 431,-228.52 427.5,-238.52 434.5,-238.52"/>
</g>
<!-- 7 -->
<g id="node8" class="node">
<title>7</title>
<path fill="none" stroke="#88d856" stroke-width="2" stroke-dasharray="5,2" d="M674,-228.5C674,-228.5 540,-228.5 540,-228.5 534,-228.5 528,-222.5 528,-216.5 528,-216.5 528,-177.5 528,-177.5 528,-171.5 534,-165.5 540,-165.5 540,-165.5 674,-165.5 674,-165.5 680,-165.5 686,-171.5 686,-177.5 686,-177.5 686,-216.5 686,-216.5 686,-222.5 680,-228.5 674,-228.5"/>
<text text-anchor="middle" x="607" y="-216.5" font-family="sans" font-size="10.00">aggregate_proj</text>
<text text-anchor="middle" x="607" y="-205.5" font-family="sans" font-size="10.00">aggregation: monthly&#45;means</text>
<text text-anchor="middle" x="607" y="-194.5" font-family="sans" font-size="10.00">area: New&#45;Caledonia</text>
<text text-anchor="middle" x="607" y="-183.5" font-family="sans" font-size="10.00">period: 1980&#45;2005</text>
<text text-anchor="middle" x="607" y="-172.5" font-family="sans" font-size="10.00">project: CORDEX</text>
</g>
<!-- 3&#45;&gt;7 -->
<g id="edge14" class="edge">
<title>3&#45;&gt;7</title>
<path fill="none" stroke="grey" stroke-width="2" d="M498.54,-281.5C518.72,-265.96 540.43,-249.25 559.07,-234.9"/>
<polygon fill="grey" stroke="grey" stroke-width="2" points="561.35,-237.56 567.14,-228.69 557.08,-232.02 561.35,-237.56"/>
</g>
<!-- 10 -->
<g id="node11" class="node">
<title>10</title>
<path fill="none" stroke="#88d856" stroke-width="2" stroke-dasharray="5,2" d="M146,-228.5C146,-228.5 12,-228.5 12,-228.5 6,-228.5 0,-222.5 0,-216.5 0,-216.5 0,-177.5 0,-177.5 0,-171.5 6,-165.5 12,-165.5 12,-165.5 146,-165.5 146,-165.5 152,-165.5 158,-171.5 158,-177.5 158,-177.5 158,-216.5 158,-216.5 158,-222.5 152,-228.5 146,-228.5"/>
<text text-anchor="middle" x="79" y="-216.5" font-family="sans" font-size="10.00">aggregate_proj</text>
<text text-anchor="middle" x="79" y="-205.5" font-family="sans" font-size="10.00">aggregation: monthly&#45;means</text>
<text text-anchor="middle" x="79" y="-194.5" font-family="sans" font-size="10.00">area: Vanuatu</text>
<text text-anchor="middle" x="79" y="-183.5" font-family="sans" font-size="10.00">period: 2071&#45;2100</text>
<text text-anchor="middle" x="79" y="-172.5" font-family="sans" font-size="10.00">project: CORDEX</text>
</g>
<!-- 3&#45;&gt;10 -->
<g id="edge19" class="edge">
<title>3&#45;&gt;10</title>
<path fill="none" stroke="grey" stroke-width="2" d="M363.39,-314.25C309.35,-298.05 232.14,-273.08 167,-245 158.71,-241.43 150.14,-237.36 141.76,-233.14"/>
<polygon fill="grey" stroke="grey" stroke-width="2" points="143.25,-229.98 132.76,-228.53 140.06,-236.21 143.25,-229.98"/>
</g>
<!-- 11 -->
<g id="node12" class="node">
<title>11</title>
<path fill="none" stroke="#88d856" stroke-width="2" stroke-dasharray="5,2" d="M322,-228.5C322,-228.5 188,-228.5 188,-228.5 182,-228.5 176,-222.5 176,-216.5 176,-216.5 176,-177.5 176,-177.5 176,-171.5 182,-165.5 188,-165.5 188,-165.5 322,-165.5 322,-165.5 328,-165.5 334,-171.5 334,-177.5 334,-177.5 334,-216.5 334,-216.5 334,-222.5 328,-228.5 322,-228.5"/>
<text text-anchor="middle" x="255" y="-216.5" font-family="sans" font-size="10.00">aggregate_proj</text>
<text text-anchor="middle" x="255" y="-205.5" font-family="sans" font-size="10.00">aggregation: monthly&#45;means</text>
<text text-anchor="middle" x="255" y="-194.5" font-family="sans" font-size="10.00">area: Vanuatu</text>
<text text-anchor="middle" x="255" y="-183.5" font-family="sans" font-size="10.00">period: 1980&#45;2005</text>
<text text-anchor="middle" x="255" y="-172.5" font-family="sans" font-size="10.00">project: CORDEX</text>
</g>
<!-- 3&#45;&gt;11 -->
<g id="edge20" class="edge">
<title>3&#45;&gt;11</title>
<path fill="none" stroke="grey" stroke-width="2" d="M363.46,-281.5C343.28,-265.96 321.57,-249.25 302.93,-234.9"/>
<polygon fill="grey" stroke="grey" stroke-width="2" points="304.92,-232.02 294.86,-228.69 300.65,-237.56 304.92,-232.02"/>
</g>
<!-- 4 -->
<g id="node5" class="node">
<title>4</title>
<path fill="none" stroke="#56d8c1" stroke-width="2" stroke-dasharray="5,2" d="M1248.5,-460C1248.5,-460 1197.5,-460 1197.5,-460 1191.5,-460 1185.5,-454 1185.5,-448 1185.5,-448 1185.5,-436 1185.5,-436 1185.5,-430 1191.5,-424 1197.5,-424 1197.5,-424 1248.5,-424 1248.5,-424 1254.5,-424 1260.5,-430 1260.5,-436 1260.5,-436 1260.5,-448 1260.5,-448 1260.5,-454 1254.5,-460 1248.5,-460"/>
<text text-anchor="middle" x="1223" y="-439.5" font-family="sans" font-size="10.00">get_chelsa2</text>
</g>
<!-- 4&#45;&gt;3 -->
<g id="edge11" class="edge">
<title>4&#45;&gt;3</title>
<path fill="none" stroke="grey" stroke-width="2" d="M1185.33,-435.98C1063.08,-419.7 675.67,-368.09 508.75,-345.86"/>
<polygon fill="grey" stroke="grey" stroke-width="2" points="508.93,-342.35 498.56,-344.5 508.01,-349.29 508.93,-342.35"/>
</g>
<!-- 8 -->
<g id="node9" class="node">
<title>8</title>
<path fill="none" stroke="#56c1d8" stroke-width="2" stroke-dasharray="5,2" d="M1730,-228.5C1730,-228.5 1596,-228.5 1596,-228.5 1590,-228.5 1584,-222.5 1584,-216.5 1584,-216.5 1584,-177.5 1584,-177.5 1584,-171.5 1590,-165.5 1596,-165.5 1596,-165.5 1730,-165.5 1730,-165.5 1736,-165.5 1742,-171.5 1742,-177.5 1742,-177.5 1742,-216.5 1742,-216.5 1742,-222.5 1736,-228.5 1730,-228.5"/>
<text text-anchor="middle" x="1663" y="-216.5" font-family="sans" font-size="10.00">aggregate_base</text>
<text text-anchor="middle" x="1663" y="-205.5" font-family="sans" font-size="10.00">aggregation: monthly&#45;means</text>
<text text-anchor="middle" x="1663" y="-194.5" font-family="sans" font-size="10.00">area: New&#45;Caledonia</text>
<text text-anchor="middle" x="1663" y="-183.5" font-family="sans" font-size="10.00">base: chelsa2</text>
<text text-anchor="middle" x="1663" y="-172.5" font-family="sans" font-size="10.00">period: 1980&#45;2005</text>
</g>
<!-- 4&#45;&gt;8 -->
<g id="edge15" class="edge">
<title>4&#45;&gt;8</title>
<path fill="none" stroke="grey" stroke-width="2" d="M1253.94,-423.91C1325.29,-384.51 1502.57,-286.6 1598.65,-233.54"/>
<polygon fill="grey" stroke="grey" stroke-width="2" points="1600.63,-236.45 1607.69,-228.55 1597.24,-230.32 1600.63,-236.45"/>
</g>
<!-- 12 -->
<g id="node13" class="node">
<title>12</title>
<path fill="none" stroke="#56c1d8" stroke-width="2" stroke-dasharray="5,2" d="M850,-228.5C850,-228.5 716,-228.5 716,-228.5 710,-228.5 704,-222.5 704,-216.5 704,-216.5 704,-177.5 704,-177.5 704,-171.5 710,-165.5 716,-165.5 716,-165.5 850,-165.5 850,-165.5 856,-165.5 862,-171.5 862,-177.5 862,-177.5 862,-216.5 862,-216.5 862,-222.5 856,-228.5 850,-228.5"/>
<text text-anchor="middle" x="783" y="-216.5" font-family="sans" font-size="10.00">aggregate_base</text>
<text text-anchor="middle" x="783" y="-205.5" font-family="sans" font-size="10.00">aggregation: monthly&#45;means</text>
<text text-anchor="middle" x="783" y="-194.5" font-family="sans" font-size="10.00">area: Vanuatu</text>
<text text-anchor="middle" x="783" y="-183.5" font-family="sans" font-size="10.00">base: chelsa2</text>
<text text-anchor="middle" x="783" y="-172.5" font-family="sans" font-size="10.00">period: 1980&#45;2005</text>
</g>
<!-- 4&#45;&gt;12 -->
<g id="edge21" class="edge">
<title>4&#45;&gt;12</title>
<path fill="none" stroke="grey" stroke-width="2" d="M1192.06,-423.91C1120.71,-384.51 943.43,-286.6 847.35,-233.54"/>
<polygon fill="grey" stroke="grey" stroke-width="2" points="848.76,-230.32 838.31,-228.55 845.37,-236.45 848.76,-230.32"/>
</g>
<!-- 15 -->
<g id="node16" class="node">
<title>15</title>
<path fill="none" stroke="#bed856" stroke-width="2" d="M1266,-371.5C1266,-371.5 1180,-371.5 1180,-371.5 1174,-371.5 1168,-365.5 1168,-359.5 1168,-359.5 1168,-309.5 1168,-309.5 1168,-303.5 1174,-297.5 1180,-297.5 1180,-297.5 1266,-297.5 1266,-297.5 1272,-297.5 1278,-303.5 1278,-309.5 1278,-309.5 1278,-359.5 1278,-359.5 1278,-365.5 1272,-371.5 1266,-371.5"/>
<text text-anchor="middle" x="1223" y="-359.5" font-family="sans" font-size="10.00">get_cmip5</text>
<text text-anchor="middle" x="1223" y="-348.5" font-family="sans" font-size="10.00">base: chelsa2</text>
<text text-anchor="middle" x="1223" y="-337.5" font-family="sans" font-size="10.00">ensemble: r1i1p1</text>
<text text-anchor="middle" x="1223" y="-326.5" font-family="sans" font-size="10.00">experiment: rcp26</text>
<text text-anchor="middle" x="1223" y="-315.5" font-family="sans" font-size="10.00">institute: NCC</text>
<text text-anchor="middle" x="1223" y="-304.5" font-family="sans" font-size="10.00">model: NorESM1&#45;M</text>
</g>
<!-- 4&#45;&gt;15 -->
<g id="edge26" class="edge">
<title>4&#45;&gt;15</title>
<path fill="none" stroke="grey" stroke-width="2" d="M1223,-423.58C1223,-412.17 1223,-396.67 1223,-381.86"/>
<polygon fill="grey" stroke="grey" stroke-width="2" points="1226.5,-381.77 1223,-371.77 1219.5,-381.77 1226.5,-381.77"/>
</g>
<!-- 22 -->
<g id="node23" class="node">
<title>22</title>
<path fill="none" stroke="#56d88a" stroke-width="2" d="M2062.5,-371.5C2062.5,-371.5 1967.5,-371.5 1967.5,-371.5 1961.5,-371.5 1955.5,-365.5 1955.5,-359.5 1955.5,-359.5 1955.5,-309.5 1955.5,-309.5 1955.5,-303.5 1961.5,-297.5 1967.5,-297.5 1967.5,-297.5 2062.5,-297.5 2062.5,-297.5 2068.5,-297.5 2074.5,-303.5 2074.5,-309.5 2074.5,-309.5 2074.5,-359.5 2074.5,-359.5 2074.5,-365.5 2068.5,-371.5 2062.5,-371.5"/>
<text text-anchor="middle" x="2015" y="-359.5" font-family="sans" font-size="10.00">get_cmip6</text>
<text text-anchor="middle" x="2015" y="-348.5" font-family="sans" font-size="10.00">base: chelsa2</text>
<text text-anchor="middle" x="2015" y="-337.5" font-family="sans" font-size="10.00">ensemble: r1i1p1f1</text>
<text text-anchor="middle" x="2015" y="-326.5" font-family="sans" font-size="10.00">experiment: ssp126</text>
<text text-anchor="middle" x="2015" y="-315.5" font-family="sans" font-size="10.00">institute: NCC</text>
<text text-anchor="middle" x="2015" y="-304.5" font-family="sans" font-size="10.00">model: NorESM2&#45;MM</text>
</g>
<!-- 4&#45;&gt;22 -->
<g id="edge37" class="edge">
<title>4&#45;&gt;22</title>
<path fill="none" stroke="grey" stroke-width="2" d="M1260.67,-435.98C1384.83,-419.44 1782.49,-366.47 1944.9,-344.84"/>
<polygon fill="grey" stroke="grey" stroke-width="2" points="1945.81,-348.25 1955.26,-343.46 1944.88,-341.31 1945.81,-348.25"/>
</g>
<!-- 5 -->
<g id="node6" class="node">
<title>5</title>
<path fill="none" stroke="#59d856" stroke-width="2" stroke-dasharray="5,2" d="M1210.5,-532C1210.5,-532 1115.5,-532 1115.5,-532 1109.5,-532 1103.5,-526 1103.5,-520 1103.5,-520 1103.5,-508 1103.5,-508 1103.5,-502 1109.5,-496 1115.5,-496 1115.5,-496 1210.5,-496 1210.5,-496 1216.5,-496 1222.5,-502 1222.5,-508 1222.5,-508 1222.5,-520 1222.5,-520 1222.5,-526 1216.5,-532 1210.5,-532"/>
<text text-anchor="middle" x="1163" y="-517" font-family="sans" font-size="10.00">get_area</text>
<text text-anchor="middle" x="1163" y="-506" font-family="sans" font-size="10.00">area: New&#45;Caledonia</text>
</g>
<!-- 5&#45;&gt;4 -->
<g id="edge12" class="edge">
<title>5&#45;&gt;4</title>
<path fill="none" stroke="grey" stroke-width="2" d="M1177.83,-495.7C1185.02,-487.3 1193.8,-477.07 1201.69,-467.86"/>
<polygon fill="grey" stroke="grey" stroke-width="2" points="1204.49,-469.97 1208.34,-460.1 1199.17,-465.42 1204.49,-469.97"/>
</g>
<!-- 6 -->
<g id="node7" class="node">
<title>6</title>
<path fill="none" stroke="#59d856" stroke-width="2" stroke-dasharray="5,2" d="M1313,-532C1313,-532 1253,-532 1253,-532 1247,-532 1241,-526 1241,-520 1241,-520 1241,-508 1241,-508 1241,-502 1247,-496 1253,-496 1253,-496 1313,-496 1313,-496 1319,-496 1325,-502 1325,-508 1325,-508 1325,-520 1325,-520 1325,-526 1319,-532 1313,-532"/>
<text text-anchor="middle" x="1283" y="-517" font-family="sans" font-size="10.00">get_area</text>
<text text-anchor="middle" x="1283" y="-506" font-family="sans" font-size="10.00">area: Vanuatu</text>
</g>
<!-- 6&#45;&gt;4 -->
<g id="edge13" class="edge">
<title>6&#45;&gt;4</title>
<path fill="none" stroke="grey" stroke-width="2" d="M1268.17,-495.7C1260.98,-487.3 1252.2,-477.07 1244.31,-467.86"/>
<polygon fill="grey" stroke="grey" stroke-width="2" points="1246.83,-465.42 1237.66,-460.1 1241.51,-469.97 1246.83,-465.42"/>
</g>
<!-- 7&#45;&gt;1 -->
<g id="edge8" class="edge">
<title>7&#45;&gt;1</title>
<path fill="none" stroke="grey" stroke-width="2" d="M663.15,-165.39C690.93,-150.24 724,-132.21 750.07,-118"/>
<polygon fill="grey" stroke="grey" stroke-width="2" points="751.88,-121 758.98,-113.14 748.53,-114.85 751.88,-121"/>
</g>
<!-- 8&#45;&gt;1 -->
<g id="edge9" class="edge">
<title>8&#45;&gt;1</title>
<path fill="none" stroke="grey" stroke-width="2" d="M1614.78,-165.48C1602.27,-158.91 1588.5,-152.81 1575,-149 1445.59,-112.48 1104.98,-124.41 971,-113 938.66,-110.25 903.07,-106.45 872.4,-102.93"/>
<polygon fill="grey" stroke="grey" stroke-width="2" points="872.53,-99.43 862.2,-101.76 871.73,-106.38 872.53,-99.43"/>
</g>
<!-- 13 -->
<g id="node14" class="node">
<title>13</title>
<path fill="none" stroke="#568ad8" stroke-width="2" d="M1454,-113C1454,-113 1344,-113 1344,-113 1338,-113 1332,-107 1332,-101 1332,-101 1332,-84 1332,-84 1332,-78 1338,-72 1344,-72 1344,-72 1454,-72 1454,-72 1460,-72 1466,-78 1466,-84 1466,-84 1466,-101 1466,-101 1466,-107 1460,-113 1454,-113"/>
<text text-anchor="middle" x="1399" y="-101" font-family="sans" font-size="10.00">downscale_bc</text>
<text text-anchor="middle" x="1399" y="-90" font-family="sans" font-size="10.00">period_base: 1980&#45;2005</text>
<text text-anchor="middle" x="1399" y="-79" font-family="sans" font-size="10.00">period_proj: 2071&#45;2100</text>
</g>
<!-- 8&#45;&gt;13 -->
<g id="edge24" class="edge">
<title>8&#45;&gt;13</title>
<path fill="none" stroke="grey" stroke-width="2" d="M1609.31,-165.31C1598.15,-159.5 1586.34,-153.77 1575,-149 1543.29,-135.67 1507.21,-123.75 1476.02,-114.42"/>
<polygon fill="grey" stroke="grey" stroke-width="2" points="1476.65,-110.95 1466.07,-111.48 1474.67,-117.67 1476.65,-110.95"/>
</g>
<!-- 20 -->
<g id="node21" class="node">
<title>20</title>
<path fill="none" stroke="#568ad8" stroke-width="2" d="M1894,-113C1894,-113 1784,-113 1784,-113 1778,-113 1772,-107 1772,-101 1772,-101 1772,-84 1772,-84 1772,-78 1778,-72 1784,-72 1784,-72 1894,-72 1894,-72 1900,-72 1906,-78 1906,-84 1906,-84 1906,-101 1906,-101 1906,-107 1900,-113 1894,-113"/>
<text text-anchor="middle" x="1839" y="-101" font-family="sans" font-size="10.00">downscale_bc</text>
<text text-anchor="middle" x="1839" y="-90" font-family="sans" font-size="10.00">period_base: 1980&#45;2005</text>
<text text-anchor="middle" x="1839" y="-79" font-family="sans" font-size="10.00">period_proj: 2071&#45;2100</text>
</g>
<!-- 8&#45;&gt;20 -->
<g id="edge35" class="edge">
<title>8&#45;&gt;20</title>
<path fill="none" stroke="grey" stroke-width="2" d="M1715.81,-165.25C1741.57,-150.24 1772.16,-132.43 1796.41,-118.3"/>
<polygon fill="grey" stroke="grey" stroke-width="2" points="1798.49,-121.14 1805.37,-113.08 1794.97,-115.09 1798.49,-121.14"/>
</g>
<!-- 9 -->
<g id="node10" class="node">
<title>9</title>
<path fill="none" stroke="#568ad8" stroke-width="2" stroke-dasharray="5,2" d="M498,-113C498,-113 388,-113 388,-113 382,-113 376,-107 376,-101 376,-101 376,-84 376,-84 376,-78 382,-72 388,-72 388,-72 498,-72 498,-72 504,-72 510,-78 510,-84 510,-84 510,-101 510,-101 510,-107 504,-113 498,-113"/>
<text text-anchor="middle" x="443" y="-101" font-family="sans" font-size="10.00">downscale_bc</text>
<text text-anchor="middle" x="443" y="-90" font-family="sans" font-size="10.00">period_base: 1980&#45;2005</text>
<text text-anchor="middle" x="443" y="-79" font-family="sans" font-size="10.00">period_proj: 2071&#45;2100</text>
</g>
<!-- 9&#45;&gt;0 -->
<g id="edge2" class="edge">
<title>9&#45;&gt;0</title>
<path fill="none" stroke="grey" stroke-width="2" d="M510.18,-85.26C668.88,-70.5 1062.9,-33.88 1185.79,-22.46"/>
<polygon fill="grey" stroke="grey" stroke-width="2" points="1186.2,-25.94 1195.83,-21.53 1185.55,-18.97 1186.2,-25.94"/>
</g>
<!-- 10&#45;&gt;9 -->
<g id="edge16" class="edge">
<title>10&#45;&gt;9</title>
<path fill="none" stroke="grey" stroke-width="2" d="M130.43,-165.32C142.16,-159.24 154.77,-153.39 167,-149 232.1,-125.64 309.56,-111.15 365.82,-102.86"/>
<polygon fill="grey" stroke="grey" stroke-width="2" points="366.32,-106.32 375.72,-101.43 365.32,-99.39 366.32,-106.32"/>
</g>
<!-- 11&#45;&gt;9 -->
<g id="edge17" class="edge">
<title>11&#45;&gt;9</title>
<path fill="none" stroke="grey" stroke-width="2" d="M311.15,-165.39C338.93,-150.24 372,-132.21 398.07,-118"/>
<polygon fill="grey" stroke="grey" stroke-width="2" points="399.88,-121 406.98,-113.14 396.53,-114.85 399.88,-121"/>
</g>
<!-- 12&#45;&gt;9 -->
<g id="edge18" class="edge">
<title>12&#45;&gt;9</title>
<path fill="none" stroke="grey" stroke-width="2" d="M731.51,-165.49C719.79,-159.4 707.19,-153.5 695,-149 638.07,-127.98 570.82,-113.67 520.12,-104.85"/>
<polygon fill="grey" stroke="grey" stroke-width="2" points="520.66,-101.39 510.21,-103.15 519.48,-108.29 520.66,-101.39"/>
</g>
<!-- 17 -->
<g id="node18" class="node">
<title>17</title>
<path fill="none" stroke="#568ad8" stroke-width="2" d="M1102,-113C1102,-113 992,-113 992,-113 986,-113 980,-107 980,-101 980,-101 980,-84 980,-84 980,-78 986,-72 992,-72 992,-72 1102,-72 1102,-72 1108,-72 1114,-78 1114,-84 1114,-84 1114,-101 1114,-101 1114,-107 1108,-113 1102,-113"/>
<text text-anchor="middle" x="1047" y="-101" font-family="sans" font-size="10.00">downscale_bc</text>
<text text-anchor="middle" x="1047" y="-90" font-family="sans" font-size="10.00">period_base: 1980&#45;2005</text>
<text text-anchor="middle" x="1047" y="-79" font-family="sans" font-size="10.00">period_proj: 2071&#45;2100</text>
</g>
<!-- 12&#45;&gt;17 -->
<g id="edge30" class="edge">
<title>12&#45;&gt;17</title>
<path fill="none" stroke="grey" stroke-width="2" d="M836.69,-165.31C847.85,-159.5 859.66,-153.77 871,-149 902.71,-135.67 938.79,-123.75 969.98,-114.42"/>
<polygon fill="grey" stroke="grey" stroke-width="2" points="971.33,-117.67 979.93,-111.48 969.35,-110.95 971.33,-117.67"/>
</g>
<!-- 24 -->
<g id="node25" class="node">
<title>24</title>
<path fill="none" stroke="#568ad8" stroke-width="2" d="M1718,-113C1718,-113 1608,-113 1608,-113 1602,-113 1596,-107 1596,-101 1596,-101 1596,-84 1596,-84 1596,-78 1602,-72 1608,-72 1608,-72 1718,-72 1718,-72 1724,-72 1730,-78 1730,-84 1730,-84 1730,-101 1730,-101 1730,-107 1724,-113 1718,-113"/>
<text text-anchor="middle" x="1663" y="-101" font-family="sans" font-size="10.00">downscale_bc</text>
<text text-anchor="middle" x="1663" y="-90" font-family="sans" font-size="10.00">period_base: 1980&#45;2005</text>
<text text-anchor="middle" x="1663" y="-79" font-family="sans" font-size="10.00">period_proj: 2071&#45;2100</text>
</g>
<!-- 12&#45;&gt;24 -->
<g id="edge41" class="edge">
<title>12&#45;&gt;24</title>
<path fill="none" stroke="grey" stroke-width="2" d="M831.22,-165.48C843.73,-158.91 857.5,-152.81 871,-149 1000.41,-112.48 1340.99,-123.94 1475,-113 1511.31,-110.04 1551.48,-105.98 1585.34,-102.33"/>
<polygon fill="grey" stroke="grey" stroke-width="2" points="1586.07,-105.77 1595.63,-101.21 1585.31,-98.81 1586.07,-105.77"/>
</g>
<!-- 13&#45;&gt;0 -->
<g id="edge3" class="edge">
<title>13&#45;&gt;0</title>
<path fill="none" stroke="grey" stroke-width="2" d="M1351.37,-71.88C1322.45,-59.97 1286.1,-44.99 1259.47,-34.02"/>
<polygon fill="grey" stroke="grey" stroke-width="2" points="1260.71,-30.75 1250.13,-30.17 1258.04,-37.22 1260.71,-30.75"/>
</g>
<!-- 14 -->
<g id="node15" class="node">
<title>14</title>
<path fill="none" stroke="#88d856" stroke-width="2" d="M1554,-245C1554,-245 1420,-245 1420,-245 1414,-245 1408,-239 1408,-233 1408,-233 1408,-161 1408,-161 1408,-155 1414,-149 1420,-149 1420,-149 1554,-149 1554,-149 1560,-149 1566,-155 1566,-161 1566,-161 1566,-233 1566,-233 1566,-239 1560,-245 1554,-245"/>
<text text-anchor="middle" x="1487" y="-233" font-family="sans" font-size="10.00">aggregate_proj</text>
<text text-anchor="middle" x="1487" y="-222" font-family="sans" font-size="10.00">aggregation: monthly&#45;means</text>
<text text-anchor="middle" x="1487" y="-211" font-family="sans" font-size="10.00">area: New&#45;Caledonia</text>
<text text-anchor="middle" x="1487" y="-200" font-family="sans" font-size="10.00">domain: world</text>
<text text-anchor="middle" x="1487" y="-189" font-family="sans" font-size="10.00">downscaling: none</text>
<text text-anchor="middle" x="1487" y="-178" font-family="sans" font-size="10.00">period: 2071&#45;2100</text>
<text text-anchor="middle" x="1487" y="-167" font-family="sans" font-size="10.00">project: CMIP5</text>
<text text-anchor="middle" x="1487" y="-156" font-family="sans" font-size="10.00">rcm: none</text>
</g>
<!-- 14&#45;&gt;13 -->
<g id="edge22" class="edge">
<title>14&#45;&gt;13</title>
<path fill="none" stroke="grey" stroke-width="2" d="M1446.61,-148.95C1438.3,-139.28 1429.83,-129.41 1422.37,-120.73"/>
<polygon fill="grey" stroke="grey" stroke-width="2" points="1425.02,-118.43 1415.85,-113.13 1419.71,-122.99 1425.02,-118.43"/>
</g>
<!-- 15&#45;&gt;14 -->
<g id="edge25" class="edge">
<title>15&#45;&gt;14</title>
<path fill="none" stroke="grey" stroke-width="2" d="M1278.27,-306.14C1313.03,-288.83 1358.77,-265.86 1399,-245 1399.09,-244.95 1399.18,-244.91 1399.27,-244.86"/>
<polygon fill="grey" stroke="grey" stroke-width="2" points="1400.64,-248.09 1407.89,-240.37 1397.41,-241.88 1400.64,-248.09"/>
</g>
<!-- 16 -->
<g id="node17" class="node">
<title>16</title>
<path fill="none" stroke="#88d856" stroke-width="2" d="M1378,-245C1378,-245 1244,-245 1244,-245 1238,-245 1232,-239 1232,-233 1232,-233 1232,-161 1232,-161 1232,-155 1238,-149 1244,-149 1244,-149 1378,-149 1378,-149 1384,-149 1390,-155 1390,-161 1390,-161 1390,-233 1390,-233 1390,-239 1384,-245 1378,-245"/>
<text text-anchor="middle" x="1311" y="-233" font-family="sans" font-size="10.00">aggregate_proj</text>
<text text-anchor="middle" x="1311" y="-222" font-family="sans" font-size="10.00">aggregation: monthly&#45;means</text>
<text text-anchor="middle" x="1311" y="-211" font-family="sans" font-size="10.00">area: New&#45;Caledonia</text>
<text text-anchor="middle" x="1311" y="-200" font-family="sans" font-size="10.00">domain: world</text>
<text text-anchor="middle" x="1311" y="-189" font-family="sans" font-size="10.00">downscaling: none</text>
<text text-anchor="middle" x="1311" y="-178" font-family="sans" font-size="10.00">period: 1980&#45;2005</text>
<text text-anchor="middle" x="1311" y="-167" font-family="sans" font-size="10.00">project: CMIP5</text>
<text text-anchor="middle" x="1311" y="-156" font-family="sans" font-size="10.00">rcm: none</text>
</g>
<!-- 15&#45;&gt;16 -->
<g id="edge27" class="edge">
<title>15&#45;&gt;16</title>
<path fill="none" stroke="grey" stroke-width="2" d="M1246.58,-297.19C1255.26,-283.82 1265.31,-268.35 1274.85,-253.67"/>
<polygon fill="grey" stroke="grey" stroke-width="2" points="1277.88,-255.43 1280.39,-245.14 1272.01,-251.62 1277.88,-255.43"/>
</g>
<!-- 18 -->
<g id="node19" class="node">
<title>18</title>
<path fill="none" stroke="#88d856" stroke-width="2" d="M1026,-245C1026,-245 892,-245 892,-245 886,-245 880,-239 880,-233 880,-233 880,-161 880,-161 880,-155 886,-149 892,-149 892,-149 1026,-149 1026,-149 1032,-149 1038,-155 1038,-161 1038,-161 1038,-233 1038,-233 1038,-239 1032,-245 1026,-245"/>
<text text-anchor="middle" x="959" y="-233" font-family="sans" font-size="10.00">aggregate_proj</text>
<text text-anchor="middle" x="959" y="-222" font-family="sans" font-size="10.00">aggregation: monthly&#45;means</text>
<text text-anchor="middle" x="959" y="-211" font-family="sans" font-size="10.00">area: Vanuatu</text>
<text text-anchor="middle" x="959" y="-200" font-family="sans" font-size="10.00">domain: world</text>
<text text-anchor="middle" x="959" y="-189" font-family="sans" font-size="10.00">downscaling: none</text>
<text text-anchor="middle" x="959" y="-178" font-family="sans" font-size="10.00">period: 2071&#45;2100</text>
<text text-anchor="middle" x="959" y="-167" font-family="sans" font-size="10.00">project: CMIP5</text>
<text text-anchor="middle" x="959" y="-156" font-family="sans" font-size="10.00">rcm: none</text>
</g>
<!-- 15&#45;&gt;18 -->
<g id="edge31" class="edge">
<title>15&#45;&gt;18</title>
<path fill="none" stroke="grey" stroke-width="2" d="M1167.73,-306.14C1132.97,-288.83 1087.23,-265.86 1047,-245 1046.91,-244.95 1046.82,-244.91 1046.73,-244.86"/>
<polygon fill="grey" stroke="grey" stroke-width="2" points="1048.59,-241.88 1038.11,-240.37 1045.36,-248.09 1048.59,-241.88"/>
</g>
<!-- 19 -->
<g id="node20" class="node">
<title>19</title>
<path fill="none" stroke="#88d856" stroke-width="2" d="M1202,-245C1202,-245 1068,-245 1068,-245 1062,-245 1056,-239 1056,-233 1056,-233 1056,-161 1056,-161 1056,-155 1062,-149 1068,-149 1068,-149 1202,-149 1202,-149 1208,-149 1214,-155 1214,-161 1214,-161 1214,-233 1214,-233 1214,-239 1208,-245 1202,-245"/>
<text text-anchor="middle" x="1135" y="-233" font-family="sans" font-size="10.00">aggregate_proj</text>
<text text-anchor="middle" x="1135" y="-222" font-family="sans" font-size="10.00">aggregation: monthly&#45;means</text>
<text text-anchor="middle" x="1135" y="-211" font-family="sans" font-size="10.00">area: Vanuatu</text>
<text text-anchor="middle" x="1135" y="-200" font-family="sans" font-size="10.00">domain: world</text>
<text text-anchor="middle" x="1135" y="-189" font-family="sans" font-size="10.00">downscaling: none</text>
<text text-anchor="middle" x="1135" y="-178" font-family="sans" font-size="10.00">period: 1980&#45;2005</text>
<text text-anchor="middle" x="1135" y="-167" font-family="sans" font-size="10.00">project: CMIP5</text>
<text text-anchor="middle" x="1135" y="-156" font-family="sans" font-size="10.00">rcm: none</text>
</g>
<!-- 15&#45;&gt;19 -->
<g id="edge32" class="edge">
<title>15&#45;&gt;19</title>
<path fill="none" stroke="grey" stroke-width="2" d="M1199.42,-297.19C1190.74,-283.82 1180.69,-268.35 1171.15,-253.67"/>
<polygon fill="grey" stroke="grey" stroke-width="2" points="1173.99,-251.62 1165.61,-245.14 1168.12,-255.43 1173.99,-251.62"/>
</g>
<!-- 16&#45;&gt;13 -->
<g id="edge23" class="edge">
<title>16&#45;&gt;13</title>
<path fill="none" stroke="grey" stroke-width="2" d="M1351.39,-148.95C1359.7,-139.28 1368.17,-129.41 1375.63,-120.73"/>
<polygon fill="grey" stroke="grey" stroke-width="2" points="1378.29,-122.99 1382.15,-113.13 1372.98,-118.43 1378.29,-122.99"/>
</g>
<!-- 17&#45;&gt;0 -->
<g id="edge4" class="edge">
<title>17&#45;&gt;0</title>
<path fill="none" stroke="grey" stroke-width="2" d="M1094.63,-71.88C1123.55,-59.97 1159.9,-44.99 1186.53,-34.02"/>
<polygon fill="grey" stroke="grey" stroke-width="2" points="1187.96,-37.22 1195.87,-30.17 1185.29,-30.75 1187.96,-37.22"/>
</g>
<!-- 18&#45;&gt;17 -->
<g id="edge28" class="edge">
<title>18&#45;&gt;17</title>
<path fill="none" stroke="grey" stroke-width="2" d="M999.39,-148.95C1007.7,-139.28 1016.17,-129.41 1023.63,-120.73"/>
<polygon fill="grey" stroke="grey" stroke-width="2" points="1026.29,-122.99 1030.15,-113.13 1020.98,-118.43 1026.29,-122.99"/>
</g>
<!-- 19&#45;&gt;17 -->
<g id="edge29" class="edge">
<title>19&#45;&gt;17</title>
<path fill="none" stroke="grey" stroke-width="2" d="M1094.61,-148.95C1086.3,-139.28 1077.83,-129.41 1070.37,-120.73"/>
<polygon fill="grey" stroke="grey" stroke-width="2" points="1073.02,-118.43 1063.85,-113.13 1067.71,-122.99 1073.02,-118.43"/>
</g>
<!-- 20&#45;&gt;0 -->
<g id="edge5" class="edge">
<title>20&#45;&gt;0</title>
<path fill="none" stroke="grey" stroke-width="2" d="M1771.9,-77.55C1760.94,-75.52 1749.67,-73.59 1739,-72 1560.68,-45.51 1345.71,-28.04 1260.46,-21.68"/>
<polygon fill="grey" stroke="grey" stroke-width="2" points="1260.47,-18.17 1250.24,-20.93 1259.96,-25.15 1260.47,-18.17"/>
</g>
<!-- 21 -->
<g id="node22" class="node">
<title>21</title>
<path fill="none" stroke="#88d856" stroke-width="2" d="M2258,-245C2258,-245 2124,-245 2124,-245 2118,-245 2112,-239 2112,-233 2112,-233 2112,-161 2112,-161 2112,-155 2118,-149 2124,-149 2124,-149 2258,-149 2258,-149 2264,-149 2270,-155 2270,-161 2270,-161 2270,-233 2270,-233 2270,-239 2264,-245 2258,-245"/>
<text text-anchor="middle" x="2191" y="-233" font-family="sans" font-size="10.00">aggregate_proj</text>
<text text-anchor="middle" x="2191" y="-222" font-family="sans" font-size="10.00">aggregation: monthly&#45;means</text>
<text text-anchor="middle" x="2191" y="-211" font-family="sans" font-size="10.00">area: New&#45;Caledonia</text>
<text text-anchor="middle" x="2191" y="-200" font-family="sans" font-size="10.00">domain: world</text>
<text text-anchor="middle" x="2191" y="-189" font-family="sans" font-size="10.00">downscaling: none</text>
<text text-anchor="middle" x="2191" y="-178" font-family="sans" font-size="10.00">period: 2071&#45;2100</text>
<text text-anchor="middle" x="2191" y="-167" font-family="sans" font-size="10.00">project: CMIP6</text>
<text text-anchor="middle" x="2191" y="-156" font-family="sans" font-size="10.00">rcm: none</text>
</g>
<!-- 21&#45;&gt;20 -->
<g id="edge33" class="edge">
<title>21&#45;&gt;20</title>
<path fill="none" stroke="grey" stroke-width="2" d="M2111.84,-152.43C2108.88,-151.21 2105.93,-150.07 2103,-149 2042.01,-126.81 1969.7,-112.39 1916.19,-103.82"/>
<polygon fill="grey" stroke="grey" stroke-width="2" points="1916.51,-100.32 1906.08,-102.23 1915.42,-107.24 1916.51,-100.32"/>
</g>
<!-- 22&#45;&gt;21 -->
<g id="edge36" class="edge">
<title>22&#45;&gt;21</title>
<path fill="none" stroke="grey" stroke-width="2" d="M2062.16,-297.19C2080.42,-283.13 2101.69,-266.76 2121.62,-251.41"/>
<polygon fill="grey" stroke="grey" stroke-width="2" points="2123.99,-254.01 2129.78,-245.14 2119.72,-248.46 2123.99,-254.01"/>
</g>
<!-- 23 -->
<g id="node24" class="node">
<title>23</title>
<path fill="none" stroke="#88d856" stroke-width="2" d="M2434,-245C2434,-245 2300,-245 2300,-245 2294,-245 2288,-239 2288,-233 2288,-233 2288,-161 2288,-161 2288,-155 2294,-149 2300,-149 2300,-149 2434,-149 2434,-149 2440,-149 2446,-155 2446,-161 2446,-161 2446,-233 2446,-233 2446,-239 2440,-245 2434,-245"/>
<text text-anchor="middle" x="2367" y="-233" font-family="sans" font-size="10.00">aggregate_proj</text>
<text text-anchor="middle" x="2367" y="-222" font-family="sans" font-size="10.00">aggregation: monthly&#45;means</text>
<text text-anchor="middle" x="2367" y="-211" font-family="sans" font-size="10.00">area: New&#45;Caledonia</text>
<text text-anchor="middle" x="2367" y="-200" font-family="sans" font-size="10.00">domain: world</text>
<text text-anchor="middle" x="2367" y="-189" font-family="sans" font-size="10.00">downscaling: none</text>
<text text-anchor="middle" x="2367" y="-178" font-family="sans" font-size="10.00">period: 1980&#45;2005</text>
<text text-anchor="middle" x="2367" y="-167" font-family="sans" font-size="10.00">project: CMIP6</text>
<text text-anchor="middle" x="2367" y="-156" font-family="sans" font-size="10.00">rcm: none</text>
</g>
<!-- 22&#45;&gt;23 -->
<g id="edge38" class="edge">
<title>22&#45;&gt;23</title>
<path fill="none" stroke="grey" stroke-width="2" d="M2074.51,-316.66C2126.5,-301.25 2203.86,-276.64 2278.15,-245.21"/>
<polygon fill="grey" stroke="grey" stroke-width="2" points="2279.85,-248.29 2287.67,-241.14 2277.1,-241.85 2279.85,-248.29"/>
</g>
<!-- 25 -->
<g id="node26" class="node">
<title>25</title>
<path fill="none" stroke="#88d856" stroke-width="2" d="M1906,-245C1906,-245 1772,-245 1772,-245 1766,-245 1760,-239 1760,-233 1760,-233 1760,-161 1760,-161 1760,-155 1766,-149 1772,-149 1772,-149 1906,-149 1906,-149 1912,-149 1918,-155 1918,-161 1918,-161 1918,-233 1918,-233 1918,-239 1912,-245 1906,-245"/>
<text text-anchor="middle" x="1839" y="-233" font-family="sans" font-size="10.00">aggregate_proj</text>
<text text-anchor="middle" x="1839" y="-222" font-family="sans" font-size="10.00">aggregation: monthly&#45;means</text>
<text text-anchor="middle" x="1839" y="-211" font-family="sans" font-size="10.00">area: Vanuatu</text>
<text text-anchor="middle" x="1839" y="-200" font-family="sans" font-size="10.00">domain: world</text>
<text text-anchor="middle" x="1839" y="-189" font-family="sans" font-size="10.00">downscaling: none</text>
<text text-anchor="middle" x="1839" y="-178" font-family="sans" font-size="10.00">period: 2071&#45;2100</text>
<text text-anchor="middle" x="1839" y="-167" font-family="sans" font-size="10.00">project: CMIP6</text>
<text text-anchor="middle" x="1839" y="-156" font-family="sans" font-size="10.00">rcm: none</text>
</g>
<!-- 22&#45;&gt;25 -->
<g id="edge42" class="edge">
<title>22&#45;&gt;25</title>
<path fill="none" stroke="grey" stroke-width="2" d="M1967.84,-297.19C1949.58,-283.13 1928.31,-266.76 1908.38,-251.41"/>
<polygon fill="grey" stroke="grey" stroke-width="2" points="1910.28,-248.46 1900.22,-245.14 1906.01,-254.01 1910.28,-248.46"/>
</g>
<!-- 26 -->
<g id="node27" class="node">
<title>26</title>
<path fill="none" stroke="#88d856" stroke-width="2" d="M2082,-245C2082,-245 1948,-245 1948,-245 1942,-245 1936,-239 1936,-233 1936,-233 1936,-161 1936,-161 1936,-155 1942,-149 1948,-149 1948,-149 2082,-149 2082,-149 2088,-149 2094,-155 2094,-161 2094,-161 2094,-233 2094,-233 2094,-239 2088,-245 2082,-245"/>
<text text-anchor="middle" x="2015" y="-233" font-family="sans" font-size="10.00">aggregate_proj</text>
<text text-anchor="middle" x="2015" y="-222" font-family="sans" font-size="10.00">aggregation: monthly&#45;means</text>
<text text-anchor="middle" x="2015" y="-211" font-family="sans" font-size="10.00">area: Vanuatu</text>
<text text-anchor="middle" x="2015" y="-200" font-family="sans" font-size="10.00">domain: world</text>
<text text-anchor="middle" x="2015" y="-189" font-family="sans" font-size="10.00">downscaling: none</text>
<text text-anchor="middle" x="2015" y="-178" font-family="sans" font-size="10.00">period: 1980&#45;2005</text>
<text text-anchor="middle" x="2015" y="-167" font-family="sans" font-size="10.00">project: CMIP6</text>
<text text-anchor="middle" x="2015" y="-156" font-family="sans" font-size="10.00">rcm: none</text>
</g>
<!-- 22&#45;&gt;26 -->
<g id="edge43" class="edge">
<title>22&#45;&gt;26</title>
<path fill="none" stroke="grey" stroke-width="2" d="M2015,-297.19C2015,-284.32 2015,-269.51 2015,-255.32"/>
<polygon fill="grey" stroke="grey" stroke-width="2" points="2018.5,-255.14 2015,-245.14 2011.5,-255.14 2018.5,-255.14"/>
</g>
<!-- 23&#45;&gt;20 -->
<g id="edge34" class="edge">
<title>23&#45;&gt;20</title>
<path fill="none" stroke="grey" stroke-width="2" d="M2287.95,-152.12C2284.96,-150.99 2281.97,-149.95 2279,-149 2156.07,-109.89 2005.59,-98.2 1916.27,-94.79"/>
<polygon fill="grey" stroke="grey" stroke-width="2" points="1916.33,-91.29 1906.22,-94.43 1916.09,-98.29 1916.33,-91.29"/>
</g>
<!-- 24&#45;&gt;0 -->
<g id="edge6" class="edge">
<title>24&#45;&gt;0</title>
<path fill="none" stroke="grey" stroke-width="2" d="M1595.69,-80.41C1501.85,-64.95 1334.86,-37.43 1260.5,-25.18"/>
<polygon fill="grey" stroke="grey" stroke-width="2" points="1260.66,-21.66 1250.23,-23.49 1259.52,-28.57 1260.66,-21.66"/>
</g>
<!-- 25&#45;&gt;24 -->
<g id="edge39" class="edge">
<title>25&#45;&gt;24</title>
<path fill="none" stroke="grey" stroke-width="2" d="M1759.75,-149.85C1741.12,-139 1721.96,-127.84 1705.66,-118.35"/>
<polygon fill="grey" stroke="grey" stroke-width="2" points="1707.32,-115.26 1696.92,-113.25 1703.8,-121.31 1707.32,-115.26"/>
</g>
<!-- 26&#45;&gt;24 -->
<g id="edge40" class="edge">
<title>26&#45;&gt;24</title>
<path fill="none" stroke="grey" stroke-width="2" d="M1935.84,-152.43C1932.88,-151.21 1929.93,-150.07 1927,-149 1909.48,-142.63 1811.58,-122.7 1740.1,-108.56"/>
<polygon fill="grey" stroke="grey" stroke-width="2" points="1740.69,-105.1 1730.2,-106.6 1739.33,-111.97 1740.69,-105.1"/>
</g>
</g>
</svg>
