<?xml version="1.0" encoding="UTF-8" standalone="no"?>
<!DOCTYPE svg PUBLIC "-//W3C//DTD SVG 1.1//EN"
 "http://www.w3.org/Graphics/SVG/1.1/DTD/svg11.dtd">
<!-- Generated by graphviz version 2.43.0 (0)
 -->
<!-- Title: snakemake_dag Pages: 1 -->
<svg width="1530pt" height="606pt"
 viewBox="0.00 0.00 1530.00 606.00" xmlns="http://www.w3.org/2000/svg" xmlns:xlink="http://www.w3.org/1999/xlink">
<g id="graph0" class="graph" transform="scale(1 1) rotate(0) translate(4 602)">
<title>snakemake_dag</title>
<polygon fill="white" stroke="transparent" points="-4,4 -4,-602 1526,-602 1526,4 -4,4"/>
<!-- 0 -->
<g id="node1" class="node">
<title>0</title>
<path fill="none" stroke="#d89556" stroke-width="2" d="M754,-36C754,-36 724,-36 724,-36 718,-36 712,-30 712,-24 712,-24 712,-12 712,-12 712,-6 718,0 724,0 724,0 754,0 754,0 760,0 766,-6 766,-12 766,-12 766,-24 766,-24 766,-30 760,-36 754,-36"/>
<text text-anchor="middle" x="739" y="-15.5" font-family="sans" font-size="10.00">all</text>
</g>
<!-- 1 -->
<g id="node2" class="node">
<title>1</title>
<path fill="none" stroke="#56d89a" stroke-width="2" d="M574,-201C574,-201 464,-201 464,-201 458,-201 452,-195 452,-189 452,-189 452,-172 452,-172 452,-166 458,-160 464,-160 464,-160 574,-160 574,-160 580,-160 586,-166 586,-172 586,-172 586,-189 586,-189 586,-195 580,-201 574,-201"/>
<text text-anchor="middle" x="519" y="-189" font-family="sans" font-size="10.00">downscale_bc</text>
<text text-anchor="middle" x="519" y="-178" font-family="sans" font-size="10.00">period_base: 1980&#45;2005</text>
<text text-anchor="middle" x="519" y="-167" font-family="sans" font-size="10.00">period_proj: 2071&#45;2100</text>
</g>
<!-- 1&#45;&gt;0 -->
<g id="edge1" class="edge">
<title>1&#45;&gt;0</title>
<path fill="none" stroke="grey" stroke-width="2" d="M545.98,-159.82C586.74,-130.08 663.89,-73.8 707.29,-42.14"/>
<polygon fill="grey" stroke="grey" stroke-width="2" points="709.48,-44.87 715.5,-36.15 705.35,-39.21 709.48,-44.87"/>
</g>
<!-- 2 -->
<g id="node3" class="node">
<title>2</title>
<path fill="none" stroke="#d6d856" stroke-width="2" d="M740,-300C740,-300 606,-300 606,-300 600,-300 594,-294 594,-288 594,-288 594,-249 594,-249 594,-243 600,-237 606,-237 606,-237 740,-237 740,-237 746,-237 752,-243 752,-249 752,-249 752,-288 752,-288 752,-294 746,-300 740,-300"/>
<text text-anchor="middle" x="673" y="-288" font-family="sans" font-size="10.00">aggregate_proj</text>
<text text-anchor="middle" x="673" y="-277" font-family="sans" font-size="10.00">aggregation: monthly&#45;means</text>
<text text-anchor="middle" x="673" y="-266" font-family="sans" font-size="10.00">area: New&#45;Caledonia</text>
<text text-anchor="middle" x="673" y="-255" font-family="sans" font-size="10.00">period: 2071&#45;2100</text>
<text text-anchor="middle" x="673" y="-244" font-family="sans" font-size="10.00">project: CORDEX</text>
</g>
<!-- 2&#45;&gt;1 -->
<g id="edge5" class="edge">
<title>2&#45;&gt;1</title>
<path fill="none" stroke="grey" stroke-width="2" d="M618.27,-236.94C600.33,-226.92 580.62,-215.91 563.52,-206.36"/>
<polygon fill="grey" stroke="grey" stroke-width="2" points="564.76,-203.04 554.32,-201.23 561.35,-209.16 564.76,-203.04"/>
</g>
<!-- 3 -->
<g id="node4" class="node">
<title>3</title>
<path fill="none" stroke="#97d856" stroke-width="2" d="M825,-454C825,-454 697,-454 697,-454 691,-454 685,-448 685,-442 685,-442 685,-348 685,-348 685,-342 691,-336 697,-336 697,-336 825,-336 825,-336 831,-336 837,-342 837,-348 837,-348 837,-442 837,-442 837,-448 831,-454 825,-454"/>
<text text-anchor="middle" x="761" y="-442" font-family="sans" font-size="10.00">get_cordex</text>
<text text-anchor="middle" x="761" y="-431" font-family="sans" font-size="10.00">activity: none</text>
<text text-anchor="middle" x="761" y="-420" font-family="sans" font-size="10.00">base: chelsa2</text>
<text text-anchor="middle" x="761" y="-409" font-family="sans" font-size="10.00">domain: AUS&#45;22</text>
<text text-anchor="middle" x="761" y="-398" font-family="sans" font-size="10.00">downscaling: v1</text>
<text text-anchor="middle" x="761" y="-387" font-family="sans" font-size="10.00">ensemble: r1i1p1</text>
<text text-anchor="middle" x="761" y="-376" font-family="sans" font-size="10.00">experiment: rcp26</text>
<text text-anchor="middle" x="761" y="-365" font-family="sans" font-size="10.00">institute: CLMcom&#45;HZG</text>
<text text-anchor="middle" x="761" y="-354" font-family="sans" font-size="10.00">model: MOHC&#45;HadGEM2&#45;ES</text>
<text text-anchor="middle" x="761" y="-343" font-family="sans" font-size="10.00">rcm: CCLM5&#45;0&#45;15</text>
</g>
<!-- 3&#45;&gt;2 -->
<g id="edge8" class="edge">
<title>3&#45;&gt;2</title>
<path fill="none" stroke="grey" stroke-width="2" d="M719.83,-335.76C713.33,-326.55 706.73,-317.23 700.63,-308.59"/>
<polygon fill="grey" stroke="grey" stroke-width="2" points="703.35,-306.37 694.71,-300.22 697.63,-310.41 703.35,-306.37"/>
</g>
<!-- 7 -->
<g id="node8" class="node">
<title>7</title>
<path fill="none" stroke="#d6d856" stroke-width="2" d="M564,-300C564,-300 430,-300 430,-300 424,-300 418,-294 418,-288 418,-288 418,-249 418,-249 418,-243 424,-237 430,-237 430,-237 564,-237 564,-237 570,-237 576,-243 576,-249 576,-249 576,-288 576,-288 576,-294 570,-300 564,-300"/>
<text text-anchor="middle" x="497" y="-288" font-family="sans" font-size="10.00">aggregate_proj</text>
<text text-anchor="middle" x="497" y="-277" font-family="sans" font-size="10.00">aggregation: monthly&#45;means</text>
<text text-anchor="middle" x="497" y="-266" font-family="sans" font-size="10.00">area: New&#45;Caledonia</text>
<text text-anchor="middle" x="497" y="-255" font-family="sans" font-size="10.00">period: 1980&#45;2005</text>
<text text-anchor="middle" x="497" y="-244" font-family="sans" font-size="10.00">project: CORDEX</text>
</g>
<!-- 3&#45;&gt;7 -->
<g id="edge12" class="edge">
<title>3&#45;&gt;7</title>
<path fill="none" stroke="grey" stroke-width="2" d="M684.99,-358.16C649.2,-341.28 606.66,-321.21 571.1,-304.45"/>
<polygon fill="grey" stroke="grey" stroke-width="2" points="572.29,-301.14 561.75,-300.04 569.3,-307.47 572.29,-301.14"/>
</g>
<!-- 10 -->
<g id="node11" class="node">
<title>10</title>
<path fill="none" stroke="#d6d856" stroke-width="2" d="M916,-300C916,-300 782,-300 782,-300 776,-300 770,-294 770,-288 770,-288 770,-249 770,-249 770,-243 776,-237 782,-237 782,-237 916,-237 916,-237 922,-237 928,-243 928,-249 928,-249 928,-288 928,-288 928,-294 922,-300 916,-300"/>
<text text-anchor="middle" x="849" y="-288" font-family="sans" font-size="10.00">aggregate_proj</text>
<text text-anchor="middle" x="849" y="-277" font-family="sans" font-size="10.00">aggregation: monthly&#45;means</text>
<text text-anchor="middle" x="849" y="-266" font-family="sans" font-size="10.00">area: Vanuatu</text>
<text text-anchor="middle" x="849" y="-255" font-family="sans" font-size="10.00">period: 2071&#45;2100</text>
<text text-anchor="middle" x="849" y="-244" font-family="sans" font-size="10.00">project: CORDEX</text>
</g>
<!-- 3&#45;&gt;10 -->
<g id="edge17" class="edge">
<title>3&#45;&gt;10</title>
<path fill="none" stroke="grey" stroke-width="2" d="M802.17,-335.76C808.67,-326.55 815.27,-317.23 821.37,-308.59"/>
<polygon fill="grey" stroke="grey" stroke-width="2" points="824.37,-310.41 827.29,-300.22 818.65,-306.37 824.37,-310.41"/>
</g>
<!-- 11 -->
<g id="node12" class="node">
<title>11</title>
<path fill="none" stroke="#d6d856" stroke-width="2" d="M1092,-300C1092,-300 958,-300 958,-300 952,-300 946,-294 946,-288 946,-288 946,-249 946,-249 946,-243 952,-237 958,-237 958,-237 1092,-237 1092,-237 1098,-237 1104,-243 1104,-249 1104,-249 1104,-288 1104,-288 1104,-294 1098,-300 1092,-300"/>
<text text-anchor="middle" x="1025" y="-288" font-family="sans" font-size="10.00">aggregate_proj</text>
<text text-anchor="middle" x="1025" y="-277" font-family="sans" font-size="10.00">aggregation: monthly&#45;means</text>
<text text-anchor="middle" x="1025" y="-266" font-family="sans" font-size="10.00">area: Vanuatu</text>
<text text-anchor="middle" x="1025" y="-255" font-family="sans" font-size="10.00">period: 1980&#45;2005</text>
<text text-anchor="middle" x="1025" y="-244" font-family="sans" font-size="10.00">project: CORDEX</text>
</g>
<!-- 3&#45;&gt;11 -->
<g id="edge18" class="edge">
<title>3&#45;&gt;11</title>
<path fill="none" stroke="grey" stroke-width="2" d="M837.01,-358.16C872.8,-341.28 915.34,-321.21 950.9,-304.45"/>
<polygon fill="grey" stroke="grey" stroke-width="2" points="952.7,-307.47 960.25,-300.04 949.71,-301.14 952.7,-307.47"/>
</g>
<!-- 14 -->
<g id="node15" class="node">
<title>14</title>
<path fill="none" stroke="#d6d856" stroke-width="2" d="M212,-300C212,-300 78,-300 78,-300 72,-300 66,-294 66,-288 66,-288 66,-249 66,-249 66,-243 72,-237 78,-237 78,-237 212,-237 212,-237 218,-237 224,-243 224,-249 224,-249 224,-288 224,-288 224,-294 218,-300 212,-300"/>
<text text-anchor="middle" x="145" y="-288" font-family="sans" font-size="10.00">aggregate_proj</text>
<text text-anchor="middle" x="145" y="-277" font-family="sans" font-size="10.00">aggregation: monthly&#45;means</text>
<text text-anchor="middle" x="145" y="-266" font-family="sans" font-size="10.00">area: New&#45;Caledonia</text>
<text text-anchor="middle" x="145" y="-255" font-family="sans" font-size="10.00">period: 2006&#45;2019</text>
<text text-anchor="middle" x="145" y="-244" font-family="sans" font-size="10.00">project: CORDEX</text>
</g>
<!-- 3&#45;&gt;14 -->
<g id="edge24" class="edge">
<title>3&#45;&gt;14</title>
<path fill="none" stroke="grey" stroke-width="2" d="M685,-384.3C583.69,-370.53 398.97,-342.45 234.27,-300.21"/>
<polygon fill="grey" stroke="grey" stroke-width="2" points="235.01,-296.78 224.45,-297.67 233.26,-303.56 235.01,-296.78"/>
</g>
<!-- 18 -->
<g id="node19" class="node">
<title>18</title>
<path fill="none" stroke="#d6d856" stroke-width="2" d="M1444,-300C1444,-300 1310,-300 1310,-300 1304,-300 1298,-294 1298,-288 1298,-288 1298,-249 1298,-249 1298,-243 1304,-237 1310,-237 1310,-237 1444,-237 1444,-237 1450,-237 1456,-243 1456,-249 1456,-249 1456,-288 1456,-288 1456,-294 1450,-300 1444,-300"/>
<text text-anchor="middle" x="1377" y="-288" font-family="sans" font-size="10.00">aggregate_proj</text>
<text text-anchor="middle" x="1377" y="-277" font-family="sans" font-size="10.00">aggregation: monthly&#45;means</text>
<text text-anchor="middle" x="1377" y="-266" font-family="sans" font-size="10.00">area: Vanuatu</text>
<text text-anchor="middle" x="1377" y="-255" font-family="sans" font-size="10.00">period: 2006&#45;2019</text>
<text text-anchor="middle" x="1377" y="-244" font-family="sans" font-size="10.00">project: CORDEX</text>
</g>
<!-- 3&#45;&gt;18 -->
<g id="edge33" class="edge">
<title>3&#45;&gt;18</title>
<path fill="none" stroke="grey" stroke-width="2" d="M837,-384.3C938.31,-370.53 1123.03,-342.45 1287.73,-300.21"/>
<polygon fill="grey" stroke="grey" stroke-width="2" points="1288.74,-303.56 1297.55,-297.67 1286.99,-296.78 1288.74,-303.56"/>
</g>
<!-- 4 -->
<g id="node5" class="node">
<title>4</title>
<path fill="none" stroke="#59d856" stroke-width="2" d="M786.5,-526C786.5,-526 735.5,-526 735.5,-526 729.5,-526 723.5,-520 723.5,-514 723.5,-514 723.5,-502 723.5,-502 723.5,-496 729.5,-490 735.5,-490 735.5,-490 786.5,-490 786.5,-490 792.5,-490 798.5,-496 798.5,-502 798.5,-502 798.5,-514 798.5,-514 798.5,-520 792.5,-526 786.5,-526"/>
<text text-anchor="middle" x="761" y="-505.5" font-family="sans" font-size="10.00">get_chelsa2</text>
</g>
<!-- 4&#45;&gt;3 -->
<g id="edge9" class="edge">
<title>4&#45;&gt;3</title>
<path fill="none" stroke="grey" stroke-width="2" d="M761,-489.66C761,-482.49 761,-473.68 761,-464.36"/>
<polygon fill="grey" stroke="grey" stroke-width="2" points="764.5,-464.1 761,-454.1 757.5,-464.1 764.5,-464.1"/>
</g>
<!-- 8 -->
<g id="node9" class="node">
<title>8</title>
<path fill="none" stroke="#d85656" stroke-width="2" d="M388,-300C388,-300 254,-300 254,-300 248,-300 242,-294 242,-288 242,-288 242,-249 242,-249 242,-243 248,-237 254,-237 254,-237 388,-237 388,-237 394,-237 400,-243 400,-249 400,-249 400,-288 400,-288 400,-294 394,-300 388,-300"/>
<text text-anchor="middle" x="321" y="-288" font-family="sans" font-size="10.00">aggregate_base</text>
<text text-anchor="middle" x="321" y="-277" font-family="sans" font-size="10.00">aggregation: monthly&#45;means</text>
<text text-anchor="middle" x="321" y="-266" font-family="sans" font-size="10.00">area: New&#45;Caledonia</text>
<text text-anchor="middle" x="321" y="-255" font-family="sans" font-size="10.00">base: chelsa2</text>
<text text-anchor="middle" x="321" y="-244" font-family="sans" font-size="10.00">period: 1980&#45;2005</text>
</g>
<!-- 4&#45;&gt;8 -->
<g id="edge13" class="edge">
<title>4&#45;&gt;8</title>
<path fill="none" stroke="grey" stroke-width="2" d="M729.36,-489.92C657.87,-451.33 482.66,-356.76 386.61,-304.91"/>
<polygon fill="grey" stroke="grey" stroke-width="2" points="388.03,-301.7 377.57,-300.03 384.71,-307.86 388.03,-301.7"/>
</g>
<!-- 12 -->
<g id="node13" class="node">
<title>12</title>
<path fill="none" stroke="#d85656" stroke-width="2" d="M1268,-300C1268,-300 1134,-300 1134,-300 1128,-300 1122,-294 1122,-288 1122,-288 1122,-249 1122,-249 1122,-243 1128,-237 1134,-237 1134,-237 1268,-237 1268,-237 1274,-237 1280,-243 1280,-249 1280,-249 1280,-288 1280,-288 1280,-294 1274,-300 1268,-300"/>
<text text-anchor="middle" x="1201" y="-288" font-family="sans" font-size="10.00">aggregate_base</text>
<text text-anchor="middle" x="1201" y="-277" font-family="sans" font-size="10.00">aggregation: monthly&#45;means</text>
<text text-anchor="middle" x="1201" y="-266" font-family="sans" font-size="10.00">area: Vanuatu</text>
<text text-anchor="middle" x="1201" y="-255" font-family="sans" font-size="10.00">base: chelsa2</text>
<text text-anchor="middle" x="1201" y="-244" font-family="sans" font-size="10.00">period: 1980&#45;2005</text>
</g>
<!-- 4&#45;&gt;12 -->
<g id="edge19" class="edge">
<title>4&#45;&gt;12</title>
<path fill="none" stroke="grey" stroke-width="2" d="M792.64,-489.92C864.13,-451.33 1039.34,-356.76 1135.39,-304.91"/>
<polygon fill="grey" stroke="grey" stroke-width="2" points="1137.29,-307.86 1144.43,-300.03 1133.97,-301.7 1137.29,-307.86"/>
</g>
<!-- 15 -->
<g id="node16" class="node">
<title>15</title>
<path fill="none" stroke="#d85656" stroke-width="2" d="M351,-426.5C351,-426.5 217,-426.5 217,-426.5 211,-426.5 205,-420.5 205,-414.5 205,-414.5 205,-375.5 205,-375.5 205,-369.5 211,-363.5 217,-363.5 217,-363.5 351,-363.5 351,-363.5 357,-363.5 363,-369.5 363,-375.5 363,-375.5 363,-414.5 363,-414.5 363,-420.5 357,-426.5 351,-426.5"/>
<text text-anchor="middle" x="284" y="-414.5" font-family="sans" font-size="10.00">aggregate_base</text>
<text text-anchor="middle" x="284" y="-403.5" font-family="sans" font-size="10.00">aggregation: monthly&#45;means</text>
<text text-anchor="middle" x="284" y="-392.5" font-family="sans" font-size="10.00">area: New&#45;Caledonia</text>
<text text-anchor="middle" x="284" y="-381.5" font-family="sans" font-size="10.00">base: chelsa2</text>
<text text-anchor="middle" x="284" y="-370.5" font-family="sans" font-size="10.00">period: 2006&#45;2019</text>
</g>
<!-- 4&#45;&gt;15 -->
<g id="edge25" class="edge">
<title>4&#45;&gt;15</title>
<path fill="none" stroke="grey" stroke-width="2" d="M723.17,-498.2C648.03,-480.71 478.17,-441.19 373.1,-416.73"/>
<polygon fill="grey" stroke="grey" stroke-width="2" points="373.67,-413.27 363.13,-414.42 372.08,-420.09 373.67,-413.27"/>
</g>
<!-- 19 -->
<g id="node20" class="node">
<title>19</title>
<path fill="none" stroke="#d85656" stroke-width="2" d="M1323,-426.5C1323,-426.5 1189,-426.5 1189,-426.5 1183,-426.5 1177,-420.5 1177,-414.5 1177,-414.5 1177,-375.5 1177,-375.5 1177,-369.5 1183,-363.5 1189,-363.5 1189,-363.5 1323,-363.5 1323,-363.5 1329,-363.5 1335,-369.5 1335,-375.5 1335,-375.5 1335,-414.5 1335,-414.5 1335,-420.5 1329,-426.5 1323,-426.5"/>
<text text-anchor="middle" x="1256" y="-414.5" font-family="sans" font-size="10.00">aggregate_base</text>
<text text-anchor="middle" x="1256" y="-403.5" font-family="sans" font-size="10.00">aggregation: monthly&#45;means</text>
<text text-anchor="middle" x="1256" y="-392.5" font-family="sans" font-size="10.00">area: Vanuatu</text>
<text text-anchor="middle" x="1256" y="-381.5" font-family="sans" font-size="10.00">base: chelsa2</text>
<text text-anchor="middle" x="1256" y="-370.5" font-family="sans" font-size="10.00">period: 2006&#45;2019</text>
</g>
<!-- 4&#45;&gt;19 -->
<g id="edge34" class="edge">
<title>4&#45;&gt;19</title>
<path fill="none" stroke="grey" stroke-width="2" d="M798.75,-498.85C846.39,-488.54 930.81,-470.18 1003,-454 1057.51,-441.78 1118.55,-427.8 1167.02,-416.62"/>
<polygon fill="grey" stroke="grey" stroke-width="2" points="1167.89,-420.01 1176.85,-414.35 1166.32,-413.19 1167.89,-420.01"/>
</g>
<!-- 5 -->
<g id="node6" class="node">
<title>5</title>
<path fill="none" stroke="#56d8d8" stroke-width="2" d="M610.5,-598C610.5,-598 515.5,-598 515.5,-598 509.5,-598 503.5,-592 503.5,-586 503.5,-586 503.5,-574 503.5,-574 503.5,-568 509.5,-562 515.5,-562 515.5,-562 610.5,-562 610.5,-562 616.5,-562 622.5,-568 622.5,-574 622.5,-574 622.5,-586 622.5,-586 622.5,-592 616.5,-598 610.5,-598"/>
<text text-anchor="middle" x="563" y="-583" font-family="sans" font-size="10.00">get_area</text>
<text text-anchor="middle" x="563" y="-572" font-family="sans" font-size="10.00">area: New&#45;Caledonia</text>
</g>
<!-- 5&#45;&gt;4 -->
<g id="edge10" class="edge">
<title>5&#45;&gt;4</title>
<path fill="none" stroke="grey" stroke-width="2" d="M611.18,-561.97C642.27,-550.97 682.54,-536.74 713.49,-525.79"/>
<polygon fill="grey" stroke="grey" stroke-width="2" points="714.93,-529 723.19,-522.37 712.6,-522.4 714.93,-529"/>
</g>
<!-- 13 -->
<g id="node14" class="node">
<title>13</title>
<path fill="none" stroke="#569ad8" stroke-width="2" d="M198.5,-124C198.5,-124 91.5,-124 91.5,-124 85.5,-124 79.5,-118 79.5,-112 79.5,-112 79.5,-84 79.5,-84 79.5,-78 85.5,-72 91.5,-72 91.5,-72 198.5,-72 198.5,-72 204.5,-72 210.5,-78 210.5,-84 210.5,-84 210.5,-112 210.5,-112 210.5,-118 204.5,-124 198.5,-124"/>
<text text-anchor="middle" x="145" y="-112" font-family="sans" font-size="10.00">evaluate</text>
<text text-anchor="middle" x="145" y="-101" font-family="sans" font-size="10.00">baseline: chelsa2</text>
<text text-anchor="middle" x="145" y="-90" font-family="sans" font-size="10.00">ds_method: bc</text>
<text text-anchor="middle" x="145" y="-79" font-family="sans" font-size="10.00">period_eval: 2006&#45;2019</text>
</g>
<!-- 5&#45;&gt;13 -->
<g id="edge23" class="edge">
<title>5&#45;&gt;13</title>
<path fill="none" stroke="grey" stroke-width="2" d="M503.28,-572.46C358.39,-554.93 0,-500.96 0,-396 0,-396 0,-396 0,-267.5 0,-208.29 52.08,-159.52 93.82,-129.96"/>
<polygon fill="grey" stroke="grey" stroke-width="2" points="96.04,-132.68 102.28,-124.12 92.06,-126.92 96.04,-132.68"/>
</g>
<!-- 6 -->
<g id="node7" class="node">
<title>6</title>
<path fill="none" stroke="#56d8d8" stroke-width="2" d="M989,-598C989,-598 929,-598 929,-598 923,-598 917,-592 917,-586 917,-586 917,-574 917,-574 917,-568 923,-562 929,-562 929,-562 989,-562 989,-562 995,-562 1001,-568 1001,-574 1001,-574 1001,-586 1001,-586 1001,-592 995,-598 989,-598"/>
<text text-anchor="middle" x="959" y="-583" font-family="sans" font-size="10.00">get_area</text>
<text text-anchor="middle" x="959" y="-572" font-family="sans" font-size="10.00">area: Vanuatu</text>
</g>
<!-- 6&#45;&gt;4 -->
<g id="edge11" class="edge">
<title>6&#45;&gt;4</title>
<path fill="none" stroke="grey" stroke-width="2" d="M916.52,-563.98C884.81,-552.77 841.45,-537.44 808.57,-525.82"/>
<polygon fill="grey" stroke="grey" stroke-width="2" points="809.32,-522.37 798.73,-522.34 806.99,-528.97 809.32,-522.37"/>
</g>
<!-- 17 -->
<g id="node18" class="node">
<title>17</title>
<path fill="none" stroke="#569ad8" stroke-width="2" d="M1430.5,-124C1430.5,-124 1323.5,-124 1323.5,-124 1317.5,-124 1311.5,-118 1311.5,-112 1311.5,-112 1311.5,-84 1311.5,-84 1311.5,-78 1317.5,-72 1323.5,-72 1323.5,-72 1430.5,-72 1430.5,-72 1436.5,-72 1442.5,-78 1442.5,-84 1442.5,-84 1442.5,-112 1442.5,-112 1442.5,-118 1436.5,-124 1430.5,-124"/>
<text text-anchor="middle" x="1377" y="-112" font-family="sans" font-size="10.00">evaluate</text>
<text text-anchor="middle" x="1377" y="-101" font-family="sans" font-size="10.00">baseline: chelsa2</text>
<text text-anchor="middle" x="1377" y="-90" font-family="sans" font-size="10.00">ds_method: bc</text>
<text text-anchor="middle" x="1377" y="-79" font-family="sans" font-size="10.00">period_eval: 2006&#45;2019</text>
</g>
<!-- 6&#45;&gt;17 -->
<g id="edge32" class="edge">
<title>6&#45;&gt;17</title>
<path fill="none" stroke="grey" stroke-width="2" d="M1001.32,-574.51C1132.25,-559.46 1522,-505.46 1522,-396 1522,-396 1522,-396 1522,-267.5 1522,-208.29 1469.92,-159.52 1428.18,-129.96"/>
<polygon fill="grey" stroke="grey" stroke-width="2" points="1429.94,-126.92 1419.72,-124.12 1425.96,-132.68 1429.94,-126.92"/>
</g>
<!-- 7&#45;&gt;1 -->
<g id="edge6" class="edge">
<title>7&#45;&gt;1</title>
<path fill="none" stroke="grey" stroke-width="2" d="M504.82,-236.94C506.98,-228.49 509.32,-219.35 511.46,-210.97"/>
<polygon fill="grey" stroke="grey" stroke-width="2" points="514.87,-211.78 513.95,-201.23 508.08,-210.05 514.87,-211.78"/>
</g>
<!-- 16 -->
<g id="node17" class="node">
<title>16</title>
<path fill="none" stroke="#56d89a" stroke-width="2" d="M336,-201C336,-201 226,-201 226,-201 220,-201 214,-195 214,-189 214,-189 214,-172 214,-172 214,-166 220,-160 226,-160 226,-160 336,-160 336,-160 342,-160 348,-166 348,-172 348,-172 348,-189 348,-189 348,-195 342,-201 336,-201"/>
<text text-anchor="middle" x="281" y="-189" font-family="sans" font-size="10.00">downscale_bc</text>
<text text-anchor="middle" x="281" y="-178" font-family="sans" font-size="10.00">period_base: 1980&#45;2005</text>
<text text-anchor="middle" x="281" y="-167" font-family="sans" font-size="10.00">period_proj: 2006&#45;2019</text>
</g>
<!-- 7&#45;&gt;16 -->
<g id="edge27" class="edge">
<title>7&#45;&gt;16</title>
<path fill="none" stroke="grey" stroke-width="2" d="M420.24,-236.94C393.68,-226.36 364.36,-214.69 339.51,-204.8"/>
<polygon fill="grey" stroke="grey" stroke-width="2" points="340.8,-201.54 330.22,-201.1 338.21,-208.05 340.8,-201.54"/>
</g>
<!-- 8&#45;&gt;1 -->
<g id="edge7" class="edge">
<title>8&#45;&gt;1</title>
<path fill="none" stroke="grey" stroke-width="2" d="M391.36,-236.94C415.39,-226.5 441.87,-215 464.46,-205.19"/>
<polygon fill="grey" stroke="grey" stroke-width="2" points="466.11,-208.29 473.88,-201.1 463.32,-201.87 466.11,-208.29"/>
</g>
<!-- 8&#45;&gt;16 -->
<g id="edge28" class="edge">
<title>8&#45;&gt;16</title>
<path fill="none" stroke="grey" stroke-width="2" d="M306.78,-236.94C302.77,-228.31 298.42,-218.95 294.45,-210.42"/>
<polygon fill="grey" stroke="grey" stroke-width="2" points="297.57,-208.82 290.17,-201.23 291.22,-211.77 297.57,-208.82"/>
</g>
<!-- 9 -->
<g id="node10" class="node">
<title>9</title>
<path fill="none" stroke="#56d89a" stroke-width="2" d="M992,-201C992,-201 882,-201 882,-201 876,-201 870,-195 870,-189 870,-189 870,-172 870,-172 870,-166 876,-160 882,-160 882,-160 992,-160 992,-160 998,-160 1004,-166 1004,-172 1004,-172 1004,-189 1004,-189 1004,-195 998,-201 992,-201"/>
<text text-anchor="middle" x="937" y="-189" font-family="sans" font-size="10.00">downscale_bc</text>
<text text-anchor="middle" x="937" y="-178" font-family="sans" font-size="10.00">period_base: 1980&#45;2005</text>
<text text-anchor="middle" x="937" y="-167" font-family="sans" font-size="10.00">period_proj: 2071&#45;2100</text>
</g>
<!-- 9&#45;&gt;0 -->
<g id="edge2" class="edge">
<title>9&#45;&gt;0</title>
<path fill="none" stroke="grey" stroke-width="2" d="M912.72,-159.82C876.18,-130.2 807.18,-74.27 768.03,-42.53"/>
<polygon fill="grey" stroke="grey" stroke-width="2" points="770.13,-39.73 760.15,-36.15 765.72,-45.16 770.13,-39.73"/>
</g>
<!-- 10&#45;&gt;9 -->
<g id="edge14" class="edge">
<title>10&#45;&gt;9</title>
<path fill="none" stroke="grey" stroke-width="2" d="M880.27,-236.94C889.86,-227.57 900.33,-217.33 909.64,-208.24"/>
<polygon fill="grey" stroke="grey" stroke-width="2" points="912.11,-210.72 916.82,-201.23 907.22,-205.71 912.11,-210.72"/>
</g>
<!-- 11&#45;&gt;9 -->
<g id="edge15" class="edge">
<title>11&#45;&gt;9</title>
<path fill="none" stroke="grey" stroke-width="2" d="M993.73,-236.94C984.14,-227.57 973.67,-217.33 964.36,-208.24"/>
<polygon fill="grey" stroke="grey" stroke-width="2" points="966.78,-205.71 957.18,-201.23 961.89,-210.72 966.78,-205.71"/>
</g>
<!-- 20 -->
<g id="node21" class="node">
<title>20</title>
<path fill="none" stroke="#56d89a" stroke-width="2" d="M1297,-201C1297,-201 1187,-201 1187,-201 1181,-201 1175,-195 1175,-189 1175,-189 1175,-172 1175,-172 1175,-166 1181,-160 1187,-160 1187,-160 1297,-160 1297,-160 1303,-160 1309,-166 1309,-172 1309,-172 1309,-189 1309,-189 1309,-195 1303,-201 1297,-201"/>
<text text-anchor="middle" x="1242" y="-189" font-family="sans" font-size="10.00">downscale_bc</text>
<text text-anchor="middle" x="1242" y="-178" font-family="sans" font-size="10.00">period_base: 1980&#45;2005</text>
<text text-anchor="middle" x="1242" y="-167" font-family="sans" font-size="10.00">period_proj: 2006&#45;2019</text>
</g>
<!-- 11&#45;&gt;20 -->
<g id="edge36" class="edge">
<title>11&#45;&gt;20</title>
<path fill="none" stroke="grey" stroke-width="2" d="M1102.12,-236.94C1128.8,-226.36 1158.25,-214.69 1183.22,-204.8"/>
<polygon fill="grey" stroke="grey" stroke-width="2" points="1184.55,-208.03 1192.55,-201.1 1181.97,-201.53 1184.55,-208.03"/>
</g>
<!-- 12&#45;&gt;9 -->
<g id="edge16" class="edge">
<title>12&#45;&gt;9</title>
<path fill="none" stroke="grey" stroke-width="2" d="M1121.88,-239.96C1118.89,-238.95 1115.92,-237.97 1113,-237 1079.37,-225.87 1041.96,-214 1010.31,-204.11"/>
<polygon fill="grey" stroke="grey" stroke-width="2" points="1011.27,-200.74 1000.68,-201.11 1009.18,-207.43 1011.27,-200.74"/>
</g>
<!-- 12&#45;&gt;20 -->
<g id="edge37" class="edge">
<title>12&#45;&gt;20</title>
<path fill="none" stroke="grey" stroke-width="2" d="M1215.57,-236.94C1219.68,-228.31 1224.15,-218.95 1228.21,-210.42"/>
<polygon fill="grey" stroke="grey" stroke-width="2" points="1231.45,-211.76 1232.6,-201.23 1225.13,-208.75 1231.45,-211.76"/>
</g>
<!-- 13&#45;&gt;0 -->
<g id="edge3" class="edge">
<title>13&#45;&gt;0</title>
<path fill="none" stroke="grey" stroke-width="2" d="M210.55,-88.39C335.29,-72.01 603.15,-36.84 701.66,-23.9"/>
<polygon fill="grey" stroke="grey" stroke-width="2" points="702.28,-27.35 711.73,-22.58 701.36,-20.41 702.28,-27.35"/>
</g>
<!-- 14&#45;&gt;13 -->
<g id="edge20" class="edge">
<title>14&#45;&gt;13</title>
<path fill="none" stroke="grey" stroke-width="2" d="M145,-236.99C145,-208.06 145,-164.62 145,-134.23"/>
<polygon fill="grey" stroke="grey" stroke-width="2" points="148.5,-134.07 145,-124.07 141.5,-134.07 148.5,-134.07"/>
</g>
<!-- 14&#45;&gt;16 -->
<g id="edge26" class="edge">
<title>14&#45;&gt;16</title>
<path fill="none" stroke="grey" stroke-width="2" d="M193.33,-236.94C209.03,-227.01 226.26,-216.11 241.26,-206.63"/>
<polygon fill="grey" stroke="grey" stroke-width="2" points="243.23,-209.53 249.81,-201.23 239.48,-203.61 243.23,-209.53"/>
</g>
<!-- 15&#45;&gt;13 -->
<g id="edge21" class="edge">
<title>15&#45;&gt;13</title>
<path fill="none" stroke="grey" stroke-width="2" d="M204.9,-383.75C153.34,-372.52 89.76,-349.03 57,-300 20.44,-245.29 73.29,-172.89 111.53,-131.59"/>
<polygon fill="grey" stroke="grey" stroke-width="2" points="114.15,-133.92 118.48,-124.25 109.06,-129.1 114.15,-133.92"/>
</g>
<!-- 16&#45;&gt;13 -->
<g id="edge22" class="edge">
<title>16&#45;&gt;13</title>
<path fill="none" stroke="grey" stroke-width="2" d="M247.73,-159.81C232.26,-150.65 213.52,-139.55 196.29,-129.36"/>
<polygon fill="grey" stroke="grey" stroke-width="2" points="197.84,-126.21 187.45,-124.13 194.27,-132.23 197.84,-126.21"/>
</g>
<!-- 17&#45;&gt;0 -->
<g id="edge4" class="edge">
<title>17&#45;&gt;0</title>
<path fill="none" stroke="grey" stroke-width="2" d="M1311.42,-88.98C1178.46,-72.73 880.89,-36.35 776.25,-23.55"/>
<polygon fill="grey" stroke="grey" stroke-width="2" points="776.52,-20.06 766.17,-22.32 775.67,-27.01 776.52,-20.06"/>
</g>
<!-- 18&#45;&gt;17 -->
<g id="edge29" class="edge">
<title>18&#45;&gt;17</title>
<path fill="none" stroke="grey" stroke-width="2" d="M1377,-236.99C1377,-208.06 1377,-164.62 1377,-134.23"/>
<polygon fill="grey" stroke="grey" stroke-width="2" points="1380.5,-134.07 1377,-124.07 1373.5,-134.07 1380.5,-134.07"/>
</g>
<!-- 18&#45;&gt;20 -->
<g id="edge35" class="edge">
<title>18&#45;&gt;20</title>
<path fill="none" stroke="grey" stroke-width="2" d="M1329.02,-236.94C1313.44,-227.01 1296.33,-216.11 1281.45,-206.63"/>
<polygon fill="grey" stroke="grey" stroke-width="2" points="1283.28,-203.65 1272.96,-201.23 1279.52,-209.55 1283.28,-203.65"/>
</g>
<!-- 19&#45;&gt;17 -->
<g id="edge30" class="edge">
<title>19&#45;&gt;17</title>
<path fill="none" stroke="grey" stroke-width="2" d="M1335,-380.38C1381.39,-367.89 1436.37,-344.27 1465,-300 1500.74,-244.74 1448.17,-172.53 1410.2,-131.41"/>
<polygon fill="grey" stroke="grey" stroke-width="2" points="1412.72,-128.98 1403.31,-124.11 1407.63,-133.78 1412.72,-128.98"/>
</g>
<!-- 20&#45;&gt;17 -->
<g id="edge31" class="edge">
<title>20&#45;&gt;17</title>
<path fill="none" stroke="grey" stroke-width="2" d="M1275.02,-159.81C1290.38,-150.65 1308.99,-139.55 1326.08,-129.36"/>
<polygon fill="grey" stroke="grey" stroke-width="2" points="1328.07,-132.25 1334.86,-124.13 1324.48,-126.24 1328.07,-132.25"/>
</g>
</g>
</svg>
