<?xml version="1.0" encoding="UTF-8" standalone="no"?>
<!DOCTYPE svg PUBLIC "-//W3C//DTD SVG 1.1//EN"
 "http://www.w3.org/Graphics/SVG/1.1/DTD/svg11.dtd">
<!-- Generated by graphviz version 2.43.0 (0)
 -->
<!-- Title: snakemake_dag Pages: 1 -->
<svg width="393pt" height="435pt"
 viewBox="0.00 0.00 392.63 435.00" xmlns="http://www.w3.org/2000/svg" xmlns:xlink="http://www.w3.org/1999/xlink">
<g id="graph0" class="graph" transform="scale(1 1) rotate(0) translate(4 431)">
<title>snakemake_dag</title>
<polygon fill="white" stroke="transparent" points="-4,4 -4,-431 388.63,-431 388.63,4 -4,4"/>
<!-- 0 -->
<g id="node1" class="node">
<title>0</title>
<path fill="none" stroke="#d88556" stroke-width="2" d="M206.63,-36C206.63,-36 176.63,-36 176.63,-36 170.63,-36 164.63,-30 164.63,-24 164.63,-24 164.63,-12 164.63,-12 164.63,-6 170.63,0 176.63,0 176.63,0 206.63,0 206.63,0 212.63,0 218.63,-6 218.63,-12 218.63,-12 218.63,-24 218.63,-24 218.63,-30 212.63,-36 206.63,-36"/>
<text text-anchor="middle" x="191.63" y="-15.5" font-family="sans" font-size="10.00">all</text>
</g>
<!-- 1 -->
<g id="node2" class="node">
<title>1</title>
<path fill="none" stroke="#afd856" stroke-width="2" d="M181.13,-113C181.13,-113 74.13,-113 74.13,-113 68.13,-113 62.13,-107 62.13,-101 62.13,-101 62.13,-84 62.13,-84 62.13,-78 68.13,-72 74.13,-72 74.13,-72 181.13,-72 181.13,-72 187.13,-72 193.13,-78 193.13,-84 193.13,-84 193.13,-101 193.13,-101 193.13,-107 187.13,-113 181.13,-113"/>
<text text-anchor="middle" x="127.63" y="-101" font-family="sans" font-size="10.00">evaluate_bc</text>
<text text-anchor="middle" x="127.63" y="-90" font-family="sans" font-size="10.00">base_eval: chelsa2</text>
<text text-anchor="middle" x="127.63" y="-79" font-family="sans" font-size="10.00">period_eval: 2006&#45;2019</text>
</g>
<!-- 1&#45;&gt;0 -->
<g id="edge1" class="edge">
<title>1&#45;&gt;0</title>
<path fill="none" stroke="grey" stroke-width="2" d="M145.12,-71.69C152.68,-63.13 161.6,-53.02 169.6,-43.95"/>
<polygon fill="grey" stroke="grey" stroke-width="2" points="172.35,-46.13 176.34,-36.32 167.1,-41.5 172.35,-46.13"/>
</g>
<!-- 2 -->
<g id="node3" class="node">
<title>2</title>
<path fill="none" stroke="#5682d8" stroke-width="2" d="M162.63,-355C162.63,-355 34.63,-355 34.63,-355 28.63,-355 22.63,-349 22.63,-343 22.63,-343 22.63,-249 22.63,-249 22.63,-243 28.63,-237 34.63,-237 34.63,-237 162.63,-237 162.63,-237 168.63,-237 174.63,-243 174.63,-249 174.63,-249 174.63,-343 174.63,-343 174.63,-349 168.63,-355 162.63,-355"/>
<text text-anchor="middle" x="98.63" y="-343" font-family="sans" font-size="10.00">get_proj</text>
<text text-anchor="middle" x="98.63" y="-332" font-family="sans" font-size="10.00">activity: none</text>
<text text-anchor="middle" x="98.63" y="-321" font-family="sans" font-size="10.00">domain: AUS&#45;22</text>
<text text-anchor="middle" x="98.63" y="-310" font-family="sans" font-size="10.00">downscaling: v1</text>
<text text-anchor="middle" x="98.63" y="-299" font-family="sans" font-size="10.00">ensemble: r1ip1</text>
<text text-anchor="middle" x="98.63" y="-288" font-family="sans" font-size="10.00">experiment: rcp26</text>
<text text-anchor="middle" x="98.63" y="-277" font-family="sans" font-size="10.00">institute: CLMcom&#45;HZG</text>
<text text-anchor="middle" x="98.63" y="-266" font-family="sans" font-size="10.00">model: MOHC&#45;HadGEM2&#45;ES</text>
<text text-anchor="middle" x="98.63" y="-255" font-family="sans" font-size="10.00">project: CORDEX</text>
<text text-anchor="middle" x="98.63" y="-244" font-family="sans" font-size="10.00">rcm: CCLM5&#45;0&#45;15</text>
</g>
<!-- 2&#45;&gt;1 -->
<g id="edge3" class="edge">
<title>2&#45;&gt;1</title>
<path fill="none" stroke="grey" stroke-width="2" d="M59.46,-236.83C46.05,-209.38 37.58,-176.66 51.63,-149 57.7,-137.04 67.69,-127.05 78.47,-118.99"/>
<polygon fill="grey" stroke="grey" stroke-width="2" points="80.59,-121.78 86.81,-113.2 76.6,-116.03 80.59,-121.78"/>
</g>
<!-- 5 -->
<g id="node6" class="node">
<title>5</title>
<path fill="none" stroke="#56a9d8" stroke-width="2" d="M182.63,-201C182.63,-201 72.63,-201 72.63,-201 66.63,-201 60.63,-195 60.63,-189 60.63,-189 60.63,-161 60.63,-161 60.63,-155 66.63,-149 72.63,-149 72.63,-149 182.63,-149 182.63,-149 188.63,-149 194.63,-155 194.63,-161 194.63,-161 194.63,-189 194.63,-189 194.63,-195 188.63,-201 182.63,-201"/>
<text text-anchor="middle" x="127.63" y="-189" font-family="sans" font-size="10.00">downscale_bc</text>
<text text-anchor="middle" x="127.63" y="-178" font-family="sans" font-size="10.00">baseline: chelsa2</text>
<text text-anchor="middle" x="127.63" y="-167" font-family="sans" font-size="10.00">period_base: 1980&#45;2005</text>
<text text-anchor="middle" x="127.63" y="-156" font-family="sans" font-size="10.00">period_proj: 2006&#45;2019</text>
</g>
<!-- 2&#45;&gt;5 -->
<g id="edge9" class="edge">
<title>2&#45;&gt;5</title>
<path fill="none" stroke="grey" stroke-width="2" d="M112.79,-236.89C114.95,-228.02 117.13,-219.1 119.12,-210.93"/>
<polygon fill="grey" stroke="grey" stroke-width="2" points="122.56,-211.59 121.53,-201.04 115.76,-209.93 122.56,-211.59"/>
</g>
<!-- 7 -->
<g id="node8" class="node">
<title>7</title>
<path fill="none" stroke="#56a9d8" stroke-width="2" d="M372.63,-201C372.63,-201 262.63,-201 262.63,-201 256.63,-201 250.63,-195 250.63,-189 250.63,-189 250.63,-161 250.63,-161 250.63,-155 256.63,-149 262.63,-149 262.63,-149 372.63,-149 372.63,-149 378.63,-149 384.63,-155 384.63,-161 384.63,-161 384.63,-189 384.63,-189 384.63,-195 378.63,-201 372.63,-201"/>
<text text-anchor="middle" x="317.63" y="-189" font-family="sans" font-size="10.00">downscale_bc</text>
<text text-anchor="middle" x="317.63" y="-178" font-family="sans" font-size="10.00">baseline: chelsa2</text>
<text text-anchor="middle" x="317.63" y="-167" font-family="sans" font-size="10.00">period_base: 1980&#45;2005</text>
<text text-anchor="middle" x="317.63" y="-156" font-family="sans" font-size="10.00">period_proj: 2071&#45;2100</text>
</g>
<!-- 2&#45;&gt;7 -->
<g id="edge12" class="edge">
<title>2&#45;&gt;7</title>
<path fill="none" stroke="grey" stroke-width="2" d="M174.65,-242.79C178,-240.79 181.33,-238.85 184.63,-237 204.89,-225.62 227.65,-214.59 248.54,-205.11"/>
<polygon fill="grey" stroke="grey" stroke-width="2" points="249.99,-208.29 257.67,-201 247.12,-201.91 249.99,-208.29"/>
</g>
<!-- 3 -->
<g id="node4" class="node">
<title>3</title>
<path fill="none" stroke="#56d8d8" stroke-width="2" d="M146.13,-427C146.13,-427 51.13,-427 51.13,-427 45.13,-427 39.13,-421 39.13,-415 39.13,-415 39.13,-403 39.13,-403 39.13,-397 45.13,-391 51.13,-391 51.13,-391 146.13,-391 146.13,-391 152.13,-391 158.13,-397 158.13,-403 158.13,-403 158.13,-415 158.13,-415 158.13,-421 152.13,-427 146.13,-427"/>
<text text-anchor="middle" x="98.63" y="-412" font-family="sans" font-size="10.00">get_area</text>
<text text-anchor="middle" x="98.63" y="-401" font-family="sans" font-size="10.00">area: New&#45;Caledonia</text>
</g>
<!-- 3&#45;&gt;1 -->
<g id="edge6" class="edge">
<title>3&#45;&gt;1</title>
<path fill="none" stroke="grey" stroke-width="2" d="M53.6,-390.86C38.08,-382.53 22.41,-370.81 13.63,-355 -11.82,-309.14 5.85,-288.86 13.63,-237 19.7,-196.54 15.86,-181.56 40.63,-149 49.88,-136.84 62.63,-126.61 75.52,-118.39"/>
<polygon fill="grey" stroke="grey" stroke-width="2" points="77.67,-121.19 84.42,-113.02 74.05,-115.19 77.67,-121.19"/>
</g>
<!-- 3&#45;&gt;2 -->
<g id="edge7" class="edge">
<title>3&#45;&gt;2</title>
<path fill="none" stroke="grey" stroke-width="2" d="M98.63,-390.66C98.63,-383.49 98.63,-374.68 98.63,-365.36"/>
<polygon fill="grey" stroke="grey" stroke-width="2" points="102.13,-365.1 98.63,-355.1 95.13,-365.1 102.13,-365.1"/>
</g>
<!-- 4 -->
<g id="node5" class="node">
<title>4</title>
<path fill="none" stroke="#d6d856" stroke-width="2" d="M256.13,-314C256.13,-314 205.13,-314 205.13,-314 199.13,-314 193.13,-308 193.13,-302 193.13,-302 193.13,-290 193.13,-290 193.13,-284 199.13,-278 205.13,-278 205.13,-278 256.13,-278 256.13,-278 262.13,-278 268.13,-284 268.13,-290 268.13,-290 268.13,-302 268.13,-302 268.13,-308 262.13,-314 256.13,-314"/>
<text text-anchor="middle" x="230.63" y="-293.5" font-family="sans" font-size="10.00">get_chelsa2</text>
</g>
<!-- 3&#45;&gt;4 -->
<g id="edge8" class="edge">
<title>3&#45;&gt;4</title>
<path fill="none" stroke="grey" stroke-width="2" d="M131.46,-390.95C148.01,-381.54 167.86,-368.93 183.63,-355 194.51,-345.38 204.87,-333.08 213.08,-322.27"/>
<polygon fill="grey" stroke="grey" stroke-width="2" points="216.06,-324.14 219.17,-314.01 210.42,-319.98 216.06,-324.14"/>
</g>
<!-- 4&#45;&gt;1 -->
<g id="edge4" class="edge">
<title>4&#45;&gt;1</title>
<path fill="none" stroke="grey" stroke-width="2" d="M231.4,-277.79C231.87,-248.9 229.29,-189.8 203.63,-149 196.28,-137.32 185.51,-127.3 174.37,-119.13"/>
<polygon fill="grey" stroke="grey" stroke-width="2" points="176.05,-116.03 165.83,-113.23 172.08,-121.8 176.05,-116.03"/>
</g>
<!-- 4&#45;&gt;5 -->
<g id="edge10" class="edge">
<title>4&#45;&gt;5</title>
<path fill="none" stroke="grey" stroke-width="2" d="M217.12,-277.77C207.87,-266.11 195.23,-250.44 183.63,-237 175.56,-227.65 166.6,-217.7 158.25,-208.61"/>
<polygon fill="grey" stroke="grey" stroke-width="2" points="160.77,-206.18 151.42,-201.21 155.63,-210.93 160.77,-206.18"/>
</g>
<!-- 4&#45;&gt;7 -->
<g id="edge13" class="edge">
<title>4&#45;&gt;7</title>
<path fill="none" stroke="grey" stroke-width="2" d="M243.09,-277.95C256.09,-260.17 276.81,-231.84 293.1,-209.55"/>
<polygon fill="grey" stroke="grey" stroke-width="2" points="296.03,-211.48 299.11,-201.34 290.38,-207.34 296.03,-211.48"/>
</g>
<!-- 5&#45;&gt;1 -->
<g id="edge5" class="edge">
<title>5&#45;&gt;1</title>
<path fill="none" stroke="grey" stroke-width="2" d="M127.63,-148.97C127.63,-140.86 127.63,-131.78 127.63,-123.35"/>
<polygon fill="grey" stroke="grey" stroke-width="2" points="131.13,-123.15 127.63,-113.15 124.13,-123.15 131.13,-123.15"/>
</g>
<!-- 6 -->
<g id="node7" class="node">
<title>6</title>
<path fill="none" stroke="#59d856" stroke-width="2" d="M320.13,-110.5C320.13,-110.5 253.13,-110.5 253.13,-110.5 247.13,-110.5 241.13,-104.5 241.13,-98.5 241.13,-98.5 241.13,-86.5 241.13,-86.5 241.13,-80.5 247.13,-74.5 253.13,-74.5 253.13,-74.5 320.13,-74.5 320.13,-74.5 326.13,-74.5 332.13,-80.5 332.13,-86.5 332.13,-86.5 332.13,-98.5 332.13,-98.5 332.13,-104.5 326.13,-110.5 320.13,-110.5"/>
<text text-anchor="middle" x="286.63" y="-95.5" font-family="sans" font-size="10.00">ensemble_sma</text>
<text text-anchor="middle" x="286.63" y="-84.5" font-family="sans" font-size="10.00">ds_method: bc</text>
</g>
<!-- 6&#45;&gt;0 -->
<g id="edge2" class="edge">
<title>6&#45;&gt;0</title>
<path fill="none" stroke="grey" stroke-width="2" d="M264.12,-74.32C251.58,-64.75 235.79,-52.7 222.15,-42.29"/>
<polygon fill="grey" stroke="grey" stroke-width="2" points="224.05,-39.34 213.98,-36.06 219.81,-44.91 224.05,-39.34"/>
</g>
<!-- 7&#45;&gt;6 -->
<g id="edge11" class="edge">
<title>7&#45;&gt;6</title>
<path fill="none" stroke="grey" stroke-width="2" d="M307.99,-148.97C304.47,-139.82 300.47,-129.44 296.89,-120.15"/>
<polygon fill="grey" stroke="grey" stroke-width="2" points="300.08,-118.68 293.22,-110.61 293.55,-121.2 300.08,-118.68"/>
</g>
</g>
</svg>
