<?xml version="1.0" encoding="UTF-8" standalone="no"?>
<!DOCTYPE svg PUBLIC "-//W3C//DTD SVG 1.1//EN"
 "http://www.w3.org/Graphics/SVG/1.1/DTD/svg11.dtd">
<!-- Generated by graphviz version 2.43.0 (0)
 -->
<!-- Title: snakemake_dag Pages: 1 -->
<svg width="1532pt" height="545pt"
 viewBox="0.00 0.00 1532.42 545.00" xmlns="http://www.w3.org/2000/svg" xmlns:xlink="http://www.w3.org/1999/xlink">
<g id="graph0" class="graph" transform="scale(1 1) rotate(0) translate(4 541)">
<title>snakemake_dag</title>
<polygon fill="white" stroke="transparent" points="-4,4 -4,-541 1528.42,-541 1528.42,4 -4,4"/>
<!-- 0 -->
<g id="node1" class="node">
<title>0</title>
<path fill="none" stroke="#97d856" stroke-width="2" d="M1000.35,-36C1000.35,-36 970.35,-36 970.35,-36 964.35,-36 958.35,-30 958.35,-24 958.35,-24 958.35,-12 958.35,-12 958.35,-6 964.35,0 970.35,0 970.35,0 1000.35,0 1000.35,0 1006.35,0 1012.35,-6 1012.35,-12 1012.35,-12 1012.35,-24 1012.35,-24 1012.35,-30 1006.35,-36 1000.35,-36"/>
<text text-anchor="middle" x="985.35" y="-15.5" font-family="sans" font-size="10.00">all</text>
</g>
<!-- 1 -->
<g id="node2" class="node">
<title>1</title>
<path fill="none" stroke="#569ad8" stroke-width="2" d="M616.35,-212C616.35,-212 506.35,-212 506.35,-212 500.35,-212 494.35,-206 494.35,-200 494.35,-200 494.35,-183 494.35,-183 494.35,-177 500.35,-171 506.35,-171 506.35,-171 616.35,-171 616.35,-171 622.35,-171 628.35,-177 628.35,-183 628.35,-183 628.35,-200 628.35,-200 628.35,-206 622.35,-212 616.35,-212"/>
<text text-anchor="middle" x="561.35" y="-200" font-family="sans" font-size="10.00">downscale_bc</text>
<text text-anchor="middle" x="561.35" y="-189" font-family="sans" font-size="10.00">period_base: 1980&#45;2005</text>
<text text-anchor="middle" x="561.35" y="-178" font-family="sans" font-size="10.00">period_proj: 2071&#45;2100</text>
</g>
<!-- 1&#45;&gt;0 -->
<g id="edge1" class="edge">
<title>1&#45;&gt;0</title>
<path fill="none" stroke="grey" stroke-width="2" d="M609.57,-170.99C695.16,-136.38 871.78,-64.93 948.47,-33.92"/>
<polygon fill="grey" stroke="grey" stroke-width="2" points="950.22,-36.98 958.18,-29.99 947.6,-30.5 950.22,-36.98"/>
</g>
<!-- 2 -->
<g id="node3" class="node">
<title>2</title>
<path fill="none" stroke="#59d856" stroke-width="2" d="M783.35,-322C783.35,-322 649.35,-322 649.35,-322 643.35,-322 637.35,-316 637.35,-310 637.35,-310 637.35,-271 637.35,-271 637.35,-265 643.35,-259 649.35,-259 649.35,-259 783.35,-259 783.35,-259 789.35,-259 795.35,-265 795.35,-271 795.35,-271 795.35,-310 795.35,-310 795.35,-316 789.35,-322 783.35,-322"/>
<text text-anchor="middle" x="716.35" y="-310" font-family="sans" font-size="10.00">aggregate_proj</text>
<text text-anchor="middle" x="716.35" y="-299" font-family="sans" font-size="10.00">aggregation: monthly&#45;means</text>
<text text-anchor="middle" x="716.35" y="-288" font-family="sans" font-size="10.00">area: New&#45;Caledonia</text>
<text text-anchor="middle" x="716.35" y="-277" font-family="sans" font-size="10.00">period: 2071&#45;2100</text>
<text text-anchor="middle" x="716.35" y="-266" font-family="sans" font-size="10.00">project: CORDEX</text>
</g>
<!-- 2&#45;&gt;1 -->
<g id="edge5" class="edge">
<title>2&#45;&gt;1</title>
<path fill="none" stroke="grey" stroke-width="2" d="M667.31,-258.81C645.98,-245.46 621.32,-230.03 601.16,-217.41"/>
<polygon fill="grey" stroke="grey" stroke-width="2" points="602.86,-214.35 592.53,-212.01 599.15,-220.28 602.86,-214.35"/>
</g>
<!-- 3 -->
<g id="node4" class="node">
<title>3</title>
<path fill="none" stroke="#56d89a" stroke-width="2" d="M792.35,-465C792.35,-465 664.35,-465 664.35,-465 658.35,-465 652.35,-459 652.35,-453 652.35,-453 652.35,-370 652.35,-370 652.35,-364 658.35,-358 664.35,-358 664.35,-358 792.35,-358 792.35,-358 798.35,-358 804.35,-364 804.35,-370 804.35,-370 804.35,-453 804.35,-453 804.35,-459 798.35,-465 792.35,-465"/>
<text text-anchor="middle" x="728.35" y="-453" font-family="sans" font-size="10.00">get_cordex</text>
<text text-anchor="middle" x="728.35" y="-442" font-family="sans" font-size="10.00">activity: none</text>
<text text-anchor="middle" x="728.35" y="-431" font-family="sans" font-size="10.00">domain: AUS&#45;22</text>
<text text-anchor="middle" x="728.35" y="-420" font-family="sans" font-size="10.00">downscaling: v1</text>
<text text-anchor="middle" x="728.35" y="-409" font-family="sans" font-size="10.00">ensemble: r1i1p1</text>
<text text-anchor="middle" x="728.35" y="-398" font-family="sans" font-size="10.00">experiment: rcp26</text>
<text text-anchor="middle" x="728.35" y="-387" font-family="sans" font-size="10.00">institute: CLMcom&#45;HZG</text>
<text text-anchor="middle" x="728.35" y="-376" font-family="sans" font-size="10.00">model: MOHC&#45;HadGEM2&#45;ES</text>
<text text-anchor="middle" x="728.35" y="-365" font-family="sans" font-size="10.00">rcm: CCLM5&#45;0&#45;15</text>
</g>
<!-- 3&#45;&gt;2 -->
<g id="edge8" class="edge">
<title>3&#45;&gt;2</title>
<path fill="none" stroke="grey" stroke-width="2" d="M723.05,-357.96C722.18,-349.38 721.3,-340.6 720.47,-332.36"/>
<polygon fill="grey" stroke="grey" stroke-width="2" points="723.94,-331.85 719.45,-322.25 716.97,-332.55 723.94,-331.85"/>
</g>
<!-- 6 -->
<g id="node7" class="node">
<title>6</title>
<path fill="none" stroke="#59d856" stroke-width="2" d="M569.35,-322C569.35,-322 435.35,-322 435.35,-322 429.35,-322 423.35,-316 423.35,-310 423.35,-310 423.35,-271 423.35,-271 423.35,-265 429.35,-259 435.35,-259 435.35,-259 569.35,-259 569.35,-259 575.35,-259 581.35,-265 581.35,-271 581.35,-271 581.35,-310 581.35,-310 581.35,-316 575.35,-322 569.35,-322"/>
<text text-anchor="middle" x="502.35" y="-310" font-family="sans" font-size="10.00">aggregate_proj</text>
<text text-anchor="middle" x="502.35" y="-299" font-family="sans" font-size="10.00">aggregation: monthly&#45;means</text>
<text text-anchor="middle" x="502.35" y="-288" font-family="sans" font-size="10.00">area: New&#45;Caledonia</text>
<text text-anchor="middle" x="502.35" y="-277" font-family="sans" font-size="10.00">period: 1980&#45;2005</text>
<text text-anchor="middle" x="502.35" y="-266" font-family="sans" font-size="10.00">project: CORDEX</text>
</g>
<!-- 3&#45;&gt;6 -->
<g id="edge11" class="edge">
<title>3&#45;&gt;6</title>
<path fill="none" stroke="grey" stroke-width="2" d="M652.13,-362.86C649.18,-361.2 646.25,-359.57 643.35,-358 623.25,-347.1 601.05,-336.15 580.34,-326.37"/>
<polygon fill="grey" stroke="grey" stroke-width="2" points="581.79,-323.18 571.25,-322.11 578.82,-329.52 581.79,-323.18"/>
</g>
<!-- 10 -->
<g id="node11" class="node">
<title>10</title>
<path fill="none" stroke="#59d856" stroke-width="2" d="M959.35,-322C959.35,-322 825.35,-322 825.35,-322 819.35,-322 813.35,-316 813.35,-310 813.35,-310 813.35,-271 813.35,-271 813.35,-265 819.35,-259 825.35,-259 825.35,-259 959.35,-259 959.35,-259 965.35,-259 971.35,-265 971.35,-271 971.35,-271 971.35,-310 971.35,-310 971.35,-316 965.35,-322 959.35,-322"/>
<text text-anchor="middle" x="892.35" y="-310" font-family="sans" font-size="10.00">aggregate_proj</text>
<text text-anchor="middle" x="892.35" y="-299" font-family="sans" font-size="10.00">aggregation: monthly&#45;means</text>
<text text-anchor="middle" x="892.35" y="-288" font-family="sans" font-size="10.00">area: New&#45;Zealand</text>
<text text-anchor="middle" x="892.35" y="-277" font-family="sans" font-size="10.00">period: 2071&#45;2100</text>
<text text-anchor="middle" x="892.35" y="-266" font-family="sans" font-size="10.00">project: CORDEX</text>
</g>
<!-- 3&#45;&gt;10 -->
<g id="edge18" class="edge">
<title>3&#45;&gt;10</title>
<path fill="none" stroke="grey" stroke-width="2" d="M800.76,-357.96C814.55,-347.95 828.72,-337.67 841.66,-328.28"/>
<polygon fill="grey" stroke="grey" stroke-width="2" points="843.93,-330.96 849.97,-322.25 839.82,-325.29 843.93,-330.96"/>
</g>
<!-- 11 -->
<g id="node12" class="node">
<title>11</title>
<path fill="none" stroke="#59d856" stroke-width="2" d="M1311.35,-322C1311.35,-322 1177.35,-322 1177.35,-322 1171.35,-322 1165.35,-316 1165.35,-310 1165.35,-310 1165.35,-271 1165.35,-271 1165.35,-265 1171.35,-259 1177.35,-259 1177.35,-259 1311.35,-259 1311.35,-259 1317.35,-259 1323.35,-265 1323.35,-271 1323.35,-271 1323.35,-310 1323.35,-310 1323.35,-316 1317.35,-322 1311.35,-322"/>
<text text-anchor="middle" x="1244.35" y="-310" font-family="sans" font-size="10.00">aggregate_proj</text>
<text text-anchor="middle" x="1244.35" y="-299" font-family="sans" font-size="10.00">aggregation: monthly&#45;means</text>
<text text-anchor="middle" x="1244.35" y="-288" font-family="sans" font-size="10.00">area: New&#45;Zealand</text>
<text text-anchor="middle" x="1244.35" y="-277" font-family="sans" font-size="10.00">period: 1980&#45;2005</text>
<text text-anchor="middle" x="1244.35" y="-266" font-family="sans" font-size="10.00">project: CORDEX</text>
</g>
<!-- 3&#45;&gt;11 -->
<g id="edge19" class="edge">
<title>3&#45;&gt;11</title>
<path fill="none" stroke="grey" stroke-width="2" d="M804.44,-397.85C888.38,-383.19 1027.45,-356.88 1155.37,-322.15"/>
<polygon fill="grey" stroke="grey" stroke-width="2" points="1156.63,-325.44 1165.35,-319.42 1154.78,-318.69 1156.63,-325.44"/>
</g>
<!-- 14 -->
<g id="node15" class="node">
<title>14</title>
<path fill="none" stroke="#59d856" stroke-width="2" d="M217.35,-322C217.35,-322 83.35,-322 83.35,-322 77.35,-322 71.35,-316 71.35,-310 71.35,-310 71.35,-271 71.35,-271 71.35,-265 77.35,-259 83.35,-259 83.35,-259 217.35,-259 217.35,-259 223.35,-259 229.35,-265 229.35,-271 229.35,-271 229.35,-310 229.35,-310 229.35,-316 223.35,-322 217.35,-322"/>
<text text-anchor="middle" x="150.35" y="-310" font-family="sans" font-size="10.00">aggregate_proj</text>
<text text-anchor="middle" x="150.35" y="-299" font-family="sans" font-size="10.00">aggregation: monthly&#45;means</text>
<text text-anchor="middle" x="150.35" y="-288" font-family="sans" font-size="10.00">area: New&#45;Caledonia</text>
<text text-anchor="middle" x="150.35" y="-277" font-family="sans" font-size="10.00">period: 2006&#45;2019</text>
<text text-anchor="middle" x="150.35" y="-266" font-family="sans" font-size="10.00">project: CORDEX</text>
</g>
<!-- 3&#45;&gt;14 -->
<g id="edge25" class="edge">
<title>3&#45;&gt;14</title>
<path fill="none" stroke="grey" stroke-width="2" d="M652.23,-361.3C649.28,-360.09 646.31,-358.98 643.35,-358 474.97,-302.02 417.14,-357.78 239.65,-322.05"/>
<polygon fill="grey" stroke="grey" stroke-width="2" points="240.23,-318.6 229.73,-319.99 238.8,-325.45 240.23,-318.6"/>
</g>
<!-- 18 -->
<g id="node19" class="node">
<title>18</title>
<path fill="none" stroke="#59d856" stroke-width="2" d="M1487.35,-322C1487.35,-322 1353.35,-322 1353.35,-322 1347.35,-322 1341.35,-316 1341.35,-310 1341.35,-310 1341.35,-271 1341.35,-271 1341.35,-265 1347.35,-259 1353.35,-259 1353.35,-259 1487.35,-259 1487.35,-259 1493.35,-259 1499.35,-265 1499.35,-271 1499.35,-271 1499.35,-310 1499.35,-310 1499.35,-316 1493.35,-322 1487.35,-322"/>
<text text-anchor="middle" x="1420.35" y="-310" font-family="sans" font-size="10.00">aggregate_proj</text>
<text text-anchor="middle" x="1420.35" y="-299" font-family="sans" font-size="10.00">aggregation: monthly&#45;means</text>
<text text-anchor="middle" x="1420.35" y="-288" font-family="sans" font-size="10.00">area: New&#45;Zealand</text>
<text text-anchor="middle" x="1420.35" y="-277" font-family="sans" font-size="10.00">period: 2006&#45;2019</text>
<text text-anchor="middle" x="1420.35" y="-266" font-family="sans" font-size="10.00">project: CORDEX</text>
</g>
<!-- 3&#45;&gt;18 -->
<g id="edge34" class="edge">
<title>3&#45;&gt;18</title>
<path fill="none" stroke="grey" stroke-width="2" d="M804.56,-403.97C918.07,-393.23 1138.03,-368.48 1331.17,-322.14"/>
<polygon fill="grey" stroke="grey" stroke-width="2" points="1332.03,-325.54 1340.92,-319.78 1330.38,-318.73 1332.03,-325.54"/>
</g>
<!-- 4 -->
<g id="node5" class="node">
<title>4</title>
<path fill="none" stroke="#d89556" stroke-width="2" d="M642.85,-537C642.85,-537 547.85,-537 547.85,-537 541.85,-537 535.85,-531 535.85,-525 535.85,-525 535.85,-513 535.85,-513 535.85,-507 541.85,-501 547.85,-501 547.85,-501 642.85,-501 642.85,-501 648.85,-501 654.85,-507 654.85,-513 654.85,-513 654.85,-525 654.85,-525 654.85,-531 648.85,-537 642.85,-537"/>
<text text-anchor="middle" x="595.35" y="-522" font-family="sans" font-size="10.00">get_area</text>
<text text-anchor="middle" x="595.35" y="-511" font-family="sans" font-size="10.00">area: New&#45;Caledonia</text>
</g>
<!-- 4&#45;&gt;3 -->
<g id="edge9" class="edge">
<title>4&#45;&gt;3</title>
<path fill="none" stroke="grey" stroke-width="2" d="M617.01,-500.81C627.41,-492.57 640.55,-482.15 654.12,-471.38"/>
<polygon fill="grey" stroke="grey" stroke-width="2" points="656.49,-473.97 662.14,-465.02 652.13,-468.49 656.49,-473.97"/>
</g>
<!-- 8 -->
<g id="node9" class="node">
<title>8</title>
<path fill="none" stroke="#d85656" stroke-width="2" d="M621.85,-429.5C621.85,-429.5 570.85,-429.5 570.85,-429.5 564.85,-429.5 558.85,-423.5 558.85,-417.5 558.85,-417.5 558.85,-405.5 558.85,-405.5 558.85,-399.5 564.85,-393.5 570.85,-393.5 570.85,-393.5 621.85,-393.5 621.85,-393.5 627.85,-393.5 633.85,-399.5 633.85,-405.5 633.85,-405.5 633.85,-417.5 633.85,-417.5 633.85,-423.5 627.85,-429.5 621.85,-429.5"/>
<text text-anchor="middle" x="596.35" y="-409" font-family="sans" font-size="10.00">get_chelsa2</text>
</g>
<!-- 4&#45;&gt;8 -->
<g id="edge13" class="edge">
<title>4&#45;&gt;8</title>
<path fill="none" stroke="grey" stroke-width="2" d="M595.51,-500.58C595.67,-484.06 595.91,-459 596.09,-439.82"/>
<polygon fill="grey" stroke="grey" stroke-width="2" points="599.59,-439.63 596.19,-429.6 592.59,-439.56 599.59,-439.63"/>
</g>
<!-- 13 -->
<g id="node14" class="node">
<title>13</title>
<path fill="none" stroke="#d6d856" stroke-width="2" d="M272.85,-124C272.85,-124 165.85,-124 165.85,-124 159.85,-124 153.85,-118 153.85,-112 153.85,-112 153.85,-84 153.85,-84 153.85,-78 159.85,-72 165.85,-72 165.85,-72 272.85,-72 272.85,-72 278.85,-72 284.85,-78 284.85,-84 284.85,-84 284.85,-112 284.85,-112 284.85,-118 278.85,-124 272.85,-124"/>
<text text-anchor="middle" x="219.35" y="-112" font-family="sans" font-size="10.00">evaluate</text>
<text text-anchor="middle" x="219.35" y="-101" font-family="sans" font-size="10.00">baseline: chelsa2</text>
<text text-anchor="middle" x="219.35" y="-90" font-family="sans" font-size="10.00">ds_method: bc</text>
<text text-anchor="middle" x="219.35" y="-79" font-family="sans" font-size="10.00">period_eval: 2006&#45;2019</text>
</g>
<!-- 4&#45;&gt;13 -->
<g id="edge24" class="edge">
<title>4&#45;&gt;13</title>
<path fill="none" stroke="grey" stroke-width="2" d="M535.48,-514.5C422.68,-504.56 178.35,-466.6 48.35,-322 -0.31,-267.87 -18.76,-218.65 24.35,-160 51.58,-122.95 101.22,-107.78 143.6,-101.83"/>
<polygon fill="grey" stroke="grey" stroke-width="2" points="144.15,-105.29 153.63,-100.58 143.28,-98.35 144.15,-105.29"/>
</g>
<!-- 5 -->
<g id="node6" class="node">
<title>5</title>
<path fill="none" stroke="#d89556" stroke-width="2" d="M771.35,-537C771.35,-537 685.35,-537 685.35,-537 679.35,-537 673.35,-531 673.35,-525 673.35,-525 673.35,-513 673.35,-513 673.35,-507 679.35,-501 685.35,-501 685.35,-501 771.35,-501 771.35,-501 777.35,-501 783.35,-507 783.35,-513 783.35,-513 783.35,-525 783.35,-525 783.35,-531 777.35,-537 771.35,-537"/>
<text text-anchor="middle" x="728.35" y="-522" font-family="sans" font-size="10.00">get_area</text>
<text text-anchor="middle" x="728.35" y="-511" font-family="sans" font-size="10.00">area: New&#45;Zealand</text>
</g>
<!-- 5&#45;&gt;3 -->
<g id="edge10" class="edge">
<title>5&#45;&gt;3</title>
<path fill="none" stroke="grey" stroke-width="2" d="M728.35,-500.58C728.35,-493.36 728.35,-484.5 728.35,-475.22"/>
<polygon fill="grey" stroke="grey" stroke-width="2" points="731.85,-475.04 728.35,-465.04 724.85,-475.04 731.85,-475.04"/>
</g>
<!-- 5&#45;&gt;8 -->
<g id="edge14" class="edge">
<title>5&#45;&gt;8</title>
<path fill="none" stroke="grey" stroke-width="2" d="M696.21,-500.86C679.65,-491.33 659.59,-478.65 643.35,-465 633.64,-456.84 624.09,-446.68 616.16,-437.48"/>
<polygon fill="grey" stroke="grey" stroke-width="2" points="618.76,-435.13 609.65,-429.72 613.39,-439.63 618.76,-435.13"/>
</g>
<!-- 17 -->
<g id="node18" class="node">
<title>17</title>
<path fill="none" stroke="#d6d856" stroke-width="2" d="M1297.85,-124C1297.85,-124 1190.85,-124 1190.85,-124 1184.85,-124 1178.85,-118 1178.85,-112 1178.85,-112 1178.85,-84 1178.85,-84 1178.85,-78 1184.85,-72 1190.85,-72 1190.85,-72 1297.85,-72 1297.85,-72 1303.85,-72 1309.85,-78 1309.85,-84 1309.85,-84 1309.85,-112 1309.85,-112 1309.85,-118 1303.85,-124 1297.85,-124"/>
<text text-anchor="middle" x="1244.35" y="-112" font-family="sans" font-size="10.00">evaluate</text>
<text text-anchor="middle" x="1244.35" y="-101" font-family="sans" font-size="10.00">baseline: chelsa2</text>
<text text-anchor="middle" x="1244.35" y="-90" font-family="sans" font-size="10.00">ds_method: bc</text>
<text text-anchor="middle" x="1244.35" y="-79" font-family="sans" font-size="10.00">period_eval: 2006&#45;2019</text>
</g>
<!-- 5&#45;&gt;17 -->
<g id="edge33" class="edge">
<title>5&#45;&gt;17</title>
<path fill="none" stroke="grey" stroke-width="2" d="M783.49,-512.76C946.06,-496.06 1417.71,-438.23 1508.35,-322 1574.38,-237.32 1419.05,-162.05 1319.6,-124.42"/>
<polygon fill="grey" stroke="grey" stroke-width="2" points="1320.75,-121.11 1310.16,-120.89 1318.3,-127.67 1320.75,-121.11"/>
</g>
<!-- 6&#45;&gt;1 -->
<g id="edge6" class="edge">
<title>6&#45;&gt;1</title>
<path fill="none" stroke="grey" stroke-width="2" d="M521.02,-258.81C528.44,-246.6 536.93,-232.65 544.2,-220.7"/>
<polygon fill="grey" stroke="grey" stroke-width="2" points="547.27,-222.38 549.48,-212.01 541.29,-218.74 547.27,-222.38"/>
</g>
<!-- 16 -->
<g id="node17" class="node">
<title>16</title>
<path fill="none" stroke="#569ad8" stroke-width="2" d="M375.35,-212C375.35,-212 265.35,-212 265.35,-212 259.35,-212 253.35,-206 253.35,-200 253.35,-200 253.35,-183 253.35,-183 253.35,-177 259.35,-171 265.35,-171 265.35,-171 375.35,-171 375.35,-171 381.35,-171 387.35,-177 387.35,-183 387.35,-183 387.35,-200 387.35,-200 387.35,-206 381.35,-212 375.35,-212"/>
<text text-anchor="middle" x="320.35" y="-200" font-family="sans" font-size="10.00">downscale_bc</text>
<text text-anchor="middle" x="320.35" y="-189" font-family="sans" font-size="10.00">period_base: 1980&#45;2005</text>
<text text-anchor="middle" x="320.35" y="-178" font-family="sans" font-size="10.00">period_proj: 2006&#45;2019</text>
</g>
<!-- 6&#45;&gt;16 -->
<g id="edge28" class="edge">
<title>6&#45;&gt;16</title>
<path fill="none" stroke="grey" stroke-width="2" d="M444.76,-258.81C419.28,-245.22 389.73,-229.48 365.82,-216.74"/>
<polygon fill="grey" stroke="grey" stroke-width="2" points="367.43,-213.63 356.96,-212.01 364.14,-219.8 367.43,-213.63"/>
</g>
<!-- 7 -->
<g id="node8" class="node">
<title>7</title>
<path fill="none" stroke="#56d8d8" stroke-width="2" d="M393.35,-322C393.35,-322 259.35,-322 259.35,-322 253.35,-322 247.35,-316 247.35,-310 247.35,-310 247.35,-271 247.35,-271 247.35,-265 253.35,-259 259.35,-259 259.35,-259 393.35,-259 393.35,-259 399.35,-259 405.35,-265 405.35,-271 405.35,-271 405.35,-310 405.35,-310 405.35,-316 399.35,-322 393.35,-322"/>
<text text-anchor="middle" x="326.35" y="-310" font-family="sans" font-size="10.00">aggregate_base</text>
<text text-anchor="middle" x="326.35" y="-299" font-family="sans" font-size="10.00">aggregation: monthly&#45;means</text>
<text text-anchor="middle" x="326.35" y="-288" font-family="sans" font-size="10.00">area: New&#45;Caledonia</text>
<text text-anchor="middle" x="326.35" y="-277" font-family="sans" font-size="10.00">base: chelsa2</text>
<text text-anchor="middle" x="326.35" y="-266" font-family="sans" font-size="10.00">period: 1980&#45;2005</text>
</g>
<!-- 7&#45;&gt;1 -->
<g id="edge7" class="edge">
<title>7&#45;&gt;1</title>
<path fill="none" stroke="grey" stroke-width="2" d="M400.38,-258.94C434.03,-245.05 473.22,-228.88 504.51,-215.96"/>
<polygon fill="grey" stroke="grey" stroke-width="2" points="506.04,-219.12 513.95,-212.07 503.37,-212.65 506.04,-219.12"/>
</g>
<!-- 7&#45;&gt;16 -->
<g id="edge29" class="edge">
<title>7&#45;&gt;16</title>
<path fill="none" stroke="grey" stroke-width="2" d="M324.45,-258.81C323.72,-247.08 322.9,-233.74 322.18,-222.11"/>
<polygon fill="grey" stroke="grey" stroke-width="2" points="325.67,-221.78 321.56,-212.01 318.68,-222.21 325.67,-221.78"/>
</g>
<!-- 8&#45;&gt;7 -->
<g id="edge12" class="edge">
<title>8&#45;&gt;7</title>
<path fill="none" stroke="grey" stroke-width="2" d="M558.81,-393.95C519.18,-376.49 455.56,-348.45 404.89,-326.12"/>
<polygon fill="grey" stroke="grey" stroke-width="2" points="406.15,-322.85 395.59,-322.02 403.33,-329.25 406.15,-322.85"/>
</g>
<!-- 12 -->
<g id="node13" class="node">
<title>12</title>
<path fill="none" stroke="#56d8d8" stroke-width="2" d="M1135.35,-322C1135.35,-322 1001.35,-322 1001.35,-322 995.35,-322 989.35,-316 989.35,-310 989.35,-310 989.35,-271 989.35,-271 989.35,-265 995.35,-259 1001.35,-259 1001.35,-259 1135.35,-259 1135.35,-259 1141.35,-259 1147.35,-265 1147.35,-271 1147.35,-271 1147.35,-310 1147.35,-310 1147.35,-316 1141.35,-322 1135.35,-322"/>
<text text-anchor="middle" x="1068.35" y="-310" font-family="sans" font-size="10.00">aggregate_base</text>
<text text-anchor="middle" x="1068.35" y="-299" font-family="sans" font-size="10.00">aggregation: monthly&#45;means</text>
<text text-anchor="middle" x="1068.35" y="-288" font-family="sans" font-size="10.00">area: New&#45;Zealand</text>
<text text-anchor="middle" x="1068.35" y="-277" font-family="sans" font-size="10.00">base: chelsa2</text>
<text text-anchor="middle" x="1068.35" y="-266" font-family="sans" font-size="10.00">period: 1980&#45;2005</text>
</g>
<!-- 8&#45;&gt;12 -->
<g id="edge20" class="edge">
<title>8&#45;&gt;12</title>
<path fill="none" stroke="grey" stroke-width="2" d="M606.81,-393.25C615.12,-381.21 627.89,-365.92 643.35,-358 774.52,-290.79 830.91,-352.12 979.06,-322.04"/>
<polygon fill="grey" stroke="grey" stroke-width="2" points="979.91,-325.44 988.96,-319.92 978.45,-318.59 979.91,-325.44"/>
</g>
<!-- 15 -->
<g id="node16" class="node">
<title>15</title>
<path fill="none" stroke="#56d8d8" stroke-width="2" d="M179.35,-223C179.35,-223 45.35,-223 45.35,-223 39.35,-223 33.35,-217 33.35,-211 33.35,-211 33.35,-172 33.35,-172 33.35,-166 39.35,-160 45.35,-160 45.35,-160 179.35,-160 179.35,-160 185.35,-160 191.35,-166 191.35,-172 191.35,-172 191.35,-211 191.35,-211 191.35,-217 185.35,-223 179.35,-223"/>
<text text-anchor="middle" x="112.35" y="-211" font-family="sans" font-size="10.00">aggregate_base</text>
<text text-anchor="middle" x="112.35" y="-200" font-family="sans" font-size="10.00">aggregation: monthly&#45;means</text>
<text text-anchor="middle" x="112.35" y="-189" font-family="sans" font-size="10.00">area: New&#45;Caledonia</text>
<text text-anchor="middle" x="112.35" y="-178" font-family="sans" font-size="10.00">base: chelsa2</text>
<text text-anchor="middle" x="112.35" y="-167" font-family="sans" font-size="10.00">period: 2006&#45;2019</text>
</g>
<!-- 8&#45;&gt;15 -->
<g id="edge26" class="edge">
<title>8&#45;&gt;15</title>
<path fill="none" stroke="grey" stroke-width="2" d="M558.59,-410.27C447.66,-408.71 126.47,-397.62 62.35,-322 40.31,-296.01 57.86,-259.23 78,-231.51"/>
<polygon fill="grey" stroke="grey" stroke-width="2" points="81.03,-233.3 84.29,-223.22 75.46,-229.07 81.03,-233.3"/>
</g>
<!-- 19 -->
<g id="node20" class="node">
<title>19</title>
<path fill="none" stroke="#56d8d8" stroke-width="2" d="M822.35,-223C822.35,-223 688.35,-223 688.35,-223 682.35,-223 676.35,-217 676.35,-211 676.35,-211 676.35,-172 676.35,-172 676.35,-166 682.35,-160 688.35,-160 688.35,-160 822.35,-160 822.35,-160 828.35,-160 834.35,-166 834.35,-172 834.35,-172 834.35,-211 834.35,-211 834.35,-217 828.35,-223 822.35,-223"/>
<text text-anchor="middle" x="755.35" y="-211" font-family="sans" font-size="10.00">aggregate_base</text>
<text text-anchor="middle" x="755.35" y="-200" font-family="sans" font-size="10.00">aggregation: monthly&#45;means</text>
<text text-anchor="middle" x="755.35" y="-189" font-family="sans" font-size="10.00">area: New&#45;Zealand</text>
<text text-anchor="middle" x="755.35" y="-178" font-family="sans" font-size="10.00">base: chelsa2</text>
<text text-anchor="middle" x="755.35" y="-167" font-family="sans" font-size="10.00">period: 2006&#45;2019</text>
</g>
<!-- 8&#45;&gt;19 -->
<g id="edge35" class="edge">
<title>8&#45;&gt;19</title>
<path fill="none" stroke="grey" stroke-width="2" d="M595.47,-393.12C594.85,-362.78 597.67,-299.5 628.35,-259 638.65,-245.4 652.54,-234.32 667.36,-225.38"/>
<polygon fill="grey" stroke="grey" stroke-width="2" points="669.21,-228.35 676.17,-220.36 665.75,-222.26 669.21,-228.35"/>
</g>
<!-- 9 -->
<g id="node10" class="node">
<title>9</title>
<path fill="none" stroke="#569ad8" stroke-width="2" d="M1093.35,-212C1093.35,-212 983.35,-212 983.35,-212 977.35,-212 971.35,-206 971.35,-200 971.35,-200 971.35,-183 971.35,-183 971.35,-177 977.35,-171 983.35,-171 983.35,-171 1093.35,-171 1093.35,-171 1099.35,-171 1105.35,-177 1105.35,-183 1105.35,-183 1105.35,-200 1105.35,-200 1105.35,-206 1099.35,-212 1093.35,-212"/>
<text text-anchor="middle" x="1038.35" y="-200" font-family="sans" font-size="10.00">downscale_bc</text>
<text text-anchor="middle" x="1038.35" y="-189" font-family="sans" font-size="10.00">period_base: 1980&#45;2005</text>
<text text-anchor="middle" x="1038.35" y="-178" font-family="sans" font-size="10.00">period_proj: 2071&#45;2100</text>
</g>
<!-- 9&#45;&gt;0 -->
<g id="edge2" class="edge">
<title>9&#45;&gt;0</title>
<path fill="none" stroke="grey" stroke-width="2" d="M1032.27,-170.83C1022.81,-140.21 1004.53,-81.07 993.79,-46.33"/>
<polygon fill="grey" stroke="grey" stroke-width="2" points="997.02,-44.91 990.72,-36.39 990.33,-46.98 997.02,-44.91"/>
</g>
<!-- 10&#45;&gt;9 -->
<g id="edge15" class="edge">
<title>10&#45;&gt;9</title>
<path fill="none" stroke="grey" stroke-width="2" d="M938.54,-258.81C958.54,-245.52 981.65,-230.17 1000.59,-217.58"/>
<polygon fill="grey" stroke="grey" stroke-width="2" points="1002.59,-220.46 1008.98,-212.01 998.71,-214.63 1002.59,-220.46"/>
</g>
<!-- 11&#45;&gt;9 -->
<g id="edge16" class="edge">
<title>11&#45;&gt;9</title>
<path fill="none" stroke="grey" stroke-width="2" d="M1179.45,-258.94C1150.33,-245.23 1116.49,-229.29 1089.24,-216.47"/>
<polygon fill="grey" stroke="grey" stroke-width="2" points="1090.44,-213.16 1079.9,-212.07 1087.46,-219.49 1090.44,-213.16"/>
</g>
<!-- 20 -->
<g id="node21" class="node">
<title>20</title>
<path fill="none" stroke="#569ad8" stroke-width="2" d="M1299.35,-212C1299.35,-212 1189.35,-212 1189.35,-212 1183.35,-212 1177.35,-206 1177.35,-200 1177.35,-200 1177.35,-183 1177.35,-183 1177.35,-177 1183.35,-171 1189.35,-171 1189.35,-171 1299.35,-171 1299.35,-171 1305.35,-171 1311.35,-177 1311.35,-183 1311.35,-183 1311.35,-200 1311.35,-200 1311.35,-206 1305.35,-212 1299.35,-212"/>
<text text-anchor="middle" x="1244.35" y="-200" font-family="sans" font-size="10.00">downscale_bc</text>
<text text-anchor="middle" x="1244.35" y="-189" font-family="sans" font-size="10.00">period_base: 1980&#45;2005</text>
<text text-anchor="middle" x="1244.35" y="-178" font-family="sans" font-size="10.00">period_proj: 2006&#45;2019</text>
</g>
<!-- 11&#45;&gt;20 -->
<g id="edge37" class="edge">
<title>11&#45;&gt;20</title>
<path fill="none" stroke="grey" stroke-width="2" d="M1244.35,-258.81C1244.35,-247.08 1244.35,-233.74 1244.35,-222.11"/>
<polygon fill="grey" stroke="grey" stroke-width="2" points="1247.85,-222.01 1244.35,-212.01 1240.85,-222.01 1247.85,-222.01"/>
</g>
<!-- 12&#45;&gt;9 -->
<g id="edge17" class="edge">
<title>12&#45;&gt;9</title>
<path fill="none" stroke="grey" stroke-width="2" d="M1058.86,-258.81C1055.19,-246.96 1051.02,-233.47 1047.4,-221.76"/>
<polygon fill="grey" stroke="grey" stroke-width="2" points="1050.68,-220.53 1044.38,-212.01 1043.99,-222.6 1050.68,-220.53"/>
</g>
<!-- 12&#45;&gt;20 -->
<g id="edge38" class="edge">
<title>12&#45;&gt;20</title>
<path fill="none" stroke="grey" stroke-width="2" d="M1124.04,-258.81C1148.57,-245.28 1177,-229.62 1200.07,-216.91"/>
<polygon fill="grey" stroke="grey" stroke-width="2" points="1201.88,-219.9 1208.94,-212.01 1198.5,-213.77 1201.88,-219.9"/>
</g>
<!-- 13&#45;&gt;0 -->
<g id="edge3" class="edge">
<title>13&#45;&gt;0</title>
<path fill="none" stroke="grey" stroke-width="2" d="M284.99,-90.32C440.28,-74.5 826.3,-35.2 947.99,-22.8"/>
<polygon fill="grey" stroke="grey" stroke-width="2" points="948.67,-26.25 958.27,-21.76 947.97,-19.29 948.67,-26.25"/>
</g>
<!-- 14&#45;&gt;13 -->
<g id="edge21" class="edge">
<title>14&#45;&gt;13</title>
<path fill="none" stroke="grey" stroke-width="2" d="M178.49,-258.68C186.77,-248.07 195.03,-235.65 200.35,-223 212.25,-194.72 216.81,-160.02 218.5,-134.52"/>
<polygon fill="grey" stroke="grey" stroke-width="2" points="222.01,-134.38 219.06,-124.2 215.02,-134 222.01,-134.38"/>
</g>
<!-- 14&#45;&gt;16 -->
<g id="edge27" class="edge">
<title>14&#45;&gt;16</title>
<path fill="none" stroke="grey" stroke-width="2" d="M204.14,-258.81C227.73,-245.34 255.06,-229.75 277.28,-217.07"/>
<polygon fill="grey" stroke="grey" stroke-width="2" points="279.2,-220.01 286.15,-212.01 275.73,-213.93 279.2,-220.01"/>
</g>
<!-- 15&#45;&gt;13 -->
<g id="edge22" class="edge">
<title>15&#45;&gt;13</title>
<path fill="none" stroke="grey" stroke-width="2" d="M148.28,-159.78C159.22,-150.42 171.27,-140.12 182.28,-130.7"/>
<polygon fill="grey" stroke="grey" stroke-width="2" points="184.77,-133.18 190.09,-124.02 180.22,-127.86 184.77,-133.18"/>
</g>
<!-- 16&#45;&gt;13 -->
<g id="edge23" class="edge">
<title>16&#45;&gt;13</title>
<path fill="none" stroke="grey" stroke-width="2" d="M298.43,-170.65C285.59,-159.01 269.06,-144.04 254.44,-130.79"/>
<polygon fill="grey" stroke="grey" stroke-width="2" points="256.76,-128.17 247,-124.05 252.06,-133.36 256.76,-128.17"/>
</g>
<!-- 17&#45;&gt;0 -->
<g id="edge4" class="edge">
<title>17&#45;&gt;0</title>
<path fill="none" stroke="grey" stroke-width="2" d="M1178.66,-77.22C1129.06,-62.28 1062.81,-42.33 1022.16,-30.09"/>
<polygon fill="grey" stroke="grey" stroke-width="2" points="1022.99,-26.68 1012.4,-27.15 1020.97,-33.38 1022.99,-26.68"/>
</g>
<!-- 18&#45;&gt;17 -->
<g id="edge30" class="edge">
<title>18&#45;&gt;17</title>
<path fill="none" stroke="grey" stroke-width="2" d="M1399.78,-258.81C1380.76,-231.48 1350.89,-191.12 1320.35,-160 1310.24,-149.7 1298.43,-139.49 1287.18,-130.46"/>
<polygon fill="grey" stroke="grey" stroke-width="2" points="1289.13,-127.54 1279.11,-124.1 1284.8,-133.04 1289.13,-127.54"/>
</g>
<!-- 18&#45;&gt;20 -->
<g id="edge36" class="edge">
<title>18&#45;&gt;20</title>
<path fill="none" stroke="grey" stroke-width="2" d="M1364.66,-258.81C1340.12,-245.28 1311.69,-229.62 1288.63,-216.91"/>
<polygon fill="grey" stroke="grey" stroke-width="2" points="1290.2,-213.77 1279.75,-212.01 1286.82,-219.9 1290.2,-213.77"/>
</g>
<!-- 19&#45;&gt;17 -->
<g id="edge31" class="edge">
<title>19&#45;&gt;17</title>
<path fill="none" stroke="grey" stroke-width="2" d="M834.46,-175.7C926.69,-158.44 1078.03,-130.12 1168.74,-113.15"/>
<polygon fill="grey" stroke="grey" stroke-width="2" points="1169.49,-116.57 1178.68,-111.29 1168.2,-109.69 1169.49,-116.57"/>
</g>
<!-- 20&#45;&gt;17 -->
<g id="edge32" class="edge">
<title>20&#45;&gt;17</title>
<path fill="none" stroke="grey" stroke-width="2" d="M1244.35,-170.65C1244.35,-159.97 1244.35,-146.49 1244.35,-134.11"/>
<polygon fill="grey" stroke="grey" stroke-width="2" points="1247.85,-134.05 1244.35,-124.05 1240.85,-134.05 1247.85,-134.05"/>
</g>
</g>
</svg>
