<?xml version="1.0" encoding="UTF-8" standalone="no"?>
<!DOCTYPE svg PUBLIC "-//W3C//DTD SVG 1.1//EN"
 "http://www.w3.org/Graphics/SVG/1.1/DTD/svg11.dtd">
<!-- Generated by graphviz version 2.43.0 (0)
 -->
<!-- Title: snakemake_dag Pages: 1 -->
<svg width="1750pt" height="540pt"
 viewBox="0.00 0.00 1750.00 540.00" xmlns="http://www.w3.org/2000/svg" xmlns:xlink="http://www.w3.org/1999/xlink">
<g id="graph0" class="graph" transform="scale(1 1) rotate(0) translate(4 536)">
<title>snakemake_dag</title>
<polygon fill="white" stroke="transparent" points="-4,4 -4,-536 1746,-536 1746,4 -4,4"/>
<!-- 0 -->
<g id="node1" class="node">
<title>0</title>
<path fill="none" stroke="#d8bc56" stroke-width="2" stroke-dasharray="5,2" d="M722,-36C722,-36 692,-36 692,-36 686,-36 680,-30 680,-24 680,-24 680,-12 680,-12 680,-6 686,0 692,0 692,0 722,0 722,0 728,0 734,-6 734,-12 734,-12 734,-24 734,-24 734,-30 728,-36 722,-36"/>
<text text-anchor="middle" x="707" y="-15.5" font-family="sans" font-size="10.00">all</text>
</g>
<!-- 1 -->
<g id="node2" class="node">
<title>1</title>
<path fill="none" stroke="#d85656" stroke-width="2" stroke-dasharray="5,2" d="M674,-113C674,-113 564,-113 564,-113 558,-113 552,-107 552,-101 552,-101 552,-84 552,-84 552,-78 558,-72 564,-72 564,-72 674,-72 674,-72 680,-72 686,-78 686,-84 686,-84 686,-101 686,-101 686,-107 680,-113 674,-113"/>
<text text-anchor="middle" x="619" y="-101" font-family="sans" font-size="10.00">downscale_bc</text>
<text text-anchor="middle" x="619" y="-90" font-family="sans" font-size="10.00">period_base: 1980&#45;2005</text>
<text text-anchor="middle" x="619" y="-79" font-family="sans" font-size="10.00">period_proj: 2071&#45;2100</text>
</g>
<!-- 1&#45;&gt;0 -->
<g id="edge1" class="edge">
<title>1&#45;&gt;0</title>
<path fill="none" stroke="grey" stroke-width="2" d="M643.05,-71.69C653.94,-62.72 666.9,-52.04 678.3,-42.65"/>
<polygon fill="grey" stroke="grey" stroke-width="2" points="680.78,-45.14 686.27,-36.08 676.33,-39.74 680.78,-45.14"/>
</g>
<!-- 2 -->
<g id="node3" class="node">
<title>2</title>
<path fill="none" stroke="#568ad8" stroke-width="2" stroke-dasharray="5,2" d="M498,-228.5C498,-228.5 364,-228.5 364,-228.5 358,-228.5 352,-222.5 352,-216.5 352,-216.5 352,-177.5 352,-177.5 352,-171.5 358,-165.5 364,-165.5 364,-165.5 498,-165.5 498,-165.5 504,-165.5 510,-171.5 510,-177.5 510,-177.5 510,-216.5 510,-216.5 510,-222.5 504,-228.5 498,-228.5"/>
<text text-anchor="middle" x="431" y="-216.5" font-family="sans" font-size="10.00">aggregate_proj</text>
<text text-anchor="middle" x="431" y="-205.5" font-family="sans" font-size="10.00">aggregation: monthly&#45;means</text>
<text text-anchor="middle" x="431" y="-194.5" font-family="sans" font-size="10.00">area: New&#45;Caledonia</text>
<text text-anchor="middle" x="431" y="-183.5" font-family="sans" font-size="10.00">period: 2071&#45;2100</text>
<text text-anchor="middle" x="431" y="-172.5" font-family="sans" font-size="10.00">project: CORDEX</text>
</g>
<!-- 2&#45;&gt;1 -->
<g id="edge5" class="edge">
<title>2&#45;&gt;1</title>
<path fill="none" stroke="grey" stroke-width="2" d="M487.15,-165.39C514.93,-150.24 548,-132.21 574.07,-118"/>
<polygon fill="grey" stroke="grey" stroke-width="2" points="575.88,-121 582.98,-113.14 572.53,-114.85 575.88,-121"/>
</g>
<!-- 3 -->
<g id="node4" class="node">
<title>3</title>
<path fill="none" stroke="#59d856" stroke-width="2" stroke-dasharray="5,2" d="M486.5,-388C486.5,-388 375.5,-388 375.5,-388 369.5,-388 363.5,-382 363.5,-376 363.5,-376 363.5,-293 363.5,-293 363.5,-287 369.5,-281 375.5,-281 375.5,-281 486.5,-281 486.5,-281 492.5,-281 498.5,-287 498.5,-293 498.5,-293 498.5,-376 498.5,-376 498.5,-382 492.5,-388 486.5,-388"/>
<text text-anchor="middle" x="431" y="-376" font-family="sans" font-size="10.00">get_cordex</text>
<text text-anchor="middle" x="431" y="-365" font-family="sans" font-size="10.00">base: chelsa2</text>
<text text-anchor="middle" x="431" y="-354" font-family="sans" font-size="10.00">domain: AUS&#45;22</text>
<text text-anchor="middle" x="431" y="-343" font-family="sans" font-size="10.00">downscaling: v0</text>
<text text-anchor="middle" x="431" y="-332" font-family="sans" font-size="10.00">ensemble: r1i1p1</text>
<text text-anchor="middle" x="431" y="-321" font-family="sans" font-size="10.00">experiment: rcp26</text>
<text text-anchor="middle" x="431" y="-310" font-family="sans" font-size="10.00">institute: ICTP</text>
<text text-anchor="middle" x="431" y="-299" font-family="sans" font-size="10.00">model: NCC&#45;NorESM1&#45;M</text>
<text text-anchor="middle" x="431" y="-288" font-family="sans" font-size="10.00">rcm: RegCM4&#45;7</text>
</g>
<!-- 3&#45;&gt;2 -->
<g id="edge8" class="edge">
<title>3&#45;&gt;2</title>
<path fill="none" stroke="grey" stroke-width="2" d="M431,-280.72C431,-266.77 431,-251.92 431,-238.71"/>
<polygon fill="grey" stroke="grey" stroke-width="2" points="434.5,-238.52 431,-228.52 427.5,-238.52 434.5,-238.52"/>
</g>
<!-- 7 -->
<g id="node8" class="node">
<title>7</title>
<path fill="none" stroke="#568ad8" stroke-width="2" stroke-dasharray="5,2" d="M674,-228.5C674,-228.5 540,-228.5 540,-228.5 534,-228.5 528,-222.5 528,-216.5 528,-216.5 528,-177.5 528,-177.5 528,-171.5 534,-165.5 540,-165.5 540,-165.5 674,-165.5 674,-165.5 680,-165.5 686,-171.5 686,-177.5 686,-177.5 686,-216.5 686,-216.5 686,-222.5 680,-228.5 674,-228.5"/>
<text text-anchor="middle" x="607" y="-216.5" font-family="sans" font-size="10.00">aggregate_proj</text>
<text text-anchor="middle" x="607" y="-205.5" font-family="sans" font-size="10.00">aggregation: monthly&#45;means</text>
<text text-anchor="middle" x="607" y="-194.5" font-family="sans" font-size="10.00">area: New&#45;Caledonia</text>
<text text-anchor="middle" x="607" y="-183.5" font-family="sans" font-size="10.00">period: 1980&#45;2005</text>
<text text-anchor="middle" x="607" y="-172.5" font-family="sans" font-size="10.00">project: CORDEX</text>
</g>
<!-- 3&#45;&gt;7 -->
<g id="edge12" class="edge">
<title>3&#45;&gt;7</title>
<path fill="none" stroke="grey" stroke-width="2" d="M498.54,-281.5C518.72,-265.96 540.43,-249.25 559.07,-234.9"/>
<polygon fill="grey" stroke="grey" stroke-width="2" points="561.35,-237.56 567.14,-228.69 557.08,-232.02 561.35,-237.56"/>
</g>
<!-- 10 -->
<g id="node11" class="node">
<title>10</title>
<path fill="none" stroke="#568ad8" stroke-width="2" stroke-dasharray="5,2" d="M322,-228.5C322,-228.5 188,-228.5 188,-228.5 182,-228.5 176,-222.5 176,-216.5 176,-216.5 176,-177.5 176,-177.5 176,-171.5 182,-165.5 188,-165.5 188,-165.5 322,-165.5 322,-165.5 328,-165.5 334,-171.5 334,-177.5 334,-177.5 334,-216.5 334,-216.5 334,-222.5 328,-228.5 322,-228.5"/>
<text text-anchor="middle" x="255" y="-216.5" font-family="sans" font-size="10.00">aggregate_proj</text>
<text text-anchor="middle" x="255" y="-205.5" font-family="sans" font-size="10.00">aggregation: monthly&#45;means</text>
<text text-anchor="middle" x="255" y="-194.5" font-family="sans" font-size="10.00">area: Vanuatu</text>
<text text-anchor="middle" x="255" y="-183.5" font-family="sans" font-size="10.00">period: 2071&#45;2100</text>
<text text-anchor="middle" x="255" y="-172.5" font-family="sans" font-size="10.00">project: CORDEX</text>
</g>
<!-- 3&#45;&gt;10 -->
<g id="edge17" class="edge">
<title>3&#45;&gt;10</title>
<path fill="none" stroke="grey" stroke-width="2" d="M363.46,-281.5C343.28,-265.96 321.57,-249.25 302.93,-234.9"/>
<polygon fill="grey" stroke="grey" stroke-width="2" points="304.92,-232.02 294.86,-228.69 300.65,-237.56 304.92,-232.02"/>
</g>
<!-- 11 -->
<g id="node12" class="node">
<title>11</title>
<path fill="none" stroke="#568ad8" stroke-width="2" stroke-dasharray="5,2" d="M146,-228.5C146,-228.5 12,-228.5 12,-228.5 6,-228.5 0,-222.5 0,-216.5 0,-216.5 0,-177.5 0,-177.5 0,-171.5 6,-165.5 12,-165.5 12,-165.5 146,-165.5 146,-165.5 152,-165.5 158,-171.5 158,-177.5 158,-177.5 158,-216.5 158,-216.5 158,-222.5 152,-228.5 146,-228.5"/>
<text text-anchor="middle" x="79" y="-216.5" font-family="sans" font-size="10.00">aggregate_proj</text>
<text text-anchor="middle" x="79" y="-205.5" font-family="sans" font-size="10.00">aggregation: monthly&#45;means</text>
<text text-anchor="middle" x="79" y="-194.5" font-family="sans" font-size="10.00">area: Vanuatu</text>
<text text-anchor="middle" x="79" y="-183.5" font-family="sans" font-size="10.00">period: 1980&#45;2005</text>
<text text-anchor="middle" x="79" y="-172.5" font-family="sans" font-size="10.00">project: CORDEX</text>
</g>
<!-- 3&#45;&gt;11 -->
<g id="edge18" class="edge">
<title>3&#45;&gt;11</title>
<path fill="none" stroke="grey" stroke-width="2" d="M363.39,-314.25C309.35,-298.05 232.14,-273.08 167,-245 158.71,-241.43 150.14,-237.36 141.76,-233.14"/>
<polygon fill="grey" stroke="grey" stroke-width="2" points="143.25,-229.98 132.76,-228.53 140.06,-236.21 143.25,-229.98"/>
</g>
<!-- 4 -->
<g id="node5" class="node">
<title>4</title>
<path fill="none" stroke="#56d88a" stroke-width="2" stroke-dasharray="5,2" d="M888.5,-460C888.5,-460 837.5,-460 837.5,-460 831.5,-460 825.5,-454 825.5,-448 825.5,-448 825.5,-436 825.5,-436 825.5,-430 831.5,-424 837.5,-424 837.5,-424 888.5,-424 888.5,-424 894.5,-424 900.5,-430 900.5,-436 900.5,-436 900.5,-448 900.5,-448 900.5,-454 894.5,-460 888.5,-460"/>
<text text-anchor="middle" x="863" y="-439.5" font-family="sans" font-size="10.00">get_chelsa2</text>
</g>
<!-- 4&#45;&gt;3 -->
<g id="edge9" class="edge">
<title>4&#45;&gt;3</title>
<path fill="none" stroke="grey" stroke-width="2" d="M825.42,-431.82C755.01,-414.63 601.92,-377.24 508.53,-354.43"/>
<polygon fill="grey" stroke="grey" stroke-width="2" points="509.11,-350.97 498.57,-352 507.45,-357.77 509.11,-350.97"/>
</g>
<!-- 8 -->
<g id="node9" class="node">
<title>8</title>
<path fill="none" stroke="#bed856" stroke-width="2" stroke-dasharray="5,2" d="M1026,-228.5C1026,-228.5 892,-228.5 892,-228.5 886,-228.5 880,-222.5 880,-216.5 880,-216.5 880,-177.5 880,-177.5 880,-171.5 886,-165.5 892,-165.5 892,-165.5 1026,-165.5 1026,-165.5 1032,-165.5 1038,-171.5 1038,-177.5 1038,-177.5 1038,-216.5 1038,-216.5 1038,-222.5 1032,-228.5 1026,-228.5"/>
<text text-anchor="middle" x="959" y="-216.5" font-family="sans" font-size="10.00">aggregate_base</text>
<text text-anchor="middle" x="959" y="-205.5" font-family="sans" font-size="10.00">aggregation: monthly&#45;means</text>
<text text-anchor="middle" x="959" y="-194.5" font-family="sans" font-size="10.00">area: New&#45;Caledonia</text>
<text text-anchor="middle" x="959" y="-183.5" font-family="sans" font-size="10.00">base: chelsa2</text>
<text text-anchor="middle" x="959" y="-172.5" font-family="sans" font-size="10.00">period: 1980&#45;2005</text>
</g>
<!-- 4&#45;&gt;8 -->
<g id="edge13" class="edge">
<title>4&#45;&gt;8</title>
<path fill="none" stroke="grey" stroke-width="2" d="M869.75,-423.91C884.86,-385.67 921.73,-292.33 943.06,-238.35"/>
<polygon fill="grey" stroke="grey" stroke-width="2" points="946.43,-239.34 946.85,-228.75 939.92,-236.77 946.43,-239.34"/>
</g>
<!-- 12 -->
<g id="node13" class="node">
<title>12</title>
<path fill="none" stroke="#bed856" stroke-width="2" stroke-dasharray="5,2" d="M850,-228.5C850,-228.5 716,-228.5 716,-228.5 710,-228.5 704,-222.5 704,-216.5 704,-216.5 704,-177.5 704,-177.5 704,-171.5 710,-165.5 716,-165.5 716,-165.5 850,-165.5 850,-165.5 856,-165.5 862,-171.5 862,-177.5 862,-177.5 862,-216.5 862,-216.5 862,-222.5 856,-228.5 850,-228.5"/>
<text text-anchor="middle" x="783" y="-216.5" font-family="sans" font-size="10.00">aggregate_base</text>
<text text-anchor="middle" x="783" y="-205.5" font-family="sans" font-size="10.00">aggregation: monthly&#45;means</text>
<text text-anchor="middle" x="783" y="-194.5" font-family="sans" font-size="10.00">area: Vanuatu</text>
<text text-anchor="middle" x="783" y="-183.5" font-family="sans" font-size="10.00">base: chelsa2</text>
<text text-anchor="middle" x="783" y="-172.5" font-family="sans" font-size="10.00">period: 1980&#45;2005</text>
</g>
<!-- 4&#45;&gt;12 -->
<g id="edge19" class="edge">
<title>4&#45;&gt;12</title>
<path fill="none" stroke="grey" stroke-width="2" d="M857.37,-423.91C844.79,-385.67 814.06,-292.33 796.28,-238.35"/>
<polygon fill="grey" stroke="grey" stroke-width="2" points="799.58,-237.16 793.12,-228.75 792.93,-239.35 799.58,-237.16"/>
</g>
<!-- 15 -->
<g id="node16" class="node">
<title>15</title>
<path fill="none" stroke="#d88d56" stroke-width="2" stroke-dasharray="5,2" d="M1355.5,-371.5C1355.5,-371.5 1266.5,-371.5 1266.5,-371.5 1260.5,-371.5 1254.5,-365.5 1254.5,-359.5 1254.5,-359.5 1254.5,-309.5 1254.5,-309.5 1254.5,-303.5 1260.5,-297.5 1266.5,-297.5 1266.5,-297.5 1355.5,-297.5 1355.5,-297.5 1361.5,-297.5 1367.5,-303.5 1367.5,-309.5 1367.5,-309.5 1367.5,-359.5 1367.5,-359.5 1367.5,-365.5 1361.5,-371.5 1355.5,-371.5"/>
<text text-anchor="middle" x="1311" y="-359.5" font-family="sans" font-size="10.00">get_cmip6</text>
<text text-anchor="middle" x="1311" y="-348.5" font-family="sans" font-size="10.00">base: chelsa2</text>
<text text-anchor="middle" x="1311" y="-337.5" font-family="sans" font-size="10.00">ensemble: r1i1p1f1</text>
<text text-anchor="middle" x="1311" y="-326.5" font-family="sans" font-size="10.00">experiment: ssp126</text>
<text text-anchor="middle" x="1311" y="-315.5" font-family="sans" font-size="10.00">institute: MRI</text>
<text text-anchor="middle" x="1311" y="-304.5" font-family="sans" font-size="10.00">model: MRI&#45;ESM2&#45;0</text>
</g>
<!-- 4&#45;&gt;15 -->
<g id="edge24" class="edge">
<title>4&#45;&gt;15</title>
<path fill="none" stroke="grey" stroke-width="2" d="M900.81,-432.1C976.91,-414.18 1149.39,-373.56 1244.67,-351.12"/>
<polygon fill="grey" stroke="grey" stroke-width="2" points="1245.56,-354.51 1254.49,-348.81 1243.95,-347.69 1245.56,-354.51"/>
</g>
<!-- 5 -->
<g id="node6" class="node">
<title>5</title>
<path fill="none" stroke="#56c1d8" stroke-width="2" stroke-dasharray="5,2" d="M850.5,-532C850.5,-532 755.5,-532 755.5,-532 749.5,-532 743.5,-526 743.5,-520 743.5,-520 743.5,-508 743.5,-508 743.5,-502 749.5,-496 755.5,-496 755.5,-496 850.5,-496 850.5,-496 856.5,-496 862.5,-502 862.5,-508 862.5,-508 862.5,-520 862.5,-520 862.5,-526 856.5,-532 850.5,-532"/>
<text text-anchor="middle" x="803" y="-517" font-family="sans" font-size="10.00">get_area</text>
<text text-anchor="middle" x="803" y="-506" font-family="sans" font-size="10.00">area: New&#45;Caledonia</text>
</g>
<!-- 5&#45;&gt;4 -->
<g id="edge10" class="edge">
<title>5&#45;&gt;4</title>
<path fill="none" stroke="grey" stroke-width="2" d="M817.83,-495.7C825.02,-487.3 833.8,-477.07 841.69,-467.86"/>
<polygon fill="grey" stroke="grey" stroke-width="2" points="844.49,-469.97 848.34,-460.1 839.17,-465.42 844.49,-469.97"/>
</g>
<!-- 6 -->
<g id="node7" class="node">
<title>6</title>
<path fill="none" stroke="#56c1d8" stroke-width="2" stroke-dasharray="5,2" d="M953,-532C953,-532 893,-532 893,-532 887,-532 881,-526 881,-520 881,-520 881,-508 881,-508 881,-502 887,-496 893,-496 893,-496 953,-496 953,-496 959,-496 965,-502 965,-508 965,-508 965,-520 965,-520 965,-526 959,-532 953,-532"/>
<text text-anchor="middle" x="923" y="-517" font-family="sans" font-size="10.00">get_area</text>
<text text-anchor="middle" x="923" y="-506" font-family="sans" font-size="10.00">area: Vanuatu</text>
</g>
<!-- 6&#45;&gt;4 -->
<g id="edge11" class="edge">
<title>6&#45;&gt;4</title>
<path fill="none" stroke="grey" stroke-width="2" d="M908.17,-495.7C900.98,-487.3 892.2,-477.07 884.31,-467.86"/>
<polygon fill="grey" stroke="grey" stroke-width="2" points="886.83,-465.42 877.66,-460.1 881.51,-469.97 886.83,-465.42"/>
</g>
<!-- 7&#45;&gt;1 -->
<g id="edge6" class="edge">
<title>7&#45;&gt;1</title>
<path fill="none" stroke="grey" stroke-width="2" d="M610.6,-165.25C612.16,-151.94 613.97,-136.42 615.52,-123.23"/>
<polygon fill="grey" stroke="grey" stroke-width="2" points="619,-123.58 616.69,-113.24 612.05,-122.76 619,-123.58"/>
</g>
<!-- 8&#45;&gt;1 -->
<g id="edge7" class="edge">
<title>8&#45;&gt;1</title>
<path fill="none" stroke="grey" stroke-width="2" d="M907.51,-165.49C895.79,-159.4 883.19,-153.5 871,-149 854.55,-142.93 763.98,-123.53 696.1,-109.37"/>
<polygon fill="grey" stroke="grey" stroke-width="2" points="696.76,-105.93 686.26,-107.32 695.33,-112.79 696.76,-105.93"/>
</g>
<!-- 13 -->
<g id="node14" class="node">
<title>13</title>
<path fill="none" stroke="#d85656" stroke-width="2" stroke-dasharray="5,2" d="M1278,-113C1278,-113 1168,-113 1168,-113 1162,-113 1156,-107 1156,-101 1156,-101 1156,-84 1156,-84 1156,-78 1162,-72 1168,-72 1168,-72 1278,-72 1278,-72 1284,-72 1290,-78 1290,-84 1290,-84 1290,-101 1290,-101 1290,-107 1284,-113 1278,-113"/>
<text text-anchor="middle" x="1223" y="-101" font-family="sans" font-size="10.00">downscale_bc</text>
<text text-anchor="middle" x="1223" y="-90" font-family="sans" font-size="10.00">period_base: 1980&#45;2005</text>
<text text-anchor="middle" x="1223" y="-79" font-family="sans" font-size="10.00">period_proj: 2071&#45;2100</text>
</g>
<!-- 8&#45;&gt;13 -->
<g id="edge22" class="edge">
<title>8&#45;&gt;13</title>
<path fill="none" stroke="grey" stroke-width="2" d="M1012.69,-165.31C1023.85,-159.5 1035.66,-153.77 1047,-149 1078.71,-135.67 1114.79,-123.75 1145.98,-114.42"/>
<polygon fill="grey" stroke="grey" stroke-width="2" points="1147.33,-117.67 1155.93,-111.48 1145.35,-110.95 1147.33,-117.67"/>
</g>
<!-- 9 -->
<g id="node10" class="node">
<title>9</title>
<path fill="none" stroke="#d85656" stroke-width="2" stroke-dasharray="5,2" d="M422,-113C422,-113 312,-113 312,-113 306,-113 300,-107 300,-101 300,-101 300,-84 300,-84 300,-78 306,-72 312,-72 312,-72 422,-72 422,-72 428,-72 434,-78 434,-84 434,-84 434,-101 434,-101 434,-107 428,-113 422,-113"/>
<text text-anchor="middle" x="367" y="-101" font-family="sans" font-size="10.00">downscale_bc</text>
<text text-anchor="middle" x="367" y="-90" font-family="sans" font-size="10.00">period_base: 1980&#45;2005</text>
<text text-anchor="middle" x="367" y="-79" font-family="sans" font-size="10.00">period_proj: 2071&#45;2100</text>
</g>
<!-- 9&#45;&gt;0 -->
<g id="edge2" class="edge">
<title>9&#45;&gt;0</title>
<path fill="none" stroke="grey" stroke-width="2" d="M434.17,-77.18C504.86,-62.1 613.55,-38.93 670.04,-26.88"/>
<polygon fill="grey" stroke="grey" stroke-width="2" points="670.91,-30.28 679.96,-24.77 669.45,-23.43 670.91,-30.28"/>
</g>
<!-- 10&#45;&gt;9 -->
<g id="edge14" class="edge">
<title>10&#45;&gt;9</title>
<path fill="none" stroke="grey" stroke-width="2" d="M288.6,-165.25C304.3,-150.88 322.8,-133.95 337.89,-120.14"/>
<polygon fill="grey" stroke="grey" stroke-width="2" points="340.42,-122.57 345.43,-113.24 335.69,-117.41 340.42,-122.57"/>
</g>
<!-- 11&#45;&gt;9 -->
<g id="edge15" class="edge">
<title>11&#45;&gt;9</title>
<path fill="none" stroke="grey" stroke-width="2" d="M131.62,-165.49C143.06,-159.54 155.26,-153.7 167,-149 206.46,-133.21 252.02,-120.19 289.68,-110.73"/>
<polygon fill="grey" stroke="grey" stroke-width="2" points="290.71,-114.09 299.58,-108.29 289.03,-107.29 290.71,-114.09"/>
</g>
<!-- 12&#45;&gt;9 -->
<g id="edge16" class="edge">
<title>12&#45;&gt;9</title>
<path fill="none" stroke="grey" stroke-width="2" d="M732.14,-165.28C720.27,-159.12 707.46,-153.25 695,-149 649.81,-133.57 526.16,-114.92 444.25,-103.64"/>
<polygon fill="grey" stroke="grey" stroke-width="2" points="444.61,-100.16 434.23,-102.27 443.66,-107.1 444.61,-100.16"/>
</g>
<!-- 17 -->
<g id="node18" class="node">
<title>17</title>
<path fill="none" stroke="#d85656" stroke-width="2" stroke-dasharray="5,2" d="M850,-113C850,-113 740,-113 740,-113 734,-113 728,-107 728,-101 728,-101 728,-84 728,-84 728,-78 734,-72 740,-72 740,-72 850,-72 850,-72 856,-72 862,-78 862,-84 862,-84 862,-101 862,-101 862,-107 856,-113 850,-113"/>
<text text-anchor="middle" x="795" y="-101" font-family="sans" font-size="10.00">downscale_bc</text>
<text text-anchor="middle" x="795" y="-90" font-family="sans" font-size="10.00">period_base: 1980&#45;2005</text>
<text text-anchor="middle" x="795" y="-79" font-family="sans" font-size="10.00">period_proj: 2071&#45;2100</text>
</g>
<!-- 12&#45;&gt;17 -->
<g id="edge28" class="edge">
<title>12&#45;&gt;17</title>
<path fill="none" stroke="grey" stroke-width="2" d="M786.6,-165.25C788.16,-151.94 789.97,-136.42 791.52,-123.23"/>
<polygon fill="grey" stroke="grey" stroke-width="2" points="795,-123.58 792.69,-113.24 788.05,-122.76 795,-123.58"/>
</g>
<!-- 13&#45;&gt;0 -->
<g id="edge3" class="edge">
<title>13&#45;&gt;0</title>
<path fill="none" stroke="grey" stroke-width="2" d="M1155.81,-82.06C1045.76,-66.6 830.72,-36.38 744.29,-24.24"/>
<polygon fill="grey" stroke="grey" stroke-width="2" points="744.55,-20.74 734.16,-22.82 743.58,-27.67 744.55,-20.74"/>
</g>
<!-- 14 -->
<g id="node15" class="node">
<title>14</title>
<path fill="none" stroke="#568ad8" stroke-width="2" stroke-dasharray="5,2" d="M1554,-245C1554,-245 1420,-245 1420,-245 1414,-245 1408,-239 1408,-233 1408,-233 1408,-161 1408,-161 1408,-155 1414,-149 1420,-149 1420,-149 1554,-149 1554,-149 1560,-149 1566,-155 1566,-161 1566,-161 1566,-233 1566,-233 1566,-239 1560,-245 1554,-245"/>
<text text-anchor="middle" x="1487" y="-233" font-family="sans" font-size="10.00">aggregate_proj</text>
<text text-anchor="middle" x="1487" y="-222" font-family="sans" font-size="10.00">aggregation: monthly&#45;means</text>
<text text-anchor="middle" x="1487" y="-211" font-family="sans" font-size="10.00">area: New&#45;Caledonia</text>
<text text-anchor="middle" x="1487" y="-200" font-family="sans" font-size="10.00">domain: world</text>
<text text-anchor="middle" x="1487" y="-189" font-family="sans" font-size="10.00">downscaling: none</text>
<text text-anchor="middle" x="1487" y="-178" font-family="sans" font-size="10.00">period: 2071&#45;2100</text>
<text text-anchor="middle" x="1487" y="-167" font-family="sans" font-size="10.00">project: CMIP6</text>
<text text-anchor="middle" x="1487" y="-156" font-family="sans" font-size="10.00">rcm: none</text>
</g>
<!-- 14&#45;&gt;13 -->
<g id="edge20" class="edge">
<title>14&#45;&gt;13</title>
<path fill="none" stroke="grey" stroke-width="2" d="M1407.7,-152.8C1404.78,-151.48 1401.87,-150.21 1399,-149 1367.29,-135.67 1331.21,-123.75 1300.02,-114.42"/>
<polygon fill="grey" stroke="grey" stroke-width="2" points="1300.65,-110.95 1290.07,-111.48 1298.67,-117.67 1300.65,-110.95"/>
</g>
<!-- 15&#45;&gt;14 -->
<g id="edge23" class="edge">
<title>15&#45;&gt;14</title>
<path fill="none" stroke="grey" stroke-width="2" d="M1358.16,-297.19C1376.42,-283.13 1397.69,-266.76 1417.62,-251.41"/>
<polygon fill="grey" stroke="grey" stroke-width="2" points="1419.99,-254.01 1425.78,-245.14 1415.72,-248.46 1419.99,-254.01"/>
</g>
<!-- 16 -->
<g id="node17" class="node">
<title>16</title>
<path fill="none" stroke="#568ad8" stroke-width="2" stroke-dasharray="5,2" d="M1730,-245C1730,-245 1596,-245 1596,-245 1590,-245 1584,-239 1584,-233 1584,-233 1584,-161 1584,-161 1584,-155 1590,-149 1596,-149 1596,-149 1730,-149 1730,-149 1736,-149 1742,-155 1742,-161 1742,-161 1742,-233 1742,-233 1742,-239 1736,-245 1730,-245"/>
<text text-anchor="middle" x="1663" y="-233" font-family="sans" font-size="10.00">aggregate_proj</text>
<text text-anchor="middle" x="1663" y="-222" font-family="sans" font-size="10.00">aggregation: monthly&#45;means</text>
<text text-anchor="middle" x="1663" y="-211" font-family="sans" font-size="10.00">area: New&#45;Caledonia</text>
<text text-anchor="middle" x="1663" y="-200" font-family="sans" font-size="10.00">domain: world</text>
<text text-anchor="middle" x="1663" y="-189" font-family="sans" font-size="10.00">downscaling: none</text>
<text text-anchor="middle" x="1663" y="-178" font-family="sans" font-size="10.00">period: 1980&#45;2005</text>
<text text-anchor="middle" x="1663" y="-167" font-family="sans" font-size="10.00">project: CMIP6</text>
<text text-anchor="middle" x="1663" y="-156" font-family="sans" font-size="10.00">rcm: none</text>
</g>
<!-- 15&#45;&gt;16 -->
<g id="edge25" class="edge">
<title>15&#45;&gt;16</title>
<path fill="none" stroke="grey" stroke-width="2" d="M1367.64,-317.51C1419.69,-302.15 1498.83,-277.1 1574.46,-245.07"/>
<polygon fill="grey" stroke="grey" stroke-width="2" points="1575.85,-248.29 1583.67,-241.14 1573.1,-241.85 1575.85,-248.29"/>
</g>
<!-- 18 -->
<g id="node19" class="node">
<title>18</title>
<path fill="none" stroke="#568ad8" stroke-width="2" stroke-dasharray="5,2" d="M1202,-245C1202,-245 1068,-245 1068,-245 1062,-245 1056,-239 1056,-233 1056,-233 1056,-161 1056,-161 1056,-155 1062,-149 1068,-149 1068,-149 1202,-149 1202,-149 1208,-149 1214,-155 1214,-161 1214,-161 1214,-233 1214,-233 1214,-239 1208,-245 1202,-245"/>
<text text-anchor="middle" x="1135" y="-233" font-family="sans" font-size="10.00">aggregate_proj</text>
<text text-anchor="middle" x="1135" y="-222" font-family="sans" font-size="10.00">aggregation: monthly&#45;means</text>
<text text-anchor="middle" x="1135" y="-211" font-family="sans" font-size="10.00">area: Vanuatu</text>
<text text-anchor="middle" x="1135" y="-200" font-family="sans" font-size="10.00">domain: world</text>
<text text-anchor="middle" x="1135" y="-189" font-family="sans" font-size="10.00">downscaling: none</text>
<text text-anchor="middle" x="1135" y="-178" font-family="sans" font-size="10.00">period: 2071&#45;2100</text>
<text text-anchor="middle" x="1135" y="-167" font-family="sans" font-size="10.00">project: CMIP6</text>
<text text-anchor="middle" x="1135" y="-156" font-family="sans" font-size="10.00">rcm: none</text>
</g>
<!-- 15&#45;&gt;18 -->
<g id="edge29" class="edge">
<title>15&#45;&gt;18</title>
<path fill="none" stroke="grey" stroke-width="2" d="M1263.84,-297.19C1245.58,-283.13 1224.31,-266.76 1204.38,-251.41"/>
<polygon fill="grey" stroke="grey" stroke-width="2" points="1206.28,-248.46 1196.22,-245.14 1202.01,-254.01 1206.28,-248.46"/>
</g>
<!-- 19 -->
<g id="node20" class="node">
<title>19</title>
<path fill="none" stroke="#568ad8" stroke-width="2" stroke-dasharray="5,2" d="M1378,-245C1378,-245 1244,-245 1244,-245 1238,-245 1232,-239 1232,-233 1232,-233 1232,-161 1232,-161 1232,-155 1238,-149 1244,-149 1244,-149 1378,-149 1378,-149 1384,-149 1390,-155 1390,-161 1390,-161 1390,-233 1390,-233 1390,-239 1384,-245 1378,-245"/>
<text text-anchor="middle" x="1311" y="-233" font-family="sans" font-size="10.00">aggregate_proj</text>
<text text-anchor="middle" x="1311" y="-222" font-family="sans" font-size="10.00">aggregation: monthly&#45;means</text>
<text text-anchor="middle" x="1311" y="-211" font-family="sans" font-size="10.00">area: Vanuatu</text>
<text text-anchor="middle" x="1311" y="-200" font-family="sans" font-size="10.00">domain: world</text>
<text text-anchor="middle" x="1311" y="-189" font-family="sans" font-size="10.00">downscaling: none</text>
<text text-anchor="middle" x="1311" y="-178" font-family="sans" font-size="10.00">period: 1980&#45;2005</text>
<text text-anchor="middle" x="1311" y="-167" font-family="sans" font-size="10.00">project: CMIP6</text>
<text text-anchor="middle" x="1311" y="-156" font-family="sans" font-size="10.00">rcm: none</text>
</g>
<!-- 15&#45;&gt;19 -->
<g id="edge30" class="edge">
<title>15&#45;&gt;19</title>
<path fill="none" stroke="grey" stroke-width="2" d="M1311,-297.19C1311,-284.32 1311,-269.51 1311,-255.32"/>
<polygon fill="grey" stroke="grey" stroke-width="2" points="1314.5,-255.14 1311,-245.14 1307.5,-255.14 1314.5,-255.14"/>
</g>
<!-- 16&#45;&gt;13 -->
<g id="edge21" class="edge">
<title>16&#45;&gt;13</title>
<path fill="none" stroke="grey" stroke-width="2" d="M1583.91,-152.23C1580.93,-151.07 1577.96,-149.99 1575,-149 1483.4,-118.29 1372.58,-104.4 1300.07,-98.23"/>
<polygon fill="grey" stroke="grey" stroke-width="2" points="1300.35,-94.74 1290.09,-97.41 1299.77,-101.72 1300.35,-94.74"/>
</g>
<!-- 17&#45;&gt;0 -->
<g id="edge4" class="edge">
<title>17&#45;&gt;0</title>
<path fill="none" stroke="grey" stroke-width="2" d="M770.95,-71.69C760.06,-62.72 747.1,-52.04 735.7,-42.65"/>
<polygon fill="grey" stroke="grey" stroke-width="2" points="737.67,-39.74 727.73,-36.08 733.22,-45.14 737.67,-39.74"/>
</g>
<!-- 18&#45;&gt;17 -->
<g id="edge26" class="edge">
<title>18&#45;&gt;17</title>
<path fill="none" stroke="grey" stroke-width="2" d="M1055.83,-152.46C1052.87,-151.24 1049.92,-150.08 1047,-149 990.07,-127.98 922.82,-113.67 872.12,-104.85"/>
<polygon fill="grey" stroke="grey" stroke-width="2" points="872.66,-101.39 862.21,-103.15 871.48,-108.29 872.66,-101.39"/>
</g>
<!-- 19&#45;&gt;17 -->
<g id="edge27" class="edge">
<title>19&#45;&gt;17</title>
<path fill="none" stroke="grey" stroke-width="2" d="M1231.94,-152.13C1228.96,-151 1225.97,-149.95 1223,-149 1104.42,-111.05 959.45,-98.98 872.31,-95.19"/>
<polygon fill="grey" stroke="grey" stroke-width="2" points="872.37,-91.69 862.24,-94.77 872.09,-98.68 872.37,-91.69"/>
</g>
</g>
</svg>
