<?xml version="1.0" encoding="UTF-8" standalone="no"?>
<!DOCTYPE svg PUBLIC "-//W3C//DTD SVG 1.1//EN"
 "http://www.w3.org/Graphics/SVG/1.1/DTD/svg11.dtd">
<!-- Generated by graphviz version 2.43.0 (0)
 -->
<!-- Title: snakemake_dag Pages: 1 -->
<svg width="739pt" height="906pt"
 viewBox="0.00 0.00 739.00 906.00" xmlns="http://www.w3.org/2000/svg" xmlns:xlink="http://www.w3.org/1999/xlink">
<g id="graph0" class="graph" transform="scale(1 1) rotate(0) translate(4 902)">
<title>snakemake_dag</title>
<polygon fill="white" stroke="transparent" points="-4,4 -4,-902 735,-902 735,4 -4,4"/>
<!-- 0 -->
<g id="node1" class="node">
<title>0</title>
<path fill="none" stroke="#56d873" stroke-width="2" d="M338,-36C338,-36 308,-36 308,-36 302,-36 296,-30 296,-24 296,-24 296,-12 296,-12 296,-6 302,0 308,0 308,0 338,0 338,0 344,0 350,-6 350,-12 350,-12 350,-24 350,-24 350,-30 344,-36 338,-36"/>
<text text-anchor="middle" x="323" y="-15.5" font-family="sans" font-size="10.00">all</text>
</g>
<!-- 1 -->
<g id="node2" class="node">
<title>1</title>
<path fill="none" stroke="#bed856" stroke-width="2" d="M297,-324C297,-324 253,-324 253,-324 247,-324 241,-318 241,-312 241,-312 241,-300 241,-300 241,-294 247,-288 253,-288 253,-288 297,-288 297,-288 303,-288 309,-294 309,-300 309,-300 309,-312 309,-312 309,-318 303,-324 297,-324"/>
<text text-anchor="middle" x="275" y="-303.5" font-family="sans" font-size="10.00">downscale</text>
</g>
<!-- 1&#45;&gt;0 -->
<g id="edge1" class="edge">
<title>1&#45;&gt;0</title>
<path fill="none" stroke="grey" stroke-width="2" d="M277.86,-287.97C285.88,-240.19 308.63,-104.62 318.42,-46.27"/>
<polygon fill="grey" stroke="grey" stroke-width="2" points="321.89,-46.75 320.1,-36.31 314.99,-45.59 321.89,-46.75"/>
</g>
<!-- 2 -->
<g id="node3" class="node">
<title>2</title>
<path fill="none" stroke="#56d8d8" stroke-width="2" d="M316,-396C316,-396 234,-396 234,-396 228,-396 222,-390 222,-384 222,-384 222,-372 222,-372 222,-366 228,-360 234,-360 234,-360 316,-360 316,-360 322,-360 328,-366 328,-372 328,-372 328,-384 328,-384 328,-390 322,-396 316,-396"/>
<text text-anchor="middle" x="275" y="-381" font-family="sans" font-size="10.00">cordex_anomalies</text>
<text text-anchor="middle" x="275" y="-370" font-family="sans" font-size="10.00">type: proj</text>
</g>
<!-- 2&#45;&gt;1 -->
<g id="edge3" class="edge">
<title>2&#45;&gt;1</title>
<path fill="none" stroke="grey" stroke-width="2" d="M275,-359.7C275,-351.98 275,-342.71 275,-334.11"/>
<polygon fill="grey" stroke="grey" stroke-width="2" points="278.5,-334.1 275,-324.1 271.5,-334.1 278.5,-334.1"/>
</g>
<!-- 3 -->
<g id="node4" class="node">
<title>3</title>
<path fill="none" stroke="#56c1d8" stroke-width="2" d="M223,-468C223,-468 113,-468 113,-468 107,-468 101,-462 101,-456 101,-456 101,-444 101,-444 101,-438 107,-432 113,-432 113,-432 223,-432 223,-432 229,-432 235,-438 235,-444 235,-444 235,-456 235,-456 235,-462 229,-468 223,-468"/>
<text text-anchor="middle" x="168" y="-447.5" font-family="sans" font-size="10.00">summarise_cordex_proj</text>
</g>
<!-- 3&#45;&gt;2 -->
<g id="edge5" class="edge">
<title>3&#45;&gt;2</title>
<path fill="none" stroke="grey" stroke-width="2" d="M194.18,-431.88C208.04,-422.81 225.24,-411.55 240.21,-401.76"/>
<polygon fill="grey" stroke="grey" stroke-width="2" points="242.27,-404.59 248.72,-396.19 238.44,-398.74 242.27,-404.59"/>
</g>
<!-- 4 -->
<g id="node5" class="node">
<title>4</title>
<path fill="none" stroke="#56d8c1" stroke-width="2" d="M367,-548C367,-548 315,-548 315,-548 309,-548 303,-542 303,-536 303,-536 303,-524 303,-524 303,-518 309,-512 315,-512 315,-512 367,-512 367,-512 373,-512 379,-518 379,-524 379,-524 379,-536 379,-536 379,-542 373,-548 367,-548"/>
<text text-anchor="middle" x="341" y="-527.5" font-family="sans" font-size="10.00">crop_cordex</text>
</g>
<!-- 4&#45;&gt;3 -->
<g id="edge7" class="edge">
<title>4&#45;&gt;3</title>
<path fill="none" stroke="grey" stroke-width="2" d="M303.03,-511.88C277.23,-500.25 242.91,-484.78 215.33,-472.34"/>
<polygon fill="grey" stroke="grey" stroke-width="2" points="216.43,-469 205.88,-468.08 213.55,-475.38 216.43,-469"/>
</g>
<!-- 12 -->
<g id="node13" class="node">
<title>12</title>
<path fill="none" stroke="#88d856" stroke-width="2" d="M374.5,-468C374.5,-468 265.5,-468 265.5,-468 259.5,-468 253.5,-462 253.5,-456 253.5,-456 253.5,-444 253.5,-444 253.5,-438 259.5,-432 265.5,-432 265.5,-432 374.5,-432 374.5,-432 380.5,-432 386.5,-438 386.5,-444 386.5,-444 386.5,-456 386.5,-456 386.5,-462 380.5,-468 374.5,-468"/>
<text text-anchor="middle" x="320" y="-447.5" font-family="sans" font-size="10.00">summarise_cordex_hist</text>
</g>
<!-- 4&#45;&gt;12 -->
<g id="edge15" class="edge">
<title>4&#45;&gt;12</title>
<path fill="none" stroke="grey" stroke-width="2" d="M336.34,-511.69C333.67,-501.79 330.28,-489.16 327.27,-477.99"/>
<polygon fill="grey" stroke="grey" stroke-width="2" points="330.63,-477.01 324.65,-468.26 323.87,-478.83 330.63,-477.01"/>
</g>
<!-- 21 -->
<g id="node22" class="node">
<title>21</title>
<path fill="none" stroke="#d88d56" stroke-width="2" d="M529,-468C529,-468 417,-468 417,-468 411,-468 405,-462 405,-456 405,-456 405,-444 405,-444 405,-438 411,-432 417,-432 417,-432 529,-432 529,-432 535,-432 541,-438 541,-444 541,-444 541,-456 541,-456 541,-462 535,-468 529,-468"/>
<text text-anchor="middle" x="473" y="-447.5" font-family="sans" font-size="10.00">summarise_cordex_eval</text>
</g>
<!-- 4&#45;&gt;21 -->
<g id="edge29" class="edge">
<title>4&#45;&gt;21</title>
<path fill="none" stroke="grey" stroke-width="2" d="M369.97,-511.88C389.14,-500.55 414.47,-485.58 435.22,-473.32"/>
<polygon fill="grey" stroke="grey" stroke-width="2" points="437.27,-476.18 444.1,-468.08 433.71,-470.15 437.27,-476.18"/>
</g>
<!-- 5 -->
<g id="node6" class="node">
<title>5</title>
<path fill="none" stroke="#d8a456" stroke-width="2" d="M545.5,-636C545.5,-636 436.5,-636 436.5,-636 430.5,-636 424.5,-630 424.5,-624 424.5,-624 424.5,-612 424.5,-612 424.5,-606 430.5,-600 436.5,-600 436.5,-600 545.5,-600 545.5,-600 551.5,-600 557.5,-606 557.5,-612 557.5,-612 557.5,-624 557.5,-624 557.5,-630 551.5,-636 545.5,-636"/>
<text text-anchor="middle" x="491" y="-621" font-family="sans" font-size="10.00">get_bb</text>
<text text-anchor="middle" x="491" y="-610" font-family="sans" font-size="10.00">country: New&#45;Caledonia</text>
</g>
<!-- 5&#45;&gt;4 -->
<g id="edge8" class="edge">
<title>5&#45;&gt;4</title>
<path fill="none" stroke="grey" stroke-width="2" d="M461.01,-599.8C437.63,-586.4 405,-567.69 379.66,-553.17"/>
<polygon fill="grey" stroke="grey" stroke-width="2" points="381.1,-549.96 370.69,-548.02 377.62,-556.03 381.1,-549.96"/>
</g>
<!-- 14 -->
<g id="node15" class="node">
<title>14</title>
<path fill="none" stroke="#d86e56" stroke-width="2" d="M71,-468C71,-468 21,-468 21,-468 15,-468 9,-462 9,-456 9,-456 9,-444 9,-444 9,-438 15,-432 21,-432 21,-432 71,-432 71,-432 77,-432 83,-438 83,-444 83,-444 83,-456 83,-456 83,-462 77,-468 71,-468"/>
<text text-anchor="middle" x="46" y="-447.5" font-family="sans" font-size="10.00">crop_chelsa</text>
</g>
<!-- 5&#45;&gt;14 -->
<g id="edge18" class="edge">
<title>5&#45;&gt;14</title>
<path fill="none" stroke="grey" stroke-width="2" d="M430.56,-599.99C391.31,-588.53 339.23,-572.53 294,-556 222.42,-529.84 141.46,-494.43 92.07,-472.15"/>
<polygon fill="grey" stroke="grey" stroke-width="2" points="93.48,-468.94 82.93,-468.01 90.6,-475.32 93.48,-468.94"/>
</g>
<!-- 23 -->
<g id="node24" class="node">
<title>23</title>
<path fill="none" stroke="#d86e56" stroke-width="2" d="M674,-548C674,-548 624,-548 624,-548 618,-548 612,-542 612,-536 612,-536 612,-524 612,-524 612,-518 618,-512 624,-512 624,-512 674,-512 674,-512 680,-512 686,-518 686,-524 686,-524 686,-536 686,-536 686,-542 680,-548 674,-548"/>
<text text-anchor="middle" x="649" y="-527.5" font-family="sans" font-size="10.00">crop_chelsa</text>
</g>
<!-- 5&#45;&gt;23 -->
<g id="edge32" class="edge">
<title>5&#45;&gt;23</title>
<path fill="none" stroke="grey" stroke-width="2" d="M522.59,-599.8C547.33,-586.34 581.89,-567.53 608.63,-552.97"/>
<polygon fill="grey" stroke="grey" stroke-width="2" points="610.62,-555.88 617.73,-548.02 607.27,-549.73 610.62,-555.88"/>
</g>
<!-- 25 -->
<g id="node26" class="node">
<title>25</title>
<path fill="none" stroke="#59d856" stroke-width="2" d="M591,-324C591,-324 533,-324 533,-324 527,-324 521,-318 521,-312 521,-312 521,-300 521,-300 521,-294 527,-288 533,-288 533,-288 591,-288 591,-288 597,-288 603,-294 603,-300 603,-300 603,-312 603,-312 603,-318 597,-324 591,-324"/>
<text text-anchor="middle" x="562" y="-303.5" font-family="sans" font-size="10.00">sampling_pts</text>
</g>
<!-- 5&#45;&gt;25 -->
<g id="edge33" class="edge">
<title>5&#45;&gt;25</title>
<path fill="none" stroke="grey" stroke-width="2" d="M499.88,-599.67C513.35,-572.44 538.61,-517.62 550,-468 560.6,-421.86 562.43,-366.52 562.46,-334.2"/>
<polygon fill="grey" stroke="grey" stroke-width="2" points="565.96,-334.16 562.41,-324.17 558.96,-334.19 565.96,-334.16"/>
</g>
<!-- 6 -->
<g id="node7" class="node">
<title>6</title>
<path fill="none" stroke="#56d88a" stroke-width="2" d="M373.5,-636C373.5,-636 308.5,-636 308.5,-636 302.5,-636 296.5,-630 296.5,-624 296.5,-624 296.5,-612 296.5,-612 296.5,-606 302.5,-600 308.5,-600 308.5,-600 373.5,-600 373.5,-600 379.5,-600 385.5,-606 385.5,-612 385.5,-612 385.5,-624 385.5,-624 385.5,-630 379.5,-636 373.5,-636"/>
<text text-anchor="middle" x="341" y="-615.5" font-family="sans" font-size="10.00">project_cordex</text>
</g>
<!-- 6&#45;&gt;4 -->
<g id="edge9" class="edge">
<title>6&#45;&gt;4</title>
<path fill="none" stroke="grey" stroke-width="2" d="M341,-599.6C341,-587.75 341,-571.82 341,-558.29"/>
<polygon fill="grey" stroke="grey" stroke-width="2" points="344.5,-558.08 341,-548.08 337.5,-558.08 344.5,-558.08"/>
</g>
<!-- 7 -->
<g id="node8" class="node">
<title>7</title>
<path fill="none" stroke="#d6d856" stroke-width="2" d="M372,-716C372,-716 310,-716 310,-716 304,-716 298,-710 298,-704 298,-704 298,-692 298,-692 298,-686 304,-680 310,-680 310,-680 372,-680 372,-680 378,-680 384,-686 384,-692 384,-692 384,-704 384,-704 384,-710 378,-716 372,-716"/>
<text text-anchor="middle" x="341" y="-695.5" font-family="sans" font-size="10.00">merge_cordex</text>
</g>
<!-- 7&#45;&gt;6 -->
<g id="edge10" class="edge">
<title>7&#45;&gt;6</title>
<path fill="none" stroke="grey" stroke-width="2" d="M341,-679.69C341,-669.89 341,-657.42 341,-646.33"/>
<polygon fill="grey" stroke="grey" stroke-width="2" points="344.5,-646.26 341,-636.26 337.5,-646.26 344.5,-646.26"/>
</g>
<!-- 8 -->
<g id="node9" class="node">
<title>8</title>
<path fill="none" stroke="#5673d8" stroke-width="2" d="M320.5,-788C320.5,-788 251.5,-788 251.5,-788 245.5,-788 239.5,-782 239.5,-776 239.5,-776 239.5,-764 239.5,-764 239.5,-758 245.5,-752 251.5,-752 251.5,-752 320.5,-752 320.5,-752 326.5,-752 332.5,-758 332.5,-764 332.5,-764 332.5,-776 332.5,-776 332.5,-782 326.5,-788 320.5,-788"/>
<text text-anchor="middle" x="286" y="-767.5" font-family="sans" font-size="10.00">retrieve_cordex</text>
</g>
<!-- 8&#45;&gt;7 -->
<g id="edge11" class="edge">
<title>8&#45;&gt;7</title>
<path fill="none" stroke="grey" stroke-width="2" d="M299.6,-751.7C306.12,-743.39 314.07,-733.28 321.25,-724.14"/>
<polygon fill="grey" stroke="grey" stroke-width="2" points="324.13,-726.13 327.56,-716.1 318.63,-721.81 324.13,-726.13"/>
</g>
<!-- 9 -->
<g id="node10" class="node">
<title>9</title>
<path fill="none" stroke="#d85656" stroke-width="2" d="M321,-898C321,-898 203,-898 203,-898 197,-898 191,-892 191,-886 191,-886 191,-836 191,-836 191,-830 197,-824 203,-824 203,-824 321,-824 321,-824 327,-824 333,-830 333,-836 333,-836 333,-886 333,-886 333,-892 327,-898 321,-898"/>
<text text-anchor="middle" x="262" y="-886" font-family="sans" font-size="10.00">get_script_cordex</text>
<text text-anchor="middle" x="262" y="-875" font-family="sans" font-size="10.00">domain: AUS&#45;22</text>
<text text-anchor="middle" x="262" y="-864" font-family="sans" font-size="10.00">gcm: MOHC&#45;HadGEM2&#45;ES</text>
<text text-anchor="middle" x="262" y="-853" font-family="sans" font-size="10.00">rcm: CCLM5&#45;0&#45;15</text>
<text text-anchor="middle" x="262" y="-842" font-family="sans" font-size="10.00">rcp: historical</text>
<text text-anchor="middle" x="262" y="-831" font-family="sans" font-size="10.00">var: pr</text>
</g>
<!-- 9&#45;&gt;8 -->
<g id="edge13" class="edge">
<title>9&#45;&gt;8</title>
<path fill="none" stroke="grey" stroke-width="2" d="M271.76,-823.8C274.1,-815.14 276.55,-806.04 278.75,-797.88"/>
<polygon fill="grey" stroke="grey" stroke-width="2" points="282.15,-798.73 281.37,-788.16 275.39,-796.9 282.15,-798.73"/>
</g>
<!-- 10 -->
<g id="node11" class="node">
<title>10</title>
<path fill="none" stroke="#5673d8" stroke-width="2" d="M443.5,-788C443.5,-788 374.5,-788 374.5,-788 368.5,-788 362.5,-782 362.5,-776 362.5,-776 362.5,-764 362.5,-764 362.5,-758 368.5,-752 374.5,-752 374.5,-752 443.5,-752 443.5,-752 449.5,-752 455.5,-758 455.5,-764 455.5,-764 455.5,-776 455.5,-776 455.5,-782 449.5,-788 443.5,-788"/>
<text text-anchor="middle" x="409" y="-767.5" font-family="sans" font-size="10.00">retrieve_cordex</text>
</g>
<!-- 10&#45;&gt;7 -->
<g id="edge12" class="edge">
<title>10&#45;&gt;7</title>
<path fill="none" stroke="grey" stroke-width="2" d="M392.19,-751.7C383.87,-743.14 373.69,-732.66 364.61,-723.3"/>
<polygon fill="grey" stroke="grey" stroke-width="2" points="367.09,-720.84 357.62,-716.1 362.07,-725.72 367.09,-720.84"/>
</g>
<!-- 11 -->
<g id="node12" class="node">
<title>11</title>
<path fill="none" stroke="#d85656" stroke-width="2" d="M481,-898C481,-898 363,-898 363,-898 357,-898 351,-892 351,-886 351,-886 351,-836 351,-836 351,-830 357,-824 363,-824 363,-824 481,-824 481,-824 487,-824 493,-830 493,-836 493,-836 493,-886 493,-886 493,-892 487,-898 481,-898"/>
<text text-anchor="middle" x="422" y="-886" font-family="sans" font-size="10.00">get_script_cordex</text>
<text text-anchor="middle" x="422" y="-875" font-family="sans" font-size="10.00">domain: AUS&#45;22</text>
<text text-anchor="middle" x="422" y="-864" font-family="sans" font-size="10.00">gcm: MOHC&#45;HadGEM2&#45;ES</text>
<text text-anchor="middle" x="422" y="-853" font-family="sans" font-size="10.00">rcm: CCLM5&#45;0&#45;15</text>
<text text-anchor="middle" x="422" y="-842" font-family="sans" font-size="10.00">rcp: rcp26</text>
<text text-anchor="middle" x="422" y="-831" font-family="sans" font-size="10.00">var: pr</text>
</g>
<!-- 11&#45;&gt;10 -->
<g id="edge14" class="edge">
<title>11&#45;&gt;10</title>
<path fill="none" stroke="grey" stroke-width="2" d="M416.71,-823.8C415.46,-815.23 414.15,-806.24 412.97,-798.16"/>
<polygon fill="grey" stroke="grey" stroke-width="2" points="416.42,-797.55 411.51,-788.16 409.49,-798.56 416.42,-797.55"/>
</g>
<!-- 12&#45;&gt;2 -->
<g id="edge6" class="edge">
<title>12&#45;&gt;2</title>
<path fill="none" stroke="grey" stroke-width="2" d="M308.88,-431.7C303.64,-423.56 297.3,-413.69 291.52,-404.7"/>
<polygon fill="grey" stroke="grey" stroke-width="2" points="294.35,-402.62 286,-396.1 288.46,-406.41 294.35,-402.62"/>
</g>
<!-- 20 -->
<g id="node21" class="node">
<title>20</title>
<path fill="none" stroke="#56d8d8" stroke-width="2" d="M440,-396C440,-396 358,-396 358,-396 352,-396 346,-390 346,-384 346,-384 346,-372 346,-372 346,-366 352,-360 358,-360 358,-360 440,-360 440,-360 446,-360 452,-366 452,-372 452,-372 452,-384 452,-384 452,-390 446,-396 440,-396"/>
<text text-anchor="middle" x="399" y="-381" font-family="sans" font-size="10.00">cordex_anomalies</text>
<text text-anchor="middle" x="399" y="-370" font-family="sans" font-size="10.00">type: eval</text>
</g>
<!-- 12&#45;&gt;20 -->
<g id="edge28" class="edge">
<title>12&#45;&gt;20</title>
<path fill="none" stroke="grey" stroke-width="2" d="M339.53,-431.7C349.38,-422.97 361.49,-412.24 372.2,-402.75"/>
<polygon fill="grey" stroke="grey" stroke-width="2" points="374.53,-405.36 379.7,-396.1 369.89,-400.12 374.53,-405.36"/>
</g>
<!-- 13 -->
<g id="node14" class="node">
<title>13</title>
<path fill="none" stroke="#d8bc56" stroke-width="2" d="M191.5,-396C191.5,-396 84.5,-396 84.5,-396 78.5,-396 72.5,-390 72.5,-384 72.5,-384 72.5,-372 72.5,-372 72.5,-366 78.5,-360 84.5,-360 84.5,-360 191.5,-360 191.5,-360 197.5,-360 203.5,-366 203.5,-372 203.5,-372 203.5,-384 203.5,-384 203.5,-390 197.5,-396 191.5,-396"/>
<text text-anchor="middle" x="138" y="-375.5" font-family="sans" font-size="10.00">summarise_chelsa_hist</text>
</g>
<!-- 13&#45;&gt;1 -->
<g id="edge4" class="edge">
<title>13&#45;&gt;1</title>
<path fill="none" stroke="grey" stroke-width="2" d="M171.51,-359.88C189.84,-350.51 212.74,-338.81 232.33,-328.8"/>
<polygon fill="grey" stroke="grey" stroke-width="2" points="234.04,-331.86 241.36,-324.19 230.86,-325.62 234.04,-331.86"/>
</g>
<!-- 19 -->
<g id="node20" class="node">
<title>19</title>
<path fill="none" stroke="#bed856" stroke-width="2" d="M421,-324C421,-324 377,-324 377,-324 371,-324 365,-318 365,-312 365,-312 365,-300 365,-300 365,-294 371,-288 377,-288 377,-288 421,-288 421,-288 427,-288 433,-294 433,-300 433,-300 433,-312 433,-312 433,-318 427,-324 421,-324"/>
<text text-anchor="middle" x="399" y="-303.5" font-family="sans" font-size="10.00">downscale</text>
</g>
<!-- 13&#45;&gt;19 -->
<g id="edge26" class="edge">
<title>13&#45;&gt;19</title>
<path fill="none" stroke="grey" stroke-width="2" d="M201.51,-359.97C249.15,-347.19 313.12,-330.03 355.18,-318.75"/>
<polygon fill="grey" stroke="grey" stroke-width="2" points="356.09,-322.13 364.85,-316.16 354.28,-315.37 356.09,-322.13"/>
</g>
<!-- 14&#45;&gt;13 -->
<g id="edge16" class="edge">
<title>14&#45;&gt;13</title>
<path fill="none" stroke="grey" stroke-width="2" d="M68.74,-431.7C80.44,-422.8 94.86,-411.82 107.51,-402.2"/>
<polygon fill="grey" stroke="grey" stroke-width="2" points="109.68,-404.94 115.52,-396.1 105.44,-399.37 109.68,-404.94"/>
</g>
<!-- 15 -->
<g id="node16" class="node">
<title>15</title>
<path fill="none" stroke="#56a2d8" stroke-width="2" d="M80,-556C80,-556 12,-556 12,-556 6,-556 0,-550 0,-544 0,-544 0,-516 0,-516 0,-510 6,-504 12,-504 12,-504 80,-504 80,-504 86,-504 92,-510 92,-516 92,-516 92,-544 92,-544 92,-550 86,-556 80,-556"/>
<text text-anchor="middle" x="46" y="-544" font-family="sans" font-size="10.00">retrieve_chelsa</text>
<text text-anchor="middle" x="46" y="-533" font-family="sans" font-size="10.00">month: 01</text>
<text text-anchor="middle" x="46" y="-522" font-family="sans" font-size="10.00">var: pr</text>
<text text-anchor="middle" x="46" y="-511" font-family="sans" font-size="10.00">year: 1980</text>
</g>
<!-- 15&#45;&gt;14 -->
<g id="edge17" class="edge">
<title>15&#45;&gt;14</title>
<path fill="none" stroke="grey" stroke-width="2" d="M46,-503.89C46,-495.84 46,-486.88 46,-478.66"/>
<polygon fill="grey" stroke="grey" stroke-width="2" points="49.5,-478.41 46,-468.41 42.5,-478.41 49.5,-478.41"/>
</g>
<!-- 16 -->
<g id="node17" class="node">
<title>16</title>
<path fill="none" stroke="#70d856" stroke-width="2" d="M442.5,-108C442.5,-108 407.5,-108 407.5,-108 401.5,-108 395.5,-102 395.5,-96 395.5,-96 395.5,-84 395.5,-84 395.5,-78 401.5,-72 407.5,-72 407.5,-72 442.5,-72 442.5,-72 448.5,-72 454.5,-78 454.5,-84 454.5,-84 454.5,-96 454.5,-96 454.5,-102 448.5,-108 442.5,-108"/>
<text text-anchor="middle" x="425" y="-87.5" font-family="sans" font-size="10.00">eval_tab</text>
</g>
<!-- 16&#45;&gt;0 -->
<g id="edge2" class="edge">
<title>16&#45;&gt;0</title>
<path fill="none" stroke="grey" stroke-width="2" d="M400.05,-71.88C386.96,-62.89 370.74,-51.76 356.56,-42.03"/>
<polygon fill="grey" stroke="grey" stroke-width="2" points="358.27,-38.96 348.05,-36.19 354.31,-44.73 358.27,-38.96"/>
</g>
<!-- 17 -->
<g id="node18" class="node">
<title>17</title>
<path fill="none" stroke="#56d8a2" stroke-width="2" d="M458.5,-180C458.5,-180 427.5,-180 427.5,-180 421.5,-180 415.5,-174 415.5,-168 415.5,-168 415.5,-156 415.5,-156 415.5,-150 421.5,-144 427.5,-144 427.5,-144 458.5,-144 458.5,-144 464.5,-144 470.5,-150 470.5,-156 470.5,-156 470.5,-168 470.5,-168 470.5,-174 464.5,-180 458.5,-180"/>
<text text-anchor="middle" x="443" y="-159.5" font-family="sans" font-size="10.00">eval_all</text>
</g>
<!-- 17&#45;&gt;16 -->
<g id="edge19" class="edge">
<title>17&#45;&gt;16</title>
<path fill="none" stroke="grey" stroke-width="2" d="M438.55,-143.7C436.55,-135.9 434.13,-126.51 431.9,-117.83"/>
<polygon fill="grey" stroke="grey" stroke-width="2" points="435.28,-116.92 429.4,-108.1 428.5,-118.66 435.28,-116.92"/>
</g>
<!-- 18 -->
<g id="node19" class="node">
<title>18</title>
<path fill="none" stroke="#568ad8" stroke-width="2" d="M497.5,-252C497.5,-252 462.5,-252 462.5,-252 456.5,-252 450.5,-246 450.5,-240 450.5,-240 450.5,-228 450.5,-228 450.5,-222 456.5,-216 462.5,-216 462.5,-216 497.5,-216 497.5,-216 503.5,-216 509.5,-222 509.5,-228 509.5,-228 509.5,-240 509.5,-240 509.5,-246 503.5,-252 497.5,-252"/>
<text text-anchor="middle" x="480" y="-231.5" font-family="sans" font-size="10.00">evaluate</text>
</g>
<!-- 18&#45;&gt;17 -->
<g id="edge20" class="edge">
<title>18&#45;&gt;17</title>
<path fill="none" stroke="grey" stroke-width="2" d="M470.85,-215.7C466.6,-207.64 461.44,-197.89 456.73,-188.98"/>
<polygon fill="grey" stroke="grey" stroke-width="2" points="459.81,-187.31 452.04,-180.1 453.62,-190.58 459.81,-187.31"/>
</g>
<!-- 19&#45;&gt;18 -->
<g id="edge21" class="edge">
<title>19&#45;&gt;18</title>
<path fill="none" stroke="grey" stroke-width="2" d="M419.02,-287.7C429.13,-278.97 441.54,-268.24 452.52,-258.75"/>
<polygon fill="grey" stroke="grey" stroke-width="2" points="454.93,-261.29 460.21,-252.1 450.35,-255.99 454.93,-261.29"/>
</g>
<!-- 20&#45;&gt;19 -->
<g id="edge25" class="edge">
<title>20&#45;&gt;19</title>
<path fill="none" stroke="grey" stroke-width="2" d="M399,-359.7C399,-351.98 399,-342.71 399,-334.11"/>
<polygon fill="grey" stroke="grey" stroke-width="2" points="402.5,-334.1 399,-324.1 395.5,-334.1 402.5,-334.1"/>
</g>
<!-- 21&#45;&gt;18 -->
<g id="edge22" class="edge">
<title>21&#45;&gt;18</title>
<path fill="none" stroke="grey" stroke-width="2" d="M473.56,-431.85C474.77,-394.83 477.64,-307.18 479.1,-262.39"/>
<polygon fill="grey" stroke="grey" stroke-width="2" points="482.61,-262.34 479.44,-252.23 475.61,-262.11 482.61,-262.34"/>
</g>
<!-- 21&#45;&gt;20 -->
<g id="edge27" class="edge">
<title>21&#45;&gt;20</title>
<path fill="none" stroke="grey" stroke-width="2" d="M454.71,-431.7C445.57,-423.05 434.36,-412.45 424.4,-403.03"/>
<polygon fill="grey" stroke="grey" stroke-width="2" points="426.75,-400.43 417.08,-396.1 421.94,-405.52 426.75,-400.43"/>
</g>
<!-- 22 -->
<g id="node23" class="node">
<title>22</title>
<path fill="none" stroke="#a7d856" stroke-width="2" d="M719,-396C719,-396 609,-396 609,-396 603,-396 597,-390 597,-384 597,-384 597,-372 597,-372 597,-366 603,-360 609,-360 609,-360 719,-360 719,-360 725,-360 731,-366 731,-372 731,-372 731,-384 731,-384 731,-390 725,-396 719,-396"/>
<text text-anchor="middle" x="664" y="-375.5" font-family="sans" font-size="10.00">summarise_chelsa_eval</text>
</g>
<!-- 22&#45;&gt;18 -->
<g id="edge23" class="edge">
<title>22&#45;&gt;18</title>
<path fill="none" stroke="grey" stroke-width="2" d="M658,-360C650.23,-340.22 634.9,-307.76 612,-288 585.52,-265.15 547.95,-251.37 519.65,-243.61"/>
<polygon fill="grey" stroke="grey" stroke-width="2" points="520.25,-240.14 509.69,-241.01 518.49,-246.92 520.25,-240.14"/>
</g>
<!-- 23&#45;&gt;22 -->
<g id="edge30" class="edge">
<title>23&#45;&gt;22</title>
<path fill="none" stroke="grey" stroke-width="2" d="M650.72,-511.79C653.31,-485.91 658.23,-436.73 661.3,-406.03"/>
<polygon fill="grey" stroke="grey" stroke-width="2" points="664.79,-406.3 662.3,-396.01 657.82,-405.61 664.79,-406.3"/>
</g>
<!-- 24 -->
<g id="node25" class="node">
<title>24</title>
<path fill="none" stroke="#56a2d8" stroke-width="2" d="M683,-644C683,-644 615,-644 615,-644 609,-644 603,-638 603,-632 603,-632 603,-604 603,-604 603,-598 609,-592 615,-592 615,-592 683,-592 683,-592 689,-592 695,-598 695,-604 695,-604 695,-632 695,-632 695,-638 689,-644 683,-644"/>
<text text-anchor="middle" x="649" y="-632" font-family="sans" font-size="10.00">retrieve_chelsa</text>
<text text-anchor="middle" x="649" y="-621" font-family="sans" font-size="10.00">month: 01</text>
<text text-anchor="middle" x="649" y="-610" font-family="sans" font-size="10.00">var: pr</text>
<text text-anchor="middle" x="649" y="-599" font-family="sans" font-size="10.00">year: 2006</text>
</g>
<!-- 24&#45;&gt;23 -->
<g id="edge31" class="edge">
<title>24&#45;&gt;23</title>
<path fill="none" stroke="grey" stroke-width="2" d="M649,-591.66C649,-581.11 649,-568.84 649,-558.1"/>
<polygon fill="grey" stroke="grey" stroke-width="2" points="652.5,-558 649,-548 645.5,-558 652.5,-558"/>
</g>
<!-- 25&#45;&gt;18 -->
<g id="edge24" class="edge">
<title>25&#45;&gt;18</title>
<path fill="none" stroke="grey" stroke-width="2" d="M541.73,-287.7C531.5,-278.97 518.94,-268.24 507.82,-258.75"/>
<polygon fill="grey" stroke="grey" stroke-width="2" points="509.91,-255.94 500.04,-252.1 505.37,-261.26 509.91,-255.94"/>
</g>
</g>
</svg>
