<?xml version="1.0" encoding="UTF-8" standalone="no"?>
<!DOCTYPE svg PUBLIC "-//W3C//DTD SVG 1.1//EN"
 "http://www.w3.org/Graphics/SVG/1.1/DTD/svg11.dtd">
<!-- Generated by graphviz version 2.43.0 (0)
 -->
<!-- Title: snakemake_dag Pages: 1 -->
<svg width="594pt" height="612pt"
 viewBox="0.00 0.00 593.71 612.00" xmlns="http://www.w3.org/2000/svg" xmlns:xlink="http://www.w3.org/1999/xlink">
<g id="graph0" class="graph" transform="scale(1 1) rotate(0) translate(4 608)">
<title>snakemake_dag</title>
<polygon fill="white" stroke="transparent" points="-4,4 -4,-608 589.71,-608 589.71,4 -4,4"/>
<!-- 0 -->
<g id="node1" class="node">
<title>0</title>
<path fill="none" stroke="#70d856" stroke-width="2" d="M312.71,-36C312.71,-36 282.71,-36 282.71,-36 276.71,-36 270.71,-30 270.71,-24 270.71,-24 270.71,-12 270.71,-12 270.71,-6 276.71,0 282.71,0 282.71,0 312.71,0 312.71,0 318.71,0 324.71,-6 324.71,-12 324.71,-12 324.71,-24 324.71,-24 324.71,-30 318.71,-36 312.71,-36"/>
<text text-anchor="middle" x="297.71" y="-15.5" font-family="sans" font-size="10.00">all</text>
</g>
<!-- 1 -->
<g id="node2" class="node">
<title>1</title>
<path fill="none" stroke="#9fd856" stroke-width="2" d="M364.71,-317C364.71,-317 230.71,-317 230.71,-317 224.71,-317 218.71,-311 218.71,-305 218.71,-305 218.71,-255 218.71,-255 218.71,-249 224.71,-243 230.71,-243 230.71,-243 364.71,-243 364.71,-243 370.71,-243 376.71,-249 376.71,-255 376.71,-255 376.71,-305 376.71,-305 376.71,-311 370.71,-317 364.71,-317"/>
<text text-anchor="middle" x="297.71" y="-305" font-family="sans" font-size="10.00">downscale_bc</text>
<text text-anchor="middle" x="297.71" y="-294" font-family="sans" font-size="10.00">aggregation: monthly&#45;means</text>
<text text-anchor="middle" x="297.71" y="-283" font-family="sans" font-size="10.00">area: New&#45;Caledonia</text>
<text text-anchor="middle" x="297.71" y="-272" font-family="sans" font-size="10.00">period_future: 2071&#45;2100</text>
<text text-anchor="middle" x="297.71" y="-261" font-family="sans" font-size="10.00">period_hist: 1980&#45;2005</text>
<text text-anchor="middle" x="297.71" y="-250" font-family="sans" font-size="10.00">project: CORDEX</text>
</g>
<!-- 1&#45;&gt;0 -->
<g id="edge1" class="edge">
<title>1&#45;&gt;0</title>
<path fill="none" stroke="grey" stroke-width="2" d="M297.71,-242.85C297.71,-190.16 297.71,-93.44 297.71,-46.29"/>
<polygon fill="grey" stroke="grey" stroke-width="2" points="301.21,-46.22 297.71,-36.22 294.21,-46.22 301.21,-46.22"/>
</g>
<!-- 2 -->
<g id="node3" class="node">
<title>2</title>
<path fill="none" stroke="#56b1d8" stroke-width="2" d="M273.21,-460C273.21,-460 162.21,-460 162.21,-460 156.21,-460 150.21,-454 150.21,-448 150.21,-448 150.21,-365 150.21,-365 150.21,-359 156.21,-353 162.21,-353 162.21,-353 273.21,-353 273.21,-353 279.21,-353 285.21,-359 285.21,-365 285.21,-365 285.21,-448 285.21,-448 285.21,-454 279.21,-460 273.21,-460"/>
<text text-anchor="middle" x="217.71" y="-448" font-family="sans" font-size="10.00">get_cordex</text>
<text text-anchor="middle" x="217.71" y="-437" font-family="sans" font-size="10.00">base: chelsa2</text>
<text text-anchor="middle" x="217.71" y="-426" font-family="sans" font-size="10.00">domain: AUS&#45;22</text>
<text text-anchor="middle" x="217.71" y="-415" font-family="sans" font-size="10.00">downscaling: v0</text>
<text text-anchor="middle" x="217.71" y="-404" font-family="sans" font-size="10.00">ensemble: r1i1p1</text>
<text text-anchor="middle" x="217.71" y="-393" font-family="sans" font-size="10.00">experiment: rcp26</text>
<text text-anchor="middle" x="217.71" y="-382" font-family="sans" font-size="10.00">institute: ICTP</text>
<text text-anchor="middle" x="217.71" y="-371" font-family="sans" font-size="10.00">model: NCC&#45;NorESM1&#45;M</text>
<text text-anchor="middle" x="217.71" y="-360" font-family="sans" font-size="10.00">rcm: RegCM4&#45;7</text>
</g>
<!-- 2&#45;&gt;1 -->
<g id="edge4" class="edge">
<title>2&#45;&gt;1</title>
<path fill="none" stroke="grey" stroke-width="2" d="M251.64,-352.7C257.39,-343.75 263.31,-334.54 268.91,-325.82"/>
<polygon fill="grey" stroke="grey" stroke-width="2" points="271.92,-327.6 274.39,-317.3 266.03,-323.82 271.92,-327.6"/>
</g>
<!-- 7 -->
<g id="node8" class="node">
<title>7</title>
<path fill="none" stroke="#9fd856" stroke-width="2" d="M188.71,-317C188.71,-317 54.71,-317 54.71,-317 48.71,-317 42.71,-311 42.71,-305 42.71,-305 42.71,-255 42.71,-255 42.71,-249 48.71,-243 54.71,-243 54.71,-243 188.71,-243 188.71,-243 194.71,-243 200.71,-249 200.71,-255 200.71,-255 200.71,-305 200.71,-305 200.71,-311 194.71,-317 188.71,-317"/>
<text text-anchor="middle" x="121.71" y="-305" font-family="sans" font-size="10.00">downscale_bc</text>
<text text-anchor="middle" x="121.71" y="-294" font-family="sans" font-size="10.00">aggregation: monthly&#45;means</text>
<text text-anchor="middle" x="121.71" y="-283" font-family="sans" font-size="10.00">area: New&#45;Caledonia</text>
<text text-anchor="middle" x="121.71" y="-272" font-family="sans" font-size="10.00">period_future: 2006&#45;2019</text>
<text text-anchor="middle" x="121.71" y="-261" font-family="sans" font-size="10.00">period_hist: 1980&#45;2005</text>
<text text-anchor="middle" x="121.71" y="-250" font-family="sans" font-size="10.00">project: CORDEX</text>
</g>
<!-- 2&#45;&gt;7 -->
<g id="edge12" class="edge">
<title>2&#45;&gt;7</title>
<path fill="none" stroke="grey" stroke-width="2" d="M177,-352.7C169.95,-343.57 162.7,-334.16 155.85,-325.28"/>
<polygon fill="grey" stroke="grey" stroke-width="2" points="158.58,-323.08 149.7,-317.3 153.03,-327.35 158.58,-323.08"/>
</g>
<!-- 3 -->
<g id="node4" class="node">
<title>3</title>
<path fill="none" stroke="#56d89a" stroke-width="2" d="M291.21,-532C291.21,-532 240.21,-532 240.21,-532 234.21,-532 228.21,-526 228.21,-520 228.21,-520 228.21,-508 228.21,-508 228.21,-502 234.21,-496 240.21,-496 240.21,-496 291.21,-496 291.21,-496 297.21,-496 303.21,-502 303.21,-508 303.21,-508 303.21,-520 303.21,-520 303.21,-526 297.21,-532 291.21,-532"/>
<text text-anchor="middle" x="265.71" y="-511.5" font-family="sans" font-size="10.00">get_chelsa2</text>
</g>
<!-- 3&#45;&gt;1 -->
<g id="edge5" class="edge">
<title>3&#45;&gt;1</title>
<path fill="none" stroke="grey" stroke-width="2" d="M277.49,-495.7C283.58,-485.73 290.41,-472.69 293.71,-460 305.09,-416.19 304.82,-364.3 302.47,-327.7"/>
<polygon fill="grey" stroke="grey" stroke-width="2" points="305.93,-327.05 301.72,-317.33 298.95,-327.56 305.93,-327.05"/>
</g>
<!-- 3&#45;&gt;2 -->
<g id="edge6" class="edge">
<title>3&#45;&gt;2</title>
<path fill="none" stroke="grey" stroke-width="2" d="M257.78,-495.58C254.39,-488.13 250.21,-478.94 245.84,-469.33"/>
<polygon fill="grey" stroke="grey" stroke-width="2" points="248.94,-467.69 241.61,-460.04 242.57,-470.59 248.94,-467.69"/>
</g>
<!-- 3&#45;&gt;7 -->
<g id="edge13" class="edge">
<title>3&#45;&gt;7</title>
<path fill="none" stroke="grey" stroke-width="2" d="M227.95,-507.43C199.23,-501.09 161.27,-487.74 140.71,-460 112.53,-421.97 111.04,-366.28 114.53,-327.14"/>
<polygon fill="grey" stroke="grey" stroke-width="2" points="118.02,-327.38 115.57,-317.07 111.06,-326.66 118.02,-327.38"/>
</g>
<!-- 8 -->
<g id="node9" class="node">
<title>8</title>
<path fill="none" stroke="#56d8c9" stroke-width="2" d="M573.71,-432.5C573.71,-432.5 439.71,-432.5 439.71,-432.5 433.71,-432.5 427.71,-426.5 427.71,-420.5 427.71,-420.5 427.71,-392.5 427.71,-392.5 427.71,-386.5 433.71,-380.5 439.71,-380.5 439.71,-380.5 573.71,-380.5 573.71,-380.5 579.71,-380.5 585.71,-386.5 585.71,-392.5 585.71,-392.5 585.71,-420.5 585.71,-420.5 585.71,-426.5 579.71,-432.5 573.71,-432.5"/>
<text text-anchor="middle" x="506.71" y="-420.5" font-family="sans" font-size="10.00">hist_base</text>
<text text-anchor="middle" x="506.71" y="-409.5" font-family="sans" font-size="10.00">aggregation: monthly&#45;means</text>
<text text-anchor="middle" x="506.71" y="-398.5" font-family="sans" font-size="10.00">base: chelsa2</text>
<text text-anchor="middle" x="506.71" y="-387.5" font-family="sans" font-size="10.00">period_eval: 2006&#45;2019</text>
</g>
<!-- 3&#45;&gt;8 -->
<g id="edge14" class="edge">
<title>3&#45;&gt;8</title>
<path fill="none" stroke="grey" stroke-width="2" d="M303.37,-496.52C339.95,-480.5 396.28,-455.84 440.38,-436.54"/>
<polygon fill="grey" stroke="grey" stroke-width="2" points="441.84,-439.72 449.6,-432.5 439.03,-433.31 441.84,-439.72"/>
</g>
<!-- 10 -->
<g id="node11" class="node">
<title>10</title>
<path fill="none" stroke="#56d86b" stroke-width="2" d="M122.21,-207C122.21,-207 15.21,-207 15.21,-207 9.21,-207 3.21,-201 3.21,-195 3.21,-195 3.21,-156 3.21,-156 3.21,-150 9.21,-144 15.21,-144 15.21,-144 122.21,-144 122.21,-144 128.21,-144 134.21,-150 134.21,-156 134.21,-156 134.21,-195 134.21,-195 134.21,-201 128.21,-207 122.21,-207"/>
<text text-anchor="middle" x="68.71" y="-195" font-family="sans" font-size="10.00">eval_proj</text>
<text text-anchor="middle" x="68.71" y="-184" font-family="sans" font-size="10.00">base_eval: chelsa2</text>
<text text-anchor="middle" x="68.71" y="-173" font-family="sans" font-size="10.00">ds_method: bc</text>
<text text-anchor="middle" x="68.71" y="-162" font-family="sans" font-size="10.00">period_eval: 1980&#45;2005</text>
<text text-anchor="middle" x="68.71" y="-151" font-family="sans" font-size="10.00">period_proj: 2006&#45;2019</text>
</g>
<!-- 3&#45;&gt;10 -->
<g id="edge18" class="edge">
<title>3&#45;&gt;10</title>
<path fill="none" stroke="grey" stroke-width="2" d="M228.12,-508.23C193.87,-502.18 143.59,-488.82 109.71,-460 54.89,-413.36 51.12,-386.84 33.71,-317 25.76,-285.09 25.82,-274.93 33.71,-243 35.96,-233.88 39.71,-224.64 43.94,-216.06"/>
<polygon fill="grey" stroke="grey" stroke-width="2" points="47.13,-217.52 48.67,-207.04 40.93,-214.27 47.13,-217.52"/>
</g>
<!-- 4 -->
<g id="node5" class="node">
<title>4</title>
<path fill="none" stroke="#ced856" stroke-width="2" stroke-dasharray="5,2" d="M393.21,-604C393.21,-604 298.21,-604 298.21,-604 292.21,-604 286.21,-598 286.21,-592 286.21,-592 286.21,-580 286.21,-580 286.21,-574 292.21,-568 298.21,-568 298.21,-568 393.21,-568 393.21,-568 399.21,-568 405.21,-574 405.21,-580 405.21,-580 405.21,-592 405.21,-592 405.21,-598 399.21,-604 393.21,-604"/>
<text text-anchor="middle" x="345.71" y="-589" font-family="sans" font-size="10.00">get_area</text>
<text text-anchor="middle" x="345.71" y="-578" font-family="sans" font-size="10.00">area: New&#45;Caledonia</text>
</g>
<!-- 4&#45;&gt;3 -->
<g id="edge7" class="edge">
<title>4&#45;&gt;3</title>
<path fill="none" stroke="grey" stroke-width="2" d="M325.93,-567.7C315.96,-558.97 303.7,-548.24 292.85,-538.75"/>
<polygon fill="grey" stroke="grey" stroke-width="2" points="295.09,-536.06 285.26,-532.1 290.48,-541.32 295.09,-536.06"/>
</g>
<!-- 6 -->
<g id="node7" class="node">
<title>6</title>
<path fill="none" stroke="#d8b456" stroke-width="2" d="M451.21,-201.5C451.21,-201.5 344.21,-201.5 344.21,-201.5 338.21,-201.5 332.21,-195.5 332.21,-189.5 332.21,-189.5 332.21,-161.5 332.21,-161.5 332.21,-155.5 338.21,-149.5 344.21,-149.5 344.21,-149.5 451.21,-149.5 451.21,-149.5 457.21,-149.5 463.21,-155.5 463.21,-161.5 463.21,-161.5 463.21,-189.5 463.21,-189.5 463.21,-195.5 457.21,-201.5 451.21,-201.5"/>
<text text-anchor="middle" x="397.71" y="-189.5" font-family="sans" font-size="10.00">hist_proj</text>
<text text-anchor="middle" x="397.71" y="-178.5" font-family="sans" font-size="10.00">ds_method: bc</text>
<text text-anchor="middle" x="397.71" y="-167.5" font-family="sans" font-size="10.00">period_eval: 1980&#45;2005</text>
<text text-anchor="middle" x="397.71" y="-156.5" font-family="sans" font-size="10.00">period_proj: 2006&#45;2019</text>
</g>
<!-- 4&#45;&gt;6 -->
<g id="edge11" class="edge">
<title>4&#45;&gt;6</title>
<path fill="none" stroke="grey" stroke-width="2" d="M348.66,-567.81C355.86,-525.35 374.56,-412.08 385.71,-317 389.89,-281.32 393.22,-240.37 395.3,-211.93"/>
<polygon fill="grey" stroke="grey" stroke-width="2" points="398.81,-211.9 396.04,-201.67 391.83,-211.4 398.81,-211.9"/>
</g>
<!-- 4&#45;&gt;8 -->
<g id="edge15" class="edge">
<title>4&#45;&gt;8</title>
<path fill="none" stroke="grey" stroke-width="2" d="M370.94,-567.83C384.36,-558.11 400.72,-545.26 413.71,-532 441.19,-503.95 467.48,-467.55 485.06,-441.37"/>
<polygon fill="grey" stroke="grey" stroke-width="2" points="488.06,-443.17 490.67,-432.9 482.23,-439.3 488.06,-443.17"/>
</g>
<!-- 4&#45;&gt;10 -->
<g id="edge19" class="edge">
<title>4&#45;&gt;10</title>
<path fill="none" stroke="grey" stroke-width="2" d="M286.07,-578.72C215.01,-567.81 98.52,-538.38 39.71,-460 -18.31,-382.67 -3.14,-335.58 24.71,-243 27.55,-233.55 32.22,-224.22 37.48,-215.66"/>
<polygon fill="grey" stroke="grey" stroke-width="2" points="40.57,-217.33 43.12,-207.05 34.71,-213.49 40.57,-217.33"/>
</g>
<!-- 5 -->
<g id="node6" class="node">
<title>5</title>
<path fill="none" stroke="#d88556" stroke-width="2" d="M421.21,-108C421.21,-108 374.21,-108 374.21,-108 368.21,-108 362.21,-102 362.21,-96 362.21,-96 362.21,-84 362.21,-84 362.21,-78 368.21,-72 374.21,-72 374.21,-72 421.21,-72 421.21,-72 427.21,-72 433.21,-78 433.21,-84 433.21,-84 433.21,-96 433.21,-96 433.21,-102 427.21,-108 421.21,-108"/>
<text text-anchor="middle" x="397.71" y="-87.5" font-family="sans" font-size="10.00">merge_hist</text>
</g>
<!-- 5&#45;&gt;0 -->
<g id="edge2" class="edge">
<title>5&#45;&gt;0</title>
<path fill="none" stroke="grey" stroke-width="2" d="M373.25,-71.88C360.41,-62.89 344.51,-51.76 330.62,-42.03"/>
<polygon fill="grey" stroke="grey" stroke-width="2" points="332.47,-39.06 322.27,-36.19 328.45,-44.79 332.47,-39.06"/>
</g>
<!-- 6&#45;&gt;5 -->
<g id="edge8" class="edge">
<title>6&#45;&gt;5</title>
<path fill="none" stroke="grey" stroke-width="2" d="M397.71,-149.45C397.71,-139.64 397.71,-128.36 397.71,-118.34"/>
<polygon fill="grey" stroke="grey" stroke-width="2" points="401.21,-118.1 397.71,-108.1 394.21,-118.1 401.21,-118.1"/>
</g>
<!-- 7&#45;&gt;6 -->
<g id="edge10" class="edge">
<title>7&#45;&gt;6</title>
<path fill="none" stroke="grey" stroke-width="2" d="M200.79,-246.44C203.8,-245.27 206.78,-244.12 209.71,-243 246.67,-228.91 288.09,-214.15 322.62,-202.13"/>
<polygon fill="grey" stroke="grey" stroke-width="2" points="323.87,-205.4 332.17,-198.81 321.58,-198.79 323.87,-205.4"/>
</g>
<!-- 7&#45;&gt;10 -->
<g id="edge17" class="edge">
<title>7&#45;&gt;10</title>
<path fill="none" stroke="grey" stroke-width="2" d="M103.02,-242.86C98.56,-234.22 93.76,-224.95 89.22,-216.16"/>
<polygon fill="grey" stroke="grey" stroke-width="2" points="92.3,-214.49 84.59,-207.22 86.08,-217.71 92.3,-214.49"/>
</g>
<!-- 8&#45;&gt;5 -->
<g id="edge9" class="edge">
<title>8&#45;&gt;5</title>
<path fill="none" stroke="grey" stroke-width="2" d="M509.6,-380.32C513.98,-331.07 517.48,-220.16 471.71,-144 464.37,-131.79 453.03,-121.61 441.41,-113.54"/>
<polygon fill="grey" stroke="grey" stroke-width="2" points="443.25,-110.56 432.96,-108.04 439.43,-116.43 443.25,-110.56"/>
</g>
<!-- 9 -->
<g id="node10" class="node">
<title>9</title>
<path fill="none" stroke="#d85656" stroke-width="2" d="M175.71,-108C175.71,-108 125.71,-108 125.71,-108 119.71,-108 113.71,-102 113.71,-96 113.71,-96 113.71,-84 113.71,-84 113.71,-78 119.71,-72 125.71,-72 125.71,-72 175.71,-72 175.71,-72 181.71,-72 187.71,-78 187.71,-84 187.71,-84 187.71,-96 187.71,-96 187.71,-102 181.71,-108 175.71,-108"/>
<text text-anchor="middle" x="150.71" y="-87.5" font-family="sans" font-size="10.00">merge_eval</text>
</g>
<!-- 9&#45;&gt;0 -->
<g id="edge3" class="edge">
<title>9&#45;&gt;0</title>
<path fill="none" stroke="grey" stroke-width="2" d="M186.67,-71.88C209.28,-61.11 238.37,-47.26 261.1,-36.43"/>
<polygon fill="grey" stroke="grey" stroke-width="2" points="262.89,-39.46 270.42,-32 259.88,-33.14 262.89,-39.46"/>
</g>
<!-- 10&#45;&gt;9 -->
<g id="edge16" class="edge">
<title>10&#45;&gt;9</title>
<path fill="none" stroke="grey" stroke-width="2" d="M98.78,-143.88C108.06,-134.43 118.15,-124.15 126.95,-115.19"/>
<polygon fill="grey" stroke="grey" stroke-width="2" points="129.48,-117.61 133.99,-108.03 124.48,-112.71 129.48,-117.61"/>
</g>
</g>
</svg>
