<?xml version="1.0" encoding="UTF-8" standalone="no"?>
<!DOCTYPE svg PUBLIC "-//W3C//DTD SVG 1.1//EN"
 "http://www.w3.org/Graphics/SVG/1.1/DTD/svg11.dtd">
<!-- Generated by graphviz version 2.43.0 (0)
 -->
<!-- Title: snakemake_dag Pages: 1 -->
<svg width="2062pt" height="435pt"
 viewBox="0.00 0.00 2061.50 435.00" xmlns="http://www.w3.org/2000/svg" xmlns:xlink="http://www.w3.org/1999/xlink">
<g id="graph0" class="graph" transform="scale(1 1) rotate(0) translate(4 431)">
<title>snakemake_dag</title>
<polygon fill="white" stroke="transparent" points="-4,4 -4,-431 2057.5,-431 2057.5,4 -4,4"/>
<!-- 0 -->
<g id="node1" class="node">
<title>0</title>
<path fill="none" stroke="#56a9d8" stroke-width="2" d="M1041,-36C1041,-36 1011,-36 1011,-36 1005,-36 999,-30 999,-24 999,-24 999,-12 999,-12 999,-6 1005,0 1011,0 1011,0 1041,0 1041,0 1047,0 1053,-6 1053,-12 1053,-12 1053,-24 1053,-24 1053,-30 1047,-36 1041,-36"/>
<text text-anchor="middle" x="1026" y="-15.5" font-family="sans" font-size="10.00">all</text>
</g>
<!-- 1 -->
<g id="node2" class="node">
<title>1</title>
<path fill="none" stroke="#56d8d8" stroke-width="2" d="M558.5,-113C558.5,-113 451.5,-113 451.5,-113 445.5,-113 439.5,-107 439.5,-101 439.5,-101 439.5,-84 439.5,-84 439.5,-78 445.5,-72 451.5,-72 451.5,-72 558.5,-72 558.5,-72 564.5,-72 570.5,-78 570.5,-84 570.5,-84 570.5,-101 570.5,-101 570.5,-107 564.5,-113 558.5,-113"/>
<text text-anchor="middle" x="505" y="-101" font-family="sans" font-size="10.00">evaluate_bc</text>
<text text-anchor="middle" x="505" y="-90" font-family="sans" font-size="10.00">base_eval: chelsa2</text>
<text text-anchor="middle" x="505" y="-79" font-family="sans" font-size="10.00">period_eval: 2006&#45;2019</text>
</g>
<!-- 1&#45;&gt;0 -->
<g id="edge1" class="edge">
<title>1&#45;&gt;0</title>
<path fill="none" stroke="grey" stroke-width="2" d="M570.74,-73.87C573.86,-73.2 576.96,-72.57 580,-72 730.21,-43.68 911.89,-27.66 988.77,-21.7"/>
<polygon fill="grey" stroke="grey" stroke-width="2" points="989.2,-25.18 998.91,-20.93 988.67,-18.2 989.2,-25.18"/>
</g>
<!-- 2 -->
<g id="node3" class="node">
<title>2</title>
<path fill="none" stroke="#d8ac56" stroke-width="2" d="M1097,-355C1097,-355 969,-355 969,-355 963,-355 957,-349 957,-343 957,-343 957,-249 957,-249 957,-243 963,-237 969,-237 969,-237 1097,-237 1097,-237 1103,-237 1109,-243 1109,-249 1109,-249 1109,-343 1109,-343 1109,-349 1103,-355 1097,-355"/>
<text text-anchor="middle" x="1033" y="-343" font-family="sans" font-size="10.00">get_proj</text>
<text text-anchor="middle" x="1033" y="-332" font-family="sans" font-size="10.00">activity: none</text>
<text text-anchor="middle" x="1033" y="-321" font-family="sans" font-size="10.00">domain: AUS&#45;22</text>
<text text-anchor="middle" x="1033" y="-310" font-family="sans" font-size="10.00">downscaling: v1</text>
<text text-anchor="middle" x="1033" y="-299" font-family="sans" font-size="10.00">ensemble: r1ip1</text>
<text text-anchor="middle" x="1033" y="-288" font-family="sans" font-size="10.00">experiment: rcp26</text>
<text text-anchor="middle" x="1033" y="-277" font-family="sans" font-size="10.00">institute: CLMcom&#45;HZG</text>
<text text-anchor="middle" x="1033" y="-266" font-family="sans" font-size="10.00">model: MOHC&#45;HadGEM2&#45;ES</text>
<text text-anchor="middle" x="1033" y="-255" font-family="sans" font-size="10.00">project: CORDEX</text>
<text text-anchor="middle" x="1033" y="-244" font-family="sans" font-size="10.00">rcm: CCLM5&#45;0&#45;15</text>
</g>
<!-- 2&#45;&gt;1 -->
<g id="edge17" class="edge">
<title>2&#45;&gt;1</title>
<path fill="none" stroke="grey" stroke-width="2" d="M956.97,-294.9C862.86,-291.4 700.95,-274.06 586,-201 555.75,-181.77 532.67,-146.99 519.02,-122.19"/>
<polygon fill="grey" stroke="grey" stroke-width="2" points="522.05,-120.42 514.26,-113.23 515.86,-123.71 522.05,-120.42"/>
</g>
<!-- 5 -->
<g id="node6" class="node">
<title>5</title>
<path fill="none" stroke="#59d856" stroke-width="2" d="M717,-201C717,-201 607,-201 607,-201 601,-201 595,-195 595,-189 595,-189 595,-161 595,-161 595,-155 601,-149 607,-149 607,-149 717,-149 717,-149 723,-149 729,-155 729,-161 729,-161 729,-189 729,-189 729,-195 723,-201 717,-201"/>
<text text-anchor="middle" x="662" y="-189" font-family="sans" font-size="10.00">downscale_bc</text>
<text text-anchor="middle" x="662" y="-178" font-family="sans" font-size="10.00">baseline: chelsa2</text>
<text text-anchor="middle" x="662" y="-167" font-family="sans" font-size="10.00">period_base: 1980&#45;2005</text>
<text text-anchor="middle" x="662" y="-156" font-family="sans" font-size="10.00">period_proj: 2006&#45;2019</text>
</g>
<!-- 2&#45;&gt;5 -->
<g id="edge23" class="edge">
<title>2&#45;&gt;5</title>
<path fill="none" stroke="grey" stroke-width="2" d="M956.58,-270.49C892.92,-250.07 802.69,-221.13 738.9,-200.67"/>
<polygon fill="grey" stroke="grey" stroke-width="2" points="739.88,-197.31 729.29,-197.58 737.74,-203.97 739.88,-197.31"/>
</g>
<!-- 6 -->
<g id="node7" class="node">
<title>6</title>
<path fill="none" stroke="#d6d856" stroke-width="2" d="M707.5,-113C707.5,-113 600.5,-113 600.5,-113 594.5,-113 588.5,-107 588.5,-101 588.5,-101 588.5,-84 588.5,-84 588.5,-78 594.5,-72 600.5,-72 600.5,-72 707.5,-72 707.5,-72 713.5,-72 719.5,-78 719.5,-84 719.5,-84 719.5,-101 719.5,-101 719.5,-107 713.5,-113 707.5,-113"/>
<text text-anchor="middle" x="654" y="-101" font-family="sans" font-size="10.00">evaluate_qt</text>
<text text-anchor="middle" x="654" y="-90" font-family="sans" font-size="10.00">base_eval: chelsa2</text>
<text text-anchor="middle" x="654" y="-79" font-family="sans" font-size="10.00">period_eval: 2006&#45;2019</text>
</g>
<!-- 2&#45;&gt;6 -->
<g id="edge25" class="edge">
<title>2&#45;&gt;6</title>
<path fill="none" stroke="grey" stroke-width="2" d="M956.66,-255.75C924.31,-239.01 886.24,-219.19 852,-201 799.12,-172.92 738.68,-139.98 698.64,-118.04"/>
<polygon fill="grey" stroke="grey" stroke-width="2" points="700.11,-114.86 689.66,-113.12 696.75,-120.99 700.11,-114.86"/>
</g>
<!-- 7 -->
<g id="node8" class="node">
<title>7</title>
<path fill="none" stroke="#5682d8" stroke-width="2" d="M983,-201C983,-201 873,-201 873,-201 867,-201 861,-195 861,-189 861,-189 861,-161 861,-161 861,-155 867,-149 873,-149 873,-149 983,-149 983,-149 989,-149 995,-155 995,-161 995,-161 995,-189 995,-189 995,-195 989,-201 983,-201"/>
<text text-anchor="middle" x="928" y="-189" font-family="sans" font-size="10.00">downscale_qt</text>
<text text-anchor="middle" x="928" y="-178" font-family="sans" font-size="10.00">baseline: chelsa2</text>
<text text-anchor="middle" x="928" y="-167" font-family="sans" font-size="10.00">period_base: 1980&#45;2005</text>
<text text-anchor="middle" x="928" y="-156" font-family="sans" font-size="10.00">period_proj: 2006&#45;2019</text>
</g>
<!-- 2&#45;&gt;7 -->
<g id="edge29" class="edge">
<title>2&#45;&gt;7</title>
<path fill="none" stroke="grey" stroke-width="2" d="M981.73,-236.89C973.2,-227.23 964.63,-217.51 956.91,-208.77"/>
<polygon fill="grey" stroke="grey" stroke-width="2" points="959.34,-206.22 950.1,-201.04 954.09,-210.86 959.34,-206.22"/>
</g>
<!-- 8 -->
<g id="node9" class="node">
<title>8</title>
<path fill="none" stroke="#56d8d8" stroke-width="2" d="M1154.5,-113C1154.5,-113 1047.5,-113 1047.5,-113 1041.5,-113 1035.5,-107 1035.5,-101 1035.5,-101 1035.5,-84 1035.5,-84 1035.5,-78 1041.5,-72 1047.5,-72 1047.5,-72 1154.5,-72 1154.5,-72 1160.5,-72 1166.5,-78 1166.5,-84 1166.5,-84 1166.5,-101 1166.5,-101 1166.5,-107 1160.5,-113 1154.5,-113"/>
<text text-anchor="middle" x="1101" y="-101" font-family="sans" font-size="10.00">evaluate_bc</text>
<text text-anchor="middle" x="1101" y="-90" font-family="sans" font-size="10.00">base_eval: cru4</text>
<text text-anchor="middle" x="1101" y="-79" font-family="sans" font-size="10.00">period_eval: 2006&#45;2019</text>
</g>
<!-- 2&#45;&gt;8 -->
<g id="edge31" class="edge">
<title>2&#45;&gt;8</title>
<path fill="none" stroke="grey" stroke-width="2" d="M1060.9,-236.99C1065.99,-225.24 1070.96,-212.84 1075,-201 1083.79,-175.23 1090.82,-145.03 1095.34,-123.21"/>
<polygon fill="grey" stroke="grey" stroke-width="2" points="1098.81,-123.72 1097.36,-113.23 1091.95,-122.34 1098.81,-123.72"/>
</g>
<!-- 10 -->
<g id="node11" class="node">
<title>10</title>
<path fill="none" stroke="#d6d856" stroke-width="2" d="M1523.5,-113C1523.5,-113 1416.5,-113 1416.5,-113 1410.5,-113 1404.5,-107 1404.5,-101 1404.5,-101 1404.5,-84 1404.5,-84 1404.5,-78 1410.5,-72 1416.5,-72 1416.5,-72 1523.5,-72 1523.5,-72 1529.5,-72 1535.5,-78 1535.5,-84 1535.5,-84 1535.5,-101 1535.5,-101 1535.5,-107 1529.5,-113 1523.5,-113"/>
<text text-anchor="middle" x="1470" y="-101" font-family="sans" font-size="10.00">evaluate_qt</text>
<text text-anchor="middle" x="1470" y="-90" font-family="sans" font-size="10.00">base_eval: cru4</text>
<text text-anchor="middle" x="1470" y="-79" font-family="sans" font-size="10.00">period_eval: 2006&#45;2019</text>
</g>
<!-- 2&#45;&gt;10 -->
<g id="edge36" class="edge">
<title>2&#45;&gt;10</title>
<path fill="none" stroke="grey" stroke-width="2" d="M1109.02,-280.83C1167.3,-267.31 1247.71,-242.66 1308,-201 1332.67,-183.95 1327.27,-167.34 1351,-149 1367.35,-136.36 1387.05,-125.71 1405.68,-117.22"/>
<polygon fill="grey" stroke="grey" stroke-width="2" points="1407.26,-120.35 1415,-113.11 1404.44,-113.94 1407.26,-120.35"/>
</g>
<!-- 11 -->
<g id="node12" class="node">
<title>11</title>
<path fill="none" stroke="#56d8d8" stroke-width="2" d="M856.5,-113C856.5,-113 749.5,-113 749.5,-113 743.5,-113 737.5,-107 737.5,-101 737.5,-101 737.5,-84 737.5,-84 737.5,-78 743.5,-72 749.5,-72 749.5,-72 856.5,-72 856.5,-72 862.5,-72 868.5,-78 868.5,-84 868.5,-84 868.5,-101 868.5,-101 868.5,-107 862.5,-113 856.5,-113"/>
<text text-anchor="middle" x="803" y="-101" font-family="sans" font-size="10.00">evaluate_bc</text>
<text text-anchor="middle" x="803" y="-90" font-family="sans" font-size="10.00">base_eval: chelsa2</text>
<text text-anchor="middle" x="803" y="-79" font-family="sans" font-size="10.00">period_eval: 2006&#45;2019</text>
</g>
<!-- 2&#45;&gt;11 -->
<g id="edge40" class="edge">
<title>2&#45;&gt;11</title>
<path fill="none" stroke="grey" stroke-width="2" d="M1035.2,-236.94C1033.24,-207.18 1025.73,-172.38 1004,-149 1001.72,-146.54 934.59,-128.3 878.53,-113.39"/>
<polygon fill="grey" stroke="grey" stroke-width="2" points="879.13,-109.92 868.57,-110.74 877.34,-116.69 879.13,-109.92"/>
</g>
<!-- 12 -->
<g id="node13" class="node">
<title>12</title>
<path fill="none" stroke="#59d856" stroke-width="2" d="M1515,-201C1515,-201 1405,-201 1405,-201 1399,-201 1393,-195 1393,-189 1393,-189 1393,-161 1393,-161 1393,-155 1399,-149 1405,-149 1405,-149 1515,-149 1515,-149 1521,-149 1527,-155 1527,-161 1527,-161 1527,-189 1527,-189 1527,-195 1521,-201 1515,-201"/>
<text text-anchor="middle" x="1460" y="-189" font-family="sans" font-size="10.00">downscale_bc</text>
<text text-anchor="middle" x="1460" y="-178" font-family="sans" font-size="10.00">baseline: worldclim2</text>
<text text-anchor="middle" x="1460" y="-167" font-family="sans" font-size="10.00">period_base: 1980&#45;2005</text>
<text text-anchor="middle" x="1460" y="-156" font-family="sans" font-size="10.00">period_proj: 2006&#45;2019</text>
</g>
<!-- 2&#45;&gt;12 -->
<g id="edge44" class="edge">
<title>2&#45;&gt;12</title>
<path fill="none" stroke="grey" stroke-width="2" d="M1109.14,-275.11C1179.39,-256.58 1286.49,-227.84 1379,-201 1380.41,-200.59 1381.84,-200.17 1383.28,-199.75"/>
<polygon fill="grey" stroke="grey" stroke-width="2" points="1384.27,-203.11 1392.87,-196.91 1382.29,-196.4 1384.27,-203.11"/>
</g>
<!-- 14 -->
<g id="node15" class="node">
<title>14</title>
<path fill="none" stroke="#d6d856" stroke-width="2" d="M1005.5,-113C1005.5,-113 898.5,-113 898.5,-113 892.5,-113 886.5,-107 886.5,-101 886.5,-101 886.5,-84 886.5,-84 886.5,-78 892.5,-72 898.5,-72 898.5,-72 1005.5,-72 1005.5,-72 1011.5,-72 1017.5,-78 1017.5,-84 1017.5,-84 1017.5,-101 1017.5,-101 1017.5,-107 1011.5,-113 1005.5,-113"/>
<text text-anchor="middle" x="952" y="-101" font-family="sans" font-size="10.00">evaluate_qt</text>
<text text-anchor="middle" x="952" y="-90" font-family="sans" font-size="10.00">base_eval: chelsa2</text>
<text text-anchor="middle" x="952" y="-79" font-family="sans" font-size="10.00">period_eval: 2006&#45;2019</text>
</g>
<!-- 2&#45;&gt;14 -->
<g id="edge47" class="edge">
<title>2&#45;&gt;14</title>
<path fill="none" stroke="grey" stroke-width="2" d="M1047.6,-236.76C1051.51,-208.67 1051.3,-175.42 1037,-149 1030.32,-136.65 1019.56,-126.62 1007.92,-118.65"/>
<polygon fill="grey" stroke="grey" stroke-width="2" points="1009.64,-115.6 999.32,-113.21 1005.9,-121.51 1009.64,-115.6"/>
</g>
<!-- 15 -->
<g id="node16" class="node">
<title>15</title>
<path fill="none" stroke="#5682d8" stroke-width="2" d="M1667,-201C1667,-201 1557,-201 1557,-201 1551,-201 1545,-195 1545,-189 1545,-189 1545,-161 1545,-161 1545,-155 1551,-149 1557,-149 1557,-149 1667,-149 1667,-149 1673,-149 1679,-155 1679,-161 1679,-161 1679,-189 1679,-189 1679,-195 1673,-201 1667,-201"/>
<text text-anchor="middle" x="1612" y="-189" font-family="sans" font-size="10.00">downscale_qt</text>
<text text-anchor="middle" x="1612" y="-178" font-family="sans" font-size="10.00">baseline: worldclim2</text>
<text text-anchor="middle" x="1612" y="-167" font-family="sans" font-size="10.00">period_base: 1980&#45;2005</text>
<text text-anchor="middle" x="1612" y="-156" font-family="sans" font-size="10.00">period_proj: 2006&#45;2019</text>
</g>
<!-- 2&#45;&gt;15 -->
<g id="edge51" class="edge">
<title>2&#45;&gt;15</title>
<path fill="none" stroke="grey" stroke-width="2" d="M1109.1,-284.01C1206.19,-269.27 1379.21,-240.59 1534.84,-201.18"/>
<polygon fill="grey" stroke="grey" stroke-width="2" points="1535.77,-204.55 1544.59,-198.69 1534.04,-197.77 1535.77,-204.55"/>
</g>
<!-- 16 -->
<g id="node17" class="node">
<title>16</title>
<path fill="none" stroke="#56d8d8" stroke-width="2" d="M1821.5,-113C1821.5,-113 1714.5,-113 1714.5,-113 1708.5,-113 1702.5,-107 1702.5,-101 1702.5,-101 1702.5,-84 1702.5,-84 1702.5,-78 1708.5,-72 1714.5,-72 1714.5,-72 1821.5,-72 1821.5,-72 1827.5,-72 1833.5,-78 1833.5,-84 1833.5,-84 1833.5,-101 1833.5,-101 1833.5,-107 1827.5,-113 1821.5,-113"/>
<text text-anchor="middle" x="1768" y="-101" font-family="sans" font-size="10.00">evaluate_bc</text>
<text text-anchor="middle" x="1768" y="-90" font-family="sans" font-size="10.00">base_eval: cru4</text>
<text text-anchor="middle" x="1768" y="-79" font-family="sans" font-size="10.00">period_eval: 2006&#45;2019</text>
</g>
<!-- 2&#45;&gt;16 -->
<g id="edge53" class="edge">
<title>2&#45;&gt;16</title>
<path fill="none" stroke="grey" stroke-width="2" d="M1109.03,-281.67C1184.07,-268.86 1302.17,-249.64 1405,-237 1449.18,-231.57 1773.97,-233.86 1804,-201 1824.1,-179 1807.83,-145.42 1791.18,-121.65"/>
<polygon fill="grey" stroke="grey" stroke-width="2" points="1793.84,-119.36 1785.1,-113.38 1788.21,-123.51 1793.84,-119.36"/>
</g>
<!-- 17 -->
<g id="node18" class="node">
<title>17</title>
<path fill="none" stroke="#d6d856" stroke-width="2" d="M1672.5,-113C1672.5,-113 1565.5,-113 1565.5,-113 1559.5,-113 1553.5,-107 1553.5,-101 1553.5,-101 1553.5,-84 1553.5,-84 1553.5,-78 1559.5,-72 1565.5,-72 1565.5,-72 1672.5,-72 1672.5,-72 1678.5,-72 1684.5,-78 1684.5,-84 1684.5,-84 1684.5,-101 1684.5,-101 1684.5,-107 1678.5,-113 1672.5,-113"/>
<text text-anchor="middle" x="1619" y="-101" font-family="sans" font-size="10.00">evaluate_qt</text>
<text text-anchor="middle" x="1619" y="-90" font-family="sans" font-size="10.00">base_eval: cru4</text>
<text text-anchor="middle" x="1619" y="-79" font-family="sans" font-size="10.00">period_eval: 2006&#45;2019</text>
</g>
<!-- 2&#45;&gt;17 -->
<g id="edge57" class="edge">
<title>2&#45;&gt;17</title>
<path fill="none" stroke="grey" stroke-width="2" d="M1109.3,-285.03C1175.71,-273.44 1272.16,-249.34 1343,-201 1367.31,-184.41 1359.09,-164.67 1384,-149 1443.4,-111.63 1471.31,-128.7 1543.3,-113.25"/>
<polygon fill="grey" stroke="grey" stroke-width="2" points="1544.3,-116.61 1553.27,-110.96 1542.74,-109.78 1544.3,-116.61"/>
</g>
<!-- 19 -->
<g id="node20" class="node">
<title>19</title>
<path fill="none" stroke="#59d856" stroke-width="2" d="M375,-201C375,-201 265,-201 265,-201 259,-201 253,-195 253,-189 253,-189 253,-161 253,-161 253,-155 259,-149 265,-149 265,-149 375,-149 375,-149 381,-149 387,-155 387,-161 387,-161 387,-189 387,-189 387,-195 381,-201 375,-201"/>
<text text-anchor="middle" x="320" y="-189" font-family="sans" font-size="10.00">downscale_bc</text>
<text text-anchor="middle" x="320" y="-178" font-family="sans" font-size="10.00">baseline: chelsa2</text>
<text text-anchor="middle" x="320" y="-167" font-family="sans" font-size="10.00">period_base: 1980&#45;2005</text>
<text text-anchor="middle" x="320" y="-156" font-family="sans" font-size="10.00">period_proj: 1980&#45;2100</text>
</g>
<!-- 2&#45;&gt;19 -->
<g id="edge62" class="edge">
<title>2&#45;&gt;19</title>
<path fill="none" stroke="grey" stroke-width="2" d="M956.84,-284.2C843.62,-267.85 624.34,-235.11 439,-201 425.47,-198.51 411.11,-195.67 397.23,-192.81"/>
<polygon fill="grey" stroke="grey" stroke-width="2" points="397.73,-189.34 387.22,-190.74 396.3,-196.19 397.73,-189.34"/>
</g>
<!-- 22 -->
<g id="node23" class="node">
<title>22</title>
<path fill="none" stroke="#5682d8" stroke-width="2" d="M223,-201C223,-201 113,-201 113,-201 107,-201 101,-195 101,-189 101,-189 101,-161 101,-161 101,-155 107,-149 113,-149 113,-149 223,-149 223,-149 229,-149 235,-155 235,-161 235,-161 235,-189 235,-189 235,-195 229,-201 223,-201"/>
<text text-anchor="middle" x="168" y="-189" font-family="sans" font-size="10.00">downscale_qt</text>
<text text-anchor="middle" x="168" y="-178" font-family="sans" font-size="10.00">baseline: chelsa2</text>
<text text-anchor="middle" x="168" y="-167" font-family="sans" font-size="10.00">period_base: 1980&#45;2005</text>
<text text-anchor="middle" x="168" y="-156" font-family="sans" font-size="10.00">period_proj: 1980&#45;2100</text>
</g>
<!-- 2&#45;&gt;22 -->
<g id="edge66" class="edge">
<title>2&#45;&gt;22</title>
<path fill="none" stroke="grey" stroke-width="2" d="M956.64,-284.88C865.94,-272.95 710.04,-252.77 576,-237 431.91,-220.05 390.9,-231.81 245.53,-201.15"/>
<polygon fill="grey" stroke="grey" stroke-width="2" points="245.85,-197.64 235.34,-198.96 244.39,-204.48 245.85,-197.64"/>
</g>
<!-- 25 -->
<g id="node26" class="node">
<title>25</title>
<path fill="none" stroke="#59d856" stroke-width="2" d="M1973,-201C1973,-201 1863,-201 1863,-201 1857,-201 1851,-195 1851,-189 1851,-189 1851,-161 1851,-161 1851,-155 1857,-149 1863,-149 1863,-149 1973,-149 1973,-149 1979,-149 1985,-155 1985,-161 1985,-161 1985,-189 1985,-189 1985,-195 1979,-201 1973,-201"/>
<text text-anchor="middle" x="1918" y="-189" font-family="sans" font-size="10.00">downscale_bc</text>
<text text-anchor="middle" x="1918" y="-178" font-family="sans" font-size="10.00">baseline: worldclim2</text>
<text text-anchor="middle" x="1918" y="-167" font-family="sans" font-size="10.00">period_base: 1980&#45;2005</text>
<text text-anchor="middle" x="1918" y="-156" font-family="sans" font-size="10.00">period_proj: 1980&#45;2100</text>
</g>
<!-- 2&#45;&gt;25 -->
<g id="edge70" class="edge">
<title>2&#45;&gt;25</title>
<path fill="none" stroke="grey" stroke-width="2" d="M1109.01,-281.52C1184.04,-268.59 1302.13,-249.29 1405,-237 1596.31,-214.15 1647.85,-237.62 1837,-201 1838.26,-200.76 1839.53,-200.5 1840.8,-200.23"/>
<polygon fill="grey" stroke="grey" stroke-width="2" points="1841.69,-203.62 1850.66,-197.98 1840.13,-196.8 1841.69,-203.62"/>
</g>
<!-- 28 -->
<g id="node29" class="node">
<title>28</title>
<path fill="none" stroke="#5682d8" stroke-width="2" d="M1287,-201C1287,-201 1177,-201 1177,-201 1171,-201 1165,-195 1165,-189 1165,-189 1165,-161 1165,-161 1165,-155 1171,-149 1177,-149 1177,-149 1287,-149 1287,-149 1293,-149 1299,-155 1299,-161 1299,-161 1299,-189 1299,-189 1299,-195 1293,-201 1287,-201"/>
<text text-anchor="middle" x="1232" y="-189" font-family="sans" font-size="10.00">downscale_qt</text>
<text text-anchor="middle" x="1232" y="-178" font-family="sans" font-size="10.00">baseline: worldclim2</text>
<text text-anchor="middle" x="1232" y="-167" font-family="sans" font-size="10.00">period_base: 1980&#45;2005</text>
<text text-anchor="middle" x="1232" y="-156" font-family="sans" font-size="10.00">period_proj: 1980&#45;2100</text>
</g>
<!-- 2&#45;&gt;28 -->
<g id="edge74" class="edge">
<title>2&#45;&gt;28</title>
<path fill="none" stroke="grey" stroke-width="2" d="M1109.09,-249.5C1133.19,-235.08 1159.25,-219.5 1181.14,-206.42"/>
<polygon fill="grey" stroke="grey" stroke-width="2" points="1183.14,-209.29 1189.93,-201.16 1179.55,-203.29 1183.14,-209.29"/>
</g>
<!-- 3 -->
<g id="node4" class="node">
<title>3</title>
<path fill="none" stroke="#d88556" stroke-width="2" d="M1132.5,-427C1132.5,-427 1037.5,-427 1037.5,-427 1031.5,-427 1025.5,-421 1025.5,-415 1025.5,-415 1025.5,-403 1025.5,-403 1025.5,-397 1031.5,-391 1037.5,-391 1037.5,-391 1132.5,-391 1132.5,-391 1138.5,-391 1144.5,-397 1144.5,-403 1144.5,-403 1144.5,-415 1144.5,-415 1144.5,-421 1138.5,-427 1132.5,-427"/>
<text text-anchor="middle" x="1085" y="-412" font-family="sans" font-size="10.00">get_area</text>
<text text-anchor="middle" x="1085" y="-401" font-family="sans" font-size="10.00">area: New&#45;Caledonia</text>
</g>
<!-- 3&#45;&gt;1 -->
<g id="edge20" class="edge">
<title>3&#45;&gt;1</title>
<path fill="none" stroke="grey" stroke-width="2" d="M1025.38,-408.36C826.43,-409.08 193.74,-407.19 120,-355 41.74,-299.62 -8.47,-219.96 56,-149 110.32,-89.22 332.2,-124.98 429.26,-112.91"/>
<polygon fill="grey" stroke="grey" stroke-width="2" points="429.99,-116.34 439.36,-111.39 428.95,-109.41 429.99,-116.34"/>
</g>
<!-- 3&#45;&gt;2 -->
<g id="edge21" class="edge">
<title>3&#45;&gt;2</title>
<path fill="none" stroke="grey" stroke-width="2" d="M1076.88,-390.66C1073.38,-383.19 1069.04,-373.93 1064.47,-364.17"/>
<polygon fill="grey" stroke="grey" stroke-width="2" points="1067.63,-362.67 1060.22,-355.1 1061.29,-365.64 1067.63,-362.67"/>
</g>
<!-- 4 -->
<g id="node5" class="node">
<title>4</title>
<path fill="none" stroke="#afd856" stroke-width="2" d="M554.5,-314C554.5,-314 503.5,-314 503.5,-314 497.5,-314 491.5,-308 491.5,-302 491.5,-302 491.5,-290 491.5,-290 491.5,-284 497.5,-278 503.5,-278 503.5,-278 554.5,-278 554.5,-278 560.5,-278 566.5,-284 566.5,-290 566.5,-290 566.5,-302 566.5,-302 566.5,-308 560.5,-314 554.5,-314"/>
<text text-anchor="middle" x="529" y="-293.5" font-family="sans" font-size="10.00">get_chelsa2</text>
</g>
<!-- 3&#45;&gt;4 -->
<g id="edge22" class="edge">
<title>3&#45;&gt;4</title>
<path fill="none" stroke="grey" stroke-width="2" d="M1025.32,-400.79C956.79,-392.04 841.15,-375.84 743,-355 685.01,-342.69 619.35,-324.2 576.23,-311.42"/>
<polygon fill="grey" stroke="grey" stroke-width="2" points="577.16,-308.05 566.58,-308.54 575.16,-314.76 577.16,-308.05"/>
</g>
<!-- 3&#45;&gt;6 -->
<g id="edge28" class="edge">
<title>3&#45;&gt;6</title>
<path fill="none" stroke="grey" stroke-width="2" d="M1025.14,-408.37C915.9,-407.82 677.54,-400.86 483,-355 301.21,-312.15 197.12,-355.38 92,-201 2.88,-70.12 71.75,-196.13 578.23,-113.14"/>
<polygon fill="grey" stroke="grey" stroke-width="2" points="579.08,-116.55 588.37,-111.46 577.93,-109.65 579.08,-116.55"/>
</g>
<!-- 3&#45;&gt;8 -->
<g id="edge34" class="edge">
<title>3&#45;&gt;8</title>
<path fill="none" stroke="grey" stroke-width="2" d="M1099.33,-390.57C1106.45,-380.76 1114.31,-367.92 1118,-355 1141.3,-273.49 1121.68,-172.1 1109.27,-122.95"/>
<polygon fill="grey" stroke="grey" stroke-width="2" points="1112.59,-121.8 1106.67,-113.01 1105.81,-123.57 1112.59,-121.8"/>
</g>
<!-- 9 -->
<g id="node10" class="node">
<title>9</title>
<path fill="none" stroke="#56d882" stroke-width="2" d="M1782.5,-193C1782.5,-193 1747.5,-193 1747.5,-193 1741.5,-193 1735.5,-187 1735.5,-181 1735.5,-181 1735.5,-169 1735.5,-169 1735.5,-163 1741.5,-157 1747.5,-157 1747.5,-157 1782.5,-157 1782.5,-157 1788.5,-157 1794.5,-163 1794.5,-169 1794.5,-169 1794.5,-181 1794.5,-181 1794.5,-187 1788.5,-193 1782.5,-193"/>
<text text-anchor="middle" x="1765" y="-172.5" font-family="sans" font-size="10.00">get_cru4</text>
</g>
<!-- 3&#45;&gt;9 -->
<g id="edge35" class="edge">
<title>3&#45;&gt;9</title>
<path fill="none" stroke="grey" stroke-width="2" d="M1144.7,-406.93C1294.56,-403.72 1677.73,-391.93 1721,-355 1765.15,-317.32 1768.83,-243.18 1767.22,-203.16"/>
<polygon fill="grey" stroke="grey" stroke-width="2" points="1770.71,-202.86 1766.67,-193.07 1763.72,-203.24 1770.71,-202.86"/>
</g>
<!-- 3&#45;&gt;10 -->
<g id="edge39" class="edge">
<title>3&#45;&gt;10</title>
<path fill="none" stroke="grey" stroke-width="2" d="M1144.64,-405.03C1246.73,-399.23 1450.24,-384.31 1515,-355 1608.78,-312.56 1645.86,-294.92 1688,-201 1697.46,-179.91 1702.21,-167.23 1688,-149 1649.6,-99.73 1612.17,-126.44 1545.84,-112.95"/>
<polygon fill="grey" stroke="grey" stroke-width="2" points="1546.37,-109.48 1535.84,-110.65 1544.81,-116.3 1546.37,-109.48"/>
</g>
<!-- 3&#45;&gt;11 -->
<g id="edge43" class="edge">
<title>3&#45;&gt;11</title>
<path fill="none" stroke="grey" stroke-width="2" d="M1025.48,-401.27C966.55,-393.39 881.89,-378.34 859,-355 796.95,-291.74 796.3,-177.46 799.98,-123.4"/>
<polygon fill="grey" stroke="grey" stroke-width="2" points="803.49,-123.36 800.78,-113.12 796.51,-122.81 803.49,-123.36"/>
</g>
<!-- 13 -->
<g id="node14" class="node">
<title>13</title>
<path fill="none" stroke="#80d856" stroke-width="2" d="M1494,-314C1494,-314 1426,-314 1426,-314 1420,-314 1414,-308 1414,-302 1414,-302 1414,-290 1414,-290 1414,-284 1420,-278 1426,-278 1426,-278 1494,-278 1494,-278 1500,-278 1506,-284 1506,-290 1506,-290 1506,-302 1506,-302 1506,-308 1500,-314 1494,-314"/>
<text text-anchor="middle" x="1460" y="-293.5" font-family="sans" font-size="10.00">get_worldclim2</text>
</g>
<!-- 3&#45;&gt;13 -->
<g id="edge46" class="edge">
<title>3&#45;&gt;13</title>
<path fill="none" stroke="grey" stroke-width="2" d="M1142.77,-390.9C1213.85,-369.86 1333.73,-334.38 1403.99,-313.58"/>
<polygon fill="grey" stroke="grey" stroke-width="2" points="1405.39,-316.81 1413.99,-310.62 1403.4,-310.1 1405.39,-316.81"/>
</g>
<!-- 3&#45;&gt;14 -->
<g id="edge50" class="edge">
<title>3&#45;&gt;14</title>
<path fill="none" stroke="grey" stroke-width="2" d="M1025.3,-394.06C999.5,-385.85 970.2,-373.37 948,-355 885.86,-303.58 874.19,-278.54 852,-201 845.64,-178.78 840.28,-168.92 852,-149 859.57,-136.14 871.31,-126.05 884.13,-118.21"/>
<polygon fill="grey" stroke="grey" stroke-width="2" points="886.14,-121.09 893.13,-113.13 882.7,-114.99 886.14,-121.09"/>
</g>
<!-- 3&#45;&gt;16 -->
<g id="edge56" class="edge">
<title>3&#45;&gt;16</title>
<path fill="none" stroke="grey" stroke-width="2" d="M1144.69,-406.62C1317.81,-402.27 1811.94,-387.15 1877,-355 1975.14,-306.51 2080.87,-234.08 2012,-149 1965.67,-91.76 1921.51,-127.44 1843.95,-112.94"/>
<polygon fill="grey" stroke="grey" stroke-width="2" points="1844.32,-109.44 1833.81,-110.79 1842.87,-116.28 1844.32,-109.44"/>
</g>
<!-- 3&#45;&gt;17 -->
<g id="edge60" class="edge">
<title>3&#45;&gt;17</title>
<path fill="none" stroke="grey" stroke-width="2" d="M1144.76,-407.04C1287.44,-404.16 1644.46,-393.23 1757,-355 1875.94,-314.6 1934.08,-311.4 1994,-201 2005.02,-180.69 2009.34,-166.29 1994,-149 1951.35,-100.93 1775.99,-123.32 1695.05,-112.76"/>
<polygon fill="grey" stroke="grey" stroke-width="2" points="1695.16,-109.23 1684.74,-111.13 1694.07,-116.15 1695.16,-109.23"/>
</g>
<!-- 4&#45;&gt;1 -->
<g id="edge18" class="edge">
<title>4&#45;&gt;1</title>
<path fill="none" stroke="grey" stroke-width="2" d="M504.12,-277.83C482.29,-261.1 452.05,-233.5 439,-201 430.39,-179.55 429.24,-169.95 439,-149 444.39,-137.43 453.5,-127.42 463.26,-119.2"/>
<polygon fill="grey" stroke="grey" stroke-width="2" points="465.46,-121.93 471.17,-113 461.14,-116.42 465.46,-121.93"/>
</g>
<!-- 4&#45;&gt;5 -->
<g id="edge24" class="edge">
<title>4&#45;&gt;5</title>
<path fill="none" stroke="grey" stroke-width="2" d="M548.06,-277.95C568.36,-259.78 600.99,-230.59 626.14,-208.09"/>
<polygon fill="grey" stroke="grey" stroke-width="2" points="628.56,-210.61 633.68,-201.34 623.9,-205.4 628.56,-210.61"/>
</g>
<!-- 4&#45;&gt;6 -->
<g id="edge26" class="edge">
<title>4&#45;&gt;6</title>
<path fill="none" stroke="grey" stroke-width="2" d="M520.88,-277.96C508.29,-248.79 488.15,-188.63 515,-149 523.12,-137.02 550.49,-124.95 578.83,-115.15"/>
<polygon fill="grey" stroke="grey" stroke-width="2" points="580.09,-118.42 588.45,-111.91 577.86,-111.78 580.09,-118.42"/>
</g>
<!-- 4&#45;&gt;7 -->
<g id="edge30" class="edge">
<title>4&#45;&gt;7</title>
<path fill="none" stroke="grey" stroke-width="2" d="M566.54,-283.8C631.45,-264.45 765.9,-224.35 851.27,-198.88"/>
<polygon fill="grey" stroke="grey" stroke-width="2" points="852.33,-202.22 860.91,-196.01 850.33,-195.51 852.33,-202.22"/>
</g>
<!-- 4&#45;&gt;11 -->
<g id="edge41" class="edge">
<title>4&#45;&gt;11</title>
<path fill="none" stroke="grey" stroke-width="2" d="M526.22,-277.9C522.33,-247.56 519.17,-184.17 553,-149 606.19,-93.71 647.88,-128.22 727.39,-113.12"/>
<polygon fill="grey" stroke="grey" stroke-width="2" points="728.22,-116.52 737.28,-111.02 726.77,-109.67 728.22,-116.52"/>
</g>
<!-- 4&#45;&gt;14 -->
<g id="edge48" class="edge">
<title>4&#45;&gt;14</title>
<path fill="none" stroke="grey" stroke-width="2" d="M533.31,-277.93C542.49,-243.04 564.84,-165.45 586,-149 635.41,-110.61 798.89,-124.05 876.43,-112.95"/>
<polygon fill="grey" stroke="grey" stroke-width="2" points="877.05,-116.39 886.34,-111.29 875.9,-109.49 877.05,-116.39"/>
</g>
<!-- 4&#45;&gt;19 -->
<g id="edge63" class="edge">
<title>4&#45;&gt;19</title>
<path fill="none" stroke="grey" stroke-width="2" d="M499.06,-277.95C466.21,-259.25 412.86,-228.87 372.93,-206.14"/>
<polygon fill="grey" stroke="grey" stroke-width="2" points="374.53,-203.02 364.11,-201.12 371.07,-209.1 374.53,-203.02"/>
</g>
<!-- 4&#45;&gt;22 -->
<g id="edge67" class="edge">
<title>4&#45;&gt;22</title>
<path fill="none" stroke="grey" stroke-width="2" d="M491.39,-282.6C433.29,-263.45 320.51,-226.27 244.71,-201.29"/>
<polygon fill="grey" stroke="grey" stroke-width="2" points="245.79,-197.96 235.2,-198.15 243.6,-204.6 245.79,-197.96"/>
</g>
<!-- 5&#45;&gt;1 -->
<g id="edge19" class="edge">
<title>5&#45;&gt;1</title>
<path fill="none" stroke="grey" stroke-width="2" d="M613.18,-148.97C593.68,-138.97 571.31,-127.5 551.99,-117.59"/>
<polygon fill="grey" stroke="grey" stroke-width="2" points="553.56,-114.46 543.06,-113.02 550.36,-120.69 553.56,-114.46"/>
</g>
<!-- 5&#45;&gt;8 -->
<g id="edge33" class="edge">
<title>5&#45;&gt;8</title>
<path fill="none" stroke="grey" stroke-width="2" d="M729.29,-164.65C800.64,-154.31 916.78,-136.26 1025.49,-113.24"/>
<polygon fill="grey" stroke="grey" stroke-width="2" points="1026.26,-116.66 1035.31,-111.15 1024.8,-109.81 1026.26,-116.66"/>
</g>
<!-- 6&#45;&gt;0 -->
<g id="edge2" class="edge">
<title>6&#45;&gt;0</title>
<path fill="none" stroke="grey" stroke-width="2" d="M719.78,-74.09C722.89,-73.36 725.98,-72.66 729,-72 821.77,-51.69 932.11,-33.57 988.6,-24.72"/>
<polygon fill="grey" stroke="grey" stroke-width="2" points="989.49,-28.12 998.83,-23.12 988.41,-21.2 989.49,-28.12"/>
</g>
<!-- 7&#45;&gt;6 -->
<g id="edge27" class="edge">
<title>7&#45;&gt;6</title>
<path fill="none" stroke="grey" stroke-width="2" d="M860.97,-154.31C821.22,-142.63 770.73,-127.8 729.57,-115.7"/>
<polygon fill="grey" stroke="grey" stroke-width="2" points="730.44,-112.31 719.86,-112.85 728.47,-119.03 730.44,-112.31"/>
</g>
<!-- 7&#45;&gt;10 -->
<g id="edge38" class="edge">
<title>7&#45;&gt;10</title>
<path fill="none" stroke="grey" stroke-width="2" d="M995.14,-166.28C1101.27,-153.9 1304.17,-129.5 1394.34,-112.96"/>
<polygon fill="grey" stroke="grey" stroke-width="2" points="1395.08,-116.39 1404.26,-111.09 1393.78,-109.51 1395.08,-116.39"/>
</g>
<!-- 8&#45;&gt;0 -->
<g id="edge3" class="edge">
<title>8&#45;&gt;0</title>
<path fill="none" stroke="grey" stroke-width="2" d="M1080.51,-71.69C1071.47,-62.96 1060.77,-52.61 1051.24,-43.4"/>
<polygon fill="grey" stroke="grey" stroke-width="2" points="1053.54,-40.75 1043.92,-36.32 1048.67,-45.79 1053.54,-40.75"/>
</g>
<!-- 9&#45;&gt;8 -->
<g id="edge32" class="edge">
<title>9&#45;&gt;8</title>
<path fill="none" stroke="grey" stroke-width="2" d="M1735.46,-162.54C1721.31,-157.54 1704,-152.11 1688,-149 1467.36,-106.09 1403,-148.58 1176.9,-112.95"/>
<polygon fill="grey" stroke="grey" stroke-width="2" points="1177.13,-109.45 1166.7,-111.31 1176.02,-116.36 1177.13,-109.45"/>
</g>
<!-- 9&#45;&gt;10 -->
<g id="edge37" class="edge">
<title>9&#45;&gt;10</title>
<path fill="none" stroke="grey" stroke-width="2" d="M1737.71,-156.75C1732.32,-153.85 1726.59,-151.1 1721,-149 1649.17,-122.03 1624.69,-130.32 1545.71,-113.05"/>
<polygon fill="grey" stroke="grey" stroke-width="2" points="1546.33,-109.61 1535.8,-110.82 1544.79,-116.43 1546.33,-109.61"/>
</g>
<!-- 9&#45;&gt;16 -->
<g id="edge54" class="edge">
<title>9&#45;&gt;16</title>
<path fill="none" stroke="grey" stroke-width="2" d="M1765.64,-156.93C1766,-147.1 1766.47,-134.49 1766.9,-123.1"/>
<polygon fill="grey" stroke="grey" stroke-width="2" points="1770.39,-123.22 1767.27,-113.1 1763.4,-122.96 1770.39,-123.22"/>
</g>
<!-- 9&#45;&gt;17 -->
<g id="edge58" class="edge">
<title>9&#45;&gt;17</title>
<path fill="none" stroke="grey" stroke-width="2" d="M1735.22,-156.98C1730.47,-154.3 1725.61,-151.56 1721,-149 1702.55,-138.74 1682.12,-127.58 1664.42,-117.98"/>
<polygon fill="grey" stroke="grey" stroke-width="2" points="1665.9,-114.8 1655.44,-113.12 1662.56,-120.96 1665.9,-114.8"/>
</g>
<!-- 10&#45;&gt;0 -->
<g id="edge4" class="edge">
<title>10&#45;&gt;0</title>
<path fill="none" stroke="grey" stroke-width="2" d="M1404.25,-73.96C1401.13,-73.27 1398.03,-72.61 1395,-72 1274.55,-47.77 1129.82,-30.33 1063.06,-22.93"/>
<polygon fill="grey" stroke="grey" stroke-width="2" points="1063.35,-19.45 1053.03,-21.83 1062.59,-26.4 1063.35,-19.45"/>
</g>
<!-- 11&#45;&gt;0 -->
<g id="edge5" class="edge">
<title>11&#45;&gt;0</title>
<path fill="none" stroke="grey" stroke-width="2" d="M863.05,-71.98C903.33,-58.88 955.07,-42.06 989.32,-30.93"/>
<polygon fill="grey" stroke="grey" stroke-width="2" points="990.49,-34.22 998.92,-27.8 988.33,-27.57 990.49,-34.22"/>
</g>
<!-- 12&#45;&gt;11 -->
<g id="edge42" class="edge">
<title>12&#45;&gt;11</title>
<path fill="none" stroke="grey" stroke-width="2" d="M1392.82,-161.77C1366.45,-157.28 1335.87,-152.45 1308,-149 1120.93,-125.82 1068.82,-144.58 878.75,-112.96"/>
<polygon fill="grey" stroke="grey" stroke-width="2" points="879.16,-109.48 868.71,-111.26 877.99,-116.38 879.16,-109.48"/>
</g>
<!-- 12&#45;&gt;16 -->
<g id="edge55" class="edge">
<title>12&#45;&gt;16</title>
<path fill="none" stroke="grey" stroke-width="2" d="M1527.03,-151.57C1530.06,-150.68 1533.06,-149.82 1536,-149 1602.41,-130.55 1622.36,-130.18 1692.5,-113.32"/>
<polygon fill="grey" stroke="grey" stroke-width="2" points="1693.37,-116.71 1702.26,-110.95 1691.72,-109.91 1693.37,-116.71"/>
</g>
<!-- 13&#45;&gt;12 -->
<g id="edge45" class="edge">
<title>13&#45;&gt;12</title>
<path fill="none" stroke="grey" stroke-width="2" d="M1460,-277.95C1460,-260.72 1460,-233.58 1460,-211.63"/>
<polygon fill="grey" stroke="grey" stroke-width="2" points="1463.5,-211.34 1460,-201.34 1456.5,-211.34 1463.5,-211.34"/>
</g>
<!-- 13&#45;&gt;15 -->
<g id="edge52" class="edge">
<title>13&#45;&gt;15</title>
<path fill="none" stroke="grey" stroke-width="2" d="M1481.78,-277.95C1505.26,-259.56 1543.16,-229.89 1572.04,-207.29"/>
<polygon fill="grey" stroke="grey" stroke-width="2" points="1574.2,-210.04 1579.92,-201.12 1569.89,-204.52 1574.2,-210.04"/>
</g>
<!-- 13&#45;&gt;25 -->
<g id="edge71" class="edge">
<title>13&#45;&gt;25</title>
<path fill="none" stroke="grey" stroke-width="2" d="M1506.06,-284.38C1577.31,-267.75 1718.42,-234.06 1837,-201 1838.42,-200.6 1839.85,-200.2 1841.29,-199.79"/>
<polygon fill="grey" stroke="grey" stroke-width="2" points="1842.26,-203.16 1850.9,-197.02 1840.32,-196.43 1842.26,-203.16"/>
</g>
<!-- 13&#45;&gt;28 -->
<g id="edge75" class="edge">
<title>13&#45;&gt;28</title>
<path fill="none" stroke="grey" stroke-width="2" d="M1427.33,-277.95C1391.35,-259.17 1332.82,-228.62 1289.19,-205.85"/>
<polygon fill="grey" stroke="grey" stroke-width="2" points="1290.6,-202.64 1280.12,-201.12 1287.37,-208.85 1290.6,-202.64"/>
</g>
<!-- 14&#45;&gt;0 -->
<g id="edge6" class="edge">
<title>14&#45;&gt;0</title>
<path fill="none" stroke="grey" stroke-width="2" d="M972.22,-71.69C981.14,-62.96 991.7,-52.61 1001.09,-43.4"/>
<polygon fill="grey" stroke="grey" stroke-width="2" points="1003.63,-45.82 1008.32,-36.32 998.73,-40.82 1003.63,-45.82"/>
</g>
<!-- 15&#45;&gt;14 -->
<g id="edge49" class="edge">
<title>15&#45;&gt;14</title>
<path fill="none" stroke="grey" stroke-width="2" d="M1544.69,-150.9C1541.77,-150.2 1538.86,-149.56 1536,-149 1316.74,-105.87 1252.67,-148.4 1027.84,-112.95"/>
<polygon fill="grey" stroke="grey" stroke-width="2" points="1028.13,-109.45 1017.7,-111.31 1027.02,-116.36 1028.13,-109.45"/>
</g>
<!-- 15&#45;&gt;17 -->
<g id="edge59" class="edge">
<title>15&#45;&gt;17</title>
<path fill="none" stroke="grey" stroke-width="2" d="M1614.18,-148.97C1614.88,-140.86 1615.67,-131.78 1616.4,-123.35"/>
<polygon fill="grey" stroke="grey" stroke-width="2" points="1619.91,-123.41 1617.29,-113.15 1612.94,-122.81 1619.91,-123.41"/>
</g>
<!-- 16&#45;&gt;0 -->
<g id="edge7" class="edge">
<title>16&#45;&gt;0</title>
<path fill="none" stroke="grey" stroke-width="2" d="M1702.37,-73.55C1699.55,-72.99 1696.75,-72.47 1694,-72 1456.12,-31.55 1165.21,-21.86 1063.35,-19.63"/>
<polygon fill="grey" stroke="grey" stroke-width="2" points="1063.33,-16.13 1053.26,-19.42 1063.18,-23.13 1063.33,-16.13"/>
</g>
<!-- 17&#45;&gt;0 -->
<g id="edge8" class="edge">
<title>17&#45;&gt;0</title>
<path fill="none" stroke="grey" stroke-width="2" d="M1553.35,-73.63C1550.54,-73.05 1547.75,-72.5 1545,-72 1366.21,-39.52 1148.88,-25.4 1063.24,-20.81"/>
<polygon fill="grey" stroke="grey" stroke-width="2" points="1063.39,-17.31 1053.22,-20.28 1063.03,-24.3 1063.39,-17.31"/>
</g>
<!-- 18 -->
<g id="node19" class="node">
<title>18</title>
<path fill="none" stroke="#d85656" stroke-width="2" d="M409.5,-110.5C409.5,-110.5 342.5,-110.5 342.5,-110.5 336.5,-110.5 330.5,-104.5 330.5,-98.5 330.5,-98.5 330.5,-86.5 330.5,-86.5 330.5,-80.5 336.5,-74.5 342.5,-74.5 342.5,-74.5 409.5,-74.5 409.5,-74.5 415.5,-74.5 421.5,-80.5 421.5,-86.5 421.5,-86.5 421.5,-98.5 421.5,-98.5 421.5,-104.5 415.5,-110.5 409.5,-110.5"/>
<text text-anchor="middle" x="376" y="-95.5" font-family="sans" font-size="10.00">ensemble_sma</text>
<text text-anchor="middle" x="376" y="-84.5" font-family="sans" font-size="10.00">ds_method: bc</text>
</g>
<!-- 18&#45;&gt;0 -->
<g id="edge9" class="edge">
<title>18&#45;&gt;0</title>
<path fill="none" stroke="grey" stroke-width="2" d="M421.36,-74.42C424.6,-73.51 427.83,-72.69 431,-72 638.32,-26.77 894.34,-19.99 988.76,-19.08"/>
<polygon fill="grey" stroke="grey" stroke-width="2" points="988.98,-22.58 998.95,-19 988.92,-15.58 988.98,-22.58"/>
</g>
<!-- 19&#45;&gt;18 -->
<g id="edge61" class="edge">
<title>19&#45;&gt;18</title>
<path fill="none" stroke="grey" stroke-width="2" d="M337.41,-148.97C344.05,-139.43 351.62,-128.55 358.28,-118.97"/>
<polygon fill="grey" stroke="grey" stroke-width="2" points="361.26,-120.82 364.1,-110.61 355.51,-116.82 361.26,-120.82"/>
</g>
<!-- 20 -->
<g id="node21" class="node">
<title>20</title>
<path fill="none" stroke="#56d8a9" stroke-width="2" d="M300,-110.5C300,-110.5 232,-110.5 232,-110.5 226,-110.5 220,-104.5 220,-98.5 220,-98.5 220,-86.5 220,-86.5 220,-80.5 226,-74.5 232,-74.5 232,-74.5 300,-74.5 300,-74.5 306,-74.5 312,-80.5 312,-86.5 312,-86.5 312,-98.5 312,-98.5 312,-104.5 306,-110.5 300,-110.5"/>
<text text-anchor="middle" x="266" y="-95.5" font-family="sans" font-size="10.00">ensemble_bma</text>
<text text-anchor="middle" x="266" y="-84.5" font-family="sans" font-size="10.00">ds_method: bc</text>
</g>
<!-- 19&#45;&gt;20 -->
<g id="edge64" class="edge">
<title>19&#45;&gt;20</title>
<path fill="none" stroke="grey" stroke-width="2" d="M303.21,-148.97C296.81,-139.43 289.51,-128.55 283.08,-118.97"/>
<polygon fill="grey" stroke="grey" stroke-width="2" points="285.96,-116.97 277.48,-110.61 280.14,-120.86 285.96,-116.97"/>
</g>
<!-- 20&#45;&gt;0 -->
<g id="edge10" class="edge">
<title>20&#45;&gt;0</title>
<path fill="none" stroke="grey" stroke-width="2" d="M311.88,-74.46C315.27,-73.53 318.67,-72.69 322,-72 572.59,-19.87 882.81,-17.52 988.62,-18.43"/>
<polygon fill="grey" stroke="grey" stroke-width="2" points="988.76,-21.93 998.79,-18.53 988.83,-14.93 988.76,-21.93"/>
</g>
<!-- 21 -->
<g id="node22" class="node">
<title>21</title>
<path fill="none" stroke="#d85656" stroke-width="2" d="M189.5,-110.5C189.5,-110.5 122.5,-110.5 122.5,-110.5 116.5,-110.5 110.5,-104.5 110.5,-98.5 110.5,-98.5 110.5,-86.5 110.5,-86.5 110.5,-80.5 116.5,-74.5 122.5,-74.5 122.5,-74.5 189.5,-74.5 189.5,-74.5 195.5,-74.5 201.5,-80.5 201.5,-86.5 201.5,-86.5 201.5,-98.5 201.5,-98.5 201.5,-104.5 195.5,-110.5 189.5,-110.5"/>
<text text-anchor="middle" x="156" y="-95.5" font-family="sans" font-size="10.00">ensemble_sma</text>
<text text-anchor="middle" x="156" y="-84.5" font-family="sans" font-size="10.00">ds_method: qt</text>
</g>
<!-- 21&#45;&gt;0 -->
<g id="edge11" class="edge">
<title>21&#45;&gt;0</title>
<path fill="none" stroke="grey" stroke-width="2" d="M201.04,-74.42C204.38,-73.5 207.73,-72.67 211,-72 362.77,-40.79 849.42,-24.24 988.53,-20.07"/>
<polygon fill="grey" stroke="grey" stroke-width="2" points="988.8,-23.56 998.69,-19.77 988.59,-16.56 988.8,-23.56"/>
</g>
<!-- 22&#45;&gt;21 -->
<g id="edge65" class="edge">
<title>22&#45;&gt;21</title>
<path fill="none" stroke="grey" stroke-width="2" d="M164.27,-148.97C162.93,-140.01 161.42,-129.88 160.06,-120.74"/>
<polygon fill="grey" stroke="grey" stroke-width="2" points="163.49,-119.99 158.55,-110.61 156.56,-121.02 163.49,-119.99"/>
</g>
<!-- 23 -->
<g id="node24" class="node">
<title>23</title>
<path fill="none" stroke="#56d8a9" stroke-width="2" d="M80,-110.5C80,-110.5 12,-110.5 12,-110.5 6,-110.5 0,-104.5 0,-98.5 0,-98.5 0,-86.5 0,-86.5 0,-80.5 6,-74.5 12,-74.5 12,-74.5 80,-74.5 80,-74.5 86,-74.5 92,-80.5 92,-86.5 92,-86.5 92,-98.5 92,-98.5 92,-104.5 86,-110.5 80,-110.5"/>
<text text-anchor="middle" x="46" y="-95.5" font-family="sans" font-size="10.00">ensemble_bma</text>
<text text-anchor="middle" x="46" y="-84.5" font-family="sans" font-size="10.00">ds_method: qt</text>
</g>
<!-- 22&#45;&gt;23 -->
<g id="edge68" class="edge">
<title>22&#45;&gt;23</title>
<path fill="none" stroke="grey" stroke-width="2" d="M130.07,-148.97C114.28,-138.55 96.07,-126.54 80.65,-116.36"/>
<polygon fill="grey" stroke="grey" stroke-width="2" points="82.21,-113.2 71.93,-110.61 78.35,-119.04 82.21,-113.2"/>
</g>
<!-- 23&#45;&gt;0 -->
<g id="edge12" class="edge">
<title>23&#45;&gt;0</title>
<path fill="none" stroke="grey" stroke-width="2" d="M90.73,-74.48C94.17,-73.52 97.62,-72.68 101,-72 275.19,-36.87 837.73,-22.9 988.52,-19.73"/>
<polygon fill="grey" stroke="grey" stroke-width="2" points="988.73,-23.23 998.65,-19.52 988.58,-16.23 988.73,-23.23"/>
</g>
<!-- 24 -->
<g id="node25" class="node">
<title>24</title>
<path fill="none" stroke="#d85656" stroke-width="2" d="M2041.5,-110.5C2041.5,-110.5 1974.5,-110.5 1974.5,-110.5 1968.5,-110.5 1962.5,-104.5 1962.5,-98.5 1962.5,-98.5 1962.5,-86.5 1962.5,-86.5 1962.5,-80.5 1968.5,-74.5 1974.5,-74.5 1974.5,-74.5 2041.5,-74.5 2041.5,-74.5 2047.5,-74.5 2053.5,-80.5 2053.5,-86.5 2053.5,-86.5 2053.5,-98.5 2053.5,-98.5 2053.5,-104.5 2047.5,-110.5 2041.5,-110.5"/>
<text text-anchor="middle" x="2008" y="-95.5" font-family="sans" font-size="10.00">ensemble_sma</text>
<text text-anchor="middle" x="2008" y="-84.5" font-family="sans" font-size="10.00">ds_method: bc</text>
</g>
<!-- 24&#45;&gt;0 -->
<g id="edge13" class="edge">
<title>24&#45;&gt;0</title>
<path fill="none" stroke="grey" stroke-width="2" d="M1963.27,-74.48C1959.83,-73.52 1956.38,-72.68 1953,-72 1778.43,-36.81 1214.67,-22.88 1063.56,-19.73"/>
<polygon fill="grey" stroke="grey" stroke-width="2" points="1063.47,-16.23 1053.41,-19.52 1063.33,-23.23 1063.47,-16.23"/>
</g>
<!-- 25&#45;&gt;24 -->
<g id="edge69" class="edge">
<title>25&#45;&gt;24</title>
<path fill="none" stroke="grey" stroke-width="2" d="M1945.98,-148.97C1957.19,-138.94 1970.06,-127.44 1981.15,-117.51"/>
<polygon fill="grey" stroke="grey" stroke-width="2" points="1983.75,-119.89 1988.87,-110.61 1979.08,-114.67 1983.75,-119.89"/>
</g>
<!-- 26 -->
<g id="node27" class="node">
<title>26</title>
<path fill="none" stroke="#56d8a9" stroke-width="2" d="M1932,-110.5C1932,-110.5 1864,-110.5 1864,-110.5 1858,-110.5 1852,-104.5 1852,-98.5 1852,-98.5 1852,-86.5 1852,-86.5 1852,-80.5 1858,-74.5 1864,-74.5 1864,-74.5 1932,-74.5 1932,-74.5 1938,-74.5 1944,-80.5 1944,-86.5 1944,-86.5 1944,-98.5 1944,-98.5 1944,-104.5 1938,-110.5 1932,-110.5"/>
<text text-anchor="middle" x="1898" y="-95.5" font-family="sans" font-size="10.00">ensemble_bma</text>
<text text-anchor="middle" x="1898" y="-84.5" font-family="sans" font-size="10.00">ds_method: bc</text>
</g>
<!-- 25&#45;&gt;26 -->
<g id="edge72" class="edge">
<title>25&#45;&gt;26</title>
<path fill="none" stroke="grey" stroke-width="2" d="M1911.78,-148.97C1909.53,-139.92 1906.98,-129.66 1904.69,-120.45"/>
<polygon fill="grey" stroke="grey" stroke-width="2" points="1908.06,-119.47 1902.25,-110.61 1901.27,-121.16 1908.06,-119.47"/>
</g>
<!-- 26&#45;&gt;0 -->
<g id="edge14" class="edge">
<title>26&#45;&gt;0</title>
<path fill="none" stroke="grey" stroke-width="2" d="M1852.96,-74.42C1849.62,-73.5 1846.27,-72.67 1843,-72 1690.86,-40.72 1203.01,-24.22 1063.56,-20.06"/>
<polygon fill="grey" stroke="grey" stroke-width="2" points="1063.48,-16.56 1053.38,-19.76 1063.27,-23.56 1063.48,-16.56"/>
</g>
<!-- 27 -->
<g id="node28" class="node">
<title>27</title>
<path fill="none" stroke="#d85656" stroke-width="2" d="M1263.5,-110.5C1263.5,-110.5 1196.5,-110.5 1196.5,-110.5 1190.5,-110.5 1184.5,-104.5 1184.5,-98.5 1184.5,-98.5 1184.5,-86.5 1184.5,-86.5 1184.5,-80.5 1190.5,-74.5 1196.5,-74.5 1196.5,-74.5 1263.5,-74.5 1263.5,-74.5 1269.5,-74.5 1275.5,-80.5 1275.5,-86.5 1275.5,-86.5 1275.5,-98.5 1275.5,-98.5 1275.5,-104.5 1269.5,-110.5 1263.5,-110.5"/>
<text text-anchor="middle" x="1230" y="-95.5" font-family="sans" font-size="10.00">ensemble_sma</text>
<text text-anchor="middle" x="1230" y="-84.5" font-family="sans" font-size="10.00">ds_method: qt</text>
</g>
<!-- 27&#45;&gt;0 -->
<g id="edge15" class="edge">
<title>27&#45;&gt;0</title>
<path fill="none" stroke="grey" stroke-width="2" d="M1184.34,-74.99C1181.52,-73.97 1178.72,-72.97 1176,-72 1137.44,-58.23 1093.24,-42.63 1062.86,-31.95"/>
<polygon fill="grey" stroke="grey" stroke-width="2" points="1063.71,-28.53 1053.12,-28.52 1061.39,-35.14 1063.71,-28.53"/>
</g>
<!-- 28&#45;&gt;27 -->
<g id="edge73" class="edge">
<title>28&#45;&gt;27</title>
<path fill="none" stroke="grey" stroke-width="2" d="M1231.38,-148.97C1231.16,-140.01 1230.9,-129.88 1230.68,-120.74"/>
<polygon fill="grey" stroke="grey" stroke-width="2" points="1234.17,-120.52 1230.43,-110.61 1227.17,-120.69 1234.17,-120.52"/>
</g>
<!-- 29 -->
<g id="node30" class="node">
<title>29</title>
<path fill="none" stroke="#56d8a9" stroke-width="2" d="M1374,-110.5C1374,-110.5 1306,-110.5 1306,-110.5 1300,-110.5 1294,-104.5 1294,-98.5 1294,-98.5 1294,-86.5 1294,-86.5 1294,-80.5 1300,-74.5 1306,-74.5 1306,-74.5 1374,-74.5 1374,-74.5 1380,-74.5 1386,-80.5 1386,-86.5 1386,-86.5 1386,-98.5 1386,-98.5 1386,-104.5 1380,-110.5 1374,-110.5"/>
<text text-anchor="middle" x="1340" y="-95.5" font-family="sans" font-size="10.00">ensemble_bma</text>
<text text-anchor="middle" x="1340" y="-84.5" font-family="sans" font-size="10.00">ds_method: qt</text>
</g>
<!-- 28&#45;&gt;29 -->
<g id="edge76" class="edge">
<title>28&#45;&gt;29</title>
<path fill="none" stroke="grey" stroke-width="2" d="M1265.58,-148.97C1279.43,-138.65 1295.37,-126.77 1308.94,-116.65"/>
<polygon fill="grey" stroke="grey" stroke-width="2" points="1311.12,-119.39 1317.04,-110.61 1306.93,-113.78 1311.12,-119.39"/>
</g>
<!-- 29&#45;&gt;0 -->
<g id="edge16" class="edge">
<title>29&#45;&gt;0</title>
<path fill="none" stroke="grey" stroke-width="2" d="M1293.94,-74.64C1290.93,-73.71 1287.93,-72.81 1285,-72 1207.18,-50.36 1113.96,-33.42 1063.29,-24.95"/>
<polygon fill="grey" stroke="grey" stroke-width="2" points="1063.58,-21.45 1053.14,-23.28 1062.43,-28.36 1063.58,-21.45"/>
</g>
</g>
</svg>
